<svg width="46" height="45" viewBox="0 0 46 45" fill="none" xmlns="http://www.w3.org/2000/svg">
<path d="M31.6989 21.5584L21.9161 31.3412C19.9835 33.2737 16.849 33.5788 14.7408 31.8405C12.3274 29.8525 12.198 26.2649 14.3617 24.1012L25.7903 12.6725C27.0016 11.4612 28.9711 11.2301 30.2934 12.3119C31.8191 13.5602 31.9023 15.8071 30.543 17.1663L20.8342 26.8751C20.3257 27.3837 19.4935 27.3837 18.9849 26.8751C18.4764 26.3666 18.4764 25.5344 18.9849 25.0258L27.0756 16.9351C27.4547 16.556 27.4547 15.9273 27.0756 15.5482C26.6965 15.1691 26.0677 15.1691 25.6886 15.5482L17.7274 23.5094C16.5161 24.7207 16.2849 26.6902 17.3668 28.0124C18.6151 29.5381 20.862 29.6213 22.2212 28.2621L31.7728 18.7105C33.7053 16.7779 34.0105 13.6434 32.2721 11.5352C30.2749 9.1126 26.6965 8.9924 24.5328 11.1561L13.1874 22.5015C10.5336 25.1553 10.099 29.4734 12.4939 32.3675C15.2586 35.687 20.1685 35.8627 23.1458 32.8853L33.0858 22.9454C33.4649 22.5663 33.4649 21.9375 33.0858 21.5584C32.7067 21.1793 32.078 21.1793 31.6989 21.5584Z" fill="#9B9999"/>
</svg>
