<svg width="28" height="29" viewBox="0 0 28 29" fill="none" xmlns="http://www.w3.org/2000/svg">
<path d="M3.5 25.3408H24.5M16.0818 7.03782C16.0818 7.03782 16.0818 8.94488 17.9889 10.8519C19.8959 12.759 21.803 12.759 21.803 12.759M8.53956 21.8269L12.5444 21.2548C13.1221 21.1723 13.6574 20.9046 14.07 20.492L23.7101 10.8519C24.7633 9.7987 24.7633 8.09106 23.7101 7.03781L21.803 5.13075C20.7498 4.07751 19.0421 4.07751 17.9889 5.13075L8.34886 14.7708C7.93623 15.1834 7.66856 15.7187 7.58603 16.2964L7.01391 20.3013C6.88678 21.1912 7.6496 21.954 8.53956 21.8269Z" stroke="#485174" stroke-width="2" stroke-linecap="round"/>
</svg>
