<svg width="24" height="25" viewBox="0 0 24 25" fill="none" xmlns="http://www.w3.org/2000/svg">
<path fill-rule="evenodd" clip-rule="evenodd" d="M5 3.5H19C20.1 3.5 21 4.4 21 5.5V19.5C21 20.6 20.1 21.5 19 21.5H5C3.9 21.5 3 20.6 3 19.5V16.5C3 15.95 3.45 15.5 4 15.5C4.55 15.5 5 15.95 5 16.5V18.5C5 19.05 5.45 19.5 6 19.5H18C18.55 19.5 19 19.05 19 18.5V6.5C19 5.95 18.55 5.5 18 5.5H6C5.45 5.5 5 5.95 5 6.5V8.5C5 9.05 4.55 9.5 4 9.5C3.45 9.5 3 9.05 3 8.5V5.5C3 4.4 3.89 3.5 5 3.5ZM15.79 13.2L12.2 16.79C11.81 17.18 11.18 17.18 10.79 16.79C10.41 16.41 10.4 15.77 10.79 15.38L12.67 13.5H4C3.45 13.5 3 13.05 3 12.5C3 11.95 3.45 11.5 4 11.5H12.67L10.79 9.61C10.4 9.22 10.4 8.59 10.79 8.2C10.9768 8.01275 11.2305 7.90751 11.495 7.90751C11.7595 7.90751 12.0132 8.01275 12.2 8.2L15.79 11.79C16.18 12.18 16.18 12.81 15.79 13.2Z" fill="#485174"/>
</svg>
