<svg viewBox="0 0 24 24" fill="none" xmlns="http://www.w3.org/2000/svg"><g id="SVGRepo_bgCarrier" stroke-width="0"></g><g id="SVGRepo_tracerCarrier" stroke-linecap="round" stroke-linejoin="round"></g><g id="SVGRepo_iconCarrier"> <path d="M12 7C7.60743 7 4.49054 10.5081 3.41345 11.9208C3.15417 12.2609 3.17881 12.7211 3.4696 13.0347C4.66556 14.3243 8.01521 17.5 12 17.5C15.9848 17.5 19.3344 14.3243 20.5304 13.0347C20.8212 12.7211 20.8458 12.2609 20.5865 11.9208C19.5095 10.5081 16.3926 7 12 7Z" stroke="#000000" stroke-width="2"></path> <path d="M14 12C14 13.1046 13.1046 14 12 14C10.8954 14 10 13.1046 10 12C10 10.8954 10.8954 10 12 10C13.1046 10 14 10.8954 14 12Z" fill="#000000"></path> </g></svg>