<svg width="332" height="316" viewBox="0 0 332 316" fill="none" xmlns="http://www.w3.org/2000/svg">
<g opacity="0.8">
<path d="M150.483 108.542C150.499 119.048 148.476 129.45 144.537 139.124C140.599 148.798 134.824 157.545 127.56 164.841L127.345 165.061V165.085H127.317C127.218 165.188 127.12 165.29 127.017 165.388L126.923 165.48C124.944 167.429 122.864 169.264 120.691 170.975L120.415 171.195C116.566 174.2 112.449 176.814 108.121 179.003L107.652 179.227C106.243 179.93 104.808 180.581 103.348 181.179C99.8687 182.643 96.287 183.829 92.6344 184.727C91.6497 184.971 90.6557 185.192 89.6523 185.39C87.88 185.747 86.0842 186.044 84.2697 186.264C82.8256 186.449 81.3675 186.588 79.8952 186.679C79.2107 186.723 78.5261 186.757 77.8368 186.781C76.9741 186.815 76.1114 186.83 75.244 186.83C74.3766 186.83 73.4482 186.83 72.5574 186.781C71.0664 186.728 69.5942 186.625 68.1266 186.484C67.4796 186.42 66.8326 186.347 66.1902 186.264C58.0857 185.259 50.1945 182.877 42.8312 179.213L42.3858 178.988C38.0584 176.799 33.9419 174.184 30.092 171.18L29.8154 170.961C27.5934 169.209 25.4676 167.329 23.4481 165.329C23.3853 165.274 23.3259 165.216 23.27 165.153L23.2277 165.11L23.1762 165.061L22.8902 164.773L22.8573 164.739L22.6463 164.524C13.7707 155.492 7.17917 144.315 3.45914 131.99C-0.260889 119.664 -0.993919 106.572 1.3252 93.8802C3.64431 81.1883 8.94356 69.2904 16.751 59.2465C24.5585 49.2025 34.6318 41.3243 46.0734 36.3137C57.515 31.3031 69.9697 29.3158 82.3281 30.5286C94.6864 31.7414 106.565 36.1166 116.905 43.2648C127.245 50.4129 135.726 60.112 141.592 71.4978C147.458 82.8837 150.527 95.6028 150.526 108.522L150.483 108.542Z" fill="#BDE3FF" fill-opacity="0.8"/>
<path d="M127.56 164.841L127.345 165.061V165.085H127.316C127.218 165.188 127.12 165.29 127.016 165.388L126.923 165.48C124.944 167.429 122.864 169.264 120.691 170.975L120.415 171.195C116.566 174.2 112.449 176.814 108.121 179.003L107.652 179.227C106.242 179.93 104.808 180.581 103.348 181.179C99.8686 182.643 96.2869 183.829 92.6342 184.727C91.6496 184.971 90.6556 185.192 89.6522 185.391C87.8799 185.747 86.0841 186.044 84.2696 186.264H66.1901C58.0856 185.259 50.1944 182.877 42.8311 179.213L42.3856 178.988C38.0583 176.799 33.9417 174.184 30.0919 171.18L29.8153 170.961C27.5933 169.209 25.4675 167.329 23.448 165.329C23.3852 165.275 23.3258 165.216 23.2699 165.154L23.2276 165.11L23.1761 165.061L22.8901 164.773L22.8572 164.739L22.6462 164.524C22.8197 164.275 22.9886 164.036 23.162 163.792C25.2871 160.851 27.7111 158.158 30.392 155.76C30.6545 155.521 30.9171 155.272 31.1796 155.062C35.4796 151.415 40.5055 148.81 45.8928 147.435C47.9437 146.895 49.923 146.095 51.7864 145.053C53.5955 144.048 55.2553 142.776 56.7142 141.276C57.0997 140.883 57.4585 140.462 57.7879 140.017V118.975H58.2568L89.2725 119.2H89.6757V140.007L89.7085 140.046C89.9851 140.403 91.9965 142.872 96.1038 145.034C98.364 146.215 100.763 147.083 103.24 147.615C108.151 148.71 112.784 150.872 116.837 153.959C117.569 154.515 118.314 155.106 119.074 155.745C121.928 158.121 124.524 160.814 126.815 163.777C127.035 164.148 127.288 164.49 127.56 164.841Z" fill="#FFFFFE" stroke="#2D334A" stroke-width="0.937737" stroke-linecap="round" stroke-linejoin="round"/>
<path d="M57.7549 118.99C57.7549 118.99 61.0089 130.214 74.3904 133.298C88.0626 136.455 89.6519 128.145 89.6519 128.145V119.224C89.6519 119.224 73.7105 129.76 65.6881 124.021C57.6658 118.283 57.7549 118.99 57.7549 118.99Z" fill="#2D334A"/>
<path d="M97.023 95.5078C97.023 95.5078 105.763 91.1988 103.212 100.354C100.661 109.508 95.5977 107.917 95.5977 107.917" fill="#FFFFFE"/>
<path d="M97.023 95.5078C97.023 95.5078 105.763 91.1988 103.212 100.354C100.661 109.508 95.5977 107.917 95.5977 107.917" stroke="#2D334A" stroke-width="0.848652" stroke-miterlimit="10"/>
<path d="M101.144 97.9868C101.144 97.9868 98.3025 96.718 97.0225 100.036C97.0225 100.036 99.981 99.0603 98.7619 104.14" fill="#FFFFFE"/>
<path d="M101.144 97.9868C101.144 97.9868 98.3025 96.718 97.0225 100.036C97.0225 100.036 99.981 99.0603 98.7619 104.14" stroke="#2D334A" stroke-width="0.848652" stroke-linecap="round" stroke-linejoin="round"/>
<path d="M50.4548 94.6882C50.4548 94.6882 41.7198 90.3792 44.2704 99.5339C46.8211 108.689 51.8849 107.098 51.8849 107.098" fill="#FFFFFE"/>
<path d="M50.4548 94.6882C50.4548 94.6882 41.7198 90.3792 44.2704 99.5339C46.8211 108.689 51.8849 107.098 51.8849 107.098" stroke="#2D334A" stroke-width="0.848652" stroke-miterlimit="10"/>
<path d="M46.3379 97.162C46.3379 97.162 49.1792 95.8982 50.4546 99.2166C50.4546 99.2166 47.5007 98.2406 48.7151 103.321" fill="#FFFFFE"/>
<path d="M46.3379 97.162C46.3379 97.162 49.1792 95.8982 50.4546 99.2166C50.4546 99.2166 47.5007 98.2406 48.7151 103.321" stroke="#2D334A" stroke-width="0.848652" stroke-linecap="round" stroke-linejoin="round"/>
<path d="M73.8284 127.3C86.7214 127.3 97.1733 112.778 97.1733 94.8637C97.1733 76.9494 86.7214 62.427 73.8284 62.427C60.9353 62.427 50.4834 76.9494 50.4834 94.8637C50.4834 112.778 60.9353 127.3 73.8284 127.3Z" fill="#FFFFFE" stroke="#2D334A" stroke-width="1.01744" stroke-miterlimit="10"/>
<path d="M72.3555 94.771V105.248C72.3555 105.248 73.6683 109.201 77.7428 105.917" stroke="#2D334A" stroke-width="0.937737" stroke-linecap="round" stroke-linejoin="round"/>
<path d="M83.0503 95.3224C84.112 95.3224 84.9727 94.4265 84.9727 93.3215C84.9727 92.2166 84.112 91.3208 83.0503 91.3208C81.9886 91.3208 81.1279 92.2166 81.1279 93.3215C81.1279 94.4265 81.9886 95.3224 83.0503 95.3224Z" fill="#2D334A"/>
<path d="M64.2066 95.3224C65.2682 95.3224 66.1289 94.4265 66.1289 93.3215C66.1289 92.2166 65.2682 91.3208 64.2066 91.3208C63.1449 91.3208 62.2842 92.2166 62.2842 93.3215C62.2842 94.4265 63.1449 95.3224 64.2066 95.3224Z" fill="#2D334A"/>
<path d="M79.6 89.34C81.1098 89.4864 82.5821 89.0227 84.0918 89.013C84.7072 89.0021 85.3177 89.127 85.8834 89.3793C86.4491 89.6317 86.9571 90.0057 87.3739 90.477C88.1476 91.3407 89.39 90.0427 88.6164 89.1838C87.55 88.0176 86.0959 87.3194 84.5513 87.2319C82.8915 87.1196 81.2692 87.7198 79.6 87.5441C79.4792 87.5349 79.3579 87.5518 79.2436 87.5936C79.1293 87.6354 79.0244 87.7013 78.9357 87.7872C78.8469 87.873 78.7762 87.977 78.7278 88.0926C78.6794 88.2083 78.6543 88.333 78.6543 88.4591C78.6543 88.5852 78.6794 88.71 78.7278 88.8256C78.7762 88.9412 78.8469 89.0452 78.9357 89.1311C79.0244 89.2169 79.1293 89.2828 79.2436 89.3247C79.3579 89.3665 79.4792 89.3833 79.6 89.3741V89.34Z" fill="#2D334A"/>
<path d="M67.8311 87.5099C66.1666 87.6709 64.549 87.0853 62.8798 87.1975C61.3359 87.2879 59.8827 87.9857 58.8146 89.1495C58.041 90.0083 59.2836 91.3063 60.0572 90.4426C60.4746 89.9721 60.9826 89.5985 61.5482 89.3463C62.1137 89.094 62.7241 88.9687 63.3393 88.9786C64.8444 88.9786 66.3166 89.4667 67.8264 89.3057C68.0579 89.3007 68.2785 89.2031 68.4427 89.0332C68.6069 88.8632 68.7018 88.634 68.7078 88.3931C68.7066 88.1501 68.6134 87.9176 68.4483 87.7458C68.2833 87.574 68.0598 87.477 67.8264 87.4757L67.8311 87.5099Z" fill="#2D334A"/>
<path d="M68.2109 110.997C68.2109 110.997 73.9874 118.058 80.7719 110.997" stroke="#2D334A" stroke-width="0.937737" stroke-linecap="round" stroke-linejoin="round"/>
<path d="M52.8929 89.0274C56.7892 88.8078 58.6835 87.1681 57.7505 83.5277C61.2811 83.2495 62.4672 81.6441 61.5342 78.8431C65.3507 78.7796 67.6294 76.891 68.2108 73.0359C71.2491 73.9826 73.706 73.8802 74.4891 70.7863C76.7724 74.4902 79.4403 75.471 82.2957 75.0952C83.6366 78.7844 85.6622 80.5559 88.541 79.9069C87.9503 83.1129 89.5257 84.8697 92.9109 85.4016C91.3121 87.4951 91.9965 89.7935 94.1205 92.2091C93.9799 94.893 95.4943 94.9418 97.1775 94.8637C100.872 95.7372 102.485 94.2928 102.223 90.7451C106.414 89.6764 107.207 87.0364 106.546 83.7181C109.091 80.1265 108.074 76.8862 105.284 73.807C105.753 68.6343 103.845 65.3696 98.5139 64.7889C97.6699 60.1237 95.7897 56.6834 90.032 57.8595C90.032 50.6909 85.3433 49.4612 79.7169 49.427C74.8219 46.1331 70.2317 45.5963 66.1197 49.427C61.792 49.2025 59.5087 51.779 58.5569 56.1709C52.9305 56.2393 49.1795 58.2693 48.3824 63.4908C45.1847 63.9788 43.2765 65.7063 43.7876 69.6737C39.263 72.9042 40.3929 76.2957 43.1076 81.1464C42.4465 82.7763 43.6141 85.2406 45.3161 86.1629C44.3221 89.5252 46.1084 91.0428 48.3824 92.2188C47.726 93.9512 49.0951 94.4733 50.6705 94.8735C53.6947 93.3851 54.2058 91.3941 52.8929 89.0274Z" fill="#2D334A"/>
<path d="M63.6396 99.1044C67.5911 99.1044 70.7945 95.7704 70.7945 91.6577C70.7945 87.545 67.5911 84.2109 63.6396 84.2109C59.688 84.2109 56.4846 87.545 56.4846 91.6577C56.4846 95.7704 59.688 99.1044 63.6396 99.1044Z" stroke="#2D334A" stroke-width="0.379783" stroke-miterlimit="10"/>
<path d="M83.7914 98.1966C87.7429 98.1966 90.9463 94.8627 90.9463 90.75C90.9463 86.6372 87.7429 83.3032 83.7914 83.3032C79.8398 83.3032 76.6365 86.6372 76.6365 90.75C76.6365 94.8627 79.8398 98.1966 83.7914 98.1966Z" stroke="#2D334A" stroke-width="0.379783" stroke-miterlimit="10"/>
<path d="M76.6362 89.9888H70.7988V92.3555H76.6362V89.9888Z" stroke="#2D334A" stroke-width="0.375095" stroke-miterlimit="10"/>
<path d="M56.5171 92.3555L50.4922 95.7519" stroke="#2D334A" stroke-width="0.375095" stroke-miterlimit="10"/>
<path d="M90.9463 91.6577L97.0228 96.0984" stroke="#2D334A" stroke-width="0.375095" stroke-miterlimit="10"/>
<path d="M57.7509 140.027H89.648L97.4546 146.132H50.4834L57.7509 140.027Z" fill="#2D334A"/>
<path d="M89.6481 136.226H57.751V142.023H89.6481V136.226Z" fill="#2D334A"/>
<path d="M127.56 164.841L127.345 165.061V165.085H127.316C127.218 165.188 127.12 165.29 127.016 165.388L126.923 165.481C124.944 167.43 122.864 169.264 120.691 170.975L120.415 171.195C116.566 174.2 112.449 176.815 108.121 179.003L107.652 179.227C106.242 179.93 104.808 180.581 103.348 181.179C99.8686 182.644 96.2869 183.83 92.6342 184.727C91.6496 184.971 90.6556 185.192 89.6522 185.391C87.8799 185.747 86.0841 186.045 84.2696 186.264H66.1901C58.0856 185.259 50.1944 182.877 42.8311 179.213L42.3856 178.988C38.0583 176.799 33.9417 174.184 30.0919 171.18L29.8153 170.961C27.5933 169.209 25.4675 167.329 23.448 165.329C23.3852 165.275 23.3258 165.216 23.2699 165.154L23.2276 165.11L23.1761 165.061L22.8901 164.773L22.8572 164.739L22.6462 164.524C22.8197 164.275 22.9886 164.036 23.162 163.792C25.2871 160.852 27.7111 158.159 30.392 155.76C30.6545 155.521 30.9171 155.272 31.1796 155.062C35.4796 151.415 40.5055 148.81 45.8928 147.435C47.9437 146.895 49.923 146.096 51.7864 145.053C53.5955 144.049 55.2553 142.776 56.7142 141.276L57.7879 141.237L85.2402 140.222L88.1612 140.115L89.6851 140.056H89.7179C89.9945 140.413 92.0059 142.882 96.1132 145.044C98.3733 146.225 100.772 147.093 103.249 147.625C108.16 148.72 112.794 150.882 116.847 153.969C117.578 154.525 118.324 155.116 119.083 155.755C121.937 158.13 124.533 160.824 126.824 163.787C127.035 164.148 127.288 164.49 127.56 164.841Z" fill="#2D334A"/>
<path d="M86.6422 141.189C87.5201 141.189 88.2316 140.448 88.2316 139.534C88.2316 138.621 87.5201 137.88 86.6422 137.88C85.7644 137.88 85.0527 138.621 85.0527 139.534C85.0527 140.448 85.7644 141.189 86.6422 141.189Z" fill="#FFFFFE"/>
<path d="M86.6422 149.441C87.5201 149.441 88.2316 148.7 88.2316 147.787C88.2316 146.873 87.5201 146.132 86.6422 146.132C85.7644 146.132 85.0527 146.873 85.0527 147.787C85.0527 148.7 85.7644 149.441 86.6422 149.441Z" fill="#FFFFFE"/>
<path d="M86.6422 157.698C87.5201 157.698 88.2316 156.957 88.2316 156.043C88.2316 155.13 87.5201 154.389 86.6422 154.389C85.7644 154.389 85.0527 155.13 85.0527 156.043C85.0527 156.957 85.7644 157.698 86.6422 157.698Z" fill="#FFFFFE"/>
</g>
<g opacity="0.8">
<path d="M221.611 263.11C221.62 270.098 220.266 277.015 217.632 283.443C214.998 289.87 211.138 295.675 206.287 300.505L206.268 300.522L206.234 300.557L206.069 300.722L206.007 300.783C204.698 302.072 203.322 303.286 201.885 304.419L201.702 304.564C199.155 306.552 196.431 308.282 193.568 309.73L193.257 309.878C192.323 310.343 191.373 310.774 190.41 311.17C188.107 312.139 185.738 312.923 183.321 313.517C182.67 313.678 182.012 313.825 181.348 313.956C179.216 314.387 177.06 314.672 174.892 314.809C174.439 314.838 173.987 314.86 173.531 314.876C172.96 314.899 172.389 314.909 171.815 314.909H170.918H170.704C170.481 314.909 170.258 314.909 170.037 314.889C169.051 314.854 168.077 314.786 167.106 314.692C161.293 314.129 155.622 312.5 150.354 309.882L150.044 309.733C147.181 308.284 144.457 306.554 141.91 304.567L141.727 304.422C140.257 303.263 138.85 302.019 137.514 300.696C137.473 300.66 137.433 300.621 137.396 300.58L137.368 300.551L137.334 300.518L137.179 300.36L137.145 300.328L137.123 300.305C131.222 294.347 126.831 286.962 124.34 278.807C121.85 270.653 121.337 261.983 122.85 253.573C124.362 245.162 127.851 237.273 133.006 230.607C138.162 223.942 144.822 218.709 152.394 215.375C159.965 212.041 168.212 210.71 176.398 211.501C184.584 212.291 192.455 215.179 199.307 219.906C206.16 224.633 211.781 231.053 215.67 238.592C219.559 246.13 221.593 254.554 221.593 263.11H221.611Z" fill="#AFF4C6" fill-opacity="0.8"/>
<path d="M206.218 300.573L206.053 300.738L205.991 300.799C204.682 302.089 203.306 303.302 201.869 304.435L201.686 304.58C199.139 306.568 196.415 308.298 193.552 309.746L193.241 309.895C192.307 310.359 191.357 310.79 190.394 311.186C188.092 312.155 185.722 312.94 183.305 313.533C182.654 313.695 181.996 313.841 181.332 313.972C179.2 314.403 177.044 314.688 174.876 314.825C174.424 314.854 173.971 314.876 173.515 314.893C172.944 314.915 172.373 314.925 171.799 314.925H170.903L170.797 315.06L170.689 314.918C170.465 314.918 170.242 314.918 170.022 314.899C169.035 314.864 168.061 314.796 167.09 314.702C161.277 314.139 155.606 312.51 150.338 309.891L150.028 309.743C147.165 308.294 144.441 306.564 141.894 304.577L141.711 304.432C140.241 303.273 138.834 302.029 137.498 300.706C137.457 300.669 137.417 300.631 137.38 300.589L137.352 300.56L137.318 300.528L137.163 300.37L137.296 300.179C138.704 298.236 140.306 296.455 142.077 294.865C142.254 294.707 142.428 294.542 142.601 294.406C145.446 291.993 148.771 290.268 152.336 289.357C157.842 287.888 160.212 284.443 160.212 284.443V270.524H160.523L181.044 270.672H181.31V284.436C181.31 284.436 184.003 288.088 190.285 289.473C193.534 290.197 196.6 291.628 199.281 293.67C199.762 294.038 200.259 294.432 200.761 294.852C202.647 296.426 204.365 298.208 205.883 300.166C206.022 300.312 206.122 300.441 206.218 300.573Z" fill="#FFFFFE" stroke="#2D334A" stroke-width="0.937737" stroke-linecap="round" stroke-linejoin="round"/>
<path d="M160.26 270.53C160.26 270.53 162.413 277.956 171.269 279.993C180.315 282.082 181.364 276.584 181.364 276.584V270.682C181.364 270.682 170.817 277.653 165.509 273.856C160.201 270.059 160.26 270.53 160.26 270.53Z" fill="#2D334A"/>
<path d="M186.243 254.994C186.243 254.994 192.022 252.139 190.335 258.2C188.647 264.26 185.297 263.201 185.297 263.201" fill="#FFFFFE"/>
<path d="M186.243 254.994C186.243 254.994 192.022 252.139 190.335 258.2C188.647 264.26 185.297 263.201 185.297 263.201" stroke="#2D334A" stroke-width="0.848652" stroke-miterlimit="10"/>
<path d="M188.967 256.631C188.967 256.631 187.087 255.791 186.243 257.99C186.243 257.99 188.201 257.344 187.394 260.705" fill="#FFFFFE"/>
<path d="M188.967 256.631C188.967 256.631 187.087 255.791 186.243 257.99C186.243 257.99 188.201 257.344 187.394 260.705" stroke="#2D334A" stroke-width="0.848652" stroke-linecap="round" stroke-linejoin="round"/>
<path d="M155.433 254.451C155.433 254.451 149.65 251.597 151.338 257.657C153.026 263.718 156.376 262.659 156.376 262.659" fill="#FFFFFE"/>
<path d="M155.433 254.451C155.433 254.451 149.65 251.597 151.338 257.657C153.026 263.718 156.376 262.659 156.376 262.659" stroke="#2D334A" stroke-width="0.848652" stroke-miterlimit="10"/>
<path d="M152.709 256.088C152.709 256.088 154.589 255.249 155.433 257.447C155.433 257.447 153.475 256.802 154.282 260.163" fill="#FFFFFE"/>
<path d="M152.709 256.088C152.709 256.088 154.589 255.249 155.433 257.447C155.433 257.447 153.475 256.802 154.282 260.163" stroke="#2D334A" stroke-width="0.848652" stroke-linecap="round" stroke-linejoin="round"/>
<path d="M170.897 276.029C179.427 276.029 186.343 266.42 186.343 254.567C186.343 242.715 179.427 233.106 170.897 233.106C162.366 233.106 155.451 242.715 155.451 254.567C155.451 266.42 162.366 276.029 170.897 276.029Z" fill="#FFFFFE" stroke="#2D334A" stroke-width="1.01744" stroke-miterlimit="10"/>
<path d="M169.92 254.49V261.416C169.92 261.416 170.792 264.031 173.484 261.858" stroke="#2D334A" stroke-width="0.937737" stroke-linecap="round" stroke-linejoin="round"/>
<path d="M177.771 254.868C178.473 254.868 179.043 254.275 179.043 253.544C179.043 252.813 178.473 252.22 177.771 252.22C177.068 252.22 176.499 252.813 176.499 253.544C176.499 254.275 177.068 254.868 177.771 254.868Z" fill="#2D334A"/>
<path d="M163.641 254.91C164.343 254.91 164.913 254.317 164.913 253.586C164.913 252.855 164.343 252.262 163.641 252.262C162.939 252.262 162.369 252.855 162.369 253.586C162.369 254.317 162.939 254.91 163.641 254.91Z" fill="#2D334A"/>
<path d="M181.364 284.446C170.627 296.324 160.269 284.446 160.269 284.446L170.816 315.067L181.364 284.446Z" fill="#2D334A"/>
<path d="M175.488 250.912C176.486 251.006 177.46 250.703 178.459 250.696C178.867 250.688 179.271 250.769 179.646 250.937C180.02 251.104 180.356 251.352 180.631 251.665C181.143 252.233 181.965 251.377 181.453 250.809C180.748 250.036 179.786 249.574 178.763 249.518C177.665 249.447 176.592 249.841 175.488 249.728C175.333 249.728 175.186 249.791 175.076 249.904C174.967 250.017 174.905 250.171 174.904 250.331C174.908 250.491 174.971 250.643 175.079 250.756C175.188 250.869 175.334 250.934 175.488 250.938V250.912Z" fill="#2D334A"/>
<path d="M166.039 249.744C164.934 249.847 163.867 249.463 162.76 249.534C161.736 249.598 160.774 250.065 160.07 250.841C159.558 251.41 160.38 252.268 160.892 251.697C161.167 251.384 161.503 251.137 161.878 250.97C162.252 250.803 162.656 250.72 163.064 250.728C164.06 250.728 165.034 251.051 166.036 250.945C166.188 250.939 166.333 250.873 166.441 250.76C166.549 250.648 166.611 250.497 166.616 250.338C166.615 250.178 166.554 250.025 166.445 249.912C166.336 249.799 166.189 249.735 166.036 249.734L166.039 249.744Z" fill="#2D334A"/>
<path d="M167.178 265.238C167.178 265.238 171 269.91 175.489 265.238" stroke="#2D334A" stroke-width="0.937737" stroke-linecap="round" stroke-linejoin="round"/>
<path d="M155.451 239.867C155.451 239.867 159.483 226.849 172.581 229.454L185.685 232.057L184.133 233.106L187.968 239.002L184.49 237.636C184.49 237.636 188.644 238.821 186.24 257.008C186.24 257.008 183.283 242.841 178.258 240.542C175.776 239.402 169.634 240.865 164.093 242.647C158.475 244.449 153.459 246.554 153.459 246.554L155.451 239.867Z" fill="#2D334A"/>
<path d="M159.18 254.91C159.18 254.91 158.95 245.944 163.265 242.473H160.783L158.463 243.525C158.463 243.525 155.665 249.434 159.18 254.91Z" fill="#2D334A"/>
<path d="M167.937 253.586H159.341C158.738 253.586 158.249 254.094 158.249 254.722V259.259C158.249 259.886 158.738 260.395 159.341 260.395H167.937C168.54 260.395 169.029 259.886 169.029 259.259V254.722C169.029 254.094 168.54 253.586 167.937 253.586Z" fill="#2D334A"/>
<path d="M182.068 253.544H173.472C172.869 253.544 172.38 254.053 172.38 254.68V259.217C172.38 259.844 172.869 260.353 173.472 260.353H182.068C182.671 260.353 183.16 259.844 183.16 259.217V254.68C183.16 254.053 182.671 253.544 182.068 253.544Z" fill="#2D334A"/>
<path d="M168.353 257.011C168.353 257.011 170.108 255.342 173.006 257.011" stroke="#2D334A" stroke-width="0.937737" stroke-miterlimit="10"/>
<path d="M182.787 257.47L185.995 255.933" stroke="#2D334A" stroke-width="0.937737" stroke-miterlimit="10"/>
<path d="M158.616 257.47L155.482 255.933" stroke="#2D334A" stroke-width="0.848652" stroke-miterlimit="10"/>
<path d="M170.813 315.07L170.705 314.928L153.819 293.06L160.259 284.814L170.764 314.931L170.813 315.07Z" fill="#FFFFFE" stroke="#2D334A" stroke-width="0.937737" stroke-linecap="round" stroke-linejoin="round"/>
<path d="M187.804 293.06L170.919 314.935L170.813 315.07L170.86 314.931L181.364 284.814L187.804 293.06Z" fill="#FFFFFE" stroke="#2D334A" stroke-width="0.937737" stroke-linecap="round" stroke-linejoin="round"/>
<path d="M157.393 294.419C158.116 294.419 158.702 293.809 158.702 293.057C158.702 292.304 158.116 291.694 157.393 291.694C156.67 291.694 156.084 292.304 156.084 293.057C156.084 293.809 156.67 294.419 157.393 294.419Z" fill="#2D334A"/>
<path d="M184.314 294.419C185.037 294.419 185.623 293.809 185.623 293.057C185.623 292.304 185.037 291.694 184.314 291.694C183.591 291.694 183.005 292.304 183.005 293.057C183.005 293.809 183.591 294.419 184.314 294.419Z" fill="#2D334A"/>
</g>
<g opacity="0.8">
<path d="M278 43.7168C278.006 49.584 276.874 55.392 274.671 60.7926C272.468 66.1931 269.239 71.075 265.179 75.1454L265.059 75.2679L264.823 75.5021C257.021 83.184 246.684 87.4583 235.944 87.4441C225.203 87.4299 214.877 83.1283 207.093 75.4258C207.058 75.3953 207.025 75.3626 206.993 75.3278L206.766 75.099L206.646 74.9765C201.691 69.9372 198.011 63.7007 195.933 56.8225C193.856 49.9443 193.445 42.638 194.738 35.5546C196.031 28.4712 198.987 21.8307 203.344 16.2246C207.7 10.6185 213.321 6.2209 219.706 3.42371C226.091 0.626514 233.041 -0.48349 239.939 0.19263C246.836 0.868751 253.465 3.30998 259.236 7.29882C265.006 11.2877 269.74 16.7003 273.014 23.0544C276.288 29.4085 278.001 36.5067 278 43.7168Z" fill="#F0EFEF" fill-opacity="0.9"/>
<path d="M248.253 34.4909C248.253 34.4909 253.645 31.8303 252.07 37.4864C250.495 43.1425 247.36 42.1512 247.36 42.1512" fill="#FFFFFE"/>
<path d="M248.253 34.4909C248.253 34.4909 253.645 31.8303 252.07 37.4864C250.495 43.1425 247.36 42.1512 247.36 42.1512" stroke="#2D334A" stroke-width="0.937737" stroke-miterlimit="10"/>
<path d="M250.794 36.0183C250.794 36.0183 249.04 35.2367 248.253 37.2846C248.253 37.2846 250.084 36.6909 249.326 39.8198" fill="#FFFFFE"/>
<path d="M250.794 36.0183C250.794 36.0183 249.04 35.2367 248.253 37.2846C248.253 37.2846 250.084 36.6909 249.326 39.8198" stroke="#2D334A" stroke-width="0.937737" stroke-linecap="round" stroke-linejoin="round"/>
<path d="M222.119 34.1747C222.119 34.1747 216.727 31.5115 218.302 37.1703C219.877 42.8291 223.012 41.8351 223.012 41.8351" fill="#FFFFFE"/>
<path d="M222.119 34.1747C222.119 34.1747 216.727 31.5115 218.302 37.1703C219.877 42.8291 223.012 41.8351 223.012 41.8351" stroke="#2D334A" stroke-width="0.937737" stroke-miterlimit="10"/>
<path d="M219.579 35.6971C219.579 35.6971 221.332 34.9128 222.12 36.9634C222.12 36.9634 220.288 36.367 221.047 39.496" fill="#FFFFFE"/>
<path d="M219.579 35.6971C219.579 35.6971 221.332 34.9128 222.12 36.9634C222.12 36.9634 220.288 36.367 221.047 39.496" stroke="#2D334A" stroke-width="0.937737" stroke-linecap="round" stroke-linejoin="round"/>
<path d="M265.184 75.1452L265.064 75.2678L264.828 75.5019C258.261 81.9699 249.858 86.0513 240.877 87.1354H231.128C222.11 86.0472 213.676 81.9374 207.098 75.4257C207.063 75.3951 207.03 75.3624 206.998 75.3277L206.771 75.0989L206.65 74.9764L206.928 74.5842C208.115 72.9445 209.468 71.4418 210.962 70.1018C211.109 69.9711 211.255 69.8295 211.402 69.7151C213.801 67.6792 216.606 66.2243 219.613 65.456C220.475 65.2265 221.315 64.9166 222.124 64.5301C224.987 63.1549 226.256 61.3113 226.256 61.3113V49.5852L244.048 49.7132V61.3222C244.048 61.3222 244.896 62.4714 246.764 63.6315C248.267 64.5543 249.907 65.2105 251.617 65.5731C254.354 66.1846 256.935 67.391 259.192 69.1133C259.6 69.4237 260.019 69.756 260.44 70.11C262.032 71.4371 263.48 72.94 264.76 74.5924C264.909 74.7694 265.045 74.9546 265.184 75.1452Z" fill="#FFFFFE" stroke="#2D334A" stroke-width="0.937737" stroke-linecap="round" stroke-linejoin="round"/>
<path d="M235.223 55.2034C242.418 55.2034 248.25 46.0142 248.25 34.6786C248.25 23.3431 242.418 14.1538 235.223 14.1538C228.028 14.1538 222.195 23.3431 222.195 34.6786C222.195 46.0142 228.028 55.2034 235.223 55.2034Z" fill="#FFFFFE" stroke="#2D334A" stroke-width="1.08309" stroke-miterlimit="10"/>
<path d="M234.401 34.0088V39.8555C234.401 39.8555 235.134 42.0613 237.408 40.2285" stroke="#2D334A" stroke-width="0.937737" stroke-linecap="round" stroke-linejoin="round"/>
<path d="M230.929 42.8726C230.929 42.8726 235.547 46.9329 239.877 43.1449" stroke="#2D334A" stroke-width="0.937737" stroke-linecap="round" stroke-linejoin="round"/>
<path d="M241.021 34.3275C241.614 34.3275 242.094 33.8277 242.094 33.211C242.094 32.5944 241.614 32.0945 241.021 32.0945C240.429 32.0945 239.948 32.5944 239.948 33.211C239.948 33.8277 240.429 34.3275 241.021 34.3275Z" fill="#2D334A"/>
<path d="M229.251 34.3275C229.844 34.3275 230.324 33.8277 230.324 33.211C230.324 32.5944 229.844 32.0945 229.251 32.0945C228.659 32.0945 228.179 32.5944 228.179 33.211C228.179 33.8277 228.659 34.3275 229.251 34.3275Z" fill="#2D334A"/>
<path d="M237.211 28.7993L238.176 30.071L244.691 29.9512C244.691 29.9512 242.614 28.8782 241.9 28.7993C241.185 28.7203 237.211 28.7993 237.211 28.7993Z" fill="#2D334A"/>
<path d="M232.601 28.761L231.816 30.1934L225.304 30.0709C225.304 30.0709 227.379 29.0006 228.095 28.919C228.812 28.8373 232.601 28.761 232.601 28.761Z" fill="#2D334A"/>
<path d="M244.145 49.5852V52.7577C243.514 56.8425 239.278 59.8598 234.794 58.9639C230.38 58.0843 226.771 50.0672 226.659 49.814C228.959 52.8476 231.994 54.6939 235.317 54.6939C238.721 54.6858 241.827 52.7496 244.145 49.5852Z" fill="#2D334A"/>
<path d="M233.81 19.8617C233.81 19.8617 233.098 22.1628 228.781 24.4639C228.781 24.4639 230.243 22.8163 230.544 21.561C230.544 21.561 227.983 23.1295 227.682 25.4823C227.682 25.4823 226.392 24.6218 226.659 23.4454C226.48 25.7037 225.533 27.8214 223.987 29.4174C221.426 31.9935 222.216 33.5485 222.216 33.5485L222.349 37.8457C222.349 37.8457 221.245 31.4135 220.518 28.7638C218.686 22.2281 221.337 14.8999 227.101 11.4959C231.703 8.77273 236.866 9.23572 241.719 10.9241C243.551 11.5613 245.382 12.381 246.788 13.7426C249.341 16.1935 249.977 20.3927 249.875 23.7014C249.532 34.6786 248.263 36.9334 248.263 36.9334C248.263 36.9334 248.384 31.2147 247.381 30.5802C246.379 29.9457 242.504 26.9746 242.107 23.8375L241.706 20.5425C241.706 20.5425 240.508 22.5032 241.034 23.5216C241.56 24.5401 241.034 23.9138 241.034 23.9138C241.034 23.9138 238.09 22.8953 238.014 20.7766C238.014 20.7766 237.337 22.5031 238.242 23.3664C238.232 23.3664 234.137 23.8103 233.81 19.8617Z" fill="#2D334A"/>
<path d="M233.106 30.8171H224.365V35.0136H233.106V30.8171Z" stroke="#2D334A" stroke-width="0.937737" stroke-linecap="round" stroke-linejoin="round"/>
<path d="M245.393 30.8171H236.651V35.0136H245.393V30.8171Z" stroke="#2D334A" stroke-width="0.937737" stroke-linecap="round" stroke-linejoin="round"/>
<path d="M233.106 32.0916H236.652" stroke="#2D334A" stroke-width="0.937737" stroke-linecap="round" stroke-linejoin="round"/>
<path d="M224.364 32.5437L222.119 34.1749" stroke="#2D334A" stroke-width="0.937737" stroke-linecap="round" stroke-linejoin="round"/>
<path d="M245.394 32.5437L248.253 34.6787" stroke="#2D334A" stroke-width="0.937737" stroke-linecap="round" stroke-linejoin="round"/>
<path d="M235.403 87.141L246.767 63.6235L244.265 64.9851C241.53 66.4929 238.484 67.2899 235.388 67.3084C232.293 67.3269 229.239 66.5663 226.486 65.0913L223.721 63.6099L235.403 87.141Z" fill="#2D334A"/>
<path d="M222.119 64.533L233.509 87.141" stroke="#2D334A" stroke-width="0.937737" stroke-miterlimit="10"/>
<path d="M248.253 64.533L237.407 87.1437" stroke="#2D334A" stroke-width="0.937737" stroke-miterlimit="10"/>
<path d="M223.721 63.6235C223.721 63.6235 234.354 71.5671 246.767 63.6235" stroke="#2D334A" stroke-width="0.937737" stroke-miterlimit="10"/>
</g>
<g opacity="0.8">
<path d="M332 172.773C332.005 177.683 331.055 182.542 329.205 187.059C327.355 191.575 324.645 195.654 321.237 199.05L321.209 199.077C321.148 199.141 321.085 199.202 321.022 199.263C320.958 199.324 320.915 199.37 320.858 199.422L320.843 199.438C319.935 200.316 318.982 201.144 317.989 201.916C317.173 202.553 316.33 203.154 315.459 203.718C315.392 203.763 315.322 203.806 315.252 203.849C314.221 204.513 313.157 205.119 312.065 205.665C311.803 205.795 311.539 205.922 311.273 206.046C307.259 207.916 302.941 208.976 298.548 209.171C298.033 209.196 297.517 209.207 296.993 209.207C296.47 209.207 295.953 209.196 295.439 209.171C290.887 208.966 286.418 207.833 282.287 205.835L281.927 205.658C280.608 205.002 279.33 204.26 278.1 203.439C277.382 202.958 276.683 202.452 276.003 201.921C275.536 201.555 275.076 201.176 274.627 200.786C274.146 200.368 273.675 199.938 273.214 199.495L273.199 199.481L273.044 199.329L272.913 199.2C272.884 199.174 272.856 199.147 272.83 199.118L272.625 198.911C268.479 194.723 265.393 189.532 263.643 183.8C261.893 178.069 261.534 171.976 262.598 166.065C263.662 160.154 266.115 154.609 269.738 149.925C273.362 145.24 278.044 141.563 283.365 139.22C288.687 136.878 294.483 135.943 300.237 136.499C305.99 137.055 311.521 139.085 316.338 142.407C321.154 145.73 325.105 150.242 327.838 155.54C330.571 160.839 332 166.759 332 172.773Z" fill="#BAE8E8"/>
<path d="M321.203 199.07C321.142 199.134 321.078 199.195 321.015 199.256C320.952 199.318 320.91 199.363 320.851 199.415L320.836 199.431C319.93 200.31 318.98 201.137 317.989 201.909C317.173 202.546 316.33 203.147 315.459 203.711C315.392 203.757 315.322 203.8 315.252 203.843C313.765 203.203 312.93 202.887 312.93 202.887L298.995 200.409L296.431 199.955L289.861 198.784L284.41 197.815L280.653 197.135C280.653 197.135 277.095 199.576 274.62 200.766C274.138 200.348 273.667 199.918 273.207 199.474L273.192 199.461L273.037 199.309C274.239 197.026 275.778 194.357 277.261 192.115C278.115 190.826 278.645 190.581 279.367 189.335C280.211 187.876 278.931 185.436 278.536 184.004C277.01 178.438 285.455 175.662 283.852 170.014C282.788 166.267 283.156 155.962 288.812 150.468C294.468 144.974 304.64 148.339 304.64 148.339C304.64 148.339 312.302 151.446 311.925 162.196C311.548 172.946 308.181 170.2 311.938 175.036C315.695 179.872 316.194 180.541 315.693 183.539C315.191 186.537 313.12 186.802 315.856 189.666C317.444 191.343 319.877 195.448 321.203 199.07Z" fill="#2D334A"/>
<path d="M320.851 199.413L320.836 199.429C319.93 200.308 318.979 201.136 317.988 201.909C317.173 202.546 316.33 203.147 315.459 203.711C315.391 203.756 315.322 203.799 315.252 203.843C314.221 204.506 313.157 205.112 312.064 205.658C311.802 205.788 311.539 205.915 311.273 206.039C307.259 207.909 302.941 208.97 298.548 209.164C298.033 209.189 297.516 209.201 296.993 209.201C296.47 209.201 295.953 209.189 295.438 209.164C290.887 208.959 286.418 207.826 282.286 205.828L281.926 205.651C280.608 204.995 279.33 204.253 278.1 203.432C277.382 202.951 276.683 202.445 276.002 201.914C275.536 201.548 275.076 201.169 274.626 200.779C274.145 200.361 273.674 199.931 273.213 199.488L273.198 199.474C274.639 197.744 276.286 196.212 278.1 194.915C279.427 193.964 280.827 193.13 282.286 192.419C282.546 192.292 282.807 192.169 283.075 192.049C284.364 191.464 285.686 190.961 287.033 190.544L291.254 187.342V178.349H303.052V187.097C303.052 187.097 303.925 187.962 304.921 188.86C305.563 189.459 306.239 190.017 306.945 190.533C307.093 190.638 307.249 190.729 307.411 190.808C307.863 191.009 309.354 191.457 311.268 192.292C311.56 192.421 311.863 192.557 312.175 192.705C313.301 193.237 314.394 193.843 315.446 194.52C317.307 195.684 318.978 197.147 320.398 198.857C320.561 199.045 320.714 199.231 320.851 199.413Z" fill="#FFFFFE" stroke="#2D334A" stroke-width="0.937737" stroke-linecap="round" stroke-linejoin="round"/>
<path d="M291.25 178.637C291.25 178.637 295.929 184.038 299.655 183.516C303.382 182.994 302.878 181.905 302.878 181.905L303.057 178.358L291.25 178.637Z" fill="#2D334A"/>
<path d="M287.057 166.135C287.057 166.135 286.23 164.32 284.575 165.243C282.92 166.167 284.373 170.826 286.23 171.713C288.088 172.601 287.757 171.139 287.757 171.139" fill="#FFFFFE"/>
<path d="M287.057 166.135C287.057 166.135 286.23 164.32 284.575 165.243C282.92 166.167 284.373 170.826 286.23 171.713C288.088 172.601 287.757 171.139 287.757 171.139" stroke="#2D334A" stroke-width="0.937737" stroke-linecap="round" stroke-linejoin="round"/>
<path d="M284.934 167.073C284.934 167.073 286.848 167.045 287.4 168.686L284.934 167.073Z" fill="#FFFFFE"/>
<path d="M284.934 167.073C284.934 167.073 286.848 167.045 287.4 168.686" stroke="#2D334A" stroke-width="0.937737" stroke-linecap="round" stroke-linejoin="round"/>
<path d="M286.07 169.685C286.07 169.685 285.322 168.298 286.589 167.724L286.07 169.685Z" fill="#FFFFFE"/>
<path d="M286.07 169.685C286.07 169.685 285.322 168.298 286.589 167.724" stroke="#2D334A" stroke-width="0.937737" stroke-linecap="round" stroke-linejoin="round"/>
<path d="M307.798 166.135C307.798 166.135 308.626 164.32 310.281 165.243C311.936 166.167 310.484 170.826 308.626 171.713C306.769 172.601 307.1 171.139 307.1 171.139" fill="#FFFFFE"/>
<path d="M307.798 166.135C307.798 166.135 308.626 164.32 310.281 165.243C311.936 166.167 310.484 170.826 308.626 171.713C306.769 172.601 307.1 171.139 307.1 171.139" stroke="#2D334A" stroke-width="0.937737" stroke-linecap="round" stroke-linejoin="round"/>
<path d="M309.923 167.073C309.923 167.073 308.006 167.045 307.457 168.686L309.923 167.073Z" fill="#FFFFFE"/>
<path d="M309.923 167.073C309.923 167.073 308.006 167.045 307.457 168.686" stroke="#2D334A" stroke-width="0.937737" stroke-linecap="round" stroke-linejoin="round"/>
<path d="M308.787 169.685C308.787 169.685 309.535 168.298 308.269 167.724L308.787 169.685Z" fill="#FFFFFE"/>
<path d="M308.787 169.685C308.787 169.685 309.535 168.298 308.269 167.724" stroke="#2D334A" stroke-width="0.937737" stroke-linecap="round" stroke-linejoin="round"/>
<path d="M287.135 163.469C287.135 163.469 286.599 173.306 289.333 176.275C292.067 179.243 293.435 180.296 295.811 180.605C298.188 180.913 299.32 180.977 302.352 178.873C305.385 176.769 306.454 174.788 306.87 172.626C307.287 170.463 308.414 161.367 308.414 161.367L305.562 153.879L296.705 151.28L293.616 151.652L290.227 154.187L287.672 158.395L287.135 163.469Z" fill="#FFFFFE" stroke="#2D334A" stroke-width="0.707991" stroke-miterlimit="10"/>
<path d="M286.917 166.053V164.506C286.917 164.506 290.275 159.466 290.454 155.506C290.454 155.506 297.527 162.125 307.679 159.96V166.053L308.987 164.991C308.987 164.991 310.409 155.939 304.882 151.298C299.354 146.657 293.36 148.575 291.631 149.937C289.902 151.298 283.211 155.68 286.917 166.053Z" fill="#2D334A"/>
<path d="M302.126 165.738C302.31 165.738 302.49 165.681 302.644 165.575C302.797 165.468 302.916 165.317 302.986 165.14C303.057 164.963 303.075 164.768 303.04 164.58C303.004 164.392 302.915 164.219 302.785 164.084C302.655 163.948 302.489 163.856 302.308 163.819C302.127 163.781 301.94 163.8 301.77 163.874C301.6 163.947 301.455 164.071 301.352 164.231C301.25 164.39 301.195 164.577 301.195 164.769C301.195 165.026 301.293 165.273 301.468 165.454C301.643 165.636 301.879 165.738 302.126 165.738Z" fill="#2D334A"/>
<path d="M292.179 165.738C292.363 165.738 292.543 165.681 292.696 165.575C292.85 165.468 292.969 165.317 293.039 165.14C293.11 164.963 293.128 164.768 293.092 164.58C293.056 164.392 292.968 164.219 292.837 164.084C292.707 163.948 292.541 163.856 292.361 163.819C292.18 163.781 291.993 163.8 291.823 163.874C291.653 163.947 291.507 164.071 291.405 164.231C291.303 164.39 291.248 164.577 291.248 164.769C291.248 165.026 291.346 165.273 291.521 165.454C291.695 165.636 291.932 165.738 292.179 165.738Z" fill="#2D334A"/>
<path d="M296.361 167.433V169.383C296.349 169.619 296.412 169.854 296.54 170.05C296.668 170.246 296.855 170.393 297.072 170.467C297.289 170.541 297.524 170.538 297.739 170.458C297.954 170.381 298.138 170.231 298.262 170.032" stroke="#2D334A" stroke-width="0.937737" stroke-linecap="round" stroke-linejoin="round"/>
<path d="M293.625 172.424C293.625 172.424 297.626 174.897 300.916 172.424" stroke="#2D334A" stroke-width="0.937737" stroke-linecap="round" stroke-linejoin="round"/>
<path d="M299.512 161.692L300.316 162.754L305.746 162.652C305.746 162.652 304.014 161.76 303.419 161.692C302.824 161.624 299.512 161.692 299.512 161.692Z" fill="#2D334A"/>
<path d="M295.046 161.692L294.242 162.754L288.812 162.652C288.812 162.652 290.544 161.76 291.139 161.692C291.734 161.624 295.046 161.692 295.046 161.692Z" fill="#2D334A"/>
<path d="M287.029 190.562L289.604 188.84C289.604 188.84 296.525 194.527 304.883 188.84L306.952 190.551C306.952 190.551 297.805 198.643 287.029 190.562Z" fill="#2D334A"/>
<path d="M289.098 161.02H295.308C295.401 161.02 295.492 161.038 295.577 161.075C295.663 161.112 295.74 161.166 295.805 161.233C295.871 161.301 295.922 161.382 295.958 161.471C295.993 161.56 296.011 161.655 296.01 161.751V164.982C296.011 165.503 295.912 166.018 295.721 166.499C295.53 166.98 295.25 167.417 294.896 167.785C294.542 168.153 294.123 168.445 293.661 168.644C293.199 168.843 292.703 168.945 292.203 168.945C291.449 168.946 290.711 168.715 290.083 168.279C289.456 167.844 288.966 167.224 288.678 166.498C288.487 166.017 288.388 165.501 288.388 164.98V161.749C288.388 161.555 288.462 161.369 288.594 161.233C288.725 161.096 288.904 161.018 289.09 161.018L289.098 161.02Z" stroke="#2D334A" stroke-width="0.937737" stroke-linecap="round" stroke-linejoin="round"/>
<path d="M299.204 161.02H305.414C305.506 161.02 305.598 161.038 305.683 161.075C305.768 161.112 305.846 161.165 305.911 161.233C305.976 161.301 306.028 161.382 306.063 161.471C306.098 161.56 306.116 161.655 306.116 161.751V164.982C306.116 166.033 305.715 167.041 305.001 167.784C304.287 168.527 303.319 168.945 302.309 168.945C301.299 168.945 300.331 168.527 299.617 167.784C298.903 167.041 298.502 166.033 298.502 164.982V161.751C298.503 161.655 298.521 161.56 298.556 161.472C298.593 161.387 298.645 161.31 298.709 161.245C298.771 161.178 298.845 161.125 298.927 161.088C299.012 161.05 299.103 161.031 299.195 161.031L299.204 161.02Z" stroke="#2D334A" stroke-width="0.937737" stroke-linecap="round" stroke-linejoin="round"/>
<path d="M295.997 164.054H298.502" stroke="#2D334A" stroke-width="0.937737" stroke-linecap="round" stroke-linejoin="round"/>
<path d="M306.105 163.771L308.046 165.688" stroke="#2D334A" stroke-width="0.937737" stroke-linecap="round" stroke-linejoin="round"/>
<path d="M288.385 164.256L286.931 165.432" stroke="#2D334A" stroke-width="0.937737" stroke-linecap="round" stroke-linejoin="round"/>
<path d="M283.069 192.062C283.069 192.062 282.09 198.938 287.43 199.07C292.77 199.202 297.748 194.13 297.748 194.13L290.697 190.703" stroke="#2D334A" stroke-width="0.937737" stroke-linecap="round" stroke-linejoin="round"/>
<path d="M312.123 192.062C312.123 192.062 313.102 198.938 307.762 199.07C302.422 199.202 297.444 194.13 297.444 194.13L304.496 190.703" stroke="#2D334A" stroke-width="0.937737" stroke-linecap="round" stroke-linejoin="round"/>
<path d="M297.746 201.348C298.004 201.348 298.257 201.269 298.473 201.119C298.688 200.969 298.855 200.757 298.954 200.508C299.053 200.259 299.079 199.985 299.029 199.721C298.978 199.457 298.854 199.214 298.671 199.024C298.488 198.834 298.255 198.704 298.001 198.651C297.747 198.599 297.484 198.626 297.245 198.729C297.006 198.832 296.802 199.006 296.658 199.23C296.514 199.454 296.438 199.718 296.438 199.987C296.438 200.348 296.575 200.694 296.821 200.95C297.066 201.205 297.399 201.348 297.746 201.348Z" stroke="#2D334A" stroke-width="0.937737" stroke-linecap="round" stroke-linejoin="round"/>
<path d="M297.746 206.641C298.004 206.641 298.257 206.561 298.473 206.411C298.688 206.262 298.855 206.049 298.954 205.8C299.053 205.551 299.079 205.278 299.029 205.013C298.978 204.749 298.854 204.507 298.671 204.316C298.488 204.126 298.255 203.996 298.001 203.944C297.747 203.891 297.484 203.918 297.245 204.021C297.006 204.124 296.802 204.299 296.658 204.523C296.514 204.747 296.438 205.01 296.438 205.279C296.438 205.64 296.575 205.987 296.821 206.242C297.066 206.497 297.399 206.641 297.746 206.641Z" stroke="#2D334A" stroke-width="0.937737" stroke-linecap="round" stroke-linejoin="round"/>
</g>
</svg>
