<svg width="318" height="311" viewBox="0 0 318 311" fill="none" xmlns="http://www.w3.org/2000/svg">
<g opacity="0.8">
<path d="M113.531 231.861C113.541 239.83 111.996 247.719 108.991 255.049C105.985 262.379 101.582 268.998 96.0466 274.505L95.7283 274.821C86.0035 284.393 73.3394 290.075 59.9765 290.864C46.6136 291.653 33.4133 287.497 22.7111 279.131C20.9597 277.76 19.2854 276.286 17.6964 274.715C17.654 274.674 17.608 274.63 17.5655 274.582L17.2544 274.273C10.5247 267.483 5.51513 259.064 2.6729 249.769C-0.169336 240.473 -0.755745 230.589 0.965884 221C2.68751 211.411 6.66365 202.415 12.5394 194.814C18.4151 187.214 26.0076 181.246 34.639 177.444C43.2705 173.641 52.6723 172.122 62.0052 173.022C71.3381 173.922 80.3116 177.213 88.1247 182.602C95.9378 187.991 102.347 195.309 106.781 203.904C111.215 212.498 113.535 222.102 113.534 231.857L113.531 231.861Z" fill="#BAE8E8"/>
<path d="M73.3251 219.784C73.3251 219.784 80.6137 216.184 78.4848 223.833C76.3558 231.481 72.1191 230.138 72.1191 230.138" fill="#FFFFFE"/>
<path d="M73.3251 219.784C73.3251 219.784 80.6137 216.184 78.4848 223.833C76.3558 231.481 72.1191 230.138 72.1191 230.138" stroke="#2D334A" stroke-width="0.937737" stroke-miterlimit="10"/>
<path d="M76.7591 221.842C76.7591 221.842 74.3897 220.782 73.3252 223.553C73.3252 223.553 75.8007 222.747 74.7751 226.976" fill="#FFFFFE"/>
<path d="M76.7591 221.842C76.7591 221.842 74.3897 220.782 73.3252 223.553C73.3252 223.553 75.8007 222.747 74.7751 226.976" stroke="#2D334A" stroke-width="0.937737" stroke-linecap="round" stroke-linejoin="round"/>
<path d="M38.0025 219.354C38.0025 219.354 30.7138 215.758 32.8428 223.403C34.9717 231.047 39.2084 229.711 39.2084 229.711" fill="#FFFFFE"/>
<path d="M38.0025 219.354C38.0025 219.354 30.7138 215.758 32.8428 223.403C34.9717 231.047 39.2084 229.711 39.2084 229.711" stroke="#2D334A" stroke-width="0.937737" stroke-miterlimit="10"/>
<path d="M34.5576 221.419C34.5576 221.419 36.927 220.362 37.9915 223.13C37.9915 223.13 35.516 222.324 36.5416 226.553" fill="#FFFFFE"/>
<path d="M34.5576 221.419C34.5576 221.419 36.927 220.362 37.9915 223.13C37.9915 223.13 35.516 222.324 36.5416 226.553" stroke="#2D334A" stroke-width="0.937737" stroke-linecap="round" stroke-linejoin="round"/>
<path d="M96.043 274.509L95.7246 274.825C85.9999 284.396 73.3358 290.079 59.9728 290.868C46.6099 291.657 33.4096 287.501 22.7075 279.135C20.9561 277.764 19.2818 276.289 17.6928 274.718C17.6504 274.678 17.6043 274.634 17.5619 274.586L17.2507 274.277L17.4664 273.975C19.069 271.758 20.8962 269.727 22.9161 267.917C23.1177 267.736 23.3157 267.548 23.5138 267.39C26.7569 264.638 30.5475 262.672 34.6111 261.634C37.3615 260.938 39.9171 259.582 42.0731 257.673C42.629 257.185 43.1351 256.639 43.5832 256.043V240.179L67.6311 240.356V256.043C68.033 256.548 68.4793 257.014 68.9643 257.434C70.4956 258.792 73.3671 260.787 77.8478 261.777C81.5458 262.605 85.0344 264.236 88.0859 266.562C88.6341 266.982 89.1998 267.431 89.7727 267.913C91.9247 269.705 93.8825 271.737 95.6114 273.971C95.7812 274.152 95.9156 274.328 96.043 274.509Z" fill="#FFFFFE" stroke="#2D334A" stroke-width="0.937737" stroke-linecap="round" stroke-linejoin="round"/>
<path d="M55.7132 247.779C65.4379 247.779 73.3213 235.359 73.3213 220.038C73.3213 204.717 65.4379 192.297 55.7132 192.297C45.9886 192.297 38.1052 204.717 38.1052 220.038C38.1052 235.359 45.9886 247.779 55.7132 247.779Z" fill="#FFFFFE" stroke="#2D334A" stroke-width="1.08309" stroke-miterlimit="10"/>
<path d="M54.6025 219.129V227.035C54.6025 227.035 55.5927 230.017 58.6659 227.536" stroke="#2D334A" stroke-width="0.937737" stroke-linecap="round" stroke-linejoin="round"/>
<path d="M49.9099 231.114C49.9099 231.114 56.1518 236.601 62.0047 231.463" stroke="#2D334A" stroke-width="0.937737" stroke-linecap="round" stroke-linejoin="round"/>
<path d="M63.5496 219.56C64.3504 219.56 64.9995 218.884 64.9995 218.051C64.9995 217.217 64.3504 216.542 63.5496 216.542C62.7488 216.542 62.0996 217.217 62.0996 218.051C62.0996 218.884 62.7488 219.56 63.5496 219.56Z" fill="#2D334A"/>
<path d="M48.4568 219.56C49.2576 219.56 49.9067 218.884 49.9067 218.051C49.9067 217.217 49.2576 216.542 48.4568 216.542C47.656 216.542 47.0068 217.217 47.0068 218.051C47.0068 218.884 47.656 219.56 48.4568 219.56Z" fill="#2D334A"/>
<path d="M58.4004 212.088L59.7054 213.807L68.5111 213.645C68.5111 213.645 65.7032 212.198 64.7378 212.088C63.7723 211.977 58.4004 212.088 58.4004 212.088Z" fill="#2D334A"/>
<path d="M52.7886 212.04L51.7277 213.972L42.9219 213.807C42.9219 213.807 45.7299 212.36 46.6953 212.253C47.6608 212.147 52.7886 212.04 52.7886 212.04Z" fill="#2D334A"/>
<path d="M67.7726 240.175V244.46C66.9203 249.999 61.1948 254.059 55.1333 252.852C49.1638 251.659 44.2906 240.823 44.1385 240.481C47.2471 244.581 51.3458 247.077 55.8406 247.077C60.4415 247.077 64.6393 244.46 67.7726 240.175Z" fill="#2D334A"/>
<path d="M67.6489 256.035C55.4057 269.573 43.601 256.035 43.601 256.035L42.0839 257.673C42.0839 257.673 49.8181 265.252 57.0855 264.122C64.3529 262.992 69.0033 257.434 69.0033 257.434L67.6489 256.035Z" fill="#2D334A"/>
<path d="M79.5813 281.296H64.4912V283.416H79.5813V281.296Z" fill="#2D334A"/>
<path d="M38.197 217.197C38.197 217.197 35.573 207.443 39.1943 200.236C42.8157 193.029 46.345 208.591 38.197 217.197Z" fill="#2D334A"/>
<path d="M73.4593 217.197C73.4593 217.197 76.0868 207.443 72.4655 200.236C68.8442 193.029 65.3254 208.591 73.4593 217.197Z" fill="#2D334A"/>
<path d="M41.9847 201.366C41.9847 201.366 58.5529 209.423 69.5513 201.933C80.5497 194.443 71.4363 188.222 71.4363 188.222C71.4363 188.222 70.2303 192.463 66.9732 190.766C63.7161 189.069 41.4719 181.012 39.1803 195.573C39.1944 195.573 38.8302 200.074 41.9847 201.366Z" fill="#2D334A"/>
<path d="M69.8905 213.229V219.854C69.8905 220.342 69.7042 220.81 69.3726 221.156C69.041 221.501 68.5912 221.695 68.1223 221.695H67.2559C67.7248 221.695 68.1746 221.501 68.5062 221.156C68.8378 220.81 69.0241 220.342 69.0241 219.854V213.229C69.0241 212.741 68.8378 212.273 68.5062 211.928C68.1746 211.583 67.7248 211.389 67.2559 211.389H68.1223C68.5912 211.389 69.041 211.583 69.3726 211.928C69.7042 212.273 69.8905 212.741 69.8905 213.229Z" fill="#2D334A"/>
<path d="M41.5957 213.181V219.806C41.5957 220.294 41.782 220.763 42.1137 221.108C42.4453 221.453 42.895 221.647 43.3639 221.647H44.2304C43.7615 221.647 43.3117 221.453 42.9801 221.108C42.6485 220.763 42.4622 220.294 42.4622 219.806V213.181C42.4622 212.693 42.6485 212.225 42.9801 211.88C43.3117 211.535 43.7615 211.341 44.2304 211.341H43.3639C42.895 211.341 42.4453 211.535 42.1137 211.88C41.782 212.225 41.5957 212.693 41.5957 213.181Z" fill="#2D334A"/>
<path d="M52.2051 211.333H43.852C42.8695 211.333 42.0731 212.162 42.0731 213.185V219.803C42.0731 220.825 42.8695 221.654 43.852 221.654H52.2051C53.1875 221.654 53.9839 220.825 53.9839 219.803V213.185C53.9839 212.162 53.1875 211.333 52.2051 211.333Z" stroke="#2D334A" stroke-width="0.937737" stroke-miterlimit="10"/>
<path d="M67.631 211.333H59.2779C58.2954 211.333 57.499 212.162 57.499 213.185V219.803C57.499 220.825 58.2954 221.654 59.2779 221.654H67.631C68.6134 221.654 69.4098 220.825 69.4098 219.803V213.185C69.4098 212.162 68.6134 211.333 67.631 211.333Z" stroke="#2D334A" stroke-width="0.937737" stroke-miterlimit="10"/>
<path d="M57.4996 215.36H53.9844V216.95H57.4996V215.36Z" stroke="#2D334A" stroke-width="0.937737" stroke-miterlimit="10"/>
<path d="M69.41 216.299L73.2966 219.803" stroke="#2D334A" stroke-width="0.937737" stroke-miterlimit="10"/>
<path d="M42.0733 216.299L38.0029 219.803" stroke="#2D334A" stroke-width="0.937737" stroke-miterlimit="10"/>
</g>
<g opacity="0.8">
<path d="M156.485 66.385C156.499 76.7155 152.589 86.6331 145.608 93.9764C145.363 94.231 145.118 94.4831 144.871 94.7328C144.798 94.8087 144.726 94.8798 144.65 94.9532C144.635 94.9652 144.62 94.9792 144.608 94.9948L144.573 95.0291L144.497 95.1025C144.484 95.112 144.472 95.1236 144.462 95.1368C143.484 96.085 142.458 96.979 141.39 97.8151C140.509 98.5023 139.599 99.1502 138.661 99.759C138.527 99.8471 138.391 99.9328 138.254 100.019C137.205 100.671 136.123 101.279 135.008 101.842C134.921 101.884 134.837 101.928 134.75 101.967C134.55 102.065 134.354 102.161 134.155 102.254C133.748 102.442 133.338 102.626 132.927 102.797C131.967 103.204 130.988 103.568 129.991 103.889C129.664 103.999 129.33 104.102 128.996 104.2C126.56 104.911 124.062 105.364 121.539 105.554C121.17 105.583 120.805 105.605 120.436 105.623H120.142C119.683 105.642 119.222 105.649 118.761 105.649C118.3 105.649 117.839 105.649 117.38 105.623H117.086C116.705 105.605 116.329 105.583 115.955 105.554C111.564 105.224 107.264 104.09 103.253 102.205L102.886 102.031L102.498 101.84L101.837 101.505C100.647 100.883 99.4891 100.195 98.3692 99.4456C97.5929 98.9266 96.8387 98.3807 96.1064 97.8078C95.418 97.2692 94.7483 96.7069 94.0975 96.121C93.7588 95.8174 93.4256 95.5073 93.0978 95.1907L93.0554 95.1491L92.9802 95.0756C92.9684 95.0634 92.9519 95.0511 92.9425 95.0388L92.8743 94.9728L92.7708 94.8724C92.7426 94.8455 92.712 94.8161 92.6838 94.7843L92.4627 94.5615C92.1976 94.2922 91.9358 94.0196 91.677 93.7438C87.3661 89.1257 84.2114 83.4759 82.4904 77.2912C80.7694 71.1066 80.5349 64.5765 81.8074 58.2754C83.08 51.9743 85.8206 46.0951 89.7883 41.155C93.756 36.2148 98.8292 32.3649 104.562 29.944C110.294 27.523 116.511 26.6051 122.664 27.271C128.817 27.937 134.719 30.1663 139.85 33.7629C144.982 37.3596 149.186 42.2133 152.092 47.8974C154.998 53.5815 156.518 59.9217 156.517 66.3605L156.485 66.385Z" fill="#FFC7C2" fill-opacity="0.8"/>
<path d="M118.855 83.1676C128.158 83.1676 135.702 72.8851 135.702 60.1813C135.702 47.4775 128.158 37.1951 118.855 37.1951C109.552 37.1951 102.008 47.4775 102.008 60.1813C102.008 72.8851 109.549 83.1676 118.855 83.1676Z" fill="#2D334A"/>
<path d="M144.566 95.0388L144.49 95.1123C144.477 95.1217 144.465 95.1333 144.455 95.1466C143.477 96.0947 142.451 96.9887 141.383 97.8249C140.502 98.512 139.592 99.16 138.654 99.7688C138.52 99.8569 138.384 99.9426 138.247 100.028C137.198 100.681 136.116 101.289 135.001 101.852C134.914 101.894 134.83 101.938 134.743 101.977C134.543 102.075 134.347 102.17 134.147 102.263C133.74 102.452 133.331 102.636 132.92 102.807C131.96 103.213 130.981 103.577 129.984 103.899C129.657 104.009 129.323 104.112 128.989 104.21C126.553 104.92 124.055 105.374 121.532 105.564C121.163 105.593 120.798 105.615 120.429 105.632H117.044C116.663 105.615 116.287 105.593 115.912 105.564C111.522 105.234 107.222 104.1 103.21 102.215L102.843 102.041L102.46 101.86L101.799 101.524C100.609 100.902 99.4516 100.215 98.3316 99.4652C97.5554 98.9462 96.801 98.4002 96.0687 97.8273C95.3787 97.2887 94.7091 96.7264 94.0598 96.1405C93.7211 95.8369 93.3879 95.5269 93.0601 95.2102L93.0177 95.1686L92.9425 95.0952C93.1283 94.8675 93.3212 94.6373 93.5235 94.4072L93.7869 94.1085C95.1591 92.5921 96.6826 91.2322 98.3316 90.0518C99.6514 89.1067 101.039 88.2694 102.483 87.5473L102.841 87.3686C104.497 86.5632 106.209 85.8873 107.962 85.3464L112.516 81.8919V72.1995H125.253V81.6373C125.253 81.6373 127.991 84.3475 129.455 85.3464C129.614 85.4597 129.782 85.5588 129.958 85.6426C130.445 85.8605 132.054 86.3428 134.119 87.2437H134.14L134.213 87.2755C134.338 87.3294 134.578 87.4371 134.907 87.5914L135.027 87.6477L135.213 87.7358C136.388 88.2949 137.529 88.9277 138.631 89.6307C140.148 90.5911 141.555 91.7278 142.825 93.019C143.22 93.4279 143.604 93.8563 143.973 94.3092C144.107 94.4733 144.236 94.6373 144.363 94.7989L144.566 95.0388Z" fill="#FFFFFE" stroke="#2D334A" stroke-width="0.470456" stroke-linecap="round" stroke-linejoin="round"/>
<path d="M112.528 72.4935C112.528 72.4935 117.576 78.3203 121.596 77.7572C125.616 77.1941 125.072 76.0189 125.072 76.0189L125.268 72.1924L112.528 72.4935Z" fill="#2D334A"/>
<path d="M108.011 59.0157C108.011 59.0157 107.117 57.0572 105.332 58.0536C103.546 59.05 105.113 64.0762 107.117 65.0335C109.121 65.9907 108.764 64.4141 108.764 64.4141" fill="#FFFFFE"/>
<path d="M108.011 59.0157C108.011 59.0157 107.117 57.0572 105.332 58.0536C103.546 59.05 105.113 64.0762 107.117 65.0335C109.121 65.9907 108.764 64.4141 108.764 64.4141" stroke="#2D334A" stroke-width="0.470456" stroke-linecap="round" stroke-linejoin="round"/>
<path d="M105.713 60.0171C105.713 60.0171 107.781 59.9877 108.376 61.7578L105.713 60.0171Z" fill="#FFFFFE"/>
<path d="M105.713 60.0171C105.713 60.0171 107.781 59.9877 108.376 61.7578" stroke="#2D334A" stroke-width="0.470456" stroke-linecap="round" stroke-linejoin="round"/>
<path d="M106.941 62.8375C106.941 62.8375 106.134 61.3416 107.499 60.7222L106.941 62.8375Z" fill="#FFFFFE"/>
<path d="M106.941 62.8375C106.941 62.8375 106.134 61.3416 107.499 60.7222" stroke="#2D334A" stroke-width="0.470456" stroke-linecap="round" stroke-linejoin="round"/>
<path d="M130.381 59.0157C130.381 59.0157 131.273 57.0572 133.058 58.0536C134.844 59.05 133.277 64.0762 131.273 65.0335C129.269 65.9907 129.626 64.4141 129.626 64.4141" fill="#FFFFFE"/>
<path d="M130.381 59.0157C130.381 59.0157 131.273 57.0572 133.058 58.0536C134.844 59.05 133.277 64.0762 131.273 65.0335C129.269 65.9907 129.626 64.4141 129.626 64.4141" stroke="#2D334A" stroke-width="0.470456" stroke-linecap="round" stroke-linejoin="round"/>
<path d="M132.675 60.0171C132.675 60.0171 130.607 59.9877 130.012 61.7578L132.675 60.0171Z" fill="#FFFFFE"/>
<path d="M132.675 60.0171C132.675 60.0171 130.607 59.9877 130.012 61.7578" stroke="#2D334A" stroke-width="0.470456" stroke-linecap="round" stroke-linejoin="round"/>
<path d="M131.448 62.8375C131.448 62.8375 132.254 61.3416 130.888 60.7222L131.448 62.8375Z" fill="#FFFFFE"/>
<path d="M131.448 62.8375C131.448 62.8375 132.254 61.3416 130.888 60.7222" stroke="#2D334A" stroke-width="0.470456" stroke-linecap="round" stroke-linejoin="round"/>
<path d="M108.082 56.1342C108.082 56.1342 107.506 66.7472 110.455 69.9495C113.405 73.1517 114.878 74.2877 117.444 74.6207C120.01 74.9536 121.226 75.0222 124.501 72.7527C127.775 70.4832 128.925 68.3459 129.375 66.0128C129.824 63.6796 131.042 53.8672 131.042 53.8672L127.963 45.7881L118.411 42.9849L115.068 43.3888L111.413 46.1235L108.656 50.6624L108.082 56.1342Z" fill="#FFFFFE" stroke="#2D334A" stroke-width="0.355194" stroke-miterlimit="10"/>
<path d="M124.261 58.5825C124.46 58.5825 124.654 58.5211 124.819 58.4063C124.984 58.2914 125.113 58.1281 125.189 57.9371C125.265 57.7461 125.285 57.5359 125.246 57.3331C125.208 57.1304 125.112 56.9441 124.971 56.7979C124.831 56.6517 124.652 56.5521 124.457 56.5118C124.262 56.4714 124.06 56.4922 123.877 56.5713C123.693 56.6504 123.536 56.7844 123.426 56.9563C123.316 57.1282 123.257 57.3303 123.257 57.5371C123.257 57.6744 123.283 57.8103 123.333 57.9371C123.384 58.064 123.458 58.1792 123.551 58.2763C123.644 58.3733 123.755 58.4504 123.877 58.5029C123.999 58.5555 124.129 58.5825 124.261 58.5825Z" fill="#2D334A"/>
<path d="M113.532 58.5825C113.731 58.5825 113.925 58.5211 114.09 58.4063C114.255 58.2914 114.384 58.1281 114.46 57.9371C114.536 57.7461 114.556 57.5359 114.517 57.3331C114.478 57.1304 114.383 56.9441 114.242 56.7979C114.102 56.6517 113.923 56.5521 113.728 56.5118C113.533 56.4714 113.331 56.4922 113.148 56.5713C112.964 56.6504 112.807 56.7844 112.697 56.9563C112.587 57.1282 112.528 57.3303 112.528 57.5371C112.528 57.6744 112.554 57.8103 112.604 57.9371C112.655 58.064 112.729 58.1792 112.822 58.2763C112.915 58.3733 113.026 58.4504 113.148 58.5029C113.27 58.5555 113.4 58.5825 113.532 58.5825Z" fill="#2D334A"/>
<path d="M118.041 60.4138V62.5169C118.029 62.7723 118.097 63.025 118.236 63.2359C118.375 63.4468 118.577 63.6042 118.811 63.6838C119.044 63.7635 119.297 63.7609 119.529 63.6765C119.761 63.5922 119.96 63.4307 120.095 63.217" stroke="#2D334A" stroke-width="0.470456" stroke-linecap="round" stroke-linejoin="round"/>
<path d="M115.092 65.7998C115.092 65.7998 119.41 68.4684 122.958 65.7998" stroke="#2D334A" stroke-width="0.470456" stroke-linecap="round" stroke-linejoin="round"/>
<path d="M121.438 54.2124L122.309 55.3582L128.164 55.2481C128.164 55.2481 126.298 54.2932 125.654 54.2124C125.009 54.1316 121.438 54.2124 121.438 54.2124Z" fill="#2D334A"/>
<path d="M116.625 54.2124L115.754 55.3582L109.893 55.2481C109.893 55.2481 111.774 54.2932 112.409 54.2124C113.045 54.1316 116.625 54.2124 116.625 54.2124Z" fill="#2D334A"/>
<path d="M126.004 42.9876C126.004 42.9876 120.164 49.0518 113.537 50.8856C106.911 52.7193 108.381 60.7225 108.381 60.7225C108.381 60.7225 104.577 57.339 104.453 51.8452C104.328 46.3514 108.788 39.7095 115.228 37.5379C121.669 35.3663 133.901 40.8993 132.675 51.8624C132.675 51.8624 132.32 55.6963 130.382 58.9965C130.382 58.9965 126.889 48.1607 125.268 46.6452C123.647 45.1298 116.626 44.3047 116.626 44.3047L126.004 42.9876Z" fill="#2D334A"/>
<path d="M120.775 41.92C120.775 41.92 110.81 41.778 108.376 51.2233C108.376 51.2281 111.359 44.7453 120.775 41.92Z" fill="#FFFFFE"/>
<path d="M107.974 85.3464C107.974 85.3464 118.818 95.056 129.97 85.6329" stroke="#2D334A" stroke-width="0.470456" stroke-miterlimit="10"/>
<path d="M144.483 95.1173C144.47 95.1268 144.458 95.1384 144.448 95.1516C143.47 96.0998 142.444 96.9938 141.376 97.83C140.495 98.5187 139.585 99.1667 138.647 99.7738C138.513 99.862 138.377 99.9477 138.24 100.033C137.191 100.686 136.109 101.294 134.994 101.857C134.907 101.899 134.823 101.943 134.735 101.982C134.536 102.08 134.34 102.176 134.14 102.269C133.733 102.457 133.324 102.641 132.912 102.812C127.081 104.607 119.871 105.591 113.271 104.474C108.461 103.662 104.699 102.641 101.813 101.522C100.623 100.9 99.4656 100.213 98.3457 99.4629C97.5616 98.9439 96.8074 98.3979 96.0829 97.8251C95.3929 97.2865 94.7232 96.7242 94.074 96.1382C93.74 95.536 93.1472 95.4503 93.1143 94.9141C93.1143 94.8896 93.5353 94.3657 93.5353 94.3388C93.4977 91.2027 102.239 87.6674 102.498 87.5573C102.498 87.5573 119.509 106.409 134.133 87.2439H134.155L134.227 87.2757C134.352 87.3296 134.592 87.4373 134.921 87.5915L135.041 87.6478L135.227 87.736C137.434 88.7838 142.343 91.3618 144.084 94.2433C144.191 94.4193 144.288 94.6025 144.373 94.7917C144.422 94.895 144.46 95.0044 144.483 95.1173Z" fill="#2D334A"/>
<path d="M99.4346 95.4355C99.4346 95.4355 105.08 102.841 120.022 102.486" stroke="#FFFFFE" stroke-width="0.235228" stroke-miterlimit="10"/>
<path d="M102.495 87.5472C102.42 87.6794 99.9829 91.9245 95.9699 92.965C95.1764 93.1852 94.4354 93.5745 93.7941 94.1084C93.7047 94.1794 93.6152 94.2553 93.5282 94.3287C93.2894 94.5377 93.061 94.7591 92.8438 94.9922L92.7403 94.8918C92.712 94.8649 92.6814 94.8355 92.6532 94.8036L92.4321 94.5809C92.1655 94.3116 91.9035 94.039 91.6464 93.7632C95.617 86.3647 102.495 87.5472 102.495 87.5472Z" fill="#2D334A"/>
<path d="M145.607 93.9764C145.363 94.231 145.117 94.4832 144.871 94.7329C144.798 94.8088 144.725 94.8798 144.65 94.9532C144.474 94.7084 144.288 94.4783 144.09 94.2506C143.712 93.8037 143.296 93.394 142.846 93.0265C142.247 92.528 141.559 92.157 140.823 91.9346C136.824 90.7937 134.218 87.3515 134.138 87.2438C134.138 87.2438 141.884 85.4909 145.607 93.9764Z" fill="#2D334A"/>
<path d="M110.302 53.2649H117.002C117.202 53.2655 117.395 53.3488 117.536 53.4965C117.678 53.6442 117.758 53.8443 117.759 54.0532V57.5468C117.759 58.6805 117.326 59.7678 116.556 60.5694C115.786 61.3711 114.741 61.8214 113.652 61.8214C112.563 61.8214 111.518 61.3711 110.748 60.5694C109.978 59.7678 109.545 58.6805 109.545 57.5468V54.0606C109.545 53.9569 109.564 53.8543 109.602 53.7585C109.64 53.6627 109.696 53.5757 109.766 53.5024C109.836 53.4292 109.92 53.3711 110.012 53.3316C110.104 53.2921 110.203 53.2719 110.302 53.2722V53.2649Z" stroke="#2D334A" stroke-width="0.470456" stroke-linecap="round" stroke-linejoin="round"/>
<path d="M121.216 53.2649H127.916C128.116 53.2655 128.309 53.3488 128.451 53.4965C128.593 53.6442 128.673 53.8443 128.673 54.0532V57.5468C128.673 58.6788 128.242 59.7646 127.474 60.566C126.705 61.3673 125.663 61.8188 124.575 61.8214C124.035 61.8212 123.5 61.7114 122.999 61.4982C122.247 61.1756 121.605 60.6278 121.152 59.9243C120.7 59.2208 120.459 58.3933 120.459 57.5468V54.0606C120.459 53.9569 120.478 53.8543 120.516 53.7585C120.554 53.6627 120.61 53.5757 120.68 53.5024C120.75 53.4292 120.834 53.3711 120.926 53.3316C121.018 53.2921 121.117 53.2719 121.216 53.2722V53.2649Z" stroke="#2D334A" stroke-width="0.470456" stroke-linecap="round" stroke-linejoin="round"/>
<path d="M117.75 56.5383H120.453" stroke="#2D334A" stroke-width="0.470456" stroke-linecap="round" stroke-linejoin="round"/>
<path d="M128.671 56.2322L130.764 58.301" stroke="#2D334A" stroke-width="0.470456" stroke-linecap="round" stroke-linejoin="round"/>
<path d="M109.545 56.7563L107.976 58.0245" stroke="#2D334A" stroke-width="0.470456" stroke-linecap="round" stroke-linejoin="round"/>
</g>
<g opacity="0.8">
<path d="M318 49.4355C318.008 56.0989 316.717 62.6947 314.206 68.8242C311.695 74.9537 308.016 80.4894 303.391 85.0967C303.296 85.1953 303.198 85.2907 303.095 85.3862L302.852 85.6234C301.622 86.8167 300.332 87.9414 298.988 88.9927C297.881 89.8571 296.737 90.6722 295.555 91.4381C294.067 92.4021 292.529 93.2792 290.948 94.0651C290.592 94.2417 290.234 94.4142 289.873 94.5825C284.426 97.1191 278.566 98.5581 272.604 98.8234C271.905 98.8584 271.202 98.8748 270.494 98.8727C269.786 98.8707 269.083 98.8542 268.384 98.8234C262.205 98.5494 256.137 97.0143 250.526 94.3054L250.038 94.0651C248.248 93.175 246.513 92.169 244.844 91.0531C243.872 90.4002 242.923 89.7134 241.998 88.9927C240.683 87.9632 239.42 86.8643 238.213 85.7004L237.805 85.3C237.765 85.2654 237.727 85.2284 237.692 85.1891L237.414 84.9089C231.788 79.2244 227.601 72.1787 225.228 64.4006C222.855 56.6224 222.368 48.3538 223.813 40.3325C225.257 32.3112 228.586 24.7866 233.504 18.4304C238.422 12.0742 244.775 7.08391 251.997 3.90495C259.219 0.72598 267.084 -0.542786 274.892 0.2118C282.7 0.966386 290.206 3.72085 296.742 8.22947C303.278 12.7381 308.64 18.8606 312.349 26.0506C316.058 33.2407 318 41.2746 318 49.4355Z" fill="#BDE3FF" fill-opacity="0.8"/>
<path d="M279.126 15.8839C269.299 10.9008 257.856 16.4044 253.474 28.2032C252.059 32.0222 251.106 36.8082 251.106 42.7923V69.0354H289.806V40.5841C289.806 40.5841 291.445 22.1329 279.126 15.8839Z" fill="#2D334A"/>
<path d="M302.864 85.6234C301.634 86.8168 300.344 87.9415 298.999 88.9927C297.893 89.8571 296.749 90.6722 295.567 91.4381C294.079 92.4021 292.541 93.2792 290.959 94.0652C290.604 94.2418 290.246 94.4142 289.885 94.5826C284.438 97.1191 278.578 98.5581 272.616 98.8235C271.917 98.8584 271.214 98.8748 270.506 98.8728C269.798 98.8707 269.094 98.8543 268.396 98.8235C262.216 98.5494 256.148 97.0143 250.538 94.3054L250.049 94.0652C248.26 93.175 246.525 92.169 244.856 91.0531C243.884 90.4002 242.935 89.7134 242.009 88.9927C240.695 87.9632 239.432 86.8643 238.225 85.7004C240.176 83.3633 242.404 81.2935 244.856 79.5408C246.657 78.2495 248.557 77.1163 250.538 76.153C252.621 75.1399 254.775 74.2896 256.98 73.609L262.709 69.2634V57.0581H278.732V68.9308L278.83 69.0293C279.126 69.3373 280.111 70.2613 281.197 71.2745C282.083 72.1021 283.016 72.8734 283.991 73.5844C284.191 73.7267 284.403 73.8514 284.624 73.9571C285.236 74.2312 287.261 74.8379 289.859 75.9713C291.824 76.824 293.723 77.8319 295.54 78.9864C298.064 80.5669 300.333 82.5534 302.26 84.8719C302.485 85.1399 302.677 85.3832 302.864 85.6234Z" fill="#FFFFFE" stroke="#2D334A" stroke-width="0.937737" stroke-linecap="round" stroke-linejoin="round"/>
<path d="M262.705 57.4521C262.705 57.4521 269.059 64.782 274.113 64.0737C279.167 63.3653 278.489 61.887 278.489 61.887L278.732 57.0732L262.705 57.4521Z" fill="#2D334A"/>
<path d="M257.018 40.4856C257.018 40.4856 255.896 38.0217 253.65 39.2752C251.404 40.5287 253.375 46.8515 255.896 48.0558C258.417 49.26 257.968 47.2765 257.968 47.2765" stroke="#2D334A" stroke-width="0.937737" stroke-linecap="round" stroke-linejoin="round"/>
<path d="M254.133 41.7576C254.133 41.7576 256.734 41.7206 257.483 43.9474" stroke="#2D334A" stroke-width="0.937737" stroke-linecap="round" stroke-linejoin="round"/>
<path d="M255.678 45.3057C255.678 45.3057 254.663 43.424 256.382 42.6448" stroke="#2D334A" stroke-width="0.937737" stroke-linecap="round" stroke-linejoin="round"/>
<path d="M285.154 40.4856C285.154 40.4856 286.278 38.0217 288.524 39.2752C290.77 40.5287 288.799 46.8515 286.278 48.0558C283.757 49.26 284.207 47.2765 284.207 47.2765" stroke="#2D334A" stroke-width="0.937737" stroke-linecap="round" stroke-linejoin="round"/>
<path d="M288.051 41.7576C288.051 41.7576 285.45 41.7206 284.701 43.9474" stroke="#2D334A" stroke-width="0.937737" stroke-linecap="round" stroke-linejoin="round"/>
<path d="M286.506 45.3057C286.506 45.3057 287.521 43.424 285.805 42.6448" stroke="#2D334A" stroke-width="0.937737" stroke-linecap="round" stroke-linejoin="round"/>
<path d="M257.113 36.8884C257.113 36.8884 256.388 50.2394 260.099 54.2678C263.809 58.2962 265.665 59.7252 268.89 60.1441C272.116 60.5629 273.651 60.6491 277.768 57.7942C281.884 54.9392 283.334 52.2505 283.899 49.3154C284.464 46.3803 285.994 34.0364 285.994 34.0364L282.123 23.8731L270.103 20.3467L265.91 20.8518L261.312 24.2919L257.844 30.0019L257.113 36.8884Z" fill="#FFFFFE" stroke="#2D334A" stroke-width="0.707991" stroke-miterlimit="10"/>
<path d="M256.832 40.3593V38.2588C256.832 38.2588 261.389 31.4186 261.632 26.0443C261.632 26.0443 271.231 35.0281 285.009 32.09V40.3593L286.784 38.9179C286.784 38.9179 288.714 26.6325 281.212 20.3343C273.711 14.0361 265.576 16.6385 263.23 18.4864C260.883 20.3343 251.79 26.2968 256.832 40.3593Z" fill="#2D334A"/>
<path d="M277.469 39.9527C278.166 39.9527 278.732 39.3639 278.732 38.6376C278.732 37.9113 278.166 37.3225 277.469 37.3225C276.771 37.3225 276.205 37.9113 276.205 38.6376C276.205 39.3639 276.771 39.9527 277.469 39.9527Z" fill="#2D334A"/>
<path d="M263.97 39.9527C264.667 39.9527 265.233 39.3639 265.233 38.6376C265.233 37.9113 264.667 37.3225 263.97 37.3225C263.272 37.3225 262.706 37.9113 262.706 38.6376C262.706 39.3639 263.272 39.9527 263.97 39.9527Z" fill="#2D334A"/>
<path d="M269.645 42.2476V44.8962C269.628 45.2178 269.713 45.5363 269.888 45.8023C270.062 46.0683 270.316 46.2669 270.61 46.3673C270.905 46.4677 271.222 46.4643 271.514 46.3575C271.806 46.2508 272.056 46.0467 272.225 45.777" stroke="#2D334A" stroke-width="0.937737" stroke-linecap="round" stroke-linejoin="round"/>
<path d="M265.934 49.0198C265.934 49.0198 271.364 52.3768 275.829 49.0198" stroke="#2D334A" stroke-width="0.937737" stroke-linecap="round" stroke-linejoin="round"/>
<path d="M273.909 34.4551L275.001 35.8965L282.369 35.7579C282.369 35.7579 280.02 34.5475 279.212 34.4551C278.404 34.3627 273.909 34.4551 273.909 34.4551Z" fill="#2D334A"/>
<path d="M267.86 34.4551L266.769 35.8965L259.4 35.7579C259.4 35.7579 261.747 34.5475 262.558 34.4551C263.368 34.3627 267.86 34.4551 267.86 34.4551Z" fill="#2D334A"/>
<path d="M256.98 73.6245L260.474 71.2869C260.474 71.2869 269.867 79.0049 281.209 71.2869L284.014 73.6091C284.014 73.6091 271.604 84.5917 256.98 73.6245Z" fill="#2D334A"/>
<path d="M250.532 76.1653V94.3054L250.044 94.0652C248.254 93.175 246.52 92.169 244.851 91.0531V79.5438C246.651 78.2557 248.552 77.1257 250.532 76.1653Z" fill="#2D334A"/>
<path d="M295.567 79.0109V91.438C294.08 92.402 292.541 93.2791 290.96 94.0651C290.605 94.2417 290.247 94.4141 289.886 94.5825V76.002C291.851 76.8527 293.75 77.8586 295.567 79.0109Z" fill="#2D334A"/>
<path d="M268.887 36.4912H259.4V41.5483H268.887V36.4912Z" stroke="#2D334A" stroke-width="0.468868" stroke-miterlimit="10"/>
<path d="M282.375 36.4912H272.888V41.5483H282.375V36.4912Z" stroke="#2D334A" stroke-width="0.468868" stroke-miterlimit="10"/>
<path d="M273.007 38.4993H268.888V39.2076H273.007V38.4993Z" fill="#2D334A"/>
<path d="M282.375 38.7363L285.592 40.1253" stroke="#2D334A" stroke-width="0.468868" stroke-miterlimit="10"/>
<path d="M259.4 39.2104L255.334 40.8366" stroke="#2D334A" stroke-width="0.468868" stroke-miterlimit="10"/>
</g>
<g opacity="0.8">
<path d="M311 240.93C311.011 250.259 309.204 259.493 305.689 268.074C302.174 276.655 297.022 284.406 290.547 290.856C290.414 290.994 290.278 291.127 290.133 291.261L290.058 291.334L289.996 291.395L289.868 291.524C289.84 291.543 289.815 291.567 289.793 291.593C288.069 293.262 286.263 294.836 284.383 296.31C282.833 297.523 281.231 298.664 279.577 299.734C279.341 299.889 279.1 300.04 278.86 300.191C277.013 301.34 275.105 302.411 273.139 303.403C272.986 303.476 272.837 303.554 272.683 303.623C272.335 303.795 271.987 303.963 271.635 304.127C269.25 305.24 266.803 306.202 264.307 307.007C263.727 307.202 263.138 307.383 262.55 307.555C258.26 308.805 253.861 309.604 249.418 309.939C248.771 309.991 248.125 310.03 247.475 310.06H246.952C246.124 310.095 245.333 310.108 244.521 310.108C243.709 310.108 242.897 310.108 242.089 310.06H241.567C240.9 310.03 240.233 309.991 239.574 309.939C231.843 309.353 224.27 307.357 217.203 304.041L216.557 303.735L215.873 303.399C213.368 302.151 210.94 300.743 208.603 299.182C207.238 298.268 205.91 297.306 204.617 296.297C202.774 294.865 201.002 293.337 199.306 291.718L199.232 291.645L199.099 291.515L199.033 291.451L198.735 291.158L198.577 291.002L198.188 290.61C190.309 282.652 184.446 272.789 181.122 261.899C177.798 251.009 177.115 239.432 179.136 228.201C181.157 216.971 185.818 206.435 192.703 197.535C199.588 188.635 208.483 181.648 218.594 177.197C228.705 172.746 239.718 170.969 250.649 172.026C261.581 173.082 272.091 176.939 281.241 183.252C290.392 189.565 297.899 198.138 303.091 208.205C308.284 218.273 311.001 229.521 311 240.947V240.93Z" fill="#FFE8A3" fill-opacity="0.8"/>
<path d="M217.183 228.154C217.183 228.154 214.975 232.733 217.183 234.544C219.391 236.355 222.092 239.598 222.092 240.792C222.092 241.986 222.117 244.772 225.555 245.298C228.994 245.824 228.961 246.953 228.944 248.609C228.928 250.265 232.846 251.921 235.345 249.437C237.843 246.953 256.473 250.614 258.362 251.015C260.251 251.416 263.859 250.079 262.977 246.953C262.095 243.827 268.068 244.668 268.545 241.835C269.021 239.003 267.667 238.89 269.054 235.941C270.442 232.992 238.087 230.806 238.087 230.806L217.183 228.154Z" fill="#2D334A"/>
<path d="M217.183 228.154C217.183 228.154 219.014 224.002 217.941 220.337C216.868 216.672 219.958 217.789 221.574 214.3C223.19 210.812 220.911 207.966 221.574 205.358C222.237 202.749 225.394 201.758 225.663 200.641C225.932 199.524 232.229 193.065 234.868 192.319C237.507 191.573 243.286 193.686 243.286 193.686C243.286 193.686 254.211 192.824 257.67 194.803C261.129 196.782 260.413 199.399 262.683 201.758C264.953 204.116 269.125 206.25 269.958 210.153C270.79 214.055 267.368 219.28 267.368 219.28C267.368 219.28 271.685 224.679 272.012 229.56C272.34 234.441 263.64 244.362 263.64 244.362L217.183 228.154Z" fill="#2D334A"/>
<path d="M290.054 291.334L289.992 291.394L289.864 291.524C289.836 291.543 289.811 291.566 289.789 291.593C288.065 293.261 286.259 294.836 284.379 296.31C282.829 297.523 281.227 298.664 279.573 299.733C279.337 299.888 279.096 300.039 278.856 300.19C277.009 301.34 275.101 302.411 273.135 303.403C272.982 303.476 272.833 303.553 272.679 303.622C272.331 303.795 271.983 303.963 271.631 304.127C269.246 305.239 266.799 306.201 264.302 307.007C263.722 307.201 263.134 307.382 262.546 307.555C258.256 308.805 253.856 309.604 249.413 309.939H239.57C231.839 309.353 224.266 307.356 217.199 304.041L216.553 303.734L215.869 303.398C213.364 302.151 210.936 300.742 208.599 299.181C207.237 298.267 205.909 297.306 204.613 296.297C202.768 294.859 200.995 293.333 199.294 291.718L199.219 291.644L199.087 291.515L199.021 291.45C201.814 288.04 205.027 285.029 208.578 282.495C211.097 280.686 213.758 279.099 216.532 277.752L217.178 277.446C219.893 276.158 222.69 275.071 225.551 274.19L233.567 268.107V251.015H256V267.637C256 267.637 260.823 272.41 263.399 274.169C263.641 274.326 263.89 274.47 264.145 274.6L264.286 274.669L264.601 274.798C265.724 275.23 268.329 276.062 271.61 277.489C271.954 277.64 272.302 277.795 272.659 277.963C275.041 279.045 277.348 280.297 279.565 281.71C283.104 283.928 286.282 286.717 288.981 289.971C289.35 290.424 289.71 290.881 290.054 291.334Z" fill="#FFFFFE" stroke="#2D334A" stroke-width="0.937737" stroke-linecap="round" stroke-linejoin="round"/>
<path d="M233.575 251.55C233.575 251.55 242.466 261.816 249.546 260.82C256.626 259.824 255.669 257.759 255.669 257.759L256.009 251.019L233.575 251.55Z" fill="#2D334A"/>
<path d="M225.613 227.788C225.613 227.788 224.038 224.338 220.894 226.093C217.749 227.848 220.509 236.7 224.038 238.382C227.568 240.063 226.938 237.291 226.938 237.291" fill="#FFFFFE"/>
<path d="M225.613 227.788C225.613 227.788 224.038 224.338 220.894 226.093C217.749 227.848 220.509 236.7 224.038 238.382C227.568 240.063 226.938 237.291 226.938 237.291" stroke="#2D334A" stroke-width="0.937737" stroke-linecap="round" stroke-linejoin="round"/>
<path d="M221.574 229.577C221.574 229.577 225.216 229.53 226.26 232.647L221.574 229.577Z" fill="#FFFFFE"/>
<path d="M221.574 229.577C221.574 229.577 225.216 229.53 226.26 232.647" stroke="#2D334A" stroke-width="0.937737" stroke-linecap="round" stroke-linejoin="round"/>
<path d="M223.732 234.544C223.732 234.544 222.311 231.914 224.718 230.823L223.732 234.544Z" fill="#FFFFFE"/>
<path d="M223.732 234.544C223.732 234.544 222.311 231.914 224.718 230.823" stroke="#2D334A" stroke-width="0.937737" stroke-linecap="round" stroke-linejoin="round"/>
<path d="M265.015 227.788C265.015 227.788 266.585 224.338 269.729 226.093C272.874 227.848 270.115 236.7 266.585 238.382C263.055 240.063 263.685 237.291 263.685 237.291" fill="#FFFFFE"/>
<path d="M265.015 227.788C265.015 227.788 266.585 224.338 269.729 226.093C272.874 227.848 270.115 236.7 266.585 238.382C263.055 240.063 263.685 237.291 263.685 237.291" stroke="#2D334A" stroke-width="0.937737" stroke-linecap="round" stroke-linejoin="round"/>
<path d="M269.055 229.577C269.055 229.577 265.417 229.53 264.369 232.647L269.055 229.577Z" fill="#FFFFFE"/>
<path d="M269.055 229.577C269.055 229.577 265.417 229.53 264.369 232.647" stroke="#2D334A" stroke-width="0.937737" stroke-linecap="round" stroke-linejoin="round"/>
<path d="M266.896 234.544C266.896 234.544 268.317 231.914 265.91 230.823L266.896 234.544Z" fill="#FFFFFE"/>
<path d="M266.896 234.544C266.896 234.544 268.317 231.914 265.91 230.823" stroke="#2D334A" stroke-width="0.937737" stroke-linecap="round" stroke-linejoin="round"/>
<path d="M225.746 222.73C225.746 222.73 224.727 241.417 229.922 247.061C235.117 252.705 237.714 254.697 242.234 255.288C246.754 255.879 248.896 255.991 254.663 251.994C260.429 247.997 262.455 244.233 263.246 240.124C264.038 236.015 266.184 218.733 266.184 218.733L260.761 204.504L243.937 199.567L238.054 200.309L231.616 205.129L226.769 213.106L225.746 222.73Z" fill="#FFFFFE" stroke="#2D334A" stroke-width="0.707991" stroke-miterlimit="10"/>
<path d="M254.244 227.055C254.594 227.055 254.935 226.947 255.226 226.744C255.517 226.542 255.744 226.254 255.878 225.918C256.012 225.582 256.047 225.211 255.979 224.854C255.91 224.497 255.742 224.169 255.495 223.912C255.247 223.654 254.932 223.479 254.589 223.408C254.246 223.337 253.89 223.373 253.567 223.512C253.243 223.652 252.967 223.888 252.773 224.191C252.579 224.493 252.475 224.849 252.475 225.213C252.475 225.455 252.521 225.695 252.609 225.918C252.698 226.141 252.829 226.344 252.993 226.515C253.157 226.686 253.352 226.822 253.567 226.914C253.781 227.007 254.011 227.055 254.244 227.055Z" fill="#2D334A"/>
<path d="M235.34 227.055C235.69 227.055 236.032 226.947 236.323 226.744C236.614 226.542 236.841 226.254 236.975 225.918C237.108 225.582 237.144 225.211 237.075 224.854C237.007 224.497 236.838 224.169 236.591 223.912C236.344 223.654 236.029 223.479 235.685 223.408C235.342 223.337 234.986 223.373 234.663 223.512C234.34 223.652 234.064 223.888 233.869 224.191C233.675 224.493 233.571 224.849 233.571 225.213C233.571 225.702 233.758 226.17 234.089 226.515C234.421 226.861 234.871 227.055 235.34 227.055Z" fill="#2D334A"/>
<path d="M243.286 230.262V233.971C243.264 234.419 243.385 234.863 243.629 235.234C243.874 235.606 244.229 235.883 244.64 236.023C245.051 236.163 245.496 236.159 245.904 236.01C246.312 235.861 246.661 235.576 246.898 235.199" stroke="#2D334A" stroke-width="0.937737" stroke-linecap="round" stroke-linejoin="round"/>
<path d="M238.087 239.744C238.087 239.744 245.693 244.448 251.94 239.744" stroke="#2D334A" stroke-width="0.937737" stroke-linecap="round" stroke-linejoin="round"/>
<path d="M249.273 219.358L250.801 221.372L261.117 221.178C261.117 221.178 257.832 219.483 256.696 219.358C255.561 219.233 249.273 219.358 249.273 219.358Z" fill="#2D334A"/>
<path d="M240.788 219.358L239.26 221.372L228.944 221.178C228.944 221.178 232.234 219.483 233.365 219.358C234.496 219.233 240.788 219.358 240.788 219.358Z" fill="#2D334A"/>
<path d="M264.294 274.691H264.269C242.768 289.584 226.313 274.863 225.58 274.195L225.555 274.169" stroke="#2D334A" stroke-width="0.937737" stroke-miterlimit="10"/>
<path d="M239.993 207.893C239.032 208.213 238.173 208.799 237.507 209.588C236.679 210.545 235.113 212.119 233.559 212.119C231.326 212.119 230.688 213.442 229.893 215.762C229.098 218.082 227.54 216.051 226.09 219.298C224.64 222.544 226.243 227.059 226.243 227.059C226.119 226.701 225.149 226.153 224.872 225.899C223.777 224.902 222.784 223.789 221.91 222.579C219.76 219.561 218.463 215.581 220.509 212.114C221.297 210.782 222.473 209.721 223.169 208.337C224.275 206.138 223.998 203.512 224.221 201.046C224.445 198.58 225.547 195.781 227.871 195.234C229.868 194.764 231.852 196.182 233.899 196.122C237.309 196.023 239.434 192.065 242.686 190.995C244.898 190.262 247.346 190.995 249.314 192.289C251.282 193.582 252.906 195.342 254.646 196.937C255.545 197.76 256.548 198.571 257.737 198.735C260.148 199.071 262.534 196.644 264.837 198.166C265.488 198.607 265.981 199.261 266.238 200.024C267.012 202.18 266.411 204.866 266.026 207.143C265.711 208.98 265.657 211.023 266.677 212.554C267.505 213.8 268.893 214.494 269.945 215.538C271.851 217.431 271.408 223.73 269.034 225.235C267.802 226.021 266.478 226.64 265.094 227.076C265.094 227.076 263.499 220.876 261.092 219.315C258.685 217.754 259.319 216.607 259.481 214.141C259.642 211.674 255.504 207.854 253.432 208.76C251.361 209.665 247.748 212.153 245.896 211.157C244.045 210.161 242.777 208.346 241.501 207.846C241.007 207.691 240.477 207.707 239.993 207.893Z" fill="#2D334A"/>
<path d="M229.847 210.278C229.847 210.278 245.954 193.764 262.181 212.865C262.181 212.865 258.242 200.943 246.024 200.943C233.807 200.943 229.847 210.278 229.847 210.278Z" fill="#FFFFFE"/>
<path d="M225.551 274.187V307.296C222.694 306.413 219.896 305.33 217.179 304.054V277.442C219.893 276.154 222.691 275.067 225.551 274.187Z" fill="#2D334A"/>
<path d="M272.667 277.985V303.631C272.319 303.803 271.971 303.972 271.619 304.136C269.234 305.248 266.786 306.21 264.29 307.016V274.678L264.605 274.807C265.727 275.238 268.333 276.07 271.615 277.498L272.667 277.985Z" fill="#2D334A"/>
<path d="M225.551 276.01C225.551 276.01 227.262 293.973 246.265 281.348C246.265 281.348 233.277 281.158 226.127 274.691L225.543 274.492L225.244 275.734L225.551 276.01Z" fill="#2D334A"/>
<path d="M264.53 276.01C264.53 276.01 262.824 293.973 243.817 281.348C243.817 281.348 256.804 281.158 263.95 274.691L264.534 274.492L264.833 275.734L264.53 276.01Z" fill="#2D334A"/>
</g>
</svg>
