<svg width="444" height="653" viewBox="0 0 444 653" fill="none" xmlns="http://www.w3.org/2000/svg">
<path fill-rule="evenodd" clip-rule="evenodd" d="M286.244 589.232C293.431 589.167 298.791 594.829 301.133 601.383C303.639 608.395 304.005 617.015 297.679 621.232C291.624 625.269 284.045 621.037 278.287 616.613C273.48 612.92 270.526 607.351 272.184 601.643C274.08 595.12 279.221 589.295 286.244 589.232Z" fill="#E3F6F5"/>
<path fill-rule="evenodd" clip-rule="evenodd" d="M244.995 589.231C249.657 589.188 253.134 593.009 254.653 597.434C256.278 602.167 256.516 607.985 252.413 610.831C248.485 613.556 243.569 610.7 239.834 607.714C236.716 605.221 234.8 601.462 235.876 597.609C237.105 593.206 240.44 589.274 244.995 589.231Z" fill="#E3F6F5"/>
<path fill-rule="evenodd" clip-rule="evenodd" d="M262.029 611.087C265.137 611.06 267.455 613.466 268.467 616.252C269.551 619.232 269.709 622.895 266.974 624.687C264.355 626.403 261.078 624.604 258.588 622.724C256.51 621.154 255.232 618.788 255.949 616.362C256.769 613.59 258.992 611.114 262.029 611.087Z" fill="#E3F6F5"/>
<path fill-rule="evenodd" clip-rule="evenodd" d="M65.0542 303.424C69.3277 303.385 72.5144 306.782 73.9071 310.715C75.397 314.922 75.6148 320.094 71.8536 322.624C68.2531 325.046 63.7468 322.507 60.3234 319.853C57.4651 317.637 55.7083 314.296 56.6945 310.871C57.8217 306.957 60.8782 303.462 65.0542 303.424Z" fill="#E3F6F5"/>
<path fill-rule="evenodd" clip-rule="evenodd" d="M32.1016 328.677C33.1163 325.903 36.0998 324.672 38.9949 324.733C42.0921 324.798 45.5067 325.922 46.2361 328.973C46.9343 331.895 44.1874 334.189 41.6291 335.754C39.4932 337.062 36.8941 337.381 34.908 335.906C32.6381 334.22 31.11 331.388 32.1016 328.677Z" fill="#E3F6F5"/>
<path fill-rule="evenodd" clip-rule="evenodd" d="M66.7597 333.892C66.9224 337.128 63.8635 339.665 60.2542 340.863C56.393 342.144 51.5987 342.497 49.1385 339.74C46.7834 337.101 49.0067 333.595 51.369 330.906C53.3413 328.66 56.3906 327.208 59.599 327.831C63.2657 328.542 66.6007 330.73 66.7597 333.892Z" fill="#E3F6F5"/>
<path fill-rule="evenodd" clip-rule="evenodd" d="M40.0581 303.424C42.7776 303.398 44.8055 305.663 45.6918 308.285C46.6399 311.09 46.7785 314.537 44.385 316.224C42.0938 317.839 39.2262 316.146 37.0476 314.377C35.2287 312.899 34.1108 310.672 34.7383 308.389C35.4556 305.779 37.4007 303.449 40.0581 303.424Z" fill="#E3F6F5"/>
<path fill-rule="evenodd" clip-rule="evenodd" d="M47.4694 316.873C49.4119 316.857 50.8604 318.273 51.4934 319.911C52.1707 321.664 52.2697 323.819 50.5601 324.873C48.9234 325.883 46.8751 324.825 45.319 323.719C44.0198 322.795 43.2213 321.403 43.6696 319.976C44.1819 318.345 45.5712 316.889 47.4694 316.873Z" fill="#E3F6F5"/>
<path fill-rule="evenodd" clip-rule="evenodd" d="M395.831 336.929C420.672 327.381 432.136 302.331 432.101 278.57C432.064 253.151 422.668 225.586 395.661 220.925C369.806 216.462 348.928 240.032 334.562 261.735C322.567 279.854 319.273 301.349 332.045 317.024C346.642 334.939 371.556 346.258 395.831 336.929Z" fill="#E3F6F5" fill-opacity="0.7"/>
<path d="M408 282.451C408.01 290.201 406.447 297.873 403.406 305.002C400.366 312.131 395.91 318.569 390.31 323.926L390.288 323.944C390.213 324.019 390.138 324.094 390.059 324.166L389.988 324.234C388.476 325.664 386.887 327.01 385.228 328.266L385.017 328.427C382.077 330.633 378.933 332.551 375.628 334.157L375.27 334.322C374.191 334.837 373.095 335.315 371.982 335.754C369.322 336.846 366.581 337.733 363.785 338.408C363.033 338.587 362.274 338.749 361.508 338.895C359.047 339.373 356.558 339.688 354.056 339.84C353.533 339.872 353.01 339.897 352.484 339.915C351.825 339.94 351.166 339.951 350.504 339.951C349.841 339.951 349.132 339.951 348.452 339.915C347.313 339.876 346.188 339.801 345.068 339.697C338.358 339.072 331.811 337.266 325.73 334.361L325.372 334.196C322.067 332.59 318.923 330.671 315.983 328.467L315.772 328.306C314.074 327.02 312.451 325.641 310.909 324.173C310.861 324.133 310.815 324.09 310.772 324.044L310.74 324.012L310.701 323.976L310.482 323.765L310.457 323.74C303.646 317.132 298.576 308.94 295.701 299.896C292.826 290.852 292.235 281.237 293.981 271.909C295.726 262.581 299.754 253.83 305.705 246.437C311.656 239.045 319.345 233.241 328.085 229.543C336.825 225.845 346.344 224.369 355.794 225.246C365.243 226.123 374.329 229.326 382.239 234.569C390.149 239.812 396.638 246.932 401.127 255.293C405.616 263.654 407.965 272.997 407.964 282.487L408 282.451Z" fill="#BAE8E8"/>
<path d="M390.311 323.926L390.289 323.944C390.214 324.019 390.139 324.094 390.06 324.166L389.988 324.234C388.477 325.664 386.888 327.01 385.229 328.266L385.018 328.427C382.078 330.633 378.934 332.551 375.628 334.157L375.27 334.322C374.191 334.837 373.096 335.315 371.983 335.754C369.322 336.846 366.582 337.734 363.786 338.408C363.034 338.587 362.275 338.749 361.509 338.895C359.048 339.373 356.559 339.688 354.057 339.84C353.534 339.872 353.011 339.897 352.485 339.915H348.452C347.314 339.876 346.189 339.801 345.068 339.697C338.358 339.072 331.812 337.266 325.731 334.361L325.373 334.196C322.068 332.59 318.924 330.671 315.983 328.467L315.772 328.306C314.075 327.02 312.452 325.641 310.909 324.173C310.861 324.133 310.816 324.09 310.773 324.044L310.741 324.012L310.702 323.976L310.483 323.765L310.458 323.74L310.691 323.425C312.315 321.269 314.165 319.293 316.209 317.53C316.41 317.355 316.61 317.172 316.811 317.022C320.095 314.345 323.933 312.432 328.048 311.421C328.704 311.254 329.321 311.064 329.899 310.852C334.941 309.061 337.144 305.971 337.144 305.971V290.533H337.502L361.19 290.698H361.501V305.964C361.501 305.964 363.861 309.04 369.265 310.845C370.115 311.134 370.98 311.373 371.858 311.561C375.602 312.366 379.135 313.952 382.225 316.216C382.783 316.625 383.356 317.061 383.936 317.527C386.113 319.273 388.094 321.249 389.845 323.421C390.031 323.564 390.174 323.744 390.311 323.926Z" fill="white" stroke="#2D334A" stroke-width="0.919596" stroke-linecap="round" stroke-linejoin="round"/>
<path d="M349.934 300.773L349.934 300.773C344.882 299.654 341.749 297.062 339.878 294.754C338.941 293.599 338.32 292.514 337.934 291.719C337.758 291.358 337.631 291.057 337.545 290.837C337.616 290.871 337.702 290.914 337.803 290.968C338.54 291.358 340.045 292.274 343.108 294.379C344.697 295.472 346.665 295.78 348.698 295.646C350.731 295.511 352.85 294.932 354.767 294.224C356.684 293.517 358.407 292.677 359.65 292.015C360.272 291.683 360.775 291.396 361.122 291.192C361.191 291.151 361.254 291.113 361.311 291.08V297.19C361.308 297.199 361.306 297.211 361.302 297.226C361.291 297.265 361.275 297.325 361.25 297.401C361.199 297.553 361.116 297.771 360.983 298.027C360.719 298.538 360.261 299.199 359.488 299.793C357.949 300.974 355.111 301.921 349.934 300.773ZM337.179 290.498C337.218 290.493 337.25 290.488 337.277 290.485L337.179 290.498Z" fill="#2D334A" stroke="#2D334A" stroke-width="0.459798"/>
<path d="M367.17 273.269C367.17 273.269 373.845 270.104 371.897 276.825C369.949 283.547 366.081 282.372 366.081 282.372" fill="white"/>
<path d="M367.17 273.269C367.17 273.269 373.845 270.104 371.897 276.825C369.949 283.547 366.081 282.372 366.081 282.372" stroke="#2D334A" stroke-width="0.832234" stroke-miterlimit="10"/>
<path d="M370.318 275.085C370.318 275.085 368.147 274.154 367.17 276.589C367.17 276.589 369.429 275.873 368.502 279.601" fill="white"/>
<path d="M370.318 275.085C370.318 275.085 368.147 274.154 367.17 276.589C367.17 276.589 369.429 275.873 368.502 279.601" stroke="#2D334A" stroke-width="0.832234" stroke-linecap="round" stroke-linejoin="round"/>
<path d="M331.603 272.668C331.603 272.668 324.932 269.502 326.88 276.22C328.828 282.938 332.696 281.771 332.696 281.771" fill="white"/>
<path d="M331.603 272.668C331.603 272.668 324.932 269.502 326.88 276.22C328.828 282.938 332.696 281.771 332.696 281.771" stroke="#2D334A" stroke-width="0.832234" stroke-miterlimit="10"/>
<path d="M328.459 274.483C328.459 274.483 330.629 273.552 331.603 275.987C331.603 275.987 329.347 275.271 330.275 278.999" fill="white"/>
<path d="M328.459 274.483C328.459 274.483 330.629 273.552 331.603 275.987C331.603 275.987 329.347 275.271 330.275 278.999" stroke="#2D334A" stroke-width="0.832234" stroke-linecap="round" stroke-linejoin="round"/>
<path d="M349.455 296.596C359.302 296.596 367.285 285.939 367.285 272.793C367.285 259.647 359.302 248.99 349.455 248.99C339.608 248.99 331.625 259.647 331.625 272.793C331.625 285.939 339.608 296.596 349.455 296.596Z" fill="white" stroke="#2D334A" stroke-width="0.997761" stroke-miterlimit="10"/>
<path d="M348.33 272.711V280.396C348.33 280.396 349.333 283.296 352.445 280.886" stroke="#2D334A" stroke-width="0.919596" stroke-linecap="round" stroke-linejoin="round"/>
<path d="M358.628 271.662C358.628 272.346 358.074 272.9 357.39 272.9C356.706 272.9 356.152 272.346 356.152 271.662C356.152 270.978 356.706 270.423 357.39 270.423C358.074 270.423 358.628 270.978 358.628 271.662Z" fill="#2D334A" stroke="#2D334A" stroke-width="0.459798"/>
<path d="M342.317 271.708C342.317 272.392 341.763 272.946 341.079 272.946C340.395 272.946 339.84 272.392 339.84 271.708C339.84 271.024 340.395 270.47 341.079 270.47C341.763 270.47 342.317 271.024 342.317 271.708Z" fill="#2D334A" stroke="#2D334A" stroke-width="0.459798"/>
<path d="M337.179 305.935C337.179 305.935 349.147 319.106 361.53 305.935H337.179Z" fill="white"/>
<path d="M337.179 305.935C337.179 305.935 349.147 319.106 361.53 305.935" stroke="#2D334A" stroke-width="1.06213" stroke-miterlimit="10"/>
<path d="M354.779 268.51L354.567 268.491L354.563 268.509C354.562 268.509 354.56 268.508 354.558 268.508C354.501 268.488 354.448 268.456 354.404 268.414C354.359 268.373 354.323 268.322 354.299 268.267C354.275 268.211 354.262 268.15 354.262 268.089C354.262 268.028 354.275 267.968 354.299 267.912C354.323 267.857 354.359 267.806 354.404 267.765C354.448 267.723 354.501 267.691 354.558 267.671C354.615 267.651 354.675 267.643 354.735 267.647C355.402 267.714 356.054 267.632 356.678 267.549C356.703 267.545 356.728 267.542 356.752 267.539C357.359 267.458 357.938 267.38 358.521 267.418L358.524 267.418C359.644 267.479 360.699 267.966 361.473 268.779C361.663 268.983 361.619 269.237 361.447 269.409C361.361 269.495 361.256 269.544 361.158 269.551C361.067 269.556 360.963 269.527 360.86 269.417C360.52 269.048 360.105 268.755 359.644 268.557C359.182 268.359 358.684 268.261 358.183 268.27C357.677 268.273 357.175 268.339 356.69 268.402C356.607 268.413 356.525 268.424 356.444 268.434C355.876 268.507 355.329 268.562 354.779 268.51Z" fill="#2D334A" stroke="#2D334A" stroke-width="0.459798"/>
<path d="M343.868 267.672L343.957 267.664C344.032 267.684 344.102 267.724 344.158 267.78C344.24 267.862 344.287 267.973 344.29 268.09C344.286 268.206 344.237 268.316 344.155 268.398C344.071 268.481 343.959 268.529 343.842 268.531L343.832 268.531L343.822 268.532C343.275 268.59 342.729 268.535 342.161 268.46C342.08 268.45 342 268.439 341.918 268.428C341.432 268.363 340.927 268.295 340.418 268.295C339.916 268.285 339.418 268.382 338.956 268.58C338.494 268.778 338.08 269.072 337.74 269.443C337.638 269.552 337.534 269.581 337.443 269.576C337.345 269.569 337.24 269.52 337.154 269.434C336.982 269.262 336.938 269.008 337.127 268.804C337.901 267.991 338.957 267.504 340.077 267.443L340.077 267.443L340.079 267.443C340.67 267.407 341.256 267.483 341.866 267.563C341.886 267.566 341.907 267.569 341.927 267.571C342.552 267.653 343.203 267.734 343.868 267.672Z" fill="#2D334A" stroke="#2D334A" stroke-width="0.459798"/>
<path d="M345.165 284.632C345.165 284.632 349.577 289.814 354.759 284.632" stroke="#2D334A" stroke-width="0.919596" stroke-linecap="round" stroke-linejoin="round"/>
<path d="M349.506 241.855C354.217 241.526 359.799 242.275 363.737 246.414L360.437 245.732L360.257 246.145L360.257 246.145L360.257 246.145L360.258 246.145L360.259 246.146L360.266 246.151L360.295 246.172C360.321 246.192 360.36 246.22 360.411 246.259C360.512 246.336 360.661 246.452 360.849 246.605C361.225 246.913 361.755 247.371 362.374 247.973C363.61 249.178 365.194 250.956 366.583 253.249C369.344 257.808 371.336 264.403 368.294 272.596L367.139 272.853C367.121 272.749 367.096 272.613 367.065 272.449C366.986 272.039 366.861 271.454 366.681 270.75C366.321 269.343 365.734 267.457 364.831 265.547C363.03 261.739 359.933 257.769 354.791 257.416L354.73 257.412L354.675 257.439L347.447 260.937L349.578 258.484L349.784 258.246L349.495 258.122L349.404 258.333C349.495 258.122 349.494 258.122 349.494 258.122L349.493 258.122L349.491 258.121L349.482 258.117L349.451 258.104C349.424 258.093 349.384 258.077 349.332 258.058C349.228 258.018 349.076 257.964 348.882 257.902C348.495 257.778 347.938 257.624 347.257 257.5C345.896 257.253 344.032 257.129 342.03 257.624C340.025 258.12 337.889 259.236 335.989 261.459C334.109 263.659 332.469 266.933 331.408 271.739C331.35 271.747 331.271 271.748 331.178 271.724C330.979 271.671 330.66 271.483 330.353 270.831C330.044 270.174 329.76 269.068 329.631 267.227C329.503 265.389 329.531 262.831 329.837 259.281C330.446 252.228 333.433 247.923 336.257 245.381C337.671 244.108 339.046 243.274 340.067 242.759C340.487 242.547 340.847 242.39 341.124 242.278L340.443 243.361L340.074 243.947L340.72 243.697L340.638 243.483L340.72 243.697L340.721 243.697L340.723 243.697L340.731 243.694L340.763 243.681C340.792 243.67 340.836 243.654 340.894 243.634C341.009 243.592 341.179 243.532 341.4 243.459C341.841 243.313 342.481 243.115 343.274 242.906C344.861 242.487 347.06 242.026 349.506 241.855Z" fill="#2D334A" stroke="#2D334A" stroke-width="0.459798"/>
<path d="M340.638 276.736C344.251 276.736 347.181 273.807 347.181 270.193C347.181 266.58 344.251 263.651 340.638 263.651C337.025 263.651 334.096 266.58 334.096 270.193C334.096 273.807 337.025 276.736 340.638 276.736Z" stroke="#2D334A" stroke-width="0.459798" stroke-miterlimit="10"/>
<path d="M357.39 276.736C361.003 276.736 363.932 273.807 363.932 270.193C363.932 266.58 361.003 263.651 357.39 263.651C353.777 263.651 350.848 266.58 350.848 270.193C350.848 273.807 353.777 276.736 357.39 276.736Z" stroke="#2D334A" stroke-width="0.459798" stroke-miterlimit="10"/>
<path d="M347.181 270.193H350.848" stroke="#2D334A" stroke-width="0.459798" stroke-miterlimit="10"/>
<path d="M363.937 270.193L367.288 272.793" stroke="#2D334A" stroke-width="0.459798" stroke-miterlimit="10"/>
<path d="M331.603 271.923L334.11 269.774" stroke="#2D334A" stroke-width="0.459798" stroke-miterlimit="10"/>
<path d="M337.178 301.993C337.178 301.993 353.515 303.679 361.973 301.993C361.973 301.993 370.843 302.351 369.296 310.863C367.953 318.268 343.037 319.009 332.888 314.644C330.023 313.416 329.411 310.186 329.898 307.124C330.296 304.632 331.381 301.857 337.178 301.993Z" fill="#FFD803" stroke="#2D334A" stroke-width="0.919596" stroke-miterlimit="10"/>
<path d="M349.959 317.376V339.897" stroke="#2D334A" stroke-width="1.8208" stroke-miterlimit="10"/>
<path d="M352.33 317.376H350.371V323.049H352.33V317.376Z" stroke="#2D334A" stroke-width="0.919596" stroke-miterlimit="10"/>
<path fill-rule="evenodd" clip-rule="evenodd" d="M379.678 97.6444C382.331 133.513 358.941 165.934 325.818 178.02C298.287 188.066 274.512 164.754 253.746 143.597C225.936 115.263 182.979 85.7517 199.874 49.705C218.753 9.42422 271.359 4.16949 313.793 15.4833C350.839 25.3607 376.796 58.6933 379.678 97.6444Z" fill="#E3F6F5" fill-opacity="0.5"/>
<path d="M369.48 75.0283C369.492 84.3337 367.616 93.5449 363.966 102.105C360.317 110.665 354.969 118.395 348.246 124.829C348.109 124.967 347.967 125.1 347.816 125.234L347.464 125.565L347.377 125.642C345.623 127.285 343.784 128.836 341.868 130.287C340.259 131.495 338.596 132.633 336.879 133.702C334.716 135.048 332.481 136.273 330.182 137.371L329.266 137.801L328.642 138.089C327.412 138.634 326.169 139.146 324.913 139.625L324.784 139.672C323.705 140.102 322.608 140.464 321.503 140.816L321.008 140.971C315.342 142.737 309.471 143.759 303.542 144.012C302.759 144.046 301.976 144.068 301.185 144.076H300.475C299.443 144.076 298.424 144.055 297.409 144.008C291.794 143.767 286.23 142.838 280.841 141.242L280.411 141.113C279.302 140.778 278.2 140.412 277.117 140.021C276.927 139.956 276.742 139.887 276.553 139.814C275.138 139.294 273.74 138.726 272.373 138.094C272.067 137.96 271.762 137.823 271.461 137.664L270.751 137.328C268.15 136.085 265.629 134.68 263.203 133.122C261.784 132.21 260.404 131.251 259.065 130.244C257.187 128.831 255.381 127.324 253.655 125.728L253.564 125.647L252.924 125.126C252.865 125.079 252.81 125.027 252.76 124.971L252.356 124.58C244.178 116.642 238.092 106.804 234.642 95.9419C231.191 85.0802 230.483 73.5331 232.581 62.3312C234.679 51.1292 239.517 40.6208 246.664 31.7437C253.811 22.8665 263.045 15.8967 273.541 11.4561C284.037 7.01562 295.469 5.24256 306.817 6.29507C318.165 7.34758 329.076 11.1929 338.576 17.488C348.076 23.7832 355.87 32.3323 361.263 42.3725C366.655 52.4127 369.478 63.6316 369.48 75.0283Z" fill="#BAE8E8"/>
<path d="M271.848 58.8649C271.86 52.267 273.533 45.7783 276.712 39.9965C280.841 32.5773 288.282 24.9087 301.365 25.0033C326.638 25.1839 328.104 54.6241 328.104 54.6241L330.173 112.976L271.443 112.546L271.848 58.8649Z" fill="#2D334A"/>
<path d="M301.164 144.05C301.955 144.05 302.738 144.02 303.521 143.986C309.45 143.733 315.321 142.711 320.987 140.945L321.481 140.79C322.587 140.438 323.683 140.055 324.763 139.646L324.832 140.205L324.892 139.599C326.148 139.123 327.391 138.611 328.621 138.063L329.245 137.775L330.161 137.345C332.459 136.247 334.695 135.022 336.857 133.676C338.578 132.61 340.241 131.471 341.847 130.261C343.769 128.816 345.615 127.271 347.378 125.634C347.132 125.333 346.883 125.027 346.625 124.722C343.828 121.493 340.539 118.727 336.879 116.524C334.718 115.201 332.474 114.018 330.161 112.984C329.636 112.748 329.12 112.524 328.621 112.313C327.838 111.987 327.09 111.69 326.389 111.423C326.01 111.277 325.645 111.139 325.296 110.993L324.144 110.563C322.612 110.03 321.503 109.677 321.013 109.466C320.692 109.318 320.384 109.144 320.092 108.946C317.417 107.191 312.411 102.43 312.411 102.43V85.8796H289.121V102.924L280.794 108.985C279.886 109.255 279.005 109.539 278.14 109.845C277.646 110.012 277.16 110.184 276.678 110.361L276.605 110.391C274.781 111.058 273.061 111.78 271.444 112.541C268.563 113.883 265.8 115.466 263.186 117.273C259.659 119.694 256.451 122.549 253.638 125.771C255.364 127.367 257.17 128.874 259.048 130.287C260.39 131.294 261.769 132.253 263.186 133.165C265.612 134.723 268.133 136.128 270.734 137.371L271.444 137.707C271.745 137.848 272.05 137.986 272.356 138.137C273.723 138.752 275.121 139.319 276.536 139.857C276.725 139.93 276.91 139.999 277.099 140.063C278.183 140.455 279.284 140.82 280.394 141.156L280.824 141.285C286.213 142.881 291.777 143.81 297.392 144.05C298.407 144.098 299.426 144.119 300.458 144.119H301.004" fill="#FFFFFE"/>
<path d="M301.164 144.05C301.955 144.05 302.738 144.02 303.521 143.986C309.45 143.733 315.321 142.711 320.987 140.945L321.481 140.79C322.587 140.438 323.683 140.055 324.763 139.646L324.832 140.205L324.892 139.599C326.148 139.123 327.391 138.611 328.621 138.063L329.245 137.775L330.161 137.345C332.459 136.247 334.695 135.022 336.857 133.676C338.578 132.61 340.241 131.471 341.847 130.261C343.769 128.816 345.615 127.271 347.378 125.634C347.132 125.333 346.883 125.027 346.625 124.722C343.828 121.493 340.539 118.727 336.879 116.524C334.718 115.201 332.474 114.018 330.161 112.984C329.636 112.748 329.12 112.524 328.621 112.313C327.838 111.987 327.09 111.69 326.389 111.423C326.01 111.277 325.645 111.139 325.296 110.993L324.144 110.563C322.612 110.03 321.503 109.677 321.013 109.466C320.692 109.318 320.384 109.144 320.092 108.946C317.417 107.191 312.411 102.43 312.411 102.43V85.8796H289.121V102.924L280.794 108.985C279.886 109.255 279.005 109.539 278.14 109.845C277.646 110.012 277.16 110.184 276.678 110.361L276.605 110.391C274.781 111.058 273.061 111.78 271.444 112.541C268.563 113.883 265.8 115.466 263.186 117.273C259.659 119.694 256.451 122.549 253.638 125.771C255.364 127.367 257.17 128.874 259.048 130.287C260.39 131.294 261.769 132.253 263.186 133.165C265.612 134.723 268.133 136.128 270.734 137.371L271.444 137.707C271.745 137.848 272.05 137.986 272.356 138.137C273.723 138.752 275.121 139.319 276.536 139.857C276.725 139.93 276.91 139.999 277.099 140.063C278.183 140.455 279.284 140.82 280.394 141.156L280.824 141.285C286.213 142.881 291.777 143.81 297.392 144.05C298.407 144.098 299.426 144.119 300.458 144.119H301.004" stroke="#2D334A" stroke-width="1.03797" stroke-linecap="round" stroke-linejoin="round"/>
<path d="M289.121 86.4171C289.121 86.4171 298.351 96.6577 305.701 95.6685C313.052 94.6793 312.062 92.6104 312.062 92.6104L312.415 85.8879L289.121 86.4171Z" fill="#2D334A"/>
<path d="M280.854 62.7146C280.854 62.7146 279.224 59.2738 275.96 61.0243C272.695 62.7748 275.56 71.6047 279.224 73.2821C282.889 74.9595 282.235 72.194 282.235 72.194" fill="white"/>
<path d="M280.854 62.7146C280.854 62.7146 279.224 59.2738 275.96 61.0243C272.695 62.7748 275.56 71.6047 279.224 73.2821C282.889 74.9595 282.235 72.194 282.235 72.194" stroke="#2D334A" stroke-width="1.03797" stroke-linecap="round" stroke-linejoin="round"/>
<path d="M276.661 64.4822C276.661 64.4822 280.442 64.4306 281.53 67.5402L276.661 64.4822Z" fill="white"/>
<path d="M276.661 64.4822C276.661 64.4822 280.442 64.4306 281.53 67.5402" stroke="#2D334A" stroke-width="1.03797" stroke-linecap="round" stroke-linejoin="round"/>
<path d="M278.918 69.4412C278.918 69.4412 277.443 66.8176 279.938 65.7295L278.918 69.4412Z" fill="white"/>
<path d="M278.918 69.4412C278.918 69.4412 277.443 66.8176 279.938 65.7295" stroke="#2D334A" stroke-width="1.03797" stroke-linecap="round" stroke-linejoin="round"/>
<path d="M321.766 62.7146C321.766 62.7146 323.396 59.2738 326.66 61.0243C329.925 62.7748 327.06 71.6047 323.396 73.2821C319.731 74.9595 320.385 72.194 320.385 72.194" fill="white"/>
<path d="M321.766 62.7146C321.766 62.7146 323.396 59.2738 326.66 61.0243C329.925 62.7748 327.06 71.6047 323.396 73.2821C319.731 74.9595 320.385 72.194 320.385 72.194" stroke="#2D334A" stroke-width="1.03797" stroke-linecap="round" stroke-linejoin="round"/>
<path d="M325.959 64.4822C325.959 64.4822 322.178 64.4306 321.09 67.5402L325.959 64.4822Z" fill="white"/>
<path d="M325.959 64.4822C325.959 64.4822 322.178 64.4306 321.09 67.5402" stroke="#2D334A" stroke-width="1.03797" stroke-linecap="round" stroke-linejoin="round"/>
<path d="M323.714 69.4411C323.714 69.4411 325.189 66.8175 322.694 65.7294L323.714 69.4411Z" fill="white"/>
<path d="M323.714 69.4411C323.714 69.4411 325.189 66.8175 322.694 65.7294" stroke="#2D334A" stroke-width="1.03797" stroke-linecap="round" stroke-linejoin="round"/>
<path d="M280.991 57.6608C280.991 57.6608 279.938 76.3012 285.331 81.9312C290.725 87.5612 293.421 89.5526 298.109 90.1375C302.797 90.7225 305.025 90.8428 311.012 86.8558C316.999 82.8688 319.102 79.1141 319.92 75.011C320.737 70.9079 322.969 53.6738 322.969 53.6738L317.343 39.4805L299.873 34.5559L293.783 35.2655L287.09 40.0826L282.045 48.0567L280.991 57.6608Z" fill="white" stroke="#2D334A" stroke-width="0.783665" stroke-miterlimit="10"/>
<path d="M310.574 61.9616C310.937 61.9616 311.292 61.8539 311.594 61.6521C311.896 61.4503 312.131 61.1635 312.27 60.8279C312.409 60.4923 312.446 60.1231 312.375 59.7668C312.304 59.4106 312.129 59.0833 311.872 58.8265C311.615 58.5697 311.288 58.3947 310.932 58.3238C310.576 58.253 310.207 58.2894 309.871 58.4284C309.535 58.5674 309.249 58.8027 309.047 59.1048C308.845 59.4068 308.737 59.7619 308.737 60.1251C308.738 60.6118 308.932 61.0783 309.276 61.4224C309.621 61.7666 310.087 61.9605 310.574 61.9616Z" fill="#2D334A"/>
<path d="M290.962 61.9617C291.325 61.9617 291.68 61.854 291.982 61.6522C292.284 61.4504 292.519 61.1636 292.658 60.828C292.797 60.4924 292.834 60.1232 292.763 59.7669C292.692 59.4107 292.517 59.0835 292.26 58.8266C292.004 58.5698 291.676 58.3948 291.32 58.324C290.964 58.2531 290.594 58.2895 290.259 58.4286C289.923 58.5676 289.637 58.8029 289.435 59.1049C289.233 59.4069 289.125 59.762 289.125 60.1252C289.126 60.6119 289.32 61.0784 289.664 61.4225C290.009 61.7667 290.475 61.9606 290.962 61.9617Z" fill="#2D334A"/>
<path d="M299.202 65.1746V68.8691C299.185 69.204 299.251 69.5378 299.394 69.8412C299.536 70.1446 299.751 70.4083 300.02 70.6092C300.288 70.8101 300.602 70.942 300.933 70.9933C301.264 71.0446 301.603 71.0138 301.92 70.9035C302.344 70.7567 302.709 70.4739 302.956 70.0992" stroke="#2D334A" stroke-width="1.03797" stroke-linecap="round" stroke-linejoin="round"/>
<path d="M293.813 74.6326C293.813 74.6326 301.706 79.3206 308.192 74.6326" stroke="#2D334A" stroke-width="1.03797" stroke-linecap="round" stroke-linejoin="round"/>
<path d="M305.396 54.2931L306.987 56.3017L317.692 56.1124C317.692 56.1124 314.282 54.4178 313.103 54.2931C311.925 54.1684 305.396 54.2931 305.396 54.2931Z" fill="#2D334A"/>
<path d="M296.613 54.2931L295.022 56.3017L284.321 56.1124C284.321 56.1124 287.732 54.4178 288.91 54.2931C290.089 54.1684 296.613 54.2931 296.613 54.2931Z" fill="#2D334A"/>
<path d="M321.012 109.492H320.987C298.664 124.348 281.581 109.664 280.82 108.998L280.794 108.972" stroke="black" stroke-width="1.03797" stroke-miterlimit="10"/>
<path d="M301.164 144.051C301.955 144.051 302.738 144.02 303.521 143.986C309.45 143.733 315.321 142.711 320.987 140.945V109.492C320.523 109.802 320.058 110.099 319.598 110.383L318.91 110.813C318.682 110.959 318.389 111.122 318.127 111.268C317.934 111.38 317.736 111.488 317.542 111.591L317 111.884C316.338 112.236 315.68 112.563 315.026 112.864L314.858 112.942C314.282 113.204 313.706 113.449 313.138 113.677L312.239 114.025H312.209C311.912 114.137 311.62 114.24 311.349 114.339L311.245 114.374L310.48 114.619L310.338 114.666C309.753 114.847 309.172 115.006 308.617 115.148L307.861 115.329L307.517 115.402C307.319 115.449 307.121 115.488 306.923 115.526H306.828C306.549 115.582 306.269 115.634 305.994 115.677C305.211 115.806 304.437 115.905 303.68 115.974L303.168 116.017H302.979L302.549 116.043C302.308 116.043 302.071 116.068 301.831 116.073H300.325C299.998 116.079 299.671 116.067 299.345 116.038H299.056L298.691 116.017L298.162 115.974C297.865 115.948 297.577 115.918 297.302 115.883C295.928 115.722 294.565 115.47 293.224 115.131C292.962 115.066 292.7 114.993 292.441 114.924L291.878 114.757L291.448 114.623L290.588 114.344L290.158 114.197C289.616 114.004 289.091 113.797 288.592 113.587L288.218 113.428C287.848 113.268 287.495 113.105 287.151 112.942L286.812 112.778L286.48 112.615L286.171 112.456C284.899 111.803 283.675 111.063 282.506 110.241L282.33 110.116C281.65 109.634 281.194 109.256 280.979 109.075L280.893 109.002L280.863 108.976V141.199C286.252 142.795 291.816 143.724 297.431 143.965C298.446 144.012 299.465 144.033 300.497 144.033H301.043" stroke="#2D334A" stroke-width="0.518984" stroke-miterlimit="10"/>
<path d="M284.32 49.2137H296.617L299.197 38.9773L298.544 49.2137H308.737L309.597 44.0954L310.565 49.2137H319.507L321.412 65.1746C322.365 62.0751 322.966 58.8779 323.201 55.6436C325.291 27.756 283.856 22.7411 279.705 50.3965C279.103 54.4308 279.357 59.1015 280.897 64.4907L284.32 49.2137Z" fill="#2D334A"/>
<path d="M280.82 109.01V141.234L280.389 141.104L278.523 125.918L276.884 112.585L276.639 110.589L276.613 110.391H276.686L278.153 109.909L280.82 109.01Z" fill="#2D334A"/>
<path d="M325.296 110.993L325.047 112.929L323.219 127.229L321.498 140.795L321.004 140.949V109.496L324.157 110.593L325.296 110.993Z" fill="#2D334A"/>
<path d="M276.605 110.382L276.437 111.462L276.269 112.571L274.549 123.836L272.355 138.102C272.05 137.969 271.744 137.831 271.443 137.672V112.52L276.605 110.382Z" fill="#2D334A"/>
<path d="M330.161 112.976V137.362L329.245 137.793L326.776 121.019L325.581 112.929L325.297 110.989L326.389 111.419L330.161 112.976Z" fill="#2D334A"/>
<path d="M278.953 121.595L278.523 125.896L277.095 139.99C276.906 139.926 276.721 139.857 276.532 139.784L274.536 123.836L274.257 121.595L276.201 112.563L276.437 111.453L276.631 110.572L276.678 110.352L277.814 105.079L278.14 109.836V109.879L278.325 112.589L278.953 121.595Z" fill="#2D334A"/>
<path d="M326.939 119.406L326.775 121.032L324.892 139.616L324.831 140.223L324.763 139.659L323.219 127.242L322.242 119.406L323.636 112.954L324.139 110.623L325.795 102.929L326.384 111.445V111.483L326.487 112.989L326.939 119.406Z" fill="#2D334A"/>
<path d="M300.898 144.079L300.898 117.103L300.898 144.079Z" fill="#FFD803"/>
<path d="M300.898 144.079L300.898 117.103" stroke="#FFCD29" stroke-width="1.03797" stroke-linecap="round" stroke-linejoin="round"/>
<path d="M298.501 119.801C298.726 119.801 298.945 119.735 299.132 119.61C299.319 119.485 299.465 119.308 299.55 119.101C299.636 118.893 299.659 118.665 299.615 118.444C299.571 118.224 299.463 118.022 299.304 117.863C299.146 117.704 298.943 117.596 298.723 117.552C298.503 117.509 298.274 117.531 298.067 117.617C297.859 117.703 297.682 117.848 297.557 118.035C297.433 118.222 297.366 118.441 297.366 118.666C297.366 118.967 297.485 119.256 297.698 119.469C297.911 119.682 298.2 119.801 298.501 119.801Z" fill="#FFD803"/>
<path d="M298.501 123.767C298.726 123.767 298.945 123.7 299.132 123.576C299.319 123.451 299.465 123.273 299.55 123.066C299.636 122.859 299.659 122.63 299.615 122.41C299.571 122.19 299.463 121.987 299.304 121.829C299.146 121.67 298.943 121.562 298.723 121.518C298.503 121.474 298.274 121.496 298.067 121.582C297.859 121.668 297.682 121.814 297.557 122.001C297.433 122.187 297.366 122.407 297.366 122.631C297.366 122.933 297.485 123.221 297.698 123.434C297.911 123.647 298.2 123.767 298.501 123.767Z" fill="#FFD803"/>
<path d="M298.501 127.728C298.726 127.728 298.945 127.661 299.132 127.537C299.319 127.412 299.465 127.235 299.55 127.027C299.636 126.82 299.659 126.591 299.615 126.371C299.571 126.151 299.463 125.949 299.304 125.79C299.146 125.631 298.943 125.523 298.723 125.479C298.503 125.435 298.274 125.458 298.067 125.544C297.859 125.63 297.682 125.775 297.557 125.962C297.433 126.148 297.366 126.368 297.366 126.593C297.366 126.894 297.485 127.183 297.698 127.395C297.911 127.608 298.2 127.728 298.501 127.728Z" fill="#FFD803"/>
<path d="M298.501 131.694C298.726 131.694 298.945 131.627 299.132 131.502C299.319 131.378 299.465 131.2 299.55 130.993C299.636 130.785 299.659 130.557 299.615 130.337C299.571 130.116 299.463 129.914 299.304 129.755C299.146 129.597 298.943 129.488 298.723 129.445C298.503 129.401 298.274 129.423 298.067 129.509C297.859 129.595 297.682 129.741 297.557 129.927C297.433 130.114 297.366 130.334 297.366 130.558C297.366 130.859 297.485 131.148 297.698 131.361C297.911 131.574 298.2 131.694 298.501 131.694Z" fill="#FFD803"/>
<path d="M298.501 135.659C298.726 135.659 298.945 135.593 299.132 135.468C299.319 135.343 299.465 135.166 299.55 134.958C299.636 134.751 299.659 134.522 299.615 134.302C299.571 134.082 299.463 133.88 299.304 133.721C299.146 133.562 298.943 133.454 298.723 133.41C298.503 133.366 298.274 133.389 298.067 133.475C297.859 133.561 297.682 133.706 297.557 133.893C297.433 134.08 297.366 134.299 297.366 134.524C297.366 134.825 297.485 135.114 297.698 135.327C297.911 135.539 298.2 135.659 298.501 135.659Z" fill="#FFD803"/>
<path d="M298.501 139.62C298.726 139.62 298.945 139.554 299.132 139.429C299.319 139.304 299.465 139.127 299.55 138.919C299.636 138.712 299.659 138.484 299.615 138.263C299.571 138.043 299.463 137.841 299.304 137.682C299.146 137.523 298.943 137.415 298.723 137.371C298.503 137.327 298.274 137.35 298.067 137.436C297.859 137.522 297.682 137.667 297.557 137.854C297.433 138.041 297.366 138.26 297.366 138.485C297.366 138.786 297.485 139.075 297.698 139.288C297.911 139.501 298.2 139.62 298.501 139.62Z" fill="#FFD803"/>
<path d="M298.501 143.586C298.726 143.586 298.945 143.519 299.132 143.394C299.319 143.27 299.465 143.092 299.55 142.885C299.636 142.677 299.659 142.449 299.615 142.229C299.571 142.009 299.463 141.806 299.304 141.647C299.146 141.489 298.943 141.381 298.723 141.337C298.503 141.293 298.274 141.315 298.067 141.401C297.859 141.487 297.682 141.633 297.557 141.82C297.433 142.006 297.366 142.226 297.366 142.45C297.366 142.751 297.485 143.04 297.698 143.253C297.911 143.466 298.2 143.586 298.501 143.586Z" fill="#FFD803"/>
<path d="M308.671 116.189L301.355 144.079L308.671 116.189Z" fill="#FFD803"/>
<path d="M308.671 116.189L301.355 144.079" stroke="#FFCD29" stroke-width="1.03797" stroke-linecap="round" stroke-linejoin="round"/>
<path fill-rule="evenodd" clip-rule="evenodd" d="M280.622 556.936C247.02 610.63 178.361 627.66 125.959 609.558C79.9305 593.659 69.1862 538.294 73.1383 485.265C77.1597 431.304 94.2358 366.791 145.296 350.094C192.479 334.665 212.186 393.108 237.347 431.567C263.402 471.39 309.361 511.014 280.622 556.936Z" fill="#E3F6F5" fill-opacity="0.7"/>
<path d="M268.506 498.263C268.52 509.35 266.285 520.325 261.936 530.524C257.587 540.723 251.216 549.935 243.206 557.601L243.17 557.637L242.703 558.082L242.503 558.267C242.428 558.346 242.352 558.417 242.273 558.482C240.153 560.466 237.929 562.336 235.611 564.083C233.53 565.648 231.373 567.114 229.138 568.48C226.726 569.956 224.239 571.305 221.687 572.524L221.144 572.78C211.346 577.377 200.733 579.981 189.92 580.441C189.095 580.477 188.27 580.503 187.439 580.513H186.266H184.728L184.692 580.405L184.662 580.441L184.605 580.513C183.939 580.513 183.273 580.477 182.607 580.446C163.155 579.601 144.638 571.864 130.366 558.621L130.125 558.395L129.649 557.944C129.58 557.887 129.515 557.825 129.454 557.76L129.008 557.324L128.972 557.293C119.227 547.836 111.974 536.112 107.862 523.17C103.75 510.227 102.906 496.467 105.406 483.119C107.905 469.771 113.671 457.249 122.188 446.671C130.705 436.093 141.708 427.789 154.215 422.498C166.723 417.208 180.345 415.097 193.867 416.352C207.39 417.608 220.391 422.192 231.71 429.696C243.029 437.199 252.315 447.388 258.738 459.353C265.161 471.318 268.522 484.687 268.521 498.268L268.506 498.263Z" fill="#BAE8E8"/>
<path d="M242.504 558.267C242.429 558.345 242.352 558.417 242.274 558.482C240.154 560.466 237.93 562.335 235.612 564.083C233.531 565.648 231.373 567.114 229.139 568.48C226.727 569.955 224.239 571.305 221.688 572.524L221.145 572.78C211.347 577.377 200.733 579.981 189.92 580.441C189.095 580.477 188.27 580.503 187.44 580.513H186.266H184.729L184.693 580.405L184.662 580.441L184.606 580.513C183.94 580.513 183.274 580.477 182.607 580.446C163.156 579.6 144.639 571.864 130.367 558.621L130.126 558.395C133.557 554.394 137.495 550.857 141.841 547.874C144.959 545.726 148.25 543.84 151.68 542.237C154.34 540.991 157.067 539.894 159.849 538.952C161.872 538.278 163.782 537.3 165.512 536.052L172.758 530.773V510.464H200.508V530.22C200.508 530.22 206.473 535.893 209.66 537.984C210.008 538.22 210.375 538.428 210.757 538.604C211.818 539.06 215.323 540.069 219.823 541.955C223.226 543.374 226.515 545.051 229.662 546.972C234.033 549.602 237.961 552.907 241.3 556.765C241.705 557.273 242.115 557.77 242.504 558.267Z" fill="white" stroke="#2D334A" stroke-width="0.550912" stroke-linecap="round" stroke-linejoin="round"/>
<path d="M172.742 511.105C172.742 511.105 183.739 523.307 192.497 522.128C201.255 520.949 200.077 518.484 200.077 518.484L200.497 510.474L172.742 511.105Z" fill="#2D334A"/>
<path d="M162.892 482.878C162.892 482.878 160.95 478.779 157.061 480.865C153.171 482.95 156.584 493.471 160.95 495.475C165.316 497.479 164.537 494.173 164.537 494.173" fill="white"/>
<path d="M162.892 482.878C162.892 482.878 160.95 478.779 157.061 480.865C153.171 482.95 156.584 493.471 160.95 495.475C165.316 497.479 164.537 494.173 164.537 494.173" stroke="#2D334A" stroke-width="0.550912" stroke-linecap="round" stroke-linejoin="round"/>
<path d="M157.896 484.995C157.896 484.995 162.401 484.933 163.698 488.638L157.896 484.995Z" fill="white"/>
<path d="M157.896 484.995C157.896 484.995 162.401 484.933 163.698 488.638" stroke="#2D334A" stroke-width="0.550912" stroke-linecap="round" stroke-linejoin="round"/>
<path d="M160.572 490.893C160.572 490.893 158.814 487.767 161.786 486.471L160.572 490.893Z" fill="white"/>
<path d="M160.572 490.893C160.572 490.893 158.814 487.767 161.786 486.471" stroke="#2D334A" stroke-width="0.550912" stroke-linecap="round" stroke-linejoin="round"/>
<path d="M211.638 482.878C211.638 482.878 213.58 478.779 217.47 480.865C221.36 482.95 217.947 493.471 213.58 495.475C209.214 497.479 209.993 494.173 209.993 494.173" fill="white"/>
<path d="M211.638 482.878C211.638 482.878 213.58 478.779 217.47 480.865C221.36 482.95 217.947 493.471 213.58 495.475C209.214 497.479 209.993 494.173 209.993 494.173" stroke="#2D334A" stroke-width="0.550912" stroke-linecap="round" stroke-linejoin="round"/>
<path d="M216.656 484.995C216.656 484.995 212.151 484.933 210.855 488.638L216.656 484.995Z" fill="white"/>
<path d="M216.656 484.995C216.656 484.995 212.151 484.933 210.855 488.638" stroke="#2D334A" stroke-width="0.550912" stroke-linecap="round" stroke-linejoin="round"/>
<path d="M213.96 490.893C213.96 490.893 215.717 487.767 212.745 486.471L213.96 490.893Z" fill="white"/>
<path d="M213.96 490.893C213.96 490.893 215.717 487.767 212.745 486.471" stroke="#2D334A" stroke-width="0.550912" stroke-linecap="round" stroke-linejoin="round"/>
<path d="M209.127 500.896C209.127 500.896 216.665 500.896 215.487 505.181C214.308 509.465 217.536 509.019 219.766 512.411C221.995 515.804 220.791 516.988 220.504 520.677C220.217 524.367 226.407 523.04 226.704 527.17C227.002 531.301 223.896 532.633 226.704 535.139C229.513 537.645 231.722 537.799 231.132 541.34C230.543 544.881 228.77 542.129 227.735 546.383C226.699 550.636 229.784 551.225 229.359 554.623C228.934 558.021 226.848 556.248 225.08 558.753C223.312 561.259 222.8 562.151 220.176 561.413C217.552 560.675 217.747 559.64 214.477 560.229C211.208 560.819 207.784 557.129 209.127 553.439C210.47 549.749 208.404 546.854 206.411 545.501C204.417 544.148 205.309 541.217 206.411 539.213C207.513 537.21 203.229 538.568 202.496 534.991C201.763 531.414 200.871 529.681 199.247 529.384C197.622 529.087 199.969 521.564 200.497 519.202C201.025 516.839 199.247 511.822 199.247 511.822L209.127 500.896Z" fill="#2D334A"/>
<path d="M162.902 478.112C162.902 478.112 162.272 500.794 168.882 507.456C175.493 514.118 178.773 516.45 184.379 517.008C189.986 517.567 192.64 517.633 199.63 512.596C206.62 507.558 209.003 502.931 209.844 497.914C210.684 492.897 212.765 471.891 212.765 471.891L205.59 454.836L184.62 449.43L177.379 450.455L169.579 456.517L163.845 466.367L162.902 478.112Z" fill="white" stroke="#2D334A" stroke-width="0.421448" stroke-miterlimit="10"/>
<path d="M197.059 481.992C198.267 481.992 199.247 481.012 199.247 479.804C199.247 478.595 198.267 477.615 197.059 477.615C195.85 477.615 194.87 478.595 194.87 479.804C194.87 481.012 195.85 481.992 197.059 481.992Z" fill="#2D334A"/>
<path d="M174.93 481.992C176.139 481.992 177.119 481.012 177.119 479.804C177.119 478.595 176.139 477.615 174.93 477.615C173.722 477.615 172.742 478.595 172.742 479.804C172.742 481.012 173.722 481.992 174.93 481.992Z" fill="#2D334A"/>
<path d="M184.754 485.81V490.196C184.727 490.731 184.876 491.26 185.179 491.702C185.482 492.143 185.922 492.472 186.431 492.639C186.94 492.806 187.489 492.801 187.995 492.624C188.5 492.447 188.934 492.109 189.228 491.662" stroke="#2D334A" stroke-width="0.550912" stroke-linecap="round" stroke-linejoin="round"/>
<path d="M178.333 497.079C178.333 497.079 187.737 502.665 195.464 497.079" stroke="#2D334A" stroke-width="0.550912" stroke-linecap="round" stroke-linejoin="round"/>
<path d="M192.155 472.844L194.051 475.238L206.806 475.012C206.806 475.012 202.742 472.998 201.338 472.844C199.934 472.691 192.155 472.844 192.155 472.844Z" fill="#2D334A"/>
<path d="M181.669 472.844L179.773 475.237L167.018 475.012C167.018 475.012 171.081 472.998 172.486 472.844C173.89 472.69 181.669 472.844 181.669 472.844Z" fill="#2D334A"/>
<path d="M171.882 466.941C173.763 467.1 174.957 466.551 175.367 465.152C175.518 464.604 175.858 464.128 176.327 463.807C176.796 463.486 177.364 463.342 177.929 463.4C178.516 463.481 179.114 463.384 179.646 463.122C180.178 462.86 180.619 462.444 180.911 461.929C181.089 461.657 181.321 461.426 181.592 461.249C181.864 461.071 182.169 460.953 182.489 460.9C182.809 460.847 183.136 460.861 183.45 460.941C183.765 461.021 184.059 461.165 184.314 461.365C185.852 462.559 187.527 463.154 189.823 461.79C190.322 461.506 190.906 461.409 191.469 461.517C192.033 461.625 192.54 461.931 192.898 462.38C193.069 462.625 193.321 462.802 193.61 462.88C193.898 462.958 194.205 462.931 194.476 462.805C194.978 462.626 195.525 462.623 196.028 462.795C196.532 462.967 196.962 463.305 197.249 463.753C197.843 464.624 198.463 465.075 199.099 465.157C199.598 465.257 200.055 465.507 200.41 465.873C200.764 466.239 200.998 466.705 201.082 467.207C201.134 467.463 201.258 467.699 201.439 467.887C201.621 468.075 201.853 468.207 202.107 468.268C202.654 468.411 203.135 468.74 203.468 469.198C203.8 469.655 203.964 470.214 203.931 470.779C203.798 472.388 204.444 473.234 205.843 473.377C206.467 473.423 207.05 473.708 207.47 474.173C207.89 474.638 208.115 475.247 208.097 475.873C208.065 476.111 208.095 476.354 208.185 476.577C208.275 476.799 208.421 476.995 208.61 477.144C208.94 477.427 209.189 477.794 209.331 478.205C209.472 478.617 209.501 479.059 209.415 479.486C209.24 480.603 210.04 481.438 211.823 482.002C214.17 483.104 215.651 482.971 216.195 481.489C216.324 481.117 216.543 480.781 216.832 480.513C217.122 480.245 217.473 480.052 217.855 479.952C221.565 479.025 223.492 477.574 221.545 474.966C221.311 474.644 221.164 474.268 221.117 473.873C221.07 473.478 221.126 473.078 221.278 472.711C222.539 469.58 222.621 466.848 220.217 464.957C219.969 464.759 219.764 464.512 219.613 464.232C219.463 463.952 219.37 463.644 219.341 463.328C219.312 463.011 219.347 462.692 219.444 462.389C219.54 462.086 219.697 461.806 219.905 461.565C221.534 459.597 220.581 457.829 217.855 456.194C217.46 455.95 217.145 455.596 216.948 455.175C216.75 454.755 216.679 454.287 216.743 453.827C217.112 450.921 215.718 450.188 213.74 450.24C213.134 450.268 212.541 450.063 212.082 449.667C211.623 449.272 211.332 448.716 211.27 448.113C211.07 445.663 209.773 443.916 205.499 444.075C205.027 444.083 204.562 443.952 204.163 443.699C203.764 443.446 203.448 443.081 203.255 442.65C202.184 440.369 200.877 440.385 199.452 441.543C199.189 441.76 198.882 441.917 198.552 442.005C198.222 442.094 197.878 442.11 197.541 442.054C197.205 441.997 196.884 441.87 196.601 441.679C196.318 441.488 196.08 441.239 195.901 440.949C194.907 439.339 193.718 439.657 192.447 440.779C192.041 441.15 191.518 441.369 190.969 441.398C190.419 441.427 189.877 441.265 189.434 440.938C186.636 438.832 183.976 438.484 181.521 440.708C181.128 441.077 180.621 441.302 180.084 441.347C179.546 441.393 179.009 441.256 178.559 440.959C177.073 439.934 175.94 440.103 175.182 441.471C174.898 441.996 174.429 442.396 173.867 442.595C173.305 442.794 172.689 442.777 172.138 442.547C170.114 441.727 169.489 442.906 169.248 444.638C169.156 445.227 168.846 445.76 168.38 446.132C167.915 446.504 167.326 446.688 166.732 446.647C164.554 446.529 163.682 447.851 163.375 449.804C163.291 450.374 163 450.893 162.558 451.263C162.116 451.633 161.553 451.826 160.977 451.808C157.871 451.644 157.605 453.596 158.537 456.445C158.724 457.018 158.684 457.639 158.427 458.183C158.17 458.728 157.714 459.153 157.154 459.372C154.832 460.268 154.94 461.872 156.564 463.917C156.937 464.399 157.111 465.004 157.052 465.61C156.993 466.216 156.705 466.776 156.247 467.176C154.945 468.365 155.222 469.739 156.247 471.174C156.556 471.597 156.719 472.11 156.711 472.634C156.703 473.159 156.523 473.666 156.2 474.079C154.76 475.878 155.401 477.805 157.492 479.824C157.735 480.072 157.92 480.372 158.034 480.701C158.147 481.03 158.186 481.38 158.148 481.725C158.056 482.894 159.07 483.222 161.294 482.622C161.396 482.596 161.495 482.561 161.591 482.52C164.789 481.244 165.548 479.829 165.179 478.343C165.064 477.839 165.123 477.311 165.348 476.846C165.572 476.38 165.948 476.005 166.414 475.781C166.702 475.682 166.94 475.472 167.074 475.199C167.209 474.925 167.229 474.609 167.131 474.32C166.952 473.801 166.956 473.236 167.142 472.72C167.329 472.203 167.687 471.766 168.156 471.481C168.822 471.122 169.243 470.4 169.325 469.18C169.344 468.864 169.425 468.556 169.564 468.272C169.703 467.988 169.897 467.734 170.135 467.526C170.373 467.318 170.65 467.159 170.95 467.058C171.25 466.958 171.566 466.918 171.882 466.941Z" fill="#2D334A"/>
<path d="M175.612 489.633C180.398 489.633 184.278 485.666 184.278 480.772C184.278 475.879 180.398 471.912 175.612 471.912C170.826 471.912 166.946 475.879 166.946 480.772C166.946 485.666 170.826 489.633 175.612 489.633Z" stroke="#2D334A" stroke-width="0.457257" stroke-miterlimit="10"/>
<path d="M197.745 489.633C202.531 489.633 206.411 485.666 206.411 480.772C206.411 475.879 202.531 471.912 197.745 471.912C192.959 471.912 189.079 475.879 189.079 480.772C189.079 485.666 192.959 489.633 197.745 489.633Z" stroke="#2D334A" stroke-width="0.457257" stroke-miterlimit="10"/>
<path d="M206.411 480.772L211.213 483.432" stroke="#2D334A" stroke-width="0.457257" stroke-miterlimit="10"/>
<path d="M166.946 479.983L162.77 483.719" stroke="#2D334A" stroke-width="0.457257" stroke-miterlimit="10"/>
<path d="M184.278 480.772H189.08" stroke="#2D334A" stroke-width="0.457257" stroke-miterlimit="10"/>
<path d="M162.821 538.014L187.419 546.388L209.645 537.994L216.148 542.893L186.62 555.807L154.258 541.094L162.821 538.014Z" fill="#FFD803"/>
<path d="M186.307 567.614C188.427 567.614 190.145 565.896 190.145 563.776C190.145 561.656 188.427 559.938 186.307 559.938C184.187 559.938 182.469 561.656 182.469 563.776C182.469 565.896 184.187 567.614 186.307 567.614Z" fill="#FFD803"/>
</svg>
