<svg width="332" height="641" viewBox="0 0 332 641" fill="none" xmlns="http://www.w3.org/2000/svg">
<path fill-rule="evenodd" clip-rule="evenodd" d="M46.8059 382.99C54.171 382.923 59.6632 388.806 62.0634 395.616C64.6312 402.902 65.0065 411.858 58.5244 416.24C52.3189 420.434 44.5527 416.037 38.6525 411.441C33.7264 407.603 30.6987 401.817 32.3984 395.886C34.3409 389.108 39.6087 383.056 46.8059 382.99Z" fill="#E3F6F5"/>
<path fill-rule="evenodd" clip-rule="evenodd" d="M11.484 439.993C6.52672 439.947 2.8301 443.972 1.21454 448.632C-0.513798 453.617 -0.766403 459.745 3.59658 462.743C7.77332 465.612 13.0006 462.604 16.9719 459.459C20.2875 456.833 22.3254 452.875 21.1814 448.817C19.8739 444.179 16.3283 440.038 11.484 439.993Z" fill="#E3F6F5"/>
<path fill-rule="evenodd" clip-rule="evenodd" d="M56.2197 431.791C51.752 431.749 48.4205 435.429 46.9645 439.689C45.4068 444.247 45.1791 449.85 49.1112 452.591C52.8755 455.215 57.5865 452.464 61.1656 449.589C64.1538 447.188 65.9904 443.568 64.9594 439.858C63.7811 435.618 60.5856 431.832 56.2197 431.791Z" fill="#E3F6F5"/>
<path fill-rule="evenodd" clip-rule="evenodd" d="M274.95 303.001C268.035 302.938 262.879 308.435 260.626 314.798C258.215 321.606 257.862 329.974 263.948 334.068C269.774 337.987 277.066 333.878 282.605 329.584C287.23 325.998 290.072 320.592 288.477 315.05C286.653 308.717 281.707 303.062 274.95 303.001Z" fill="#E3F6F5"/>
<path fill-rule="evenodd" clip-rule="evenodd" d="M328.27 343.862C326.629 339.373 321.801 337.382 317.117 337.48C312.105 337.585 306.58 339.403 305.4 344.341C304.27 349.068 308.715 352.78 312.854 355.313C316.31 357.428 320.516 357.945 323.729 355.558C327.402 352.83 329.875 348.248 328.27 343.862Z" fill="#E3F6F5"/>
<path fill-rule="evenodd" clip-rule="evenodd" d="M267.682 352.3C267.419 357.535 272.368 361.641 278.208 363.579C284.456 365.652 292.213 366.223 296.194 361.762C300.005 357.492 296.408 351.82 292.585 347.468C289.394 343.835 284.46 341.485 279.268 342.492C273.335 343.644 267.939 347.184 267.682 352.3Z" fill="#E3F6F5"/>
<path fill-rule="evenodd" clip-rule="evenodd" d="M315.396 303C310.995 302.959 307.714 306.623 306.28 310.865C304.746 315.404 304.522 320.983 308.394 323.712C312.102 326.325 316.742 323.586 320.267 320.722C323.21 318.332 325.019 314.728 324.004 311.034C322.843 306.811 319.696 303.041 315.396 303Z" fill="#E3F6F5"/>
<path fill-rule="evenodd" clip-rule="evenodd" d="M298.894 324.762C295.751 324.736 293.408 327.027 292.383 329.678C291.287 332.515 291.127 336.001 293.894 337.707C296.542 339.34 299.856 337.628 302.374 335.839C304.476 334.345 305.768 332.092 305.043 329.783C304.214 327.144 301.966 324.788 298.894 324.762Z" fill="#E3F6F5"/>
<path fill-rule="evenodd" clip-rule="evenodd" d="M95.8375 204.002C122.449 203.784 142.294 222.892 150.967 245.014C160.245 268.68 161.601 297.77 138.179 312.002C115.757 325.627 87.696 311.345 66.377 296.414C48.5781 283.949 37.638 265.156 43.7794 245.891C50.7982 223.874 69.8322 204.215 95.8375 204.002Z" fill="#E3F6F5" fill-opacity="0.7"/>
<path d="M143.127 300.607C143.136 308.364 141.573 316.043 138.531 323.178C135.489 330.314 131.032 336.759 125.429 342.123L125.404 342.148L125.078 342.46L124.938 342.589C124.886 342.642 124.832 342.692 124.777 342.74C123.293 344.128 121.737 345.436 120.115 346.659C118.659 347.752 117.149 348.778 115.586 349.736C113.898 350.769 112.157 351.713 110.372 352.566L109.992 352.745C105.737 354.742 101.251 356.206 96.637 357.102C96.0107 357.226 95.3783 357.339 94.74 357.439C93.6761 357.611 92.6003 357.752 91.5125 357.862C90.3973 357.977 89.2749 358.056 88.1417 358.106H87.9265C87.4208 358.128 86.9153 358.142 86.4061 358.149H85.5849C85.2012 358.149 84.8138 358.149 84.4301 358.149C83.9603 358.149 83.4941 358.124 83.0279 358.103C82.3322 358.074 81.6413 358.031 80.9552 357.973C79.8579 357.887 78.7749 357.773 77.699 357.615C76.6232 357.457 75.5474 357.285 74.4716 357.077L73.4891 356.876C73.066 356.786 72.6392 356.69 72.2196 356.589C68.2776 355.653 64.4464 354.299 60.7908 352.551C57.3563 350.909 54.0926 348.93 51.0476 346.645C49.4552 345.451 47.9266 344.173 46.4682 342.819L46.2995 342.661L45.9661 342.345C45.9181 342.305 45.8725 342.262 45.8297 342.216L45.5179 341.911L45.4927 341.89C38.6682 335.273 33.5886 327.069 30.7076 318.01C27.8265 308.951 27.2337 299.32 28.9819 289.977C30.7302 280.633 34.7651 271.868 40.7264 264.464C46.6878 257.059 54.3901 251.247 63.1454 247.545C71.9007 243.843 81.4364 242.367 90.9013 243.248C100.366 244.13 109.465 247.341 117.386 252.596C125.307 257.852 131.804 264.987 136.295 273.364C140.787 281.742 143.134 291.102 143.127 300.607Z" fill="#BAE8E8"/>
<path d="M125.397 342.148L125.071 342.46L124.931 342.59C124.878 342.642 124.825 342.692 124.77 342.74C123.286 344.128 121.73 345.437 120.108 346.66C118.652 347.752 117.142 348.778 115.579 349.737C113.89 350.769 112.15 351.713 110.365 352.566L109.984 352.745C105.73 354.742 101.244 356.206 96.6299 357.102C96.0035 357.227 95.3711 357.339 94.7328 357.439C93.669 357.611 92.5932 357.753 91.5054 357.862C90.3901 357.977 89.2677 358.056 88.1345 358.106H87.9193V358.157H84.4229C83.9532 358.157 83.4871 358.132 83.0209 358.11C82.3252 358.081 81.6342 358.038 80.9481 357.981C79.8507 357.895 78.7677 357.78 77.6919 357.622C76.6161 357.464 75.5403 357.292 74.4644 357.084L73.482 356.884C73.0588 356.794 72.6321 356.697 72.2125 356.597C68.2704 355.66 64.4392 354.306 60.7837 352.559C57.3491 350.916 54.0855 348.938 51.0404 346.652C49.448 345.458 47.9194 344.181 46.461 342.826L46.2924 342.668L45.959 342.353C45.911 342.313 45.8653 342.27 45.8226 342.224L45.5107 341.919L45.7259 341.625C47.3501 339.464 49.2027 337.485 51.2519 335.722C51.4527 335.546 51.6536 335.364 51.8544 335.209C55.143 332.528 58.9869 330.613 63.1074 329.601C67.8518 328.389 70.5843 325.95 71.6637 324.788L71.6853 324.767C71.9578 324.473 72.1228 324.261 72.1838 324.182L72.2053 324.154V308.698L96.5905 308.87V324.154V324.175C96.9823 324.645 97.4155 325.078 97.885 325.47C99.4234 326.797 102.353 328.769 106.933 329.741C110.683 330.547 114.22 332.135 117.314 334.403C117.874 334.808 118.447 335.245 119.028 335.715C121.209 337.462 123.193 339.441 124.945 341.618C125.128 341.801 125.265 341.973 125.397 342.148Z" fill="white" stroke="#2D334A" stroke-width="1.09125" stroke-linecap="round" stroke-linejoin="round"/>
<path d="M101.148 298.915C101.148 298.915 105.43 300.213 107.603 292.769C109.776 285.324 102.367 288.824 102.367 288.824" fill="white"/>
<path d="M101.148 298.915C101.148 298.915 105.43 300.213 107.603 292.769C109.776 285.324 102.367 288.824 102.367 288.824" stroke="#2D334A" stroke-width="1.09125" stroke-miterlimit="10"/>
<path d="M105.839 290.843C105.839 290.843 103.433 289.813 102.354 292.51C102.354 292.51 104.864 291.725 103.827 295.845" fill="white"/>
<path d="M105.839 290.843C105.839 290.843 103.433 289.813 102.354 292.51C102.354 292.51 104.864 291.725 103.827 295.845" stroke="#2D334A" stroke-width="1.09125" stroke-linecap="round" stroke-linejoin="round"/>
<path d="M66.5392 288.415C66.5392 288.415 59.1484 284.907 61.3072 292.359C63.466 299.811 67.7621 298.502 67.7621 298.502" fill="white"/>
<path d="M66.5392 288.415C66.5392 288.415 59.1484 284.907 61.3072 292.359C63.466 299.811 67.7621 298.502 67.7621 298.502" stroke="#2D334A" stroke-width="1.09125" stroke-miterlimit="10"/>
<path d="M63.0566 290.423C63.0566 290.423 65.4593 289.394 66.5387 292.094C66.5387 292.094 64.0285 291.309 65.0649 295.429" fill="white"/>
<path d="M63.0566 290.423C63.0566 290.423 65.4593 289.394 66.5387 292.094C66.5387 292.094 64.0285 291.309 65.0649 295.429" stroke="#2D334A" stroke-width="1.09125" stroke-linecap="round" stroke-linejoin="round"/>
<path d="M84.4985 316.106C94.3596 316.106 102.354 304.006 102.354 289.078C102.354 274.151 94.3596 262.05 84.4985 262.05C74.6375 262.05 66.6436 274.151 66.6436 289.078C66.6436 304.006 74.6375 316.106 84.4985 316.106Z" fill="white" stroke="#2D334A" stroke-width="1.26039" stroke-miterlimit="10"/>
<path d="M83.3723 288.192V295.895C83.3723 295.895 84.3763 298.8 87.4926 296.386" stroke="#2D334A" stroke-width="1.09125" stroke-linecap="round" stroke-linejoin="round"/>
<path d="M78.6133 299.869C78.6133 299.869 84.9391 305.216 90.874 300.228" stroke="#2D334A" stroke-width="1.09125" stroke-linecap="round" stroke-linejoin="round"/>
<path d="M92.4449 288.612C93.2569 288.612 93.9152 287.954 93.9152 287.142C93.9152 286.33 93.2569 285.672 92.4449 285.672C91.6329 285.672 90.9746 286.33 90.9746 287.142C90.9746 287.954 91.6329 288.612 92.4449 288.612Z" fill="#2D334A"/>
<path d="M77.1402 288.612C77.9522 288.612 78.6105 287.954 78.6105 287.142C78.6105 286.33 77.9522 285.672 77.1402 285.672C76.3281 285.672 75.6699 286.33 75.6699 287.142C75.6699 287.954 76.3281 288.612 77.1402 288.612Z" fill="#2D334A"/>
<path d="M87.2197 281.332L88.5465 283.01L97.4722 282.849C97.4722 282.849 94.6285 281.44 93.6459 281.332C92.6633 281.225 87.2197 281.332 87.2197 281.332Z" fill="#2D334A"/>
<path d="M81.5322 281.286L80.4563 283.168L71.5271 283.01C71.5271 283.01 74.3708 281.601 75.3534 281.493C76.336 281.386 81.5322 281.286 81.5322 281.286Z" fill="#2D334A"/>
<path d="M96.741 308.698V312.872C95.8732 318.269 90.071 322.228 83.9209 321.048C77.8712 319.89 72.9296 309.329 72.7754 308.999C75.9275 312.994 80.0837 315.425 84.6416 315.425C89.2927 315.425 93.5494 312.872 96.741 308.698Z" fill="#2D334A"/>
<path d="M73.4711 356.908L72.2016 353.652L64.3303 333.445L71.653 324.813L71.6746 324.792L72.1944 324.178C72.1944 324.178 72.1945 324.178 72.2125 324.196C72.9075 324.863 73.6479 325.48 74.4285 326.043C75.4482 326.79 76.5277 327.453 77.656 328.023C79.7438 329.114 82.0363 329.757 84.387 329.913C85.5599 329.974 86.7358 329.879 87.8834 329.629C89.1348 329.355 90.3418 328.907 91.4695 328.299C92.629 327.669 93.712 326.907 94.6969 326.029C95.3616 325.445 95.9903 324.821 96.5796 324.161V324.161L97.8921 325.477L105.806 333.427L96.5833 354.283L95.2923 357.199" stroke="#2D334A" stroke-width="1.09125" stroke-miterlimit="10"/>
<path d="M96.6156 354.283V357.102C95.9893 357.226 95.3569 357.339 94.7186 357.439C93.6547 357.611 92.5789 357.752 91.4911 357.862C90.3759 357.977 89.2535 358.056 88.1203 358.106H87.9051V358.156H84.4087C83.9389 358.156 83.4728 358.131 83.0067 358.11C82.311 358.081 81.62 358.038 80.9338 357.981C79.8365 357.895 78.7535 357.78 77.6777 357.622C76.6018 357.464 75.526 357.292 74.4502 357.084L73.4677 356.883C73.0446 356.794 72.6178 356.697 72.1982 356.596V324.143C72.1982 324.143 72.1982 324.143 72.2161 324.161C72.9142 324.788 73.6547 325.367 74.4323 325.893C75.4577 326.597 76.5368 327.219 77.6598 327.754C80.4318 329.073 84.0286 330.067 87.8872 329.285C89.133 329.03 90.339 328.609 91.4733 328.034C92.6268 327.44 93.7095 326.719 94.7007 325.882C95.3643 325.332 95.9931 324.742 96.5834 324.114L96.6156 354.283Z" fill="#FFD803"/>
<path d="M66.3852 287.554C66.3852 287.554 63.1577 289.128 64.3877 274.878C65.6177 260.627 76.4693 257.421 76.4693 257.421L75.4328 259.074C75.4328 259.074 91.1469 253.017 99.2083 262.38L95.2136 261.552C95.2136 261.552 109.576 271.75 103.296 288.429L101.779 288.766C101.779 288.766 99.6279 273.945 89.569 273.257L81.3211 277.252L84.19 273.945C84.19 273.945 70.606 268.114 66.3852 287.554Z" fill="#2D334A"/>
<path d="M74.4531 357.092V326.033V325.918" stroke="#2D334A" stroke-width="0.545624" stroke-miterlimit="10"/>
<path d="M94.7188 357.44V326.019V325.922V325.918" stroke="#2D334A" stroke-width="0.545624" stroke-miterlimit="10"/>
<path d="M77.6777 327.779V328.012V357.629" stroke="#2D334A" stroke-width="0.545624" stroke-miterlimit="10"/>
<path d="M91.4912 357.862V328.288V328.058V328.051" stroke="#2D334A" stroke-width="0.545624" stroke-miterlimit="10"/>
<path d="M84.4084 358.164V358.153V329.902" stroke="#2D334A" stroke-width="0.545624" stroke-miterlimit="10"/>
<path d="M87.9053 358.163V358.113V329.618V329.31" stroke="#2D334A" stroke-width="0.545624" stroke-miterlimit="10"/>
<path d="M80.9336 357.977V329.31" stroke="#2D334A" stroke-width="0.545624" stroke-miterlimit="10"/>
<path fill-rule="evenodd" clip-rule="evenodd" d="M193.501 0.0340883C227.581 1.15521 244.42 36.7363 254.736 69.0933C264.749 100.501 270.238 138.002 243.815 157.846C216.381 178.45 178.76 167.303 151.226 146.832C124.983 127.323 109.376 95.9524 118.402 64.6084C128.481 29.611 156.952 -1.16826 193.501 0.0340883Z" fill="#E3F6F5" fill-opacity="0.7"/>
<path d="M242.725 90.7887C242.735 100.006 240.874 109.13 237.254 117.607C233.635 126.084 228.332 133.738 221.668 140.105H221.642C221.553 140.194 221.463 140.284 221.37 140.369L221.284 140.45C219.488 142.15 217.599 143.75 215.628 145.243L215.376 145.434C211.882 148.055 208.145 150.336 204.216 152.245L203.79 152.441C202.507 153.053 201.205 153.621 199.882 154.143C196.724 155.42 193.472 156.455 190.156 157.238C189.262 157.451 188.36 157.643 187.449 157.817C184.524 158.385 181.565 158.76 178.591 158.94C177.195 159.031 175.788 159.075 174.369 159.072C172.189 159.072 170.036 158.971 167.907 158.77C159.932 158.027 152.15 155.88 144.922 152.428L144.496 152.232C140.568 150.322 136.831 148.042 133.336 145.422L133.084 145.23C131.067 143.702 129.137 142.062 127.304 140.318C127.247 140.27 127.193 140.219 127.142 140.165L127.104 140.126L127.057 140.084L126.798 139.833L126.768 139.803C118.668 131.95 112.638 122.215 109.217 111.464C105.796 100.714 105.09 89.2843 107.163 78.1948C109.235 67.1054 114.021 56.7016 121.093 47.9122C128.165 39.1228 137.303 32.2212 147.692 27.8237C158.081 23.4262 169.398 21.6695 180.631 22.7105C191.864 23.7514 202.665 27.5576 212.069 33.7893C221.473 40.021 229.187 48.4843 234.524 58.4236C239.861 68.3629 242.653 79.4689 242.652 90.7503L242.725 90.7887Z" fill="#BAE8E8"/>
<path d="M221.667 140.105H221.642C221.552 140.195 221.463 140.284 221.369 140.369L221.284 140.45C219.488 142.15 217.599 143.75 215.627 145.243L215.376 145.434C211.882 148.055 208.145 150.336 204.215 152.245L203.79 152.441C202.507 153.054 201.205 153.621 199.882 154.143C196.724 155.42 193.472 156.455 190.156 157.238C189.262 157.451 188.36 157.643 187.449 157.817C184.524 158.385 181.565 158.76 178.591 158.94C177.195 159.031 175.787 159.075 174.369 159.072C172.189 159.072 170.035 158.972 167.907 158.77C159.931 158.027 152.15 155.88 144.922 152.428L144.496 152.232C140.568 150.322 136.83 148.042 133.335 145.422L133.084 145.23C131.067 143.702 129.137 142.062 127.304 140.318C127.247 140.27 127.193 140.219 127.142 140.165L127.104 140.126L127.057 140.084L126.797 139.833L126.768 139.803L127.027 139.454C128.955 136.889 131.154 134.54 133.587 132.448L134.302 131.839C138.206 128.658 142.768 126.384 147.659 125.182C149.431 124.734 151.145 124.083 152.767 123.241C156.717 121.168 158.483 118.703 158.483 118.703V100.357H158.909L187.066 100.553H187.432V118.695C187.432 118.695 189.079 120.823 192.736 122.811C194.938 123.984 197.298 124.835 199.742 125.339C204.201 126.293 208.407 128.179 212.086 130.873C212.746 131.358 213.427 131.877 214.116 132.435C216.706 134.508 219.063 136.857 221.144 139.441C221.361 139.692 221.523 139.897 221.667 140.105Z" fill="white" stroke="#2D334A" stroke-width="0.85131" stroke-linecap="round" stroke-linejoin="round"/>
<path d="M158.543 100.392C158.543 100.392 161.497 110.182 173.649 112.872C186.061 115.626 187.5 108.377 187.5 108.377V100.596C187.5 100.596 173.028 109.786 165.745 104.78C158.462 99.7744 158.543 100.392 158.543 100.392Z" fill="#2D334A"/>
<path d="M194.196 79.9132C194.196 79.9132 202.126 76.1505 199.81 84.14C197.495 92.1296 192.897 90.7334 192.897 90.7334" fill="white"/>
<path d="M194.196 79.9132C194.196 79.9132 202.126 76.1505 199.81 84.14C197.495 92.1296 192.897 90.7334 192.897 90.7334" stroke="#2D334A" stroke-width="0.770436" stroke-miterlimit="10"/>
<path d="M197.933 82.0713C197.933 82.0713 195.353 80.9646 194.195 83.8591C194.195 83.8591 196.881 83.0078 195.775 87.4389" fill="white"/>
<path d="M197.933 82.0713C197.933 82.0713 195.353 80.9646 194.195 83.8591C194.195 83.8591 196.881 83.0078 195.775 87.4389" stroke="#2D334A" stroke-width="0.770436" stroke-linecap="round" stroke-linejoin="round"/>
<path d="M151.92 79.2022C151.92 79.2022 143.986 75.4394 146.301 83.4247C148.617 91.4099 153.214 90.0223 153.214 90.0223" fill="white"/>
<path d="M151.92 79.2022C151.92 79.2022 143.986 75.4394 146.301 83.4247C148.617 91.4099 153.214 90.0223 153.214 90.0223" stroke="#2D334A" stroke-width="0.770436" stroke-miterlimit="10"/>
<path d="M148.182 81.356C148.182 81.356 150.762 80.2493 151.92 83.1437C151.92 83.1437 149.234 82.2924 150.34 86.7235" fill="white"/>
<path d="M148.182 81.356C148.182 81.356 150.762 80.2493 151.92 83.1437C151.92 83.1437 149.234 82.2924 150.34 86.7235" stroke="#2D334A" stroke-width="0.770436" stroke-linecap="round" stroke-linejoin="round"/>
<path d="M173.139 107.645C184.843 107.645 194.332 94.9772 194.332 79.3513C194.332 63.7253 184.843 51.058 173.139 51.058C161.434 51.058 151.945 63.7253 151.945 79.3513C151.945 94.9772 161.434 107.645 173.139 107.645Z" fill="white" stroke="#2D334A" stroke-width="0.923672" stroke-miterlimit="10"/>
<path d="M171.798 79.2491V88.3922C171.798 88.3922 172.994 91.8357 176.689 88.971" stroke="#2D334A" stroke-width="0.85131" stroke-linecap="round" stroke-linejoin="round"/>
<path d="M182.571 79.7472C183.535 79.7472 184.316 78.9659 184.316 78.002C184.316 77.0382 183.535 76.2568 182.571 76.2568C181.607 76.2568 180.826 77.0382 180.826 78.002C180.826 78.9659 181.607 79.7472 182.571 79.7472Z" fill="#2D334A"/>
<path d="M164.404 79.7472C165.368 79.7472 166.149 78.9659 166.149 78.002C166.149 77.0382 165.368 76.2568 164.404 76.2568C163.44 76.2568 162.659 77.0382 162.659 78.002C162.659 78.9659 163.44 79.7472 164.404 79.7472Z" fill="#2D334A"/>
<path d="M179.439 74.52C180.809 74.6477 182.146 74.2433 183.516 74.2348C184.075 74.2245 184.63 74.333 185.143 74.5531C185.657 74.7733 186.118 75.1001 186.496 75.5118C187.198 76.2609 188.326 75.1329 187.624 74.3795C186.656 73.3622 185.336 72.7532 183.934 72.6768C182.427 72.5789 180.954 73.1026 179.439 72.9493C179.329 72.9413 179.219 72.956 179.115 72.9924C179.011 73.0289 178.916 73.0864 178.835 73.1613C178.755 73.2362 178.691 73.3269 178.647 73.4278C178.603 73.5286 178.58 73.6374 178.58 73.7474C178.58 73.8574 178.603 73.9662 178.647 74.0671C178.691 74.1679 178.755 74.2586 178.835 74.3335C178.916 74.4084 179.011 74.4659 179.115 74.5024C179.219 74.5389 179.329 74.5535 179.439 74.5455V74.52Z" fill="#2D334A"/>
<path d="M167.695 72.9323C166.183 73.0727 164.715 72.5619 163.195 72.6598C161.794 72.7387 160.475 73.3473 159.505 74.3624C158.807 75.1158 159.931 76.2439 160.637 75.4947C161.015 75.083 161.476 74.7562 161.99 74.536C162.504 74.3159 163.058 74.2075 163.617 74.2177C164.983 74.2177 166.32 74.6434 167.695 74.5029C167.896 74.4882 168.085 74.3977 168.222 74.2496C168.36 74.1016 168.437 73.9069 168.437 73.7048C168.437 73.5027 168.36 73.308 168.222 73.1599C168.085 73.0119 167.896 72.9214 167.695 72.9067V72.9323Z" fill="#2D334A"/>
<path d="M168.035 93.4189C168.035 93.4189 173.279 99.5782 179.438 93.4189" stroke="#2D334A" stroke-width="0.85131" stroke-linecap="round" stroke-linejoin="round"/>
<path d="M154.129 74.2605C157.67 74.0647 159.386 72.6346 158.543 69.4635C161.748 69.2166 162.825 67.8204 161.974 65.3771C165.443 65.3175 167.507 63.6746 168.035 60.3076C170.793 61.1376 173.024 61.0482 173.735 58.3453C175.812 61.576 178.23 62.4316 180.822 62.1081C182.044 65.3218 183.878 66.8669 186.492 66.305C185.96 69.1016 187.385 70.6297 190.459 71.0979C189.007 72.9197 189.633 74.9288 191.561 77.0358C191.429 79.3769 192.804 79.4153 194.332 79.3472C197.686 80.1091 199.155 78.8491 198.916 75.7588C202.718 74.8224 203.437 72.5196 202.837 69.6252C205.148 66.4966 204.224 63.666 201.696 60.9801C202.122 56.4681 200.385 53.6205 195.545 53.1182C194.779 49.0447 193.076 46.0439 187.845 47.0697C187.845 40.8168 183.589 39.7442 178.481 39.7144C174.033 36.8412 169.866 36.373 166.137 39.7144C162.212 39.5228 160.139 41.7661 159.271 45.597C154.163 45.6565 150.758 47.4273 150.038 51.9818C147.131 52.4074 145.399 53.9142 145.867 57.3748C141.755 60.1969 142.781 63.1509 145.246 67.3862C144.65 68.8036 145.705 70.9532 147.25 71.7577C146.352 74.6905 147.97 76.0142 150.038 77.0443C149.438 78.5511 150.681 79.0066 152.116 79.3557C154.84 78.0574 155.321 76.3207 154.129 74.2605Z" fill="#2D334A"/>
<path d="M187.5 118.741L173.138 129.425L158.543 118.741L152.826 123.279L173.138 129.425L193.123 122.751L187.5 118.741Z" fill="#FFD803" stroke="#2D334A" stroke-width="0.85131" stroke-linecap="round" stroke-linejoin="round"/>
<path d="M174.513 130.4C174.513 130.4 176.266 139.42 174.513 146.775L172.763 154.13C172.763 154.13 168.639 143.451 171.435 130.4H174.513Z" fill="#FFD803" stroke="#2D334A" stroke-width="0.85131" stroke-linecap="round" stroke-linejoin="round"/>
<path d="M171.538 129.753C171.538 129.753 166.716 128.306 166.716 138.93C166.716 138.93 171.049 138.3 172.109 130.417V129.43L171.538 129.753Z" fill="#FFD803" stroke="#2D334A" stroke-width="0.85131" stroke-linecap="round" stroke-linejoin="round"/>
<path d="M174.513 127.306H171.44C170.585 127.306 169.891 127.998 169.891 128.853C169.891 129.707 170.585 130.4 171.44 130.4H174.513C175.369 130.4 176.063 129.707 176.063 128.853C176.063 127.998 175.369 127.306 174.513 127.306Z" fill="#2D334A"/>
<path fill-rule="evenodd" clip-rule="evenodd" d="M186.078 389.101C247.972 383.953 301.513 429.747 317.908 483.595C332.309 530.894 295.029 573.319 250.994 602.309C206.185 631.808 145.442 657.044 102.452 625.437C62.7251 596.231 97.1876 544.605 112.737 500.663C128.837 455.161 133.143 393.505 186.078 389.101Z" fill="#E3F6F5" fill-opacity="0.7"/>
<path d="M317.689 514.255C317.704 526.152 315.306 537.928 310.64 548.871C305.974 559.815 299.137 569.698 290.542 577.924C290.366 578.1 290.185 578.27 289.992 578.441C289.8 578.611 289.685 578.732 289.531 578.87C287.256 580.998 284.87 583.004 282.382 584.88C280.15 586.555 277.835 588.127 275.438 589.597C272.849 591.18 270.181 592.628 267.443 593.936L266.86 594.211C256.349 599.153 244.96 601.957 233.356 602.459C232.059 602.517 230.752 602.547 229.436 602.547C228.12 602.547 226.813 602.517 225.515 602.459C204.644 601.551 184.776 593.25 169.463 579.04L168.693 578.314C168.619 578.253 168.549 578.186 168.484 578.116L167.967 577.616C157.508 567.47 149.724 554.892 145.309 541.006C140.895 527.119 139.987 512.356 142.666 498.033C145.346 483.71 151.53 470.273 160.666 458.922C169.802 447.571 181.607 438.658 195.026 432.979C208.445 427.3 223.062 425.032 237.571 426.377C252.08 427.722 266.031 432.638 278.178 440.686C290.325 448.735 300.29 459.665 307.184 472.502C314.079 485.339 317.688 499.684 317.689 514.255Z" fill="#BAE8E8"/>
<path d="M231.328 451.125C231.328 451.125 204.027 446.374 196.29 479.949C188.554 513.524 199.342 522.19 199.04 527.886C198.737 533.583 192.375 551.211 192.375 551.211H267.849C267.849 551.211 257.891 533.737 260.151 525.874C262.708 517.026 274.998 478.14 259.822 462.304C259.805 462.304 253.833 451.444 231.328 451.125Z" fill="#272343"/>
<path d="M289.541 578.859C287.266 580.987 284.88 582.993 282.393 584.869C280.16 586.544 277.846 588.117 275.448 589.587C272.86 591.169 270.191 592.617 267.453 593.925L266.87 594.2C256.359 599.142 244.971 601.946 233.367 602.448C232.069 602.506 230.762 602.536 229.446 602.536C228.13 602.536 226.824 602.506 225.526 602.448C204.655 601.54 184.786 593.239 169.473 579.029C173.092 574.855 177.229 571.16 181.784 568.032C185.129 565.726 188.661 563.703 192.341 561.983C196.213 560.175 200.215 558.657 204.312 557.442L212.857 551.212L214.952 549.683V527.892H244.727V549.089C244.727 549.089 245.667 549.985 247.02 551.212C247.707 551.838 248.499 552.548 249.335 553.274C250.988 554.758 252.729 556.143 254.547 557.42C254.919 557.673 255.311 557.896 255.719 558.085C256.857 558.574 260.618 559.657 265.446 561.681C269.097 563.203 272.627 565.003 276.003 567.064C280.694 569.886 284.909 573.432 288.491 577.572C288.859 578.001 289.2 578.43 289.541 578.859Z" fill="white" stroke="#2D334A" stroke-width="1.09973" stroke-linecap="round" stroke-linejoin="round"/>
<path d="M214.941 528.552C214.941 528.552 226.741 541.644 236.139 540.374C245.536 539.104 244.271 536.47 244.271 536.47L244.722 527.875L214.941 528.552Z" fill="#272343"/>
<path d="M204.373 498.309C204.373 498.309 202.289 493.91 198.115 496.148C193.942 498.386 197.604 509.675 202.289 511.819C206.974 513.964 206.138 510.428 206.138 510.428" fill="white"/>
<path d="M204.373 498.309C204.373 498.309 202.289 493.91 198.115 496.148C193.942 498.386 197.604 509.675 202.289 511.819C206.974 513.964 206.138 510.428 206.138 510.428" stroke="#272343" stroke-width="1.09973" stroke-linecap="round" stroke-linejoin="round"/>
<path d="M199.012 500.547C199.012 500.547 203.845 500.487 205.236 504.462L199.012 500.547Z" fill="white"/>
<path d="M199.012 500.547C199.012 500.547 203.845 500.487 205.236 504.462" stroke="#272343" stroke-width="1.09973" stroke-linecap="round" stroke-linejoin="round"/>
<path d="M201.882 506.881C201.882 506.881 199.996 503.527 203.185 502.136L201.882 506.881Z" fill="white"/>
<path d="M201.882 506.881C201.882 506.881 199.996 503.527 203.185 502.136" stroke="#272343" stroke-width="1.09973" stroke-linecap="round" stroke-linejoin="round"/>
<path d="M256.676 498.309C256.676 498.309 258.76 493.91 262.934 496.148C267.107 498.386 263.445 509.675 258.76 511.819C254.076 513.964 254.911 510.428 254.911 510.428" fill="white"/>
<path d="M256.676 498.309C256.676 498.309 258.76 493.91 262.934 496.148C267.107 498.386 263.445 509.675 258.76 511.819C254.076 513.964 254.911 510.428 254.911 510.428" stroke="#272343" stroke-width="1.09973" stroke-linecap="round" stroke-linejoin="round"/>
<path d="M262.038 500.547C262.038 500.547 257.205 500.487 255.813 504.462L262.038 500.547Z" fill="white"/>
<path d="M262.038 500.547C262.038 500.547 257.205 500.487 255.813 504.462" stroke="#272343" stroke-width="1.09973" stroke-linecap="round" stroke-linejoin="round"/>
<path d="M259.167 506.881C259.167 506.881 261.053 503.527 257.864 502.136L259.167 506.881Z" fill="white"/>
<path d="M259.167 506.881C259.167 506.881 261.053 503.527 257.864 502.136" stroke="#272343" stroke-width="1.09973" stroke-linecap="round" stroke-linejoin="round"/>
<path d="M204.55 491.832C204.55 491.832 203.202 515.663 210.098 522.86C216.993 530.058 220.441 532.599 226.434 533.352C232.428 534.105 235.276 534.248 242.93 529.156C250.584 524.065 253.273 519.259 254.318 514.013C255.363 508.767 258.216 486.734 258.216 486.734L251.024 468.589L228.689 462.293L220.892 463.189L212.353 469.337L205.902 479.531L204.55 491.832Z" fill="white" stroke="#272343" stroke-width="0.830294" stroke-miterlimit="10"/>
<path d="M204.027 498.051V494.306C204.027 494.306 212.495 482.088 212.946 472.493C212.946 472.493 230.783 488.533 256.385 483.287V498.051L259.684 495.477C259.684 495.477 263.269 473.543 249.33 462.304C235.391 451.065 220.275 455.706 215.915 459.005C211.554 462.304 194.657 472.944 204.027 498.051Z" fill="#272343"/>
<path d="M242.374 497.33C243.671 497.33 244.722 496.279 244.722 494.982C244.722 493.686 243.671 492.634 242.374 492.634C241.078 492.634 240.026 493.686 240.026 494.982C240.026 496.279 241.078 497.33 242.374 497.33Z" fill="#272343"/>
<path d="M217.289 497.33C218.586 497.33 219.637 496.279 219.637 494.982C219.637 493.685 218.586 492.634 217.289 492.634C215.993 492.634 214.941 493.685 214.941 494.982C214.941 496.279 215.993 497.33 217.289 497.33Z" fill="#272343"/>
<path d="M227.825 501.421V506.15C227.797 506.723 227.958 507.29 228.284 507.763C228.61 508.235 229.082 508.588 229.627 508.766C230.173 508.944 230.762 508.938 231.304 508.748C231.846 508.559 232.31 508.197 232.626 507.717" stroke="#272343" stroke-width="1.09973" stroke-linecap="round" stroke-linejoin="round"/>
<path d="M220.941 513.513C220.941 513.513 231.031 519.512 239.323 513.513" stroke="#272343" stroke-width="1.09973" stroke-linecap="round" stroke-linejoin="round"/>
<path d="M235.771 487.515L237.805 490.083L251.491 489.841C251.491 489.841 247.131 487.675 245.624 487.515C244.117 487.356 235.771 487.515 235.771 487.515Z" fill="#272343"/>
<path d="M224.526 487.515L222.492 490.083L208.806 489.841C208.806 489.841 213.166 487.675 214.673 487.515C216.179 487.356 224.526 487.515 224.526 487.515Z" fill="#272343"/>
<path d="M204.301 557.441L210.778 553.295C210.778 553.295 228.231 567.069 249.313 553.295L254.525 557.436C254.525 557.436 231.475 577.022 204.301 557.441Z" fill="#FFD803"/>
<path d="M275.427 589.587C272.838 591.169 270.17 592.617 267.432 593.925L266.849 594.2H258.672C258.056 594.198 257.465 593.953 257.03 593.517C256.594 593.081 256.348 592.49 256.346 591.874C256.344 591.567 256.403 591.264 256.52 590.98C256.638 590.697 256.811 590.44 257.028 590.224C257.467 589.788 258.06 589.543 258.678 589.542H275.069C275.189 589.546 275.309 589.561 275.427 589.587Z" fill="#FFD803"/>
<path d="M228.012 562.434V601.315" stroke="#272343" stroke-width="0.549864" stroke-miterlimit="10"/>
<path d="M233.45 573.426C234.625 573.426 235.578 572.473 235.578 571.298C235.578 570.123 234.625 569.17 233.45 569.17C232.275 569.17 231.322 570.123 231.322 571.298C231.322 572.473 232.275 573.426 233.45 573.426Z" fill="#FFD803"/>
<path d="M233.45 583.714C234.625 583.714 235.578 582.761 235.578 581.586C235.578 580.411 234.625 579.458 233.45 579.458C232.275 579.458 231.322 580.411 231.322 581.586C231.322 582.761 232.275 583.714 233.45 583.714Z" fill="#FFD803"/>
<path d="M233.45 594.002C234.625 594.002 235.578 593.049 235.578 591.874C235.578 590.699 234.625 589.746 233.45 589.746C232.275 589.746 231.322 590.699 231.322 591.874C231.322 593.049 232.275 594.002 233.45 594.002Z" fill="#FFD803"/>
</svg>
