<svg width="303" height="303" viewBox="0 0 303 303" fill="none" xmlns="http://www.w3.org/2000/svg">
<g clip-path="url(#clip0_398_2302)">
<path d="M31.3047 42.2853L34.6377 42.5995L37.9721 42.9754L41.2967 43.4538L44.6535 43.6277L47.9823 44.0668L51.3223 44.4049L54.6357 44.9674L57.9883 45.196L61.3101 45.6912L64.6684 45.8624L68.0042 46.2243L71.3273 46.7096L74.6491 47.2132L77.9835 47.5878L81.339 47.794L84.6846 48.0675L87.9994 48.63L91.3506 48.8685L94.678 49.309L98.0068 49.7452L101.345 50.0988L104.687 50.4172L108.016 50.8563L111.346 51.2729L114.691 51.5661L118.03 51.9069L121.363 52.3081L124.717 52.5185L128.028 53.1189L131.362 53.5047L134.71 53.7614L138.062 54.0013L141.392 54.4221L144.729 54.7896L148.072 55.0898L151.385 55.6664L154.738 55.8964L158.075 56.2513L161.41 56.6399L164.741 57.0537L168.069 57.5026L171.404 57.8729L174.737 58.2601L178.083 58.5547L181.419 58.9124L184.769 59.1621L188.104 59.5394L191.43 60.001L194.749 60.5298L198.105 60.715L201.428 61.2017L204.762 61.5847L208.105 61.9073L211.451 62.1935L214.796 62.4797L218.108 63.0604L221.443 63.4532L224.786 63.7632L228.121 64.1434L231.452 64.5684L234.796 64.8728L238.123 65.3203L241.469 65.6163L244.819 65.866L248.153 66.2573L251.486 66.6628L254.829 66.9714L258.17 67.2898L261.495 67.778L264.824 68.2128L268.152 68.6659L271.494 68.9872L274.855 69.1457L278.184 69.5988L281.437 70.0645L280.853 73.333L280.146 76.6491L279.442 79.9653L278.543 83.238L277.935 86.5766L277.109 89.8661L276.371 93.1752L275.694 96.497L275.056 99.8272L274.113 103.091L273.392 106.405L272.907 109.769L272.1 113.062L271.222 116.341L270.495 119.653L269.885 122.988L269.111 126.289L268.548 129.636L267.619 132.903L266.912 136.218L266.189 139.531L265.473 142.843L264.909 146.192L264.041 149.472L263.403 152.802L262.683 156.115L261.927 159.42L261.195 162.731L260.563 166.064L259.573 169.317L259.067 172.676L258.146 175.945L257.442 179.261L256.727 182.576L256.007 185.889L255.349 189.216L254.541 192.51L253.853 195.831L253.216 199.162L252.404 202.454L251.723 205.776L250.978 209.084L250.233 212.392L249.519 215.706L248.661 218.99L248.184 222.357L247.29 225.633L246.565 228.946L245.75 232.238L245.132 235.553L241.804 236.145L238.416 236.43L235.036 236.779L231.669 237.229L228.302 237.68L224.946 238.21L221.555 238.479L218.195 238.995L214.825 239.409L211.473 239.986L208.107 240.44L204.712 240.675L201.349 241.153L197.987 241.642L194.626 242.14L191.245 242.491L187.886 242.992L184.495 243.268L181.141 243.814L177.753 244.111L174.405 244.709L171.023 245.03L167.642 245.37L164.288 245.931L160.9 246.213L157.558 246.848L154.182 247.233L150.803 247.59L147.441 248.071L144.064 248.453L140.703 248.947L137.332 249.372L133.952 249.713L130.599 250.285L127.225 250.685L123.866 251.193L120.499 251.643L117.113 251.949L113.746 252.402L110.383 252.894L106.989 253.127L103.633 253.68L100.264 254.103L96.8803 254.433L93.5305 255.019L90.1442 255.324L86.7874 255.858L83.4263 256.36L80.0428 256.68L76.6775 257.159L73.2856 257.414L69.94 258.048L66.5523 258.335L63.1744 258.718L59.7348 259.364L59.4346 255.911L59.011 252.571L58.5017 249.243L58.1539 245.893L57.5142 242.582L57.0583 239.247L56.8016 235.884L56.2966 232.555L55.7663 229.229L55.5377 225.864L54.9401 222.546L54.5571 219.202L54.0297 215.875L53.8024 212.51L53.3297 209.177L52.6704 205.867L52.2411 202.529L52.0265 199.161L51.5243 195.831L50.9492 192.51L50.635 189.156L50.0374 185.84L49.6081 182.5L49.256 179.15L48.7609 175.82L48.3765 172.474L47.9346 169.137L47.4198 165.808L46.9541 162.474L46.6342 159.12L46.3018 155.769L45.6747 152.455L45.4166 149.094L44.8233 145.777L44.5834 142.413L44.1597 139.073L43.7109 135.737L43.1105 132.419L42.8313 129.061L42.2912 125.737L41.9616 122.384L41.5281 119.045L40.9684 115.724L40.6486 112.369L40.1562 109.038L39.6877 105.703L39.1027 102.386L38.6889 99.0431L38.2204 95.7087L37.8416 92.363L37.4699 89.016L37.0392 85.676L36.6268 82.3346L35.9928 79.0212L35.6884 75.6644L35.1792 72.3356L34.8888 68.9787L34.3221 65.657L33.9026 62.3155L33.5561 58.9643L33.0245 55.6383L32.497 52.3109L32.1702 48.9569L31.7578 45.6141L31.3047 42.2853Z" fill="#BAE8E8"/>
<path d="M88.7711 44.5942C92.0663 44.5942 94.7371 45.8666 94.7371 48.8938C94.7371 50.319 94.1466 51.3542 93.1773 52.0528L94.3822 54.4025L91.4574 52.8594C90.582 53.0964 89.678 53.2112 88.7711 53.2003C85.4746 53.2003 82.8037 51.928 82.8037 48.8994C82.8037 45.8708 85.4746 44.5942 88.7711 44.5942Z" stroke="#392396" stroke-width="0.701389" stroke-miterlimit="10"/>
<path d="M31.5762 25.0326C33.9609 25.0326 35.9037 25.9556 35.9037 28.151C35.9037 29.1834 35.4745 29.9353 34.7717 30.4417L35.6456 32.1461L33.5246 31.0239C32.8897 31.196 32.234 31.2791 31.5762 31.2707C29.1914 31.2707 27.25 30.3477 27.25 28.1524C27.25 25.957 29.1872 25.0326 31.5762 25.0326Z" stroke="#392396" stroke-width="0.701389" stroke-miterlimit="10"/>
<path d="M50.8136 158.114C53.1984 158.114 55.1398 159.037 55.1398 161.232C55.1398 162.266 54.712 163.017 54.0078 163.523L54.8831 165.228L52.7621 164.105C52.1272 164.277 51.4714 164.36 50.8136 164.352C48.4289 164.352 46.4861 163.429 46.4861 161.234C46.4861 159.039 48.4233 158.114 50.8136 158.114Z" stroke="#392396" stroke-width="0.701389" stroke-miterlimit="10"/>
<path d="M39.1235 243.062C41.5082 243.062 43.451 243.985 43.451 246.18C43.451 247.214 43.0218 247.965 42.319 248.471L43.1929 250.176L41.0719 249.053C40.4371 249.226 39.7813 249.309 39.1235 249.302C36.7387 249.302 34.7959 248.377 34.7959 246.182C34.7959 243.986 36.7331 243.062 39.1235 243.062Z" stroke="#392396" stroke-width="0.701389" stroke-miterlimit="10"/>
<path d="M251.763 144.443C249.97 144.443 248.517 145.134 248.517 146.781C248.504 147.115 248.575 147.448 248.723 147.747C248.871 148.047 249.092 148.305 249.366 148.498L248.711 149.777L250.301 148.936C250.778 149.065 251.27 149.127 251.763 149.121C253.555 149.121 255.008 148.429 255.008 146.782C255.008 145.136 253.555 144.443 251.763 144.443Z" stroke="#392396" stroke-width="0.701389" stroke-miterlimit="10"/>
<path d="M270.926 71.2611C269.134 71.2611 267.68 71.9541 267.68 73.6009C267.667 73.9345 267.737 74.2662 267.884 74.5659C268.031 74.8657 268.25 75.1241 268.522 75.3179L267.874 76.5917L269.465 75.75C269.941 75.8784 270.433 75.9407 270.926 75.9352C272.719 75.9352 274.171 75.2422 274.171 73.5967C274.171 71.9513 272.719 71.2611 270.926 71.2611Z" stroke="#392396" stroke-width="0.701389" stroke-miterlimit="10"/>
<path d="M34.8222 139.316C36.6149 139.316 38.0668 140.009 38.0668 141.655C38.0797 141.99 38.0089 142.322 37.8606 142.622C37.7124 142.922 37.4915 143.18 37.2181 143.372L37.8746 144.65L36.2839 143.809C35.8076 143.938 35.3156 144 34.8222 143.994C33.0294 143.994 31.5762 143.301 31.5762 141.655C31.5762 140.01 33.0294 139.316 34.8222 139.316Z" stroke="#392396" stroke-width="0.701389" stroke-miterlimit="10"/>
<path d="M46.4104 204.385C48.2031 204.385 49.6564 205.078 49.6564 206.725C49.669 207.059 49.5979 207.391 49.4497 207.691C49.3015 207.99 49.0809 208.249 48.8077 208.442L49.4628 209.72L47.8721 208.878C47.3958 209.007 46.9039 209.069 46.4104 209.063C44.619 209.063 43.1658 208.37 43.1658 206.725C43.1658 205.079 44.619 204.385 46.4104 204.385Z" stroke="#392396" stroke-width="0.701389" stroke-miterlimit="10"/>
<path d="M102.129 25.5923C104.514 25.5923 106.457 26.5167 106.457 28.7121C106.457 29.7445 106.028 30.495 105.325 31.0014L106.199 32.7058L104.078 31.5835C103.443 31.7561 102.787 31.8396 102.129 31.8318C99.7446 31.8318 97.8018 30.9088 97.8018 28.7135C97.8018 26.5181 99.7376 25.5923 102.129 25.5923Z" stroke="#392396" stroke-width="0.701389" stroke-miterlimit="10"/>
<path d="M49.6579 49.3652C51.4492 49.3652 52.9025 50.0581 52.9025 51.705C52.9154 52.0393 52.8446 52.3715 52.6963 52.6713C52.5481 52.9712 52.3272 53.2293 52.0538 53.422L52.7103 54.6999L51.1182 53.8583C50.6423 53.9872 50.1509 54.0495 49.6579 54.0434C47.8651 54.0434 46.4119 53.3505 46.4119 51.705C46.4119 50.0595 47.8637 49.3652 49.6579 49.3652Z" stroke="#392396" stroke-width="0.701389" stroke-miterlimit="10"/>
<path d="M170.802 25.0326C168.417 25.0326 166.476 25.9556 166.476 28.151C166.476 29.1834 166.896 29.9353 167.608 30.4417L166.732 32.1461L168.853 31.0239C169.488 31.1958 170.144 31.2789 170.802 31.2707C173.186 31.2707 175.129 30.3477 175.129 28.1524C175.129 25.957 173.192 25.0326 170.802 25.0326Z" stroke="#392396" stroke-width="0.701389" stroke-miterlimit="10"/>
<path d="M223.553 20.9926C221.761 20.9926 220.307 21.6856 220.307 23.331C220.294 23.6649 220.363 23.9969 220.51 24.297C220.657 24.5971 220.877 24.8557 221.149 25.0494L220.494 26.3274L222.085 25.4857C222.561 25.6141 223.053 25.6764 223.546 25.6709C225.338 25.6709 226.791 24.9779 226.791 23.331C226.791 21.6842 225.345 20.9926 223.553 20.9926Z" stroke="#392396" stroke-width="0.701389" stroke-miterlimit="10"/>
<path d="M245.925 53.4459C243.541 53.4459 241.598 54.369 241.598 56.5643C241.598 57.5967 242.027 58.3472 242.73 58.8536L241.856 60.558L243.977 59.4358C244.612 59.6071 245.267 59.6902 245.925 59.6827C248.31 59.6827 250.253 58.7596 250.253 56.5643C250.253 54.369 248.316 53.4459 245.925 53.4459Z" stroke="#392396" stroke-width="0.701389" stroke-miterlimit="10"/>
<path d="M272.395 25.5923C270.01 25.5923 268.068 26.5168 268.068 28.7121C268.068 29.7446 268.497 30.4951 269.2 31.0015L268.324 32.7058L270.445 31.5836C271.081 31.7561 271.737 31.8397 272.395 31.8319C274.78 31.8319 276.721 30.9089 276.721 28.7135C276.721 26.5182 274.784 25.5923 272.395 25.5923Z" stroke="#392396" stroke-width="0.701389" stroke-miterlimit="10"/>
<path d="M245.925 192.642C243.541 192.642 241.598 193.565 241.598 195.76C241.598 196.794 242.027 197.545 242.73 198.051L241.856 199.755L243.977 198.633C244.612 198.805 245.267 198.888 245.925 198.88C248.31 198.88 250.253 197.957 250.253 195.762C250.253 193.566 248.316 192.642 245.925 192.642Z" stroke="#392396" stroke-width="0.701389" stroke-miterlimit="10"/>
<path d="M266.626 167.653C264.241 167.653 262.3 168.576 262.3 170.771C262.3 171.805 262.728 172.556 263.43 173.062L262.557 174.767L264.678 173.644C265.312 173.816 265.968 173.899 266.626 173.891C269.011 173.891 270.954 172.968 270.954 170.773C270.954 168.578 269.016 167.653 266.626 167.653Z" stroke="#392396" stroke-width="0.701389" stroke-miterlimit="10"/>
<path d="M270.926 214.13C269.134 214.13 267.68 214.821 267.68 216.468C267.667 216.802 267.737 217.134 267.884 217.434C268.031 217.734 268.25 217.993 268.522 218.187L267.867 219.465L269.458 218.623C269.934 218.752 270.426 218.815 270.919 218.809C272.712 218.809 274.164 218.116 274.164 216.47C274.164 214.823 272.719 214.13 270.926 214.13Z" stroke="#392396" stroke-width="0.701389" stroke-miterlimit="10"/>
<path d="M161.824 57.0076C160.032 57.0076 158.58 57.6991 158.58 59.346C158.566 59.6798 158.636 60.0118 158.783 60.3118C158.93 60.6119 159.149 60.8706 159.421 61.0644L158.765 62.3423L160.356 61.5007C160.832 61.6302 161.324 61.693 161.817 61.6872C163.61 61.6872 165.063 60.9943 165.063 59.3474C165.063 57.7005 163.617 57.0076 161.824 57.0076Z" stroke="#392396" stroke-width="0.701389" stroke-miterlimit="10"/>
<path d="M102.035 124.345L98.7624 124.421L95.3971 124.572L92.0304 124.324L88.6638 124.565L85.2971 124.3L81.9304 124.306L78.5638 124.54L75.1971 124.492L71.8304 124.506L68.4638 124.562L65.0971 124.498L61.7318 124.401L58.3652 124.372L54.9985 124.397L51.6318 124.36L48.2652 124.349L44.8971 124.376L41.5304 124.32L38.1638 124.422L34.7634 124.473L34.9177 121.105L34.7606 117.767L34.6891 114.432L34.7634 111.094L34.7284 107.759L34.8069 104.423L34.9107 101.085L34.7929 97.7497L34.6961 94.4125L34.6807 91.0767L34.8111 87.7395L34.8055 84.4023L34.8181 81.0651L34.8742 77.7278L36.2967 74.0385L39.986 72.5656L43.3358 72.4576L46.6856 72.5221L50.0355 72.6105L53.3853 72.4927L56.7351 72.5348L60.085 72.56L63.4348 72.5334L66.786 72.5165L70.1359 72.4941L73.4857 72.567L76.8355 72.4296L80.1854 72.5839L83.5352 72.5067L86.8865 72.5179L90.2363 72.4969L93.5875 72.5109L96.9388 72.4155L100.628 74.0385L102.265 77.7278L102.042 81.0637L102.073 84.4009L102.209 87.7367L102.21 91.0739L102.125 94.4097L102.255 97.7455L102.018 101.081L102.259 104.418L102.128 107.754L102.237 111.092L102.143 114.429L102.17 117.766L102.15 121.103L102.035 124.345Z" fill="#FFD803"/>
<path d="M211.139 85.7826L207.884 85.8737L204.63 85.7727L201.375 85.791L198.12 85.7265L194.865 85.7321L191.611 85.7868L188.355 85.7096L185.406 85.2607L182.861 83.6349L181.317 81.058L180.564 78.143L180.575 74.8886L180.547 71.6341L180.515 68.3783L180.661 65.1239L180.586 61.8694L180.704 58.615L180.638 55.3591L181.216 52.4021L182.95 49.9542L185.436 48.3116L188.355 47.6565L191.609 47.7757L194.864 47.7911L198.118 47.7715L201.373 47.606L204.628 47.7084L207.883 47.7238L211.139 47.5386L214.117 48.1685L216.531 49.9668L218.305 52.3908L218.841 55.3591L218.778 58.6136L218.875 61.868L218.895 65.1225L218.702 68.3769L218.801 71.6313L218.735 74.8872L218.837 78.143L218.298 81.1085L216.681 83.6854L214.121 85.3421L211.139 85.7826Z" stroke="#392396" stroke-width="0.701389" stroke-miterlimit="10"/>
<path d="M230.231 98.6433L226.978 98.7359L223.722 98.6335L220.468 98.6517L217.213 98.5872L213.959 98.5942L210.703 98.6475L207.449 98.5703L204.5 98.1214L201.955 96.497L200.411 93.9187L199.656 91.0038L199.669 87.7493L199.641 84.4949L199.608 81.2404L199.753 77.986L199.68 74.7315L199.798 71.4757L199.732 68.2198L200.31 65.2642L202.042 62.8149L204.529 61.1737L207.449 60.5186L210.703 60.6378L213.957 60.6533L217.212 60.6336L220.466 60.4681L223.721 60.5705L226.977 60.5859L230.231 60.4008L233.211 61.0292L235.625 62.8276L237.399 65.2516L237.935 68.2198L237.872 71.4743L237.969 74.7301L237.988 77.9846L237.796 81.239L237.894 84.4935L237.827 87.7493L237.931 91.0038L237.392 93.9692L235.775 96.5475L233.213 98.2042L230.231 98.6433Z" fill="white"/>
<path d="M267.019 126.539L263.63 126.631L260.241 126.529L256.851 126.547L253.462 126.483L250.073 126.49L246.684 126.543L243.295 126.466L239.906 126.602L236.517 126.668L233.128 126.515L229.737 126.69L226.348 126.678L222.958 126.707L219.568 126.739L216.178 126.594L213.204 126.079L210.767 124.308L209.046 121.852L208.453 118.899L208.533 115.645L208.552 112.39L208.475 109.136L208.595 105.882L208.611 102.626L208.59 99.3713L208.425 96.1155L209.108 93.1879L210.78 90.7176L213.184 88.8897L216.178 88.3343L219.567 88.49L222.956 88.3609L226.345 88.4114L229.734 88.4759L233.124 88.3791L236.513 88.3595L239.902 88.5503L243.291 88.4535L246.68 88.5194L250.069 88.417L253.46 88.3679L256.849 88.2767L260.238 88.3244L263.628 88.4381L267.019 88.3146L269.994 88.9332L272.39 90.7442L274.072 93.1949L274.688 96.1155L274.764 99.3699L274.834 102.624L274.594 105.879L274.642 109.135L274.724 112.389L274.677 115.644L274.651 118.899L274.11 121.837L272.396 124.276L269.986 126.062L267.019 126.539Z" fill="white"/>
<path d="M267.019 126.539L263.63 126.631L260.241 126.529L256.851 126.547L253.462 126.483L250.073 126.49L246.684 126.543L243.295 126.466L239.906 126.602L236.517 126.668L233.128 126.515L229.737 126.69L226.348 126.678L222.958 126.707L219.568 126.739L216.178 126.594L213.204 126.079L210.767 124.308L209.046 121.852L208.453 118.899L208.533 115.645L208.552 112.39L208.475 109.136L208.595 105.882L208.611 102.626L208.59 99.3713L208.425 96.1155L209.108 93.1879L210.78 90.7176L213.184 88.8897L216.178 88.3343L219.567 88.49L222.956 88.3609L226.345 88.4114L229.734 88.4759L233.124 88.3791L236.513 88.3595L239.902 88.5503L243.291 88.4535L246.68 88.5194L250.069 88.417L253.46 88.3679L256.849 88.2767L260.238 88.3244L263.628 88.4381L267.019 88.3146L269.994 88.9332L272.39 90.7442L274.072 93.1949L274.688 96.1155L274.764 99.3699L274.834 102.624L274.594 105.879L274.642 109.135L274.724 112.389L274.677 115.644L274.651 118.899L274.11 121.837L272.396 124.276L269.986 126.062L267.019 126.539Z" stroke="#392396" stroke-width="0.701389" stroke-miterlimit="10"/>
<path d="M230.231 98.6812L226.978 98.8047L223.722 98.7766L220.468 98.6013L217.213 98.6363L213.959 98.6728L210.703 98.7486L207.448 98.8187L204.549 98.0037L202.059 96.3933L200.327 93.9539L199.791 91.0038L199.816 87.7494L199.775 84.4949L199.844 81.2405L199.697 77.986L199.694 74.7316L199.732 71.4757L199.628 68.2199L200.395 65.2993L202.072 62.843L204.483 61.0629L207.448 60.4036L210.703 60.3938L213.957 60.6168L217.212 60.5551L220.466 60.5832L223.721 60.5144L226.976 60.4934L230.231 60.4415L233.126 61.2299L235.752 62.7L237.448 65.232L237.998 68.2199L238.015 71.4743L238.035 74.7302L237.897 77.9846L237.969 81.2391L238.051 84.4935L237.925 87.7494L237.921 91.0038L237.451 93.9945L235.622 96.3947L233.142 98.0303L230.231 98.6812Z" stroke="#392396" stroke-width="0.701389" stroke-miterlimit="10"/>
<path d="M274.581 275.738L271.492 276.464L268.128 276.604L264.781 276.963L261.43 277.343L258.053 277.193L254.702 277.646L251.332 277.6L247.973 277.844L244.606 277.89L241.242 277.99L237.871 277.84L234.512 278.137L231.146 278.195L227.776 277.938L224.416 278.32L221.046 278.119L217.681 278.182L214.314 278.219L210.952 278.479L207.584 278.233L204.219 278.446L200.853 278.401L197.488 278.572L194.121 278.61L190.755 278.513L187.388 278.578L184.02 278.421L180.653 278.471L177.287 278.639L173.922 278.293L170.556 278.418L167.188 278.632L163.824 278.31L160.456 278.617L157.091 278.29L153.724 278.428L150.358 278.465L146.992 278.359L143.627 278.22L140.26 278.299L136.894 278.262L133.527 278.279L130.167 277.893L126.797 278.077L123.433 278.004L120.065 277.991L116.709 277.589L113.341 277.603L109.983 277.356L106.616 277.324L103.248 277.321L99.8829 277.238L96.519 277.094L93.1622 276.827L89.8278 276.347L86.7852 275.738L89.8039 274.907L93.1706 274.742L96.526 274.484L99.8829 274.229L103.247 274.113L106.609 273.944L109.973 273.812L113.338 273.723L116.704 273.671L120.067 273.567L123.434 273.547L126.795 273.293L130.166 273.55L133.527 273.241L136.897 273.476L140.26 273.24L143.627 273.371L146.991 273.101L150.355 272.975L153.721 272.913L157.09 273.118L160.455 273.066L163.821 273.173L167.187 273.208L170.553 273.128L173.92 273.077L177.287 273.034L180.653 273.159L184.02 272.93L187.385 273.171L190.753 272.795L194.119 272.92L197.484 273.104L200.851 272.951L204.216 273.261L207.581 273.302L210.949 273.105L214.314 273.184L217.683 273.058L221.046 273.254L224.41 273.443L227.781 273.177L231.144 273.383L234.506 273.567L237.874 273.49L241.234 273.831L244.599 273.873L247.966 273.853L251.338 273.717L254.691 274.155L258.059 274.149L261.413 274.487L264.779 274.545L268.153 274.538L271.504 274.907L274.581 275.738Z" fill="#392396"/>
<path d="M105.51 121.266L102.239 121.343L98.8723 121.495L95.507 121.246L92.1403 121.486L88.7737 121.222L85.407 121.227L82.0403 121.462L78.6737 121.413L75.307 121.429L71.9403 121.485L68.5737 121.419L65.2084 121.322L61.8417 121.293L58.4751 121.319L55.1084 121.283L51.7403 121.27L48.3737 121.297L45.007 121.241L41.6389 121.343L38.24 121.394L38.3943 118.025L38.2372 114.688L38.1642 111.352L38.24 108.017L38.2049 104.679L38.2835 101.344L38.3873 98.0078L38.268 94.6706L38.1727 91.3348L38.1572 87.9976L38.2863 84.6604L38.2821 81.3246L38.2947 77.986L38.3508 74.6487L39.7718 70.9594L43.4611 69.4865L46.811 69.3785L50.1622 69.4444L53.512 69.5314L56.8619 69.415L60.2117 69.4557L63.5615 69.4809L66.9114 69.4543L70.2612 69.4374L73.611 69.4164L76.9609 69.4879L80.3107 69.3519L83.6619 69.5062L87.0118 69.429L90.3616 69.4388L93.7128 69.4192L97.0641 69.4332L100.415 69.3364L104.105 70.9594L105.742 74.6487L105.519 77.986L105.548 81.3218L105.686 84.6576V87.9948L105.6 91.3306L105.732 94.6664L105.495 98.0036L105.735 101.339L105.604 104.677L105.714 108.014L105.62 111.35L105.646 114.687L105.625 118.024L105.51 121.266Z" stroke="#392396" stroke-width="0.701389" stroke-miterlimit="10"/>
<path d="M131.288 276.501C147.792 276.501 161.17 263.123 161.17 246.62C161.17 230.116 147.792 216.738 131.288 216.738C114.785 216.738 101.406 230.116 101.406 246.62C101.406 263.123 114.785 276.501 131.288 276.501Z" fill="#D5B5FF"/>
<path d="M234.49 248.558L231.141 248.59L227.744 248.488L224.346 248.658L220.95 248.721L217.552 248.564L214.155 248.467L210.757 248.593L207.36 248.658L203.964 248.651L200.566 248.489L197.169 248.539L193.771 248.503L190.374 248.474L186.976 248.746L183.58 248.619L180.182 248.48L176.786 248.571L173.389 248.663L169.993 248.62L166.595 248.567L163.198 248.705L159.8 248.554L156.404 248.508L153.006 248.691L149.609 248.473L146.213 248.69L142.815 248.689L139.418 248.624H136.02L132.623 248.662L129.225 248.509L125.828 248.529L122.43 248.619L119.033 248.693L115.635 248.654L112.238 248.533L108.84 248.617L105.442 248.71L102.045 248.647L98.6474 248.555L95.2499 248.631L91.8523 248.554L88.4548 248.471L85.0559 248.708L81.6584 248.562L78.2608 248.501L74.8619 248.606L71.463 248.714L68.0949 248.576L68.0023 245.284L68.1426 241.96L68.0626 238.636L67.9673 235.312L68.1721 231.989L68.0528 228.665L68.0304 225.341L68.2001 222.018L68.1791 218.693L68.1524 215.368L68.0514 212.045L68.1959 208.721L67.9981 205.396L68.1047 202.073L68.0711 198.748L67.9574 195.424L68.1833 192.101L67.935 188.776L68.0612 185.453L68.1103 182.128L68.1777 178.804L68.0107 175.479L68.2029 172.154L67.928 168.829L67.9729 165.41L71.4616 165.373L74.8591 165.626L78.2566 165.444L81.6528 165.455L85.0503 165.494L88.4478 165.383L91.8453 165.496L95.2429 165.385L98.639 165.407L102.037 165.618L105.434 165.573L108.832 165.488L112.229 165.425L115.627 165.42L119.023 165.428L122.42 165.574L125.816 165.365L129.214 165.383L132.61 165.512L136.008 165.414L139.405 165.5L142.803 165.431L146.199 165.469L149.596 165.403L152.994 165.465L156.39 165.445L159.787 165.592L163.185 165.63L166.583 165.371L169.98 165.507L173.378 165.396L176.775 165.406L180.173 165.48L183.57 165.41L186.968 165.629L190.365 165.376L193.763 165.626L197.16 165.587L200.558 165.633L203.955 165.598L207.353 165.484L210.75 165.481L214.148 165.449L217.547 165.613L220.944 165.49L224.343 165.407L227.741 165.438L231.14 165.522L234.494 165.549L234.623 168.827L234.533 172.15L234.642 175.475L234.64 178.799L234.494 182.123L234.634 185.446L234.652 188.77L234.658 192.094L234.623 195.418L234.655 198.743L234.494 202.066L234.541 205.391L234.41 208.715L234.453 212.038L234.543 215.363V218.687L234.478 222.011L234.588 225.335L234.543 228.658L234.438 231.983L234.463 235.308L234.65 238.632L234.421 241.957L234.593 245.283L234.49 248.558Z" fill="white"/>
<path d="M236.286 167.611L232.931 167.744L229.533 167.739L226.136 167.528L222.738 167.746L219.342 167.579L215.945 167.591L212.547 167.588L209.15 167.739L205.752 167.553L202.356 167.677L198.959 167.632L195.561 167.732L192.163 167.748L188.766 167.674L185.368 167.712L181.972 167.603L178.576 167.636L175.179 167.75L171.781 167.521L168.384 167.611L164.987 167.762L161.59 167.558L158.192 167.776L154.796 167.573L151.399 167.684L148.001 167.729L144.605 167.682L141.206 167.617L137.809 167.698L134.413 167.708L131.015 167.754L127.617 167.538L124.22 167.705L120.822 167.704L117.425 167.748L114.027 167.538L110.63 167.612L107.231 167.518L103.833 167.576L100.436 167.663L97.0383 167.711L93.6408 167.733L90.2433 167.704L86.8457 167.58L83.4482 167.523L80.0493 167.727L76.6518 167.64L73.2528 167.666L69.8118 167.698L69.816 164.443L69.7922 161.234L69.7852 158.024L69.795 154.813L69.8244 151.604L69.8146 148.393L69.8539 145.182L73.2514 145.061L76.6475 145.276L80.0451 145.11L83.4426 145.304L86.8401 145.179L90.2377 145.296L93.6338 145.143L97.0313 145.082L100.429 145.063L103.826 145.217L107.224 145.199L110.62 145.283L114.018 145.317L117.415 145.272L120.813 145.244L124.209 145.217L127.606 145.303L131.002 145.148L134.4 145.305L137.797 145.05L141.194 145.124L144.591 145.237L147.989 145.122L151.385 145.312L154.782 145.321L158.18 145.169L161.577 145.197L164.975 145.088L168.372 145.189L171.769 145.282L175.166 145.067L178.564 145.165L181.961 145.244L185.359 145.143L188.756 145.318L192.155 145.289L195.553 145.211L198.95 145.05L202.348 145.262L205.745 145.169L209.143 145.291L212.54 145.211L215.938 145.06L219.335 145.108L222.734 145.186L226.132 145.14L229.531 145.29L232.928 145.253L236.278 145.235L236.226 148.391L236.3 151.602L236.289 154.812L236.375 158.022L236.254 161.232L236.204 164.442L236.286 167.611Z" fill="#FFD803"/>
<path d="M234.49 248.558L231.141 248.59L227.744 248.488L224.346 248.658L220.95 248.721L217.552 248.564L214.155 248.467L210.757 248.593L207.36 248.658L203.964 248.651L200.566 248.489L197.169 248.539L193.771 248.504L190.374 248.474L186.976 248.746L183.58 248.619L180.182 248.48L176.786 248.571L173.389 248.663L169.993 248.62L166.595 248.567L163.198 248.705L159.8 248.554L156.404 248.508L153.006 248.691L149.609 248.473L146.213 248.69L142.815 248.689L139.418 248.624H136.02L132.623 248.662L129.225 248.509L125.828 248.529L122.43 248.619L119.033 248.693L115.635 248.654L112.238 248.533L108.84 248.617L105.442 248.71L102.045 248.647L98.6474 248.555L95.2499 248.631L91.8523 248.554L88.4548 248.471L85.0559 248.708L81.6584 248.562L78.2608 248.501L74.8619 248.606L71.463 248.714L68.0949 248.576L68.0023 245.227L68.1426 241.846L68.0626 238.465L67.9673 235.085L68.1721 231.704L68.0528 228.323L68.0304 224.942L68.2001 221.562L68.1791 218.181L68.1524 214.799L68.0514 211.418L68.1959 208.038L67.9981 204.657L68.1047 201.276L68.0711 197.894L67.9574 194.513L68.1833 191.133L67.935 187.751L68.0612 184.37L68.1103 180.988L68.1777 177.607L68.0107 174.225L68.2029 170.844L67.928 167.464L67.9322 164.082L67.935 160.701L68.1861 157.319L68.0051 153.937L68.015 150.556L68.0542 147.172L67.9799 143.705L71.4616 143.782L74.8591 143.673L78.2566 143.694L81.6528 143.905L85.0503 143.861L88.4478 143.775L91.8453 143.713L95.2429 143.708L98.639 143.715L102.037 143.862L105.434 143.651L108.832 143.671L112.229 143.799L115.627 143.701L119.023 143.786L122.42 143.717L125.816 143.755L129.214 143.689L132.61 143.751L136.008 143.733L139.405 143.879L142.803 143.917L146.199 143.658L149.596 143.795L152.994 143.682L156.39 143.692L159.787 143.768L163.185 143.698L166.583 143.917L169.98 143.664L173.378 143.914L176.775 143.873L180.173 143.919L183.57 143.884L186.968 143.771L190.365 143.768L193.763 143.736L197.16 143.9L200.558 143.776L203.955 143.694L207.353 143.726L210.75 143.809L214.148 143.853L217.547 143.706L220.944 143.796L224.343 143.687L227.741 143.689L231.14 143.835L234.606 143.723L234.652 147.171L234.658 150.552L234.623 153.932L234.655 157.313L234.494 160.694L234.541 164.075L234.41 167.455L234.453 170.836L234.543 174.217V177.599L234.478 180.979L234.588 184.36L234.543 187.741L234.438 191.121L234.463 194.504L234.649 197.884L234.421 201.266L234.593 204.647L234.532 208.028L234.459 211.41L234.553 214.791L234.459 218.173L234.621 221.553L234.477 224.934L234.568 228.316L234.467 231.697L234.485 235.079L234.421 238.461L234.428 241.843L234.481 245.225L234.49 248.558Z" stroke="#392396" stroke-width="0.701389" stroke-miterlimit="10"/>
<path d="M218.495 149.365L221.059 151.938L223.621 154.513L226.032 157.24L228.654 159.757" fill="white"/>
<path d="M218.495 149.365L221.059 151.938L223.621 154.513L226.032 157.24L228.654 159.757" stroke="#392396" stroke-width="0.701389" stroke-miterlimit="10"/>
<path d="M218.328 159.632L220.974 157.141L223.582 154.61L226.181 152.072L228.601 149.355" fill="white"/>
<path d="M218.328 159.632L220.974 157.141L223.582 154.61L226.181 152.072L228.601 149.355" stroke="#392396" stroke-width="0.701389" stroke-miterlimit="10"/>
<path d="M263.818 92.7572L266.701 95.6455L269.58 98.5381" fill="white"/>
<path d="M263.818 92.7572L266.701 95.6455L269.58 98.5381" stroke="#392396" stroke-width="0.701389" stroke-miterlimit="10"/>
<path d="M263.653 98.5198L266.616 95.7115L269.539 92.8638" fill="white"/>
<path d="M263.653 98.5198L266.616 95.7115L269.539 92.8638" stroke="#392396" stroke-width="0.701389" stroke-miterlimit="10"/>
<path d="M68.0635 165.42L71.461 165.382L74.8585 165.425L78.2561 165.639L81.6522 165.524L85.0497 165.5L88.4472 165.379L91.8448 165.533L95.2423 165.435L98.6384 165.54L102.036 165.365L105.433 165.451L108.831 165.378L112.229 165.474L115.626 165.372L119.022 165.581L122.42 165.552L125.816 165.369L129.213 165.556L132.609 165.448L136.007 165.535L139.405 165.582L142.802 165.387L146.198 165.43L149.596 165.466L152.993 165.559L156.389 165.442L159.787 165.512L163.184 165.382L166.582 165.627L169.979 165.598L173.377 165.609L176.775 165.616L180.172 165.643L183.57 165.588L186.967 165.407L190.365 165.48L193.762 165.406L197.16 165.575L200.557 165.54L203.955 165.375L207.352 165.488L210.75 165.424L214.147 165.554L217.546 165.612L220.944 165.547L224.343 165.378L227.74 165.481L231.139 165.431L234.538 165.477" fill="white"/>
<path d="M68.0635 165.42L71.461 165.382L74.8585 165.425L78.2561 165.639L81.6522 165.524L85.0497 165.5L88.4472 165.379L91.8448 165.533L95.2423 165.435L98.6384 165.54L102.036 165.365L105.433 165.451L108.831 165.378L112.229 165.474L115.626 165.372L119.022 165.581L122.42 165.552L125.816 165.369L129.213 165.556L132.609 165.448L136.007 165.535L139.405 165.582L142.802 165.387L146.198 165.43L149.596 165.466L152.993 165.559L156.389 165.442L159.787 165.512L163.184 165.382L166.582 165.627L169.979 165.598L173.377 165.609L176.775 165.616L180.172 165.643L183.57 165.588L186.967 165.407L190.365 165.48L193.762 165.406L197.16 165.575L200.557 165.54L203.955 165.375L207.352 165.488L210.75 165.424L214.147 165.554L217.546 165.612L220.944 165.547L224.343 165.378L227.74 165.481L231.139 165.431L234.538 165.477" stroke="#392396" stroke-width="0.701389" stroke-miterlimit="10"/>
<path d="M126.825 96.0649L127.096 99.4569L127.362 102.852L127.78 106.232L128.068 109.626L128.28 113.025L128.541 116.418L128.736 119.818L129.179 123.199L129.277 126.644L131.945 128.981L134.404 131.489L136.952 133.902L139.651 136.156L142.127 138.571L144.033 135.863L145.718 132.951" fill="white"/>
<path d="M126.825 96.0649L127.096 99.4569L127.362 102.852L127.78 106.232L128.068 109.626L128.28 113.025L128.541 116.418L128.736 119.818L129.179 123.199L129.277 126.644L131.945 128.981L134.404 131.489L136.952 133.902L139.651 136.156L142.127 138.571L144.033 135.863L145.718 132.951" stroke="#392396" stroke-width="0.701389" stroke-miterlimit="10"/>
<path d="M140.717 133.013L140.871 133.359L137.988 131.502L135.019 129.798L132.078 128.04L129.044 126.449L126.09 124.714L123.071 123.098L119.977 121.624L116.937 120.048L113.931 118.4L110.76 117.093L107.639 115.686L104.559 114.183L101.41 112.832L98.1775 111.691L94.9231 110.627L91.677 109.526L88.3104 108.885L84.9241 108.445L81.4985 108.426L78.5204 110.011L76.5537 112.692L75.7471 115.945L74.9545 119.2L74.709 122.538L74.4678 125.874L74.2854 129.215L74.3934 132.561L74.4229 135.905L74.688 139.241L74.6515 142.591L75.0513 145.917L75.2631 149.254L75.3487 152.605L75.813 155.922L76.0711 159.257L76.4527 162.581L76.9787 165.887L77.4122 169.203L77.7166 172.536L78.1234 175.856L78.5877 179.168L79.1755 182.384L82.7918 181.953L86.411 181.396L90.0288 180.814L93.6592 180.326L97.2475 179.756L97.016 176.375L96.7298 172.968L96.389 169.565L95.9078 166.174L95.6904 162.759L95.5459 159.339L95.0858 155.943L94.8852 152.527L94.9147 149.1L94.7968 145.683L94.5892 142.261L94.9988 138.858L95.7746 135.57L98.8985 135.135L101.936 136.159L104.886 137.403L107.754 138.831L110.554 140.396L113.395 141.902L116.057 143.615L119.463 143.694L122.886 143.797L126.309 143.653L129.73 143.856L133.153 143.832L136.576 143.663L139.997 143.626L143.42 143.86L146.843 143.853L150.264 143.584L153.687 143.757L157.11 143.745L160.532 143.855L163.957 143.723L167.379 143.643L170.792 143.615L167.674 143.132L164.584 142.351L161.441 141.833L158.313 141.234L155.248 140.366L152.083 139.477L149.083 138.133L146.039 136.872L143.238 135.131L140.717 133.013Z" fill="white"/>
<path d="M140.717 133.013L140.871 133.359L137.988 131.502L135.019 129.798L132.078 128.04L129.044 126.449L126.09 124.714L123.071 123.098L119.977 121.624L116.937 120.048L113.931 118.4L110.76 117.093L107.639 115.686L104.559 114.183L101.41 112.832L98.1775 111.691L94.9231 110.627L91.677 109.526L88.3104 108.885L84.9241 108.445L81.4985 108.426L78.5204 110.011L76.5537 112.692L75.7471 115.945L74.9545 119.2L74.709 122.538L74.4678 125.874L74.2854 129.215L74.3934 132.561L74.4229 135.905L74.688 139.241L74.6515 142.591L75.0513 145.917L75.2631 149.254L75.3487 152.605L75.813 155.922L76.0711 159.257L76.4527 162.581L76.9787 165.887L77.4122 169.203L77.7166 172.536L78.1234 175.856L78.5877 179.168L79.1755 182.384L82.7918 181.953L86.411 181.396L90.0288 180.814L93.6592 180.326L97.2475 179.756L97.016 176.375L96.7298 172.968L96.389 169.565L95.9078 166.174L95.6904 162.759L95.5459 159.339L95.0858 155.943L94.8852 152.527L94.9147 149.1L94.7968 145.683L94.5892 142.261L94.9988 138.858L95.7746 135.57L98.8985 135.135L101.936 136.159L104.886 137.403L107.754 138.831L110.554 140.396L113.395 141.902L116.057 143.615L119.463 143.694L122.886 143.797L126.309 143.653L129.73 143.856L133.153 143.832L136.576 143.663L139.997 143.626L143.42 143.86L146.843 143.853L150.264 143.584L153.687 143.757L157.11 143.745L160.532 143.855L163.957 143.723L167.379 143.643L170.792 143.615L167.674 143.132L164.584 142.351L161.441 141.833L158.313 141.234L155.248 140.366L152.083 139.477L149.083 138.133L146.039 136.872L143.238 135.131L140.717 133.013Z" stroke="#392396" stroke-width="0.701389" stroke-miterlimit="10"/>
<path d="M140.717 133.013L140.871 133.359L137.988 131.502L135.019 129.798L132.078 128.04L129.044 126.449L126.09 124.714L123.071 123.098L119.977 121.624L116.937 120.048L113.931 118.4L110.76 117.093L107.639 115.686L104.559 114.183L101.41 112.832L98.1775 111.691L94.9231 110.627L91.677 109.526L88.3104 108.885L84.9241 108.445L81.4985 108.426L78.5204 110.011L76.5537 112.692L75.7471 115.945L74.9545 119.2L74.709 122.538L74.4678 125.874L74.2854 129.215L74.3934 132.561L74.4229 135.905L74.688 139.241L74.6515 142.591L75.0513 145.917L75.2631 149.254L75.3487 152.605L75.813 155.922L76.0711 159.257L76.4527 162.581L76.9787 165.887L77.4122 169.203L77.7166 172.536L78.1234 175.856L78.5877 179.168L79.1755 182.384L82.7918 181.953L86.411 181.396L90.0288 180.814L93.6592 180.326L97.2475 179.756L97.016 176.375L96.7298 172.968L96.389 169.565L95.9078 166.174L95.6904 162.759L95.5459 159.339L95.0858 155.943L94.8852 152.527L94.9147 149.1L94.7968 145.683L94.5892 142.261L94.9988 138.858L95.7746 135.57L98.8985 135.135L101.936 136.159L104.886 137.403L107.754 138.831L110.554 140.396L113.395 141.902L116.059 143.615L119.463 143.694L122.886 143.797L126.309 143.653L129.73 143.856L133.153 143.832L136.576 143.663L139.997 143.626L143.42 143.86L146.843 143.853L150.264 143.584L153.687 143.757L157.11 143.745L160.532 143.855L163.957 143.723L167.379 143.643L170.792 143.615L167.674 143.132L164.584 142.351L161.441 141.833L158.313 141.234L155.248 140.366L152.083 139.477L149.083 138.133L146.039 136.872L143.238 135.131L140.717 133.013Z" stroke="#392396" stroke-width="0.701389" stroke-miterlimit="10"/>
<path d="M79.2858 182.678L76.8982 185.329L74.6973 188.134L72.3392 190.809L70.0751 193.561L67.7732 196.282L65.3926 198.939L63.2422 201.711L66.3746 200.736L69.622 199.945L72.8779 199.187L76.1113 198.347L79.2858 197.285L82.5023 196.385L85.7596 195.627L88.9565 194.649L92.1703 193.732L95.4289 192.977L98.6202 192.059L98.299 189.034L97.8543 185.963L97.6846 182.863L97.209 179.892L93.667 180.38L90.0549 180.992L86.3992 181.317L82.7843 181.912L79.1413 182.365L79.2858 182.678Z" fill="white"/>
<path d="M79.2858 182.678L76.8982 185.329L74.6973 188.134L72.3392 190.809L70.0751 193.561L67.7732 196.282L65.3926 198.939L63.2422 201.711L66.3746 200.736L69.622 199.945L72.8779 199.187L76.1113 198.347L79.2858 197.285L82.5023 196.385L85.7596 195.627L88.9565 194.649L92.1703 193.732L95.4289 192.977L98.6202 192.059L98.299 189.034L97.8543 185.963L97.6846 182.863L97.209 179.892L93.667 180.38L90.0549 180.992L86.3992 181.317L82.7843 181.912L79.1413 182.365L79.2858 182.678Z" stroke="#392396" stroke-width="0.701389" stroke-miterlimit="10"/>
<path d="M171.721 90.1186L169.598 87.4056L167.092 85.0658L164.53 82.768L161.451 81.2306L158.417 79.6006L155.126 78.5653L151.713 78.1108L148.306 77.7335L144.879 77.7896L141.491 78.2777L138.165 79.0787L134.974 80.3412L132.085 82.2125L129.699 84.6926L127.927 87.6427L126.958 90.9532L126.729 94.4041L126.894 97.8577L127.545 101.252L128.392 104.595L129.198 107.953L130.458 111.171L131.753 114.367L133.007 117.579L134.448 120.712L135.86 123.86L137.322 126.988L139.047 129.979L140.812 132.917L143.382 134.926L146.095 136.774L149.041 138.228L152.095 139.443L155.219 140.475L158.333 141.15L161.433 141.871L164.579 142.375L167.692 143.045L170.799 143.794L174.337 143.677L177.872 143.719L181.407 143.744L184.942 143.717L188.477 143.699L192.012 143.678L195.558 143.748L194.23 140.527L193.134 137.251L191.806 134.062L190.542 130.848L189.232 127.653L187.937 124.452L186.521 121.301L185.262 118.084L183.793 114.958L182.602 111.709L181.153 108.572L179.576 105.497L178.085 102.382L176.626 99.2507L174.919 96.2473L173.463 93.1065L171.721 90.1186Z" fill="white"/>
<path d="M171.721 90.1186L169.598 87.4056L167.092 85.0658L164.53 82.768L161.451 81.2306L158.417 79.6006L155.126 78.5653L151.713 78.1108L148.306 77.7335L144.879 77.7896L141.491 78.2777L138.165 79.0787L134.974 80.3412L132.085 82.2125L129.699 84.6926L127.927 87.6427L126.958 90.9532L126.729 94.4041L126.894 97.8577L127.545 101.252L128.392 104.595L129.198 107.953L130.458 111.171L131.753 114.367L133.007 117.579L134.448 120.712L135.86 123.86L137.322 126.988L139.047 129.979L140.812 132.917L143.382 134.926L146.095 136.774L149.041 138.228L152.095 139.443L155.219 140.475L158.333 141.15L161.433 141.871L164.579 142.375L167.692 143.045L170.799 143.794L174.337 143.677L177.872 143.719L181.407 143.744L184.942 143.717L188.477 143.699L192.012 143.678L195.558 143.748L194.23 140.527L193.134 137.251L191.806 134.062L190.542 130.848L189.232 127.653L187.937 124.452L186.521 121.301L185.262 118.084L183.793 114.958L182.602 111.709L181.153 108.572L179.576 105.497L178.085 102.382L176.626 99.2507L174.919 96.2473L173.463 93.1065L171.721 90.1186Z" stroke="#392396" stroke-width="0.701389" stroke-miterlimit="10"/>
<path d="M172.783 98.4566L176.155 98.6699L179.516 98.9995L182.9 99.1426L186.213 99.8286L189.49 100.63L192.744 101.525L195.896 102.759L198.698 104.654L201.227 106.889L202.867 109.829L203.362 112.952L203.074 116.148L202.167 119.23L201.392 122.34L200.399 125.39L199.138 128.341L197.982 131.331L196.769 134.296L195.555 137.27L192.222 138.44L189.477 140.651L187.255 143.361L186.161 146.7L186.169 150.202L186.617 153.382L188.4 156.034L190.883 157.967L194.043 158.299L196.833 156.734L197.705 153.685L198.503 150.584L199.918 147.682L202.24 145.399L204.927 143.623L206.891 140.937L208.43 137.948L210.063 135.016L211.647 132.059L213.014 128.994L214.492 125.979L215.656 122.833L216.809 119.686L217.98 116.533L218.691 113.246L219.07 109.908L219.056 106.56L218.499 103.275L217.126 100.255L215.203 97.427L212.759 95.0325L210.285 92.6912L207.701 90.4566L204.84 88.5881L201.965 86.7449L198.914 85.206L195.833 83.7317L192.645 82.5085L189.446 81.3105L186.175 80.3285L182.905 79.3199L179.571 78.5442L176.162 78.1865L172.801 77.5595L169.394 77.2943L165.989 77.0222L162.579 76.7949L159.162 76.8202L155.74 76.6617L152.337 77.0783L148.91 77.0937L145.511 77.4963L142.115 77.9116" fill="white"/>
<path d="M172.783 98.4566L176.155 98.6699L179.516 98.9995L182.9 99.1426L186.213 99.8286L189.49 100.63L192.744 101.525L195.896 102.759L198.698 104.654L201.227 106.889L202.867 109.829L203.362 112.952L203.074 116.148L202.167 119.23L201.392 122.34L200.399 125.39L199.138 128.341L197.982 131.331L196.769 134.296L195.555 137.27L192.222 138.44L189.477 140.651L187.255 143.361L186.161 146.7L186.169 150.202L186.617 153.382L188.4 156.034L190.883 157.967L194.043 158.299L196.833 156.734L197.705 153.685L198.503 150.584L199.918 147.682L202.24 145.399L204.927 143.623L206.891 140.937L208.43 137.948L210.063 135.016L211.647 132.059L213.014 128.994L214.492 125.979L215.656 122.833L216.809 119.686L217.98 116.533L218.691 113.246L219.07 109.908L219.056 106.56L218.499 103.275L217.126 100.255L215.203 97.427L212.759 95.0325L210.285 92.6912L207.701 90.4566L204.84 88.5881L201.965 86.7449L198.914 85.206L195.833 83.7317L192.645 82.5085L189.446 81.3105L186.175 80.3285L182.905 79.3199L179.571 78.5442L176.162 78.1865L172.801 77.5595L169.394 77.2943L165.989 77.0222L162.579 76.7949L159.162 76.8202L155.74 76.6617L152.337 77.0783L148.91 77.0937L145.511 77.4963L142.115 77.9116" stroke="#392396" stroke-width="0.701389" stroke-miterlimit="10"/>
<path d="M134.96 84.1946L133.178 80.7957L131.277 77.4556L128.799 74.486L131.232 72.3706L133.675 70.3183L135.883 68.1735L133.619 70.3309L131.275 72.5642L128.741 74.5799L125.926 76.1637L122.906 77.1092L120.449 75.0793L119.61 71.7534L119.084 68.3109L119.302 64.8461L116.724 64.4098L114.133 64.2078L115.657 61.7796L117.254 59.3514L118.746 56.8587L118.672 53.6449L119.138 50.4732L120.257 47.5091L122.222 45.0052L125.179 43.8156L128.294 43.096L131.507 43.169L134.925 43.8044L138.14 45.0992L140.722 47.4025L141.951 50.6219L142.342 54.0447L142.293 57.5124L142.107 60.9786L142.139 64.4309L143.094 67.9294L144.915 71.0772L147.098 73.9782L149.389 76.7935L151.852 79.4658" fill="white"/>
<path d="M134.96 84.1946L133.178 80.7957L131.277 77.4556L128.799 74.486L131.232 72.3706L133.675 70.3183L135.883 68.1735L133.619 70.3309L131.275 72.5642L128.741 74.5799L125.926 76.1637L122.906 77.1092L120.449 75.0793L119.61 71.7534L119.084 68.3109L119.302 64.8461L116.724 64.4098L114.133 64.2078L115.657 61.7796L117.254 59.3514L118.746 56.8587L118.672 53.6449L119.138 50.4732L120.257 47.5091L122.222 45.0052L125.179 43.8156L128.294 43.096L131.507 43.169L134.925 43.8044L138.14 45.0992L140.722 47.4025L141.951 50.6219L142.342 54.0447L142.293 57.5124L142.107 60.9786L142.139 64.4309L143.094 67.9294L144.915 71.0772L147.098 73.9782L149.389 76.7935L151.852 79.4658" stroke="#392396" stroke-width="0.701389" stroke-miterlimit="10"/>
<path d="M165.422 246.619L165.199 249.966L164.742 253.297L163.634 256.468L162.329 259.545L160.83 262.542L158.942 265.323L156.705 267.838L154.057 269.907L151.367 271.895L148.426 273.491L145.36 274.836L142.143 275.783L138.841 276.395L135.487 276.364L132.129 276.421L128.811 275.863L125.593 274.894L122.482 273.623L119.532 272.011L116.876 269.955L114.332 267.775L112.03 265.324L110.188 262.514L108.568 259.583L107.169 256.527L106.423 253.253L105.887 249.955L105.651 246.619L105.657 243.258L106.245 239.945L107.366 236.779L108.493 233.62L110.286 230.785L112.021 227.906L114.358 225.489L116.81 223.199L119.609 221.348L122.479 219.608L125.614 218.404L128.824 217.428L132.148 216.997L135.487 216.629L138.835 216.897L142.138 217.481L145.4 218.286L148.407 219.79L151.329 221.404L154.144 223.223L156.571 225.536L158.908 227.943L160.695 230.781L162.453 233.634L163.761 236.726L164.661 239.96L165.192 243.271L165.422 246.619Z" stroke="#392396" stroke-width="0.701389" stroke-miterlimit="10"/>
<path d="M59.2615 93.6663L61.2198 96.1716L63.1696 98.6854L65.0255 101.272L66.8954 103.848L68.9322 106.336L70.9368 103.699L72.8614 101.042L74.5756 98.2323L76.6517 95.6835L78.4374 92.927L80.4406 90.3262L82.2923 87.6147L84.3403 85.0448L86.2565 82.3795" stroke="#392396" stroke-width="0.701389" stroke-miterlimit="10"/>
<path d="M142.343 65.1618C139.275 66.3752 134.953 65.6444 135.765 64.2683C136.234 63.4729 136.367 62.6901 136.572 61.7896C136.805 60.7622 136.912 59.7104 136.892 58.6571C136.876 57.9137 136.764 57.1001 136.218 56.5965C135.445 55.8825 134.125 56.156 133.378 56.8967C132.598 57.6678 132.02 58.6187 131.694 59.6657C131.255 57.7322 130.701 55.8263 130.038 53.9578C129.555 52.6056 128.993 51.2393 128.009 50.1928C127.424 49.5705 126.709 49.0843 125.915 48.7685C125.121 48.4527 124.268 48.315 123.415 48.3652C122.562 48.4153 121.731 48.6521 120.979 49.0588C120.228 49.4655 119.575 50.0322 119.067 50.7188C118.587 48.5571 118.406 45.9494 118.778 43.7695C119.149 41.5895 120.143 39.4671 121.792 37.9886C123.442 36.5101 125.782 35.7442 127.941 36.2379C127.182 36.5606 127.062 37.795 127.747 38.2551C128.242 38.589 128.897 38.4922 129.489 38.4095C132.844 37.9504 136.261 38.4 139.383 39.7112C140.786 40.3018 142.173 41.1238 142.928 42.441C143.429 43.3136 143.607 44.3292 143.777 45.3209C144.075 47.0702 144.376 48.8405 144.248 50.6108C144.078 52.9254 143.187 55.1151 142.52 57.3441C141.852 59.5732 142.134 62.7953 142.343 65.1618Z" fill="#392396" stroke="#392396" stroke-width="0.701389" stroke-miterlimit="10"/>
<path d="M224.057 263.402L223.246 260.452L222.302 257.518L221.484 254.547L220.791 251.538L219.828 248.614L216.624 248.616L213.414 248.488L210.203 248.534L206.994 248.604L203.784 248.616L200.573 248.644L197.356 248.603L198.662 251.735L199.88 254.894L201.049 258.072L202.074 261.304L203.252 264.475L203.255 264.46L206.738 264.651L210.226 264.579L213.723 264.703L217.188 264.227L220.665 263.931L224.057 263.402Z" fill="white"/>
<path d="M224.057 263.402L223.246 260.452L222.302 257.518L221.484 254.547L220.791 251.538L219.828 248.614L216.624 248.616L213.414 248.488L210.203 248.534L206.994 248.604L203.784 248.616L200.573 248.644L197.356 248.603L198.662 251.735L199.88 254.894L201.049 258.072L202.074 261.304L203.252 264.475L203.255 264.46L206.738 264.651L210.226 264.579L213.723 264.703L217.188 264.227L220.665 263.931L224.057 263.402Z" stroke="#392396" stroke-width="0.701389" stroke-miterlimit="10"/>
<path d="M227.559 275.332L226.603 272.387L225.724 269.409L224.948 266.4L224.052 263.454L220.671 263.969L217.201 264.353L213.713 264.509L210.229 264.787L206.736 264.755L203.267 264.536L200.109 266.211L197.117 268.179L194.013 269.956L190.838 271.614L187.819 273.537L184.608 275.354L188.024 275.238L191.319 275.343L194.614 275.271L197.91 275.395L201.205 275.452L204.5 275.308L207.795 275.375L211.09 275.434L214.387 275.476L217.682 275.229L220.977 275.431L224.273 275.299L227.559 275.332Z" fill="white"/>
<path d="M227.559 275.332L226.603 272.387L225.724 269.409L224.948 266.4L224.052 263.454L220.671 263.969L217.201 264.353L213.713 264.509L210.229 264.787L206.736 264.755L203.267 264.536L200.109 266.211L197.117 268.179L194.013 269.956L190.838 271.614L187.819 273.537L184.608 275.354L188.024 275.238L191.319 275.343L194.614 275.271L197.91 275.395L201.205 275.452L204.5 275.308L207.795 275.375L211.09 275.434L214.387 275.476L217.682 275.229L220.977 275.431L224.273 275.299L227.559 275.332Z" stroke="#392396" stroke-width="0.701389" stroke-miterlimit="10"/>
<path d="M195.593 137.159C197.609 137.005 199.616 137.551 201.275 138.706C202.934 139.862 204.143 141.554 204.698 143.498" stroke="#392396" stroke-width="0.701389" stroke-miterlimit="10"/>
<path d="M130.14 84.4304L129.921 87.4407L129.525 90.4076L133.805 88.7313L131.938 91.694L134.84 93.1529L137.751 94.6019L140.893 95.4464L143.968 96.3021L141.45 94.4701L139.258 92.1751L137.076 89.8872L135.399 87.2261L134.864 84.2101" stroke="#392396" stroke-width="0.701389" stroke-linejoin="round"/>
<path d="M151.945 79.3719L151.315 82.4819L150.339 85.4922L148.904 88.3118L147.411 91.0963L145.752 93.7854L143.966 96.5054L146.806 94.0169L149.427 91.419L151.959 88.7326L154.313 85.8766L156.382 82.7105L153.607 81.3386L157.815 79.2499L155.756 76.7277" stroke="#392396" stroke-width="0.701389" stroke-linejoin="round"/>
<path d="M143.825 95.8377C144.027 98.6124 145.291 101.202 146.793 103.545C148.296 105.887 150.056 108.06 151.423 110.48C156.905 120.135 155.698 132.676 161.844 141.923" stroke="#392396" stroke-width="0.701389" stroke-linejoin="round"/>
<path d="M194.133 158.021C194.084 154.141 195.161 150.33 197.234 147.049" stroke="#392396" stroke-width="0.701389" stroke-miterlimit="10"/>
<path d="M190.482 157.927C190.292 153.499 191.483 149.121 193.89 145.399" stroke="#392396" stroke-width="0.701389" stroke-miterlimit="10"/>
<path d="M187.564 155.125C187.402 151.164 188.455 147.249 190.58 143.902" stroke="#392396" stroke-width="0.701389" stroke-miterlimit="10"/>
<path d="M44.525 77.5525C45.5662 77.5525 46.4103 76.7084 46.4103 75.6672C46.4103 74.626 45.5662 73.7819 44.525 73.7819C43.4837 73.7819 42.6396 74.626 42.6396 75.6672C42.6396 76.7084 43.4837 77.5525 44.525 77.5525Z" stroke="#392396" stroke-width="0.701389" stroke-miterlimit="10"/>
<path d="M52.8678 77.5931C53.909 77.5931 54.7531 76.749 54.7531 75.7078C54.7531 74.6665 53.909 73.8224 52.8678 73.8224C51.8265 73.8224 50.9824 74.6665 50.9824 75.7078C50.9824 76.749 51.8265 77.5931 52.8678 77.5931Z" stroke="#392396" stroke-width="0.701389" stroke-miterlimit="10"/>
<path d="M61.2115 77.6339C62.2527 77.6339 63.0968 76.7898 63.0968 75.7486C63.0968 74.7073 62.2527 73.8632 61.2115 73.8632C60.1703 73.8632 59.3262 74.7073 59.3262 75.7486C59.3262 76.7898 60.1703 77.6339 61.2115 77.6339Z" stroke="#392396" stroke-width="0.701389" stroke-miterlimit="10"/>
</g>
<defs>
<clipPath id="clip0_398_2302">
<rect width="303" height="303" fill="white"/>
</clipPath>
</defs>
</svg>
