<svg width="302" height="302" viewBox="0 0 302 302" fill="none" xmlns="http://www.w3.org/2000/svg">
<path d="M264.097 272.692L260.661 272.474L257.319 272.036L253.955 271.913L250.608 271.561L247.234 271.585L243.888 271.2L240.533 270.961L237.167 270.87L233.819 270.51L230.456 270.375L227.111 269.987L223.752 269.803L220.399 269.504L217.026 269.542L213.679 269.181L210.316 269.029L206.959 268.819L203.606 268.541L200.259 268.172L196.904 267.922L193.531 267.927L190.191 267.457L186.824 267.375L183.467 267.144L180.105 267.011L176.755 266.679L173.405 266.36L170.044 266.206L166.695 265.863L163.33 265.757L159.969 265.596L156.62 265.237L153.252 265.185L149.903 264.83L146.542 264.686L143.184 264.476L139.841 264.067L136.484 263.831L133.121 263.702L129.766 263.468L126.419 263.097L123.058 262.929L119.701 262.72L116.333 262.653L112.978 262.397L109.635 261.975L106.264 261.957L102.92 261.546L99.5645 261.292L96.1936 261.265L92.8436 260.941L89.4909 260.662L86.1255 260.559L82.7728 260.265L79.4186 260.007L76.0673 259.691L72.7075 259.507L69.3394 259.44L65.9852 259.154L62.6367 258.801L59.2783 258.599L55.9172 258.435L52.5658 258.122L49.1935 258.114L45.8379 257.87L42.4921 257.459L39.1366 257.206L35.7656 257.161L32.3779 256.866L32.7512 253.486L32.7331 250.112L33.1413 246.768L33.3231 243.409L33.6572 240.059L33.818 236.698L34.0277 233.341L34.2556 229.984L34.5534 226.633L34.8261 223.28L34.8694 219.911L35.0596 216.552L35.3937 213.202L35.5042 209.838L35.9572 206.497L36.0886 203.134L36.1809 199.767L36.4172 196.412L36.715 193.06L36.8492 189.697L37.2938 186.355L37.3595 182.988L37.6238 179.634L38.0167 176.288L38.0502 172.919L38.397 169.57L38.6039 166.212L38.9311 162.862L39.0233 159.497L39.2498 156.14L39.5574 152.788L39.6273 149.42L39.9964 146.074L40.1768 142.713L40.4942 139.363L40.7053 136.006L41.0073 132.655L41.1807 129.295L41.3736 125.937L41.4589 122.57L41.7497 119.217L42.1426 115.872L42.1244 112.499L42.3649 109.144L42.5732 105.785L42.9395 102.438L43.2681 99.0882L43.4359 95.727L43.489 92.3589L43.8959 89.0145L43.9993 85.6492L44.286 82.2964L44.669 78.9506L44.8312 75.5881L45.0899 72.2339L45.1934 68.8686L45.4199 65.5116L45.8001 62.1645L45.9623 58.8033L46.0896 55.4394L46.2601 52.0782L46.6992 48.7352L46.9201 45.3783L46.9494 42.0074L47.1382 38.6476L47.4318 35.2948L47.8261 31.9477L47.9072 28.5795L48.1295 25.1597L51.5507 25.347L54.8993 25.6798L58.2521 25.9706L61.6132 26.1286L64.9688 26.3733L68.3257 26.5858L71.6911 26.6892L75.0466 26.9283L78.3938 27.289L81.7521 27.4876L85.1007 27.8189L88.4562 28.079L91.8216 28.1643L95.1674 28.5572L98.5299 28.6942L101.895 28.7851L105.248 29.0619L108.599 29.3821L111.955 29.6128L115.306 29.9232L118.677 29.9427L122.024 30.3063L125.393 30.3622L128.733 30.8459L132.091 31.0277L135.462 31.0501L138.805 31.4877L142.176 31.4961L145.515 31.9882L148.879 32.1155L152.231 32.4007L155.601 32.4244L158.955 32.6915L162.309 32.9739L165.665 33.2004L169.011 33.5933H172.382L175.73 33.9358L179.097 34.0071L182.447 34.3539L185.801 34.5944L189.156 34.8404L192.513 35.0628L195.877 35.1914L199.229 35.4892L202.579 35.8136L205.947 35.8723L209.304 36.1044L212.647 36.5294L216.016 36.5741L219.366 36.8887L222.718 37.1949L226.09 37.2103L229.437 37.5766L232.79 37.8618L236.15 38.059L239.509 38.2365L242.875 38.3624L246.214 38.8503L249.575 39.0251L252.937 39.1677L256.289 39.4683L259.646 39.7046L263 39.9675L266.366 40.0667L269.729 40.2149L273.073 40.6358L276.429 40.9042L279.751 41.037L279.586 44.3548L279.394 47.7146L279.05 51.0632L278.86 54.4215L278.589 57.7757L278.555 61.1452L278.184 64.491L278.04 67.8535L277.689 71.2007L277.511 74.5618L277.268 77.916L277.167 81.2813L276.84 84.6313L276.633 87.9896L276.503 91.3522L276.186 94.7036L276.011 98.0633L275.552 101.403L275.495 104.772L275.15 108.12L274.874 111.474L274.897 114.848L274.532 118.195L274.211 121.545L274.016 124.904L273.8 128.262L273.638 131.622L273.305 134.972L273.096 138.33L273.047 141.698L272.703 145.047L272.591 148.412L272.167 151.755L271.896 155.109L271.672 158.466L271.526 161.827L271.278 165.183L271.005 168.536L270.808 171.894L270.648 175.255L270.39 178.609L270.291 181.975L269.99 185.326L269.767 188.683L269.487 192.037L269.416 195.404L268.985 198.747L268.911 202.113L268.661 205.469L268.399 208.823L268.261 212.186L267.902 215.534L267.784 218.898L267.381 222.244L267.222 225.605L267.043 228.965L266.657 232.312L266.673 235.686L266.414 239.04L266.178 242.397L265.816 245.744L265.546 249.098L265.307 252.455L265.147 255.816L264.97 259.178L264.823 262.541L264.394 265.884L264.315 269.253L264.097 272.692Z" fill="#BAE8E8"/>
<path d="M55.8429 24.6257L51.0613 29.4073" stroke="#392396" stroke-width="0.699074" stroke-miterlimit="10"/>
<path d="M130.047 20.5194L127.008 23.5604" stroke="#392396" stroke-width="0.699074" stroke-miterlimit="10"/>
<path d="M191.074 29.4074L187.759 32.7224" stroke="#392396" stroke-width="0.699074" stroke-miterlimit="10"/>
<path d="M97.1237 29.4074L93.989 32.5407" stroke="#392396" stroke-width="0.699074" stroke-miterlimit="10"/>
<path d="M43.4377 55.5402L40.5016 58.4763" stroke="#392396" stroke-width="0.699074" stroke-miterlimit="10"/>
<path d="M36.1266 40.5912L30.994 45.7238" stroke="#392396" stroke-width="0.699074" stroke-miterlimit="10"/>
<path d="M45.743 77.828L41.5779 81.9931" stroke="#392396" stroke-width="0.699074" stroke-miterlimit="10"/>
<path d="M32.5321 92.6596L29.1122 96.0795" stroke="#392396" stroke-width="0.699074" stroke-miterlimit="10"/>
<path d="M36.1266 20.5194L32.23 24.416" stroke="#392396" stroke-width="0.699074" stroke-miterlimit="10"/>
<path d="M40.9204 192.201L34.7126 198.409" stroke="#392396" stroke-width="0.699074" stroke-miterlimit="10"/>
<path d="M51.8251 210.937L48.4863 214.276" stroke="#392396" stroke-width="0.699074" stroke-miterlimit="10"/>
<path d="M39.6624 225.197L37.691 227.168" stroke="#392396" stroke-width="0.699074" stroke-miterlimit="10"/>
<path d="M36.1263 252.879L32.1765 256.829" stroke="#392396" stroke-width="0.699074" stroke-miterlimit="10"/>
<path d="M169.524 20.5193L162.668 27.3759" stroke="#392396" stroke-width="0.699074" stroke-miterlimit="10"/>
<path d="M271.039 82.1203L261.575 91.5844" stroke="#392396" stroke-width="0.699074" stroke-miterlimit="10"/>
<path d="M273.556 36.1115L270.057 39.6097" stroke="#392396" stroke-width="0.699074" stroke-miterlimit="10"/>
<path d="M224.477 20.5194L219.76 25.2354" stroke="#392396" stroke-width="0.699074" stroke-miterlimit="10"/>
<path d="M85.2073 20.5194L81.3806 24.3461" stroke="#392396" stroke-width="0.699074" stroke-miterlimit="10"/>
<path d="M23.1226 159.783L19.1169 163.789" stroke="#392396" stroke-width="0.699074" stroke-miterlimit="10"/>
<path d="M266.307 230.651L262.012 234.948" stroke="#392396" stroke-width="0.699074" stroke-miterlimit="10"/>
<path d="M279.849 155.923L274.61 161.162" stroke="#392396" stroke-width="0.699074" stroke-miterlimit="10"/>
<path d="M271.04 120.269L265.946 125.361" stroke="#392396" stroke-width="0.699074" stroke-miterlimit="10"/>
<path d="M279.849 92.6596L276.692 95.8166" stroke="#392396" stroke-width="0.699074" stroke-miterlimit="10"/>
<path d="M274.61 195.305L269.47 200.444" stroke="#392396" stroke-width="0.699074" stroke-miterlimit="10"/>
<path d="M265.946 257.712L260.755 262.904" stroke="#392396" stroke-width="0.699074" stroke-miterlimit="10"/>
<path d="M279.849 238.37L276.919 241.301" stroke="#392396" stroke-width="0.699074" stroke-miterlimit="10"/>
<path d="M172.028 136.771L171.941 140.106L171.714 143.433L171.312 146.745L170.623 150.009L169.903 153.259L169.186 156.52L168.087 159.673L166.95 162.812L165.419 165.78L164.113 168.857L162.407 171.729L160.647 174.566L158.761 177.322L156.711 179.961L154.368 182.346L152.134 184.821L149.798 187.211L147.267 189.392L144.626 191.439L141.916 193.396L139.063 195.133L136.128 196.724L133.188 198.309L130.126 199.644L126.942 200.657L123.817 201.821L120.625 202.808L117.359 203.506L114.059 204.016L110.743 204.372L107.421 204.692L104.084 204.805L100.742 204.777L97.4131 204.493L94.1149 203.967L90.8111 203.493L87.5352 202.831L84.3782 201.732L81.175 200.798L78.1033 199.496L75.0427 198.176L72.0213 196.759L69.1929 194.986L66.3015 193.316L63.5346 191.447L61.0375 189.224L58.4104 187.165L56 184.855L53.8105 182.335L51.5161 179.911L49.5643 177.203L47.5523 174.542L45.8969 171.645L44.1954 168.78L42.7203 165.792L41.3068 162.774L40.0667 159.677L38.9817 156.52L38.024 153.32L37.4479 150.027L36.8621 146.744L36.4636 143.433L36.1393 140.11L35.998 136.771L36.2176 133.436L36.4804 130.112L36.7922 126.788L37.5164 123.529L38.154 120.256L38.9342 117.008L40.1925 113.91L41.3865 110.802L42.6295 107.706L44.0626 104.691L45.8746 101.883L47.4615 98.9386L49.5028 96.2919L51.579 93.6815L53.7573 91.1579L55.9986 88.686L58.3894 86.3538L61.0389 84.3195L63.5555 82.1231L66.2931 80.2104L69.0726 78.3564L72.0926 76.9163L75.0819 75.4497L78.0264 73.8628L81.2016 72.8198L84.3376 71.6789L87.5352 70.7072L90.7971 69.9773L94.0953 69.4363L97.4271 69.2L100.75 68.9259L104.084 68.8127L107.422 68.8281L110.753 69.0685L114.064 69.4978L117.32 70.236L120.607 70.8092L123.844 71.6355L127.022 72.6632L130.053 74.0753L133.125 75.3686L136.062 76.9429L139.005 78.506L141.793 80.3334L144.582 82.1636L147.201 84.2315L149.807 86.3231L152.156 88.6985L154.501 91.0782L156.629 93.6508L158.638 96.3129L160.682 98.9554L162.462 101.782L163.926 104.787L165.451 107.748L166.768 110.807L168.088 113.871L169.099 117.049L170.122 120.228L170.687 123.522L171.318 126.797L171.621 130.119L172.027 133.434L172.028 136.771Z" stroke="#392396" stroke-width="0.699074" stroke-miterlimit="10"/>
<path d="M230.759 27.8497L230.894 31.3926L230.778 34.8461L230.731 38.2995L230.982 41.7529L230.845 45.2049L230.755 48.6584L230.787 52.1132L230.806 55.5429L227.972 57.8204L225.018 59.9792L222.141 62.2372L219.361 64.6224L216.398 66.7826L220.017 66.6707L223.628 66.8665L227.241 66.9098L230.767 66.8692L230.812 70.2751L230.809 73.8125L234.174 73.8754L237.495 73.8446L240.817 73.7761L244.139 73.8055L247.46 73.6754L250.782 73.7481L254.104 73.7425L257.427 73.7943L260.654 73.6754L260.816 70.4974L260.662 67.2244L260.683 63.9513L260.717 60.6782L260.626 57.4038L260.757 54.1307L260.647 50.8577L260.82 47.5846L260.752 44.3101L260.701 41.0371L260.859 37.7626L260.615 34.4881L260.644 31.2137L260.68 28.0091L257.428 27.9029L254.106 27.8609L250.786 27.8511L247.464 27.9196L244.142 27.9714L240.82 28.0539L237.498 27.8525L234.174 28.0021L230.759 27.8497Z" fill="white"/>
<path d="M230.759 27.8497L230.894 31.3926L230.778 34.8461L230.731 38.2995L230.982 41.7529L230.845 45.2049L230.755 48.6584L230.787 52.1132L230.806 55.5429L227.972 57.8204L225.018 59.9792L222.141 62.2372L219.361 64.6224L216.398 66.7826L220.017 66.6707L223.628 66.8665L227.241 66.9098L230.767 66.8692L230.812 70.2751L230.809 73.8125L234.174 73.8754L237.495 73.8446L240.817 73.7761L244.139 73.8055L247.46 73.6754L250.782 73.7481L254.104 73.7425L257.427 73.7943L260.654 73.6754L260.816 70.4974L260.662 67.2244L260.683 63.9513L260.717 60.6782L260.626 57.4038L260.757 54.1307L260.647 50.8577L260.82 47.5846L260.752 44.3101L260.701 41.0371L260.859 37.7626L260.615 34.4881L260.644 31.2137L260.68 28.0091L257.428 27.9029L254.106 27.8609L250.786 27.8511L247.464 27.9196L244.142 27.9714L240.82 28.0539L237.498 27.8525L234.174 28.0021L230.759 27.8497Z" stroke="#392396" stroke-width="0.699074" stroke-miterlimit="10"/>
<path d="M48.3844 227.79L51.7455 227.656L55.1976 227.774L58.651 227.82L62.1044 227.568L65.5578 227.707L69.0113 227.796L72.4647 227.765L75.9181 227.751L79.3729 227.684L82.8683 227.779L85.1263 224.853L87.2263 221.854L89.5598 219.034L91.7102 216.073L94.0143 213.332L93.9109 216.861L93.9165 220.474L93.999 224.085L93.9962 227.74L97.5363 227.803L100.98 227.75L101.026 231.131L100.997 234.563L101.127 237.997L101.054 241.429L101.06 244.862L101.008 248.294L101.166 251.728L100.963 255.162L101.117 258.594L101.097 262.028L101.062 265.462L101.12 268.981L97.7348 268.888L94.4394 268.999L91.1425 268.825L87.8471 268.893L84.5517 268.944L81.2548 268.786L77.9594 269.03L74.664 269.001L71.3671 268.994L68.0717 268.86L64.7749 268.818L61.4794 268.808L58.1826 268.876L54.8858 268.927L51.5889 269.009L48.355 268.836L48.2292 265.464L48.3298 262.031L48.1816 258.597L48.3396 255.165L48.1914 251.732L48.2502 248.3L48.3159 244.866L48.2837 241.432L48.4109 238L48.2068 234.566L48.3676 231.133L48.3844 227.79Z" fill="white"/>
<path d="M48.3844 227.79L51.7455 227.656L55.1976 227.774L58.651 227.82L62.1044 227.568L65.5578 227.707L69.0113 227.796L72.4647 227.765L75.9181 227.751L79.3729 227.684L82.8683 227.779L85.1263 224.853L87.2263 221.854L89.5598 219.034L91.7102 216.073L94.0143 213.332L93.9109 216.861L93.9165 220.474L93.999 224.085L93.9962 227.74L97.5363 227.803L100.98 227.75L101.026 231.131L100.997 234.563L101.127 237.997L101.054 241.429L101.06 244.862L101.008 248.294L101.166 251.728L100.963 255.162L101.117 258.594L101.097 262.028L101.062 265.462L101.12 268.981L97.7348 268.888L94.4394 268.999L91.1425 268.825L87.8471 268.893L84.5517 268.943L81.2548 268.786L77.9594 269.03L74.664 269.001L71.3671 268.994L68.0717 268.86L64.7749 268.818L61.4794 268.808L58.1826 268.876L54.8858 268.927L51.5889 269.009L48.355 268.836L48.2292 265.464L48.3298 262.031L48.1816 258.597L48.3396 255.165L48.1914 251.732L48.2502 248.3L48.3159 244.866L48.2837 241.432L48.4109 238L48.2068 234.566L48.3676 231.133L48.3844 227.79Z" stroke="#392396" stroke-width="0.699074" stroke-miterlimit="10"/>
<mask id="mask0_398_2303" style="mask-type:luminance" maskUnits="userSpaceOnUse" x="54" y="39" width="81" height="115">
<path d="M134.186 39.109H54.1542V153.598H134.186V39.109Z" fill="white"/>
</mask>
<g mask="url(#mask0_398_2303)">
<path d="M158.473 171.869L157.065 174.889L155.628 177.898L153.974 180.791L152.255 183.644L150.344 186.368L148.48 189.124L146.617 191.886L144.251 194.244L142.376 197.034L139.904 199.287L137.482 201.58L134.794 203.554L132.172 205.601L129.348 207.358L126.539 209.135L123.568 210.63L120.535 211.999L117.373 213.052L114.087 213.566L110.82 214.227L107.48 214.106L104.223 213.37L101.208 211.965L98.7412 209.909L96.9166 207.273L95.4695 204.4L94.5635 201.309L93.7791 198.179L93.1751 194.999L93.2339 191.755L92.9598 188.539L92.9906 185.31L92.5669 182.101L92.4901 178.874L91.8175 175.724L88.3054 174.822L84.7583 174.194L81.1874 173.786L77.6473 173.093L74.1044 172.686L72.2882 170.685L73.5563 167.701L75.6633 165.106L77.7522 162.516L79.6676 159.799L81.4824 157.012L83.2455 154.19L84.9121 151.304L86.1858 148.222L87.5672 145.19L88.7374 142.073L89.821 138.926L90.5131 135.663L91.5309 132.496L92.2132 129.24L92.4467 125.918L93.2353 122.678L93.4827 119.357L93.9246 116.061L94.7648 112.841L95.5003 109.586L96.9068 106.563L98.1889 103.505L99.8415 100.631L101.856 97.998L104.176 95.6463L106.523 93.3086L109.28 91.463L112.26 90.0104L115.196 88.471L118.3 87.2994L121.516 86.4577L124.726 85.588L128.035 85.2357L131.343 84.7925L134.672 84.6736L137.998 84.6191L141.336 84.4737L144.647 84.882L147.934 85.4174L151.243 85.8509L154.424 86.8617L157.55 87.9956L160.62 89.2721L163.681 90.5836L166.537 92.3117L169.183 94.3306L171.66 96.5467L174.148 98.7544L176.378 101.229L178.279 103.964L180.056 106.784L181.728 109.673L182.905 112.804L183.746 116.033L184.863 119.176L185.625 122.433L185.713 125.782L186.247 129.077L186.286 132.415L186.352 135.748L186.053 139.069L185.642 142.375L185.214 145.678L184.762 148.981L183.886 152.201L183.29 155.487L182.61 158.756L181.493 161.994L180.789 165.348L179.848 168.642L178.844 171.922L178.424 175.331L177.748 178.684L177.209 182.057L176.59 185.423L176.152 188.812L175.52 192.179L175.301 195.594L174.882 198.988L174.391 202.382L174.399 205.812L174.233 209.233L174.443 212.653L174.387 216.087L174.953 219.473L175.498 222.759L172.208 223.521L168.959 224.526L165.624 225.186L162.293 225.863L159.015 226.763L155.679 227.416L152.39 228.279L149.107 229.128L145.751 229.706L142.527 230.832L139.171 231.405L135.831 232.041L132.59 233.095L129.261 233.782L125.96 234.569L122.656 235.367L119.295 235.909L116.011 236.796L112.639 237.722L113.935 234.614L114.923 231.482L115.979 228.374L116.867 225.211L117.822 222.074L118.686 218.903L119.307 215.677L119.849 212.442" fill="white"/>
<path d="M158.473 171.869L157.065 174.889L155.628 177.898L153.974 180.791L152.255 183.644L150.344 186.368L148.48 189.124L146.617 191.886L144.251 194.244L142.376 197.034L139.904 199.287L137.482 201.58L134.794 203.554L132.172 205.601L129.348 207.358L126.539 209.135L123.568 210.63L120.536 211.999L117.373 213.052L114.087 213.566L110.82 214.227L107.48 214.106L104.223 213.37L101.208 211.965L98.7412 209.909L96.9166 207.273L95.4695 204.4L94.5635 201.309L93.7791 198.179L93.1751 194.999L93.2339 191.755L92.9598 188.539L92.9906 185.31L92.5669 182.101L92.4901 178.874L91.8175 175.724L88.3054 174.822L84.7583 174.194L81.1874 173.786L77.6473 173.093L74.1044 172.686L72.2882 170.685L73.5563 167.701L75.6633 165.106L77.7522 162.516L79.6676 159.799L81.4824 157.012L83.2455 154.19L84.9121 151.304L86.1858 148.222L87.5672 145.19L88.7374 142.073L89.821 138.926L90.5131 135.663L91.5309 132.496L92.2132 129.24L92.4467 125.918L93.2353 122.678L93.4827 119.357L93.9246 116.061L94.7648 112.841L95.5003 109.586L96.9068 106.563L98.1889 103.505L99.8415 100.631L101.856 97.998L104.176 95.6463L106.523 93.3086L109.28 91.463L112.26 90.0104L115.196 88.471L118.3 87.2994L121.516 86.4577L124.726 85.588L128.035 85.2357L131.343 84.7925L134.672 84.6736L137.998 84.6191L141.336 84.4737L144.647 84.882L147.934 85.4174L151.243 85.8509L154.424 86.8617L157.55 87.9956L160.62 89.2721L163.681 90.5836L166.537 92.3117L169.183 94.3306L171.66 96.5467L174.148 98.7544L176.378 101.229L178.279 103.964L180.056 106.784L181.728 109.673L182.905 112.804L183.746 116.033L184.863 119.176L185.625 122.433L185.713 125.782L186.247 129.077L186.286 132.415L186.352 135.748L186.053 139.069L185.642 142.375L185.214 145.678L184.762 148.981L183.886 152.201L183.29 155.487L182.61 158.756L181.493 161.994L180.789 165.348L179.848 168.642L178.844 171.922L178.424 175.331L177.748 178.684L177.209 182.057L176.59 185.423L176.152 188.812L175.52 192.179L175.301 195.594L174.882 198.988L174.391 202.382L174.399 205.812L174.233 209.233L174.443 212.653L174.387 216.087L174.953 219.473L175.498 222.759L172.208 223.521L168.959 224.526L165.624 225.186L162.293 225.863L159.015 226.763L155.679 227.416L152.39 228.279L149.107 229.128L145.751 229.706L142.527 230.832L139.171 231.405L135.831 232.041L132.59 233.095L129.261 233.782L125.96 234.569L122.656 235.367L119.295 235.909L116.011 236.796L112.639 237.722L113.935 234.614L114.923 231.482L115.979 228.374L116.867 225.211L117.822 222.074L118.686 218.903L119.307 215.677L119.849 212.442" stroke="#392396" stroke-width="0.699074" stroke-miterlimit="10"/>
<path d="M156.341 146.94L153.108 146.5L149.883 145.837L146.807 144.649L143.912 143.08L141.078 141.401L138.384 139.495L135.835 137.396L133.587 134.973L131.178 132.724L128.998 130.25L126.81 127.787L124.557 125.374L122.484 122.809L120.533 120.147L118.333 117.689L116.339 115.058L114.038 112.692L111.756 110.321L109.386 108.039L106.834 105.945L103.854 104.512L100.587 104.084L97.4053 105.135L96.4028 101.854L95.5374 98.6327L94.7195 95.3862L94.3252 92.0558L94.4706 88.7086L94.6132 85.3699L95.2843 82.094L96.2588 78.8978L97.5409 75.801L99.318 72.9529L101.526 70.4349L103.918 68.1097L106.553 66.0656L109.186 64.0397L112.097 62.4444L115.109 61.0547L118.088 59.5922L121.223 58.5003L124.357 57.4097L127.583 56.6323L130.779 55.7221L134.072 55.2775L137.352 54.8008L140.656 54.5211L143.957 54.1786L147.274 54.2205L150.594 54.1632L153.903 54.4163L157.183 54.921L160.459 55.402L163.757 55.8144L166.958 56.705L170.18 57.5118L173.255 58.7757L176.343 59.9753L179.386 61.298L182.358 62.7758L185.202 64.4857L188.047 66.2013L190.592 68.3432L193.202 70.3817L195.724 72.5335L198.185 74.7649L200.44 77.29L202.536 79.9437L204.712 82.5344L206.479 85.423L208.414 88.1997L209.944 91.2183L211.37 94.2803L212.758 97.3576L213.955 100.516L215.012 103.722L216.082 106.931L216.74 110.249L217.509 113.54L218.089 116.872L218.397 120.24L218.657 123.606L218.872 126.976L219.233 130.344L219.183 133.728L219.218 137.108L219.005 140.485L219.109 143.864L219.422 147.179L222.119 148.735L225.252 149.643L228.409 150.483L231.531 151.444L234.676 152.336L237.726 153.514L240.672 154.939L243.499 156.589L246.005 158.69L248.475 160.828L250.406 163.462L252.336 166.107L253.647 169.111L254.635 172.228L255.245 175.436L255.73 178.668L255.795 181.937L255.753 185.206L255.519 188.472L254.813 191.816L254.198 195.173L253.03 198.382L251.838 201.584L250.071 204.507L248.057 207.258L245.819 209.841L243.098 211.911L240.212 213.723L237.125 215.168L233.884 216.241L230.513 216.755L227.13 217.157L223.721 217.092L220.318 216.808L217.018 215.928L213.696 215.132L210.578 213.732L207.523 212.201L204.759 210.192L202.107 208.032L199.87 205.437L198.142 202.486L196.761 199.358L196.155 196.175L195.438 193.015L195.308 189.777L195.077 186.544L195.262 183.309L195.715 180.103L196.166 176.904L196.429 173.671L197.153 170.513L197.38 167.282L197.532 164.077L196.714 160.985L193.65 160.775L191.044 162.563L188.609 164.575L186.385 166.825L184.104 169.032L182.02 171.422L179.946 173.825L178.15 176.328L176.164 173.801L174.284 171.152L172.287 168.586L170.502 165.867L168.515 163.268L171.293 161.117L173.551 158.475L175.113 155.381L176.542 152.231L177.386 148.867L177.827 145.422L177.609 141.959L177.272 138.518L176.497 135.281L174.789 132.402L172.059 130.495L168.862 129.61L165.593 130.248L162.709 131.918L160.487 134.411L158.873 137.322L157.614 140.408L156.726 143.635L156.341 146.94Z" fill="#FFD803"/>
<path d="M156.341 146.94L153.108 146.5L149.883 145.837L146.807 144.649L143.912 143.08L141.078 141.401L138.384 139.495L135.835 137.396L133.587 134.973L131.178 132.724L128.998 130.25L126.81 127.787L124.557 125.374L122.484 122.809L120.533 120.147L118.333 117.689L116.339 115.058L114.038 112.692L111.756 110.321L109.386 108.039L106.834 105.945L103.854 104.512L100.587 104.084L97.4053 105.135L96.4028 101.854L95.5374 98.6327L94.7195 95.3862L94.3252 92.0558L94.4706 88.7086L94.6132 85.3699L95.2843 82.094L96.2588 78.8978L97.5409 75.801L99.318 72.9529L101.526 70.4349L103.918 68.1097L106.553 66.0656L109.186 64.0397L112.097 62.4444L115.109 61.0547L118.088 59.5922L121.223 58.5003L124.357 57.4097L127.583 56.6323L130.779 55.7221L134.072 55.2775L137.352 54.8008L140.656 54.5211L143.957 54.1786L147.274 54.2205L150.594 54.1632L153.903 54.4163L157.183 54.921L160.459 55.402L163.757 55.8144L166.958 56.705L170.18 57.5118L173.255 58.7757L176.343 59.9753L179.386 61.298L182.358 62.7758L185.202 64.4857L188.047 66.2013L190.592 68.3432L193.202 70.3817L195.724 72.5335L198.185 74.7649L200.44 77.29L202.536 79.9437L204.712 82.5344L206.479 85.423L208.414 88.1997L209.944 91.2183L211.37 94.2803L212.758 97.3576L213.955 100.516L215.012 103.722L216.082 106.931L216.74 110.249L217.509 113.54L218.089 116.872L218.397 120.24L218.657 123.606L218.872 126.976L219.233 130.344L219.183 133.728L219.218 137.108L219.005 140.485L219.109 143.864L219.422 147.179L222.119 148.735L225.252 149.643L228.409 150.483L231.531 151.444L234.676 152.336L237.726 153.514L240.672 154.939L243.499 156.589L246.005 158.69L248.475 160.828L250.406 163.462L252.336 166.107L253.647 169.111L254.635 172.228L255.245 175.436L255.73 178.668L255.795 181.937L255.753 185.206L255.519 188.472L254.813 191.817L254.198 195.173L253.03 198.382L251.838 201.584L250.071 204.507L248.057 207.258L245.819 209.841L243.098 211.911L240.212 213.723L237.125 215.168L233.884 216.241L230.513 216.755L227.13 217.157L223.721 217.092L220.318 216.808L217.018 215.928L213.696 215.132L210.578 213.732L207.523 212.201L204.759 210.192L202.107 208.032L199.87 205.437L198.142 202.486L196.761 199.358L196.155 196.175L195.438 193.015L195.308 189.777L195.077 186.544L195.262 183.309L195.715 180.103L196.166 176.904L196.429 173.671L197.153 170.513L197.38 167.282L197.532 164.077L196.714 160.985L193.65 160.775L191.043 162.563L188.609 164.575L186.385 166.825L184.104 169.032L182.02 171.422L179.946 173.825L178.15 176.328L176.164 173.801L174.284 171.152L172.287 168.586L170.502 165.867L168.515 163.268L171.293 161.117L173.551 158.475L175.113 155.381L176.542 152.231L177.386 148.867L177.827 145.422L177.609 141.959L177.272 138.518L176.497 135.281L174.789 132.402L172.059 130.495L168.862 129.61L165.593 130.248L162.709 131.918L160.487 134.411L158.873 137.322L157.614 140.408L156.726 143.635L156.341 146.94Z" stroke="#392396" stroke-width="0.699074" stroke-miterlimit="10"/>
<path d="M105.112 143.754L104.761 147.039L104.297 150.291L103.564 153.49L102.243 156.492L99.6686 158.366L97.1366 156.464L95.6224 153.541L94.7835 150.339L94.6017 147.038L94.2676 143.754L94.5822 140.469L94.9527 137.201L95.6112 133.964L96.98 130.94L99.6686 129.314L102.181 131.056L103.497 134.039L104.291 137.217L104.961 140.451L105.112 143.754Z" fill="#392396"/>
<path d="M105.112 143.754L104.761 147.039L104.297 150.291L103.564 153.49L102.243 156.492L99.6686 158.366L97.1366 156.464L95.6224 153.541L94.7835 150.339L94.6017 147.038L94.2676 143.754L94.5822 140.469L94.9527 137.201L95.6112 133.964L96.98 130.94L99.6686 129.314L102.181 131.056L103.497 134.039L104.291 137.217L104.961 140.451L105.112 143.754Z" stroke="#392396" stroke-width="0.699074" stroke-miterlimit="10"/>
<path d="M101.522 134.255L104.861 134.481L108.201 134.698L111.526 135.08L114.859 135.376L118.19 135.688L121.523 135.98L124.86 136.225L128.194 136.514L131.53 136.781L134.857 137.125L138.2 137.312L141.525 137.697L144.873 137.827L148.202 138.172L151.534 138.48L154.862 138.843L158.201 139.084" fill="#392396"/>
<path d="M101.522 134.255L104.861 134.481L108.201 134.698L111.526 135.08L114.859 135.376L118.19 135.688L121.523 135.98L124.86 136.225L128.194 136.514L131.53 136.781L134.857 137.125L138.2 137.312L141.525 137.697L144.873 137.827L148.202 138.172L151.534 138.48L154.862 138.843L158.201 139.084" stroke="#392396" stroke-width="0.699074" stroke-miterlimit="10"/>
</g>
<path d="M134.138 153.55L130.851 153.609L127.517 153.546L124.183 153.677L120.849 153.478L117.514 153.705L114.18 153.479L110.845 153.691L107.512 153.539L104.177 153.49L100.843 153.651L97.5068 153.522L94.1736 153.638L90.839 153.483L87.5045 153.581L84.1685 153.729L80.8353 153.519L77.5007 153.729L74.1661 153.697L70.8315 153.652L67.4956 153.48L64.161 153.515L60.8264 153.603L57.4904 153.599L54.2341 153.518L54.0649 150.231L54.1558 146.864L54.0286 143.498L54.0845 140.131L54.2132 136.764L54.2257 133.397L54.1586 130.029L54.2271 126.662L54.153 123.296L54.1069 119.929L54.1726 116.562L54.1279 113.195L54.2621 109.827L54.209 106.461L54.0929 103.094L54.2537 99.7257L54.0663 96.359L54.2663 92.9923L54.1894 89.6241L54.2691 86.2574L54.0747 82.8892L54.0216 79.5211L54.2383 76.1544L54.1642 72.7862L54.0412 69.4195L54.1404 66.0527L54.1642 62.6846L54.2118 59.3179L54.0286 55.9497L54.2635 52.5816L54.2677 49.2134L54.2495 45.8453L54.1992 42.4772L54.1726 39.1272L57.489 39.1915L60.8222 39.2307L64.1568 39.0531L67.4914 39.1873L70.8259 39.1328L74.1605 39.0405L77.4937 39.0293L80.8283 39.1635L84.1629 39.0084L87.4975 39.151L90.832 39.2404L94.1666 39.0545L97.5012 39.1733L100.836 39.0671L104.172 39.1677L107.505 38.9916L110.84 39.2349L114.174 39.0699L117.509 38.9762L120.845 39.2013L124.179 39.0349L127.514 39.0377L130.85 39.1845L134.264 39.0307L134.307 42.4758L134.196 45.8411L134.135 49.2092L134.32 52.5746L134.194 55.9427L134.324 59.3095L134.284 62.6762L134.286 66.0429L134.07 69.4097L134.17 72.7764L134.046 76.1432L134.263 79.5113L134.285 82.8781L134.081 86.2462L134.169 89.6129L134.21 92.9797L134.296 96.3464L134.151 99.7146L134.061 103.081L134.109 106.449L134.175 109.816L134.215 113.184L134.084 116.551L134.127 119.919L134.238 123.287L134.302 126.654L134.116 130.021L134.291 133.389L134.292 136.757L134.208 140.124L134.142 143.492L134.056 146.86L134.161 150.228L134.138 153.55Z" stroke="#392396" stroke-width="0.699074" stroke-miterlimit="10"/>
<mask id="mask1_398_2303" style="mask-type:luminance" maskUnits="userSpaceOnUse" x="69" y="163" width="81" height="100">
<path d="M149.377 163.601H69.3453V262.899H149.377V163.601Z" fill="white"/>
</mask>
<g mask="url(#mask1_398_2303)">
<path d="M173.664 181.872L172.257 184.892L170.819 187.901L169.165 190.794L167.446 193.648L165.535 196.371L163.673 199.127L161.808 201.89L159.442 204.247L157.567 207.038L155.095 209.29L152.674 211.583L149.985 213.557L147.363 215.604L144.539 217.362L141.73 219.139L138.761 220.633L135.727 222.003L132.564 223.055L129.28 223.569L126.011 224.231L122.671 224.109L119.414 223.374L116.399 221.969L113.932 219.912L112.108 217.278L110.661 214.403L109.755 211.312L108.97 208.183L108.366 205.002L108.425 201.758L108.151 198.543L108.182 195.313L107.758 192.104L107.682 188.877L107.009 185.727L103.496 184.824L99.9493 184.199L96.3785 183.789L92.8384 183.096L89.2968 182.689L87.4792 180.688L88.7474 177.705L90.8544 175.11L92.9432 172.519L94.8587 169.802L96.6735 167.016L98.4365 164.193L100.103 161.307L101.377 158.224L102.758 155.193L103.928 152.076L105.012 148.929L105.704 145.667L106.722 142.499L107.404 139.243L107.638 135.921L108.426 132.681L108.674 129.361L109.116 126.064L109.956 122.844L110.691 119.589L112.098 116.566L113.38 113.509L115.033 110.634L117.047 108.001L119.367 105.65L121.714 103.312L124.471 101.466L127.451 100.014L130.387 98.4743L133.491 97.3027L136.707 96.461L139.917 95.5927L143.226 95.239L146.534 94.7958L149.865 94.6769L153.189 94.6224L156.527 94.477L159.838 94.8853L163.125 95.4207L166.434 95.8542L169.615 96.865L172.743 97.9989L175.811 99.2754L178.872 100.587L181.728 102.315L184.375 104.334L186.851 106.55L189.339 108.758L191.569 111.234L193.47 113.967L195.247 116.787L196.919 119.676L198.097 122.808L198.937 126.036L200.054 129.179L200.816 132.437L200.904 135.785L201.438 139.081L201.477 142.418L201.544 145.751L201.244 149.072L200.833 152.379L200.405 155.682L199.953 158.985L199.077 162.205L198.481 165.49L197.802 168.759L196.684 171.999L195.98 175.351L195.039 178.646L194.035 181.926L193.615 185.334L192.939 188.687L192.4 192.061L191.781 195.426L191.345 198.815L190.713 202.182L190.492 205.598L190.073 208.992L189.582 212.386L189.59 215.815L189.424 219.237L189.635 222.656L189.578 226.09L190.144 229.477L190.723 232.748L187.399 233.524L184.15 234.531L180.815 235.189L177.484 235.866L174.206 236.767L170.87 237.419L167.581 238.282L164.298 239.131L160.942 239.71L157.718 240.837L154.362 241.408L151.022 242.045L147.781 243.099L144.452 243.785L141.153 244.572L137.848 245.371L134.486 245.912L131.202 246.8L127.831 247.725L129.126 244.617L130.114 241.485L131.171 238.379L132.058 235.215L133.013 232.077L133.878 228.908L134.498 225.681L135.04 222.445" fill="white"/>
<path d="M173.664 181.872L172.257 184.892L170.819 187.901L169.165 190.794L167.446 193.648L165.535 196.371L163.673 199.127L161.808 201.89L159.442 204.247L157.567 207.038L155.095 209.29L152.673 211.583L149.985 213.557L147.363 215.604L144.539 217.362L141.73 219.139L138.761 220.633L135.727 222.003L132.564 223.055L129.28 223.569L126.011 224.231L122.671 224.109L119.414 223.374L116.399 221.969L113.932 219.912L112.108 217.278L110.661 214.403L109.755 211.312L108.97 208.183L108.366 205.002L108.425 201.758L108.151 198.543L108.182 195.313L107.758 192.104L107.682 188.877L107.009 185.727L103.496 184.824L99.9493 184.199L96.3785 183.789L92.8384 183.096L89.2968 182.689L87.4792 180.688L88.7474 177.705L90.8544 175.11L92.9432 172.519L94.8587 169.802L96.6735 167.016L98.4365 164.193L100.103 161.307L101.377 158.224L102.758 155.193L103.928 152.076L105.012 148.929L105.704 145.667L106.722 142.499L107.404 139.243L107.638 135.921L108.426 132.681L108.674 129.361L109.116 126.064L109.956 122.844L110.691 119.589L112.098 116.566L113.38 113.509L115.033 110.634L117.047 108.001L119.367 105.65L121.714 103.312L124.471 101.466L127.451 100.014L130.387 98.4743L133.491 97.3027L136.707 96.461L139.917 95.5927L143.226 95.239L146.534 94.7958L149.865 94.6769L153.189 94.6224L156.527 94.477L159.838 94.8853L163.125 95.4207L166.434 95.8542L169.615 96.865L172.743 97.9989L175.811 99.2754L178.872 100.587L181.728 102.315L184.375 104.334L186.851 106.55L189.339 108.758L191.569 111.234L193.47 113.967L195.247 116.787L196.919 119.676L198.097 122.808L198.937 126.036L200.054 129.179L200.816 132.437L200.904 135.785L201.438 139.081L201.477 142.418L201.544 145.751L201.244 149.072L200.833 152.379L200.405 155.682L199.953 158.985L199.077 162.205L198.481 165.49L197.802 168.759L196.684 171.999L195.98 175.351L195.039 178.646L194.035 181.926L193.615 185.334L192.939 188.687L192.4 192.061L191.781 195.426L191.345 198.815L190.713 202.182L190.492 205.598L190.073 208.992L189.582 212.386L189.59 215.815L189.424 219.237L189.635 222.656L189.578 226.09L190.144 229.477L190.723 232.748L187.399 233.524L184.15 234.531L180.815 235.189L177.484 235.866L174.206 236.767L170.87 237.419L167.581 238.282L164.298 239.131L160.942 239.71L157.718 240.837L154.362 241.408L151.022 242.045L147.781 243.099L144.452 243.785L141.153 244.572L137.848 245.371L134.486 245.912L131.202 246.8L127.831 247.725L129.126 244.617L130.114 241.485L131.171 238.379L132.058 235.215L133.013 232.077L133.878 228.908L134.498 225.681L135.04 222.445" stroke="#392396" stroke-width="0.699074" stroke-miterlimit="10"/>
<path d="M171.473 156.878L168.273 156.655L165.108 155.733L162.017 154.613L159.036 153.201L156.236 151.453L153.666 149.385L151.043 147.382L148.731 145.027L146.481 142.621L144.11 140.325L142.026 137.769L139.817 135.321L137.798 132.712L135.578 130.27L133.678 127.566L131.433 125.145L129.191 122.731L127.089 120.185L124.559 118.064L121.934 116.094L119.047 114.508L115.789 114.231L112.594 115.146L111.47 111.897L110.645 108.656L109.837 105.401L109.602 102.055L109.412 98.705L109.718 95.362L110.34 92.0638L111.545 88.9375L112.836 85.8588L114.69 83.0849L116.611 80.3417L118.982 77.9677L121.725 76.041L124.432 74.1325L127.287 72.4436L130.218 70.8832L133.32 69.6948L136.452 68.6113L139.588 67.5459L142.766 66.6021L145.99 65.8192L149.273 65.341L152.548 64.8279L155.836 64.3819L159.145 64.1148L162.466 64.2337L165.787 64.1316L169.102 64.3385L172.394 64.7719L175.663 65.3298L178.898 66.0512L182.144 66.7307L185.312 67.7039L188.453 68.7581L191.51 70.0402L194.572 71.3125L197.455 72.9511L200.429 74.4331L203.13 76.3654L205.771 78.3647L208.425 80.3487L210.997 82.4501L213.254 84.8885L215.541 87.373L217.675 89.9903L219.762 92.6412L221.731 95.3872L223.474 98.2814L225.167 101.205L226.732 104.205L228.117 107.292L229.271 110.475L230.184 113.732L231.259 116.938L232.127 120.209L232.727 123.539L233.186 126.889L233.633 130.239L234.122 133.589L234.106 136.978L234.385 140.349L234.304 143.731L234.369 147.112L234.135 150.487L234.246 153.868L234.45 157.251L237.284 158.824L240.403 159.804L243.563 160.633L246.727 161.437L249.856 162.371L252.865 163.642L255.802 165.058L258.591 166.742L261.2 168.689L263.6 170.894L265.67 173.414L267.421 176.168L268.742 179.152L269.856 182.223L270.451 185.438L271 188.666L271.074 191.94L270.961 195.211L270.599 198.461L270.142 201.845L269.437 205.191L268.191 208.374L266.822 211.485L265.216 214.483L263.257 217.268L260.961 219.793L258.266 221.88L255.455 223.821L252.36 225.284L249.034 226.082L245.73 226.936L242.318 227.056L238.914 227.072L235.505 226.841L232.151 226.163L228.968 224.914L225.808 223.656L222.838 222.003L220.038 220.085L217.317 218.017L215.063 215.439L213.343 212.485L212.089 209.321L211.321 206.183L210.828 202.993L210.406 199.786L210.435 196.55L210.522 193.318L210.694 190.082L211.141 186.875L211.749 183.696L212.141 180.484L212.811 177.312L212.864 174.072L211.909 170.986L208.808 170.696L206.109 172.4L203.783 174.559L201.488 176.743L199.285 179.024L197.297 181.496L195.209 183.887L193.312 186.38L191.335 183.82L189.456 181.169L187.531 178.552L185.754 175.827L183.765 173.257L186.493 171.129L188.667 168.425L190.391 165.426L191.803 162.256L192.407 158.841L192.981 155.424L192.885 151.956L192.585 148.503L191.652 145.3L189.867 142.508L187.255 140.489L184.052 139.668L180.785 140.252L177.948 141.98L175.76 144.473L173.997 147.293L172.863 150.429L171.997 153.654L171.473 156.878Z" fill="white"/>
<path d="M171.473 156.878L168.273 156.655L165.108 155.733L162.017 154.613L159.036 153.201L156.236 151.453L153.666 149.385L151.043 147.382L148.731 145.027L146.481 142.621L144.11 140.325L142.026 137.769L139.817 135.321L137.798 132.712L135.578 130.27L133.678 127.566L131.433 125.145L129.191 122.731L127.089 120.185L124.559 118.064L121.934 116.094L119.047 114.508L115.789 114.231L112.594 115.146L111.47 111.897L110.645 108.656L109.837 105.401L109.602 102.055L109.412 98.705L109.718 95.362L110.34 92.0638L111.545 88.9375L112.836 85.8588L114.69 83.0849L116.611 80.3417L118.982 77.9677L121.725 76.041L124.432 74.1325L127.287 72.4436L130.218 70.8832L133.32 69.6948L136.452 68.6113L139.588 67.5459L142.766 66.6021L145.99 65.8192L149.273 65.341L152.548 64.8279L155.836 64.3819L159.145 64.1148L162.466 64.2337L165.787 64.1316L169.102 64.3385L172.394 64.7719L175.663 65.3298L178.898 66.0512L182.144 66.7307L185.312 67.7039L188.453 68.7581L191.51 70.0402L194.572 71.3125L197.455 72.9511L200.429 74.4331L203.13 76.3654L205.771 78.3647L208.425 80.3487L210.997 82.4501L213.254 84.8885L215.541 87.373L217.675 89.9903L219.762 92.6412L221.731 95.3872L223.474 98.2814L225.167 101.205L226.732 104.205L228.117 107.292L229.271 110.475L230.184 113.732L231.259 116.938L232.127 120.209L232.727 123.539L233.186 126.889L233.633 130.239L234.122 133.589L234.106 136.978L234.385 140.349L234.304 143.731L234.369 147.112L234.135 150.487L234.246 153.868L234.45 157.251L237.284 158.824L240.403 159.804L243.563 160.633L246.727 161.437L249.856 162.371L252.865 163.642L255.802 165.058L258.591 166.742L261.2 168.689L263.6 170.894L265.67 173.414L267.421 176.168L268.742 179.152L269.856 182.223L270.451 185.438L271 188.666L271.074 191.941L270.961 195.211L270.599 198.461L270.142 201.845L269.437 205.191L268.191 208.374L266.822 211.485L265.216 214.483L263.257 217.268L260.961 219.793L258.266 221.88L255.455 223.821L252.36 225.284L249.034 226.082L245.73 226.936L242.318 227.056L238.914 227.072L235.505 226.841L232.151 226.163L228.968 224.914L225.808 223.656L222.838 222.003L220.038 220.085L217.317 218.017L215.063 215.439L213.343 212.485L212.089 209.321L211.321 206.183L210.828 202.993L210.406 199.786L210.435 196.55L210.522 193.318L210.694 190.082L211.141 186.875L211.749 183.696L212.141 180.484L212.811 177.312L212.864 174.072L211.909 170.986L208.808 170.696L206.109 172.4L203.783 174.559L201.488 176.743L199.285 179.024L197.297 181.496L195.209 183.887L193.312 186.38L191.335 183.82L189.456 181.169L187.531 178.552L185.754 175.827L183.765 173.257L186.493 171.129L188.667 168.425L190.391 165.426L191.803 162.256L192.407 158.841L192.981 155.424L192.885 151.956L192.585 148.503L191.652 145.3L189.867 142.508L187.255 140.489L184.052 139.668L180.785 140.252L177.948 141.98L175.76 144.473L173.997 147.293L172.863 150.429L171.997 153.654L171.473 156.878Z" stroke="#392396" stroke-width="0.699074" stroke-miterlimit="10"/>
<path d="M120.083 153.757L120.134 157.058L119.504 160.298L118.781 163.502L117.345 166.438L114.859 168.408L112.164 166.575L110.985 163.488L110.114 160.316L109.559 157.061L109.521 153.757L109.682 150.464L110.16 147.207L110.785 143.962L112.366 141.072L114.859 139.299L117.363 141.065L118.771 144.015L119.588 147.201L119.962 150.47L120.083 153.757Z" fill="#392396"/>
<path d="M120.083 153.757L120.134 157.058L119.504 160.298L118.781 163.502L117.345 166.438L114.859 168.408L112.164 166.575L110.985 163.488L110.114 160.316L109.559 157.061L109.521 153.757L109.682 150.464L110.16 147.207L110.785 143.962L112.366 141.072L114.859 139.299L117.363 141.065L118.771 144.015L119.588 147.201L119.962 150.47L120.083 153.757Z" stroke="#392396" stroke-width="0.699074" stroke-miterlimit="10"/>
</g>
<path d="M149.32 262.842L146.043 262.877L142.709 262.79L139.375 262.957L136.04 263.01L132.706 262.969L129.371 262.996L126.038 262.951L122.703 262.933L119.369 262.877L116.034 262.904L112.7 262.783L109.365 262.79L106.03 262.905L102.696 262.778L99.3612 262.948L96.0266 262.761L92.692 262.799L89.3574 262.881L86.0229 262.989L82.6869 262.95L79.3523 262.775L76.0177 262.842L72.6817 262.908L69.3178 262.927L69.2395 259.589L69.4604 256.281L69.3108 252.97L69.2115 249.66L69.2996 246.351L69.4618 243.041L69.4184 239.732L69.2059 236.423L69.3765 233.113L69.2647 229.804L69.3919 226.493L69.3555 223.184L69.4576 219.874L69.3583 216.565L69.4031 213.254L69.3262 209.945L69.4045 206.634L69.2157 203.324L69.3891 200.015L69.4576 196.704L69.4073 193.395L69.2213 190.085L69.2255 186.774L69.2437 183.465L69.4646 180.154L69.4115 176.845L69.3024 173.534L69.2367 170.223L69.3136 166.912L69.2814 163.536L72.6803 163.737L76.0135 163.608L79.3481 163.529L82.6827 163.505L86.0173 163.592L89.3518 163.595L92.685 163.467L96.0196 163.624L99.3556 163.603L102.69 163.649L106.025 163.701L109.358 163.54L112.693 163.504L116.029 163.688L119.363 163.666L122.696 163.603L126.031 163.586L129.365 163.733L132.701 163.541L136.036 163.666L139.371 163.474L142.705 163.614L146.041 163.564L149.455 163.522L149.327 166.911L149.325 170.22L149.286 173.53L149.486 176.839L149.316 180.149L149.325 183.458L149.317 186.767L149.292 190.077L149.303 193.388L149.426 196.697L149.394 200.006L149.441 203.316L149.37 206.625L149.341 209.936L149.511 213.246L149.38 216.556L149.253 219.866L149.254 223.175L149.247 226.486L149.394 229.795L149.3 233.106L149.26 236.416L149.257 239.725L149.367 243.036L149.362 246.345L149.44 249.656L149.314 252.967L149.461 256.276L149.429 259.589L149.32 262.842Z" stroke="#392396" stroke-width="0.699074" stroke-miterlimit="10"/>
<mask id="mask2_398_2303" style="mask-type:luminance" maskUnits="userSpaceOnUse" x="158" y="204" width="96" height="54">
<path d="M253.129 204.728H158.277V257.711H253.129V204.728Z" fill="white"/>
</mask>
<g mask="url(#mask2_398_2303)">
<path d="M182.564 176.685L181.157 179.705L179.719 182.714L178.065 185.607L176.346 188.461L174.435 191.184L172.573 193.94L170.708 196.703L168.342 199.06L166.467 201.851L163.995 204.103L161.574 206.396L158.885 208.37L156.263 210.417L153.439 212.175L150.63 213.952L147.661 215.446L144.627 216.815L141.464 217.868L138.18 218.382L134.912 219.044L131.571 218.922L128.314 218.187L125.299 216.781L122.834 214.725L121.008 212.089L119.561 209.216L118.655 206.125L117.87 202.996L117.266 199.815L117.325 196.571L117.051 193.355L117.082 190.127L116.658 186.917L116.583 183.69L115.909 180.54L112.397 179.638L108.849 179.012L105.279 178.602L101.74 177.909L98.1969 177.502L96.3807 175.5L97.6475 172.517L99.7545 169.923L101.843 167.332L103.759 164.615L105.574 161.829L107.337 159.006L109.003 156.12L110.277 153.038L111.658 150.006L112.829 146.889L113.912 143.742L114.604 140.479L115.622 137.312L116.304 134.056L116.538 130.734L117.326 127.494L117.574 124.174L118.016 120.877L118.856 117.657L119.591 114.402L120.998 111.379L122.28 108.322L123.933 105.447L125.947 102.814L128.267 100.463L130.616 98.1248L133.372 96.2793L136.351 94.8266L139.287 93.2872L142.391 92.1156L145.607 91.2739L148.817 90.4056L152.126 90.0519L155.434 89.6087L158.765 89.4899L162.09 89.4353L165.427 89.2899L168.738 89.6982L172.025 90.2337L175.334 90.6671L178.515 91.678L181.643 92.8119L184.712 94.0884L187.772 95.3998L190.628 97.1279L193.275 99.1469L195.751 101.363L198.239 103.571L200.469 106.045L202.37 108.78L204.147 111.6L205.821 114.489L206.998 117.621L207.837 120.849L208.955 123.992L209.716 127.25L209.804 130.598L210.338 133.894L210.377 137.231L210.444 140.564L210.144 143.885L209.734 147.191L209.305 150.494L208.855 153.798L207.977 157.018L207.381 160.303L206.702 163.572L205.585 166.812L204.88 170.164L203.94 173.458L202.935 176.738L202.516 180.147L201.839 183.5L201.301 186.874L200.683 190.239L200.245 193.628L199.613 196.995L199.392 200.411L198.973 203.805L198.482 207.199L198.49 210.628L198.324 214.049L198.535 217.469L198.478 220.903L199.044 224.289L199.589 227.575L196.299 228.337L193.05 229.344L189.716 230.002L186.384 230.679L183.106 231.579L179.77 232.232L176.481 233.095L173.198 233.944L169.842 234.523L166.618 235.648L163.263 236.221L159.922 236.857L156.681 237.912L153.352 238.598L150.053 239.385L146.748 240.184L143.386 240.725L140.102 241.613L136.731 242.538L138.026 239.43L139.014 236.298L140.071 233.192L140.958 230.027L141.913 226.89L142.778 223.72L143.398 220.494L143.94 217.258" fill="white"/>
<path d="M182.564 176.685L181.157 179.705L179.719 182.714L178.065 185.607L176.346 188.461L174.435 191.184L172.573 193.94L170.708 196.703L168.342 199.06L166.467 201.851L163.995 204.103L161.574 206.396L158.885 208.37L156.263 210.417L153.439 212.175L150.63 213.952L147.661 215.446L144.627 216.815L141.464 217.868L138.18 218.382L134.912 219.044L131.571 218.922L128.314 218.187L125.299 216.781L122.834 214.725L121.008 212.089L119.561 209.216L118.655 206.125L117.87 202.996L117.266 199.815L117.325 196.571L117.051 193.355L117.082 190.127L116.658 186.917L116.583 183.69L115.909 180.54L112.397 179.638L108.849 179.012L105.279 178.602L101.74 177.909L98.1969 177.502L96.3807 175.5L97.6475 172.517L99.7545 169.923L101.843 167.332L103.759 164.615L105.574 161.829L107.337 159.006L109.003 156.12L110.277 153.038L111.658 150.006L112.829 146.889L113.912 143.742L114.604 140.479L115.622 137.312L116.304 134.056L116.538 130.734L117.326 127.494L117.574 124.174L118.016 120.877L118.856 117.657L119.591 114.402L120.998 111.379L122.28 108.322L123.933 105.447L125.947 102.814L128.267 100.463L130.616 98.1248L133.372 96.2793L136.351 94.8266L139.287 93.2872L142.391 92.1156L145.607 91.2739L148.817 90.4056L152.126 90.0519L155.434 89.6087L158.765 89.4899L162.089 89.4353L165.427 89.2899L168.738 89.6982L172.025 90.2337L175.334 90.6671L178.515 91.678L181.643 92.8119L184.712 94.0884L187.772 95.3998L190.628 97.1279L193.275 99.1469L195.751 101.363L198.239 103.571L200.469 106.045L202.37 108.78L204.147 111.6L205.821 114.489L206.998 117.621L207.837 120.849L208.955 123.992L209.716 127.25L209.804 130.598L210.338 133.894L210.377 137.231L210.444 140.564L210.144 143.885L209.734 147.191L209.305 150.494L208.855 153.798L207.977 157.018L207.381 160.303L206.702 163.572L205.585 166.812L204.88 170.164L203.94 173.458L202.935 176.738L202.516 180.147L201.839 183.5L201.301 186.874L200.683 190.239L200.245 193.628L199.613 196.995L199.392 200.411L198.973 203.805L198.482 207.199L198.49 210.628L198.324 214.049L198.535 217.469L198.478 220.903L199.044 224.289L199.589 227.575L196.299 228.337L193.05 229.344L189.716 230.002L186.384 230.679L183.106 231.579L179.77 232.232L176.481 233.095L173.198 233.944L169.842 234.523L166.618 235.648L163.263 236.221L159.922 236.857L156.681 237.912L153.352 238.598L150.053 239.385L146.748 240.184L143.386 240.725L140.102 241.613L136.731 242.538L138.026 239.43L139.014 236.298L140.071 233.192L140.958 230.028L141.913 226.89L142.778 223.72L143.398 220.494L143.94 217.258" stroke="#392396" stroke-width="0.699074" stroke-miterlimit="10"/>
<path d="M180.408 151.729L177.166 151.506L173.963 150.695L170.934 149.387L167.97 147.955L165.25 146.102L162.574 144.19L160.002 142.127L157.637 139.833L155.228 137.579L153.139 135.023L150.796 132.696L148.841 130.031L146.58 127.623L144.616 124.972L142.563 122.391L140.323 119.968L138.246 117.405L135.894 115.091L133.583 112.733L130.88 110.833L127.881 109.518L124.677 108.857L121.492 109.967L120.287 106.736L119.443 103.492L118.985 100.176L118.593 96.861L118.445 93.5222L118.714 90.1876L119.448 86.9285L120.254 83.6764L121.724 80.6648L123.375 77.7441L125.517 75.1589L127.988 72.8995L130.606 70.8275L133.326 68.9344L136.232 67.3419L139.164 65.7941L142.19 64.4309L145.318 63.3236L148.459 62.2582L151.69 61.5074L154.907 60.7147L158.147 59.9932L161.452 59.6814L164.734 59.1571L168.056 59.1557L171.367 59.0117L174.679 59.1627L178.001 59.1781L181.309 59.4759L184.558 60.1834L187.824 60.7468L191.079 61.4109L194.239 62.4358L197.366 63.5375L200.43 64.807L203.525 66.0164L206.366 67.746L209.227 69.4125L212.015 71.2008L214.729 73.1023L217.326 75.1617L219.768 77.403L222.108 79.7463L224.538 82.1021L226.614 84.7712L228.707 87.4221L230.701 90.1541L232.492 93.0245L234.013 96.0459L235.649 99.0099L236.871 102.166L237.997 105.351L239.241 108.496L240.059 111.778L240.961 115.037L241.533 118.369L242.253 121.678L242.44 125.062L242.922 128.41L243.231 131.78L243.126 135.166L243.331 138.544L243.296 141.925L243.076 145.3L243.212 148.681L243.55 151.98L246.183 153.643L249.317 154.565L252.53 155.188L255.648 156.18L258.798 157.067L261.832 158.3L264.784 159.718L267.478 161.576L270.147 163.448L272.425 165.777L274.658 168.164L276.411 170.932L277.592 173.984L278.686 177.056L279.406 180.241L279.875 183.48L279.856 186.754L279.666 190.011L279.42 193.266L278.972 196.645L278.251 199.98L277.087 203.185L275.786 206.329L274.213 209.356L272.255 212.162L269.788 214.526L267.263 216.828L264.36 218.643L261.221 219.994L257.954 220.97L254.601 221.545L251.222 221.946L247.816 221.854L244.43 221.503L241.11 220.751L237.822 219.856L234.728 218.429L231.625 217.001L228.896 214.95L226.391 212.657L224.075 210.168L222.146 207.348L221.016 204.126L220.243 200.992L219.772 197.8L219.44 194.592L219.317 191.362L219.492 188.135L219.721 184.909L220.064 181.692L220.528 178.489L221.111 175.308L221.718 172.125L221.701 168.888L220.634 165.963L217.775 165.672L215.024 167.233L212.615 169.298L210.478 171.642L208.155 173.811L206.201 176.314L204.099 178.69L202.171 181.262L200.382 178.527L198.345 175.991L196.55 173.28L194.555 170.713L192.761 168.049L195.433 165.98L197.611 163.269L199.307 160.246L200.673 157.06L201.494 153.686L201.894 150.237L201.882 146.765L201.485 143.317L200.6 140.093L198.816 137.276L196.198 135.215L192.951 134.533L189.671 135.029L186.913 136.87L184.634 139.267L182.946 142.129L181.695 145.222L180.966 148.479L180.408 151.729Z" fill="white"/>
<path d="M180.408 151.729L177.166 151.506L173.963 150.695L170.934 149.387L167.97 147.955L165.25 146.102L162.574 144.19L160.002 142.127L157.637 139.833L155.228 137.579L153.139 135.023L150.796 132.696L148.841 130.031L146.58 127.623L144.616 124.972L142.563 122.391L140.323 119.968L138.246 117.405L135.894 115.091L133.583 112.733L130.88 110.833L127.881 109.518L124.677 108.857L121.492 109.967L120.287 106.736L119.443 103.492L118.985 100.176L118.593 96.861L118.445 93.5222L118.714 90.1876L119.448 86.9285L120.254 83.6764L121.724 80.6648L123.375 77.7441L125.517 75.1589L127.988 72.8995L130.606 70.8275L133.326 68.9344L136.232 67.3419L139.164 65.7941L142.19 64.4309L145.318 63.3236L148.459 62.2582L151.69 61.5074L154.907 60.7147L158.147 59.9932L161.452 59.6814L164.734 59.1571L168.056 59.1557L171.367 59.0117L174.679 59.1627L178.001 59.1781L181.309 59.4759L184.558 60.1834L187.824 60.7468L191.079 61.4109L194.239 62.4358L197.366 63.5375L200.43 64.807L203.525 66.0164L206.366 67.746L209.227 69.4125L212.015 71.2008L214.729 73.1023L217.326 75.1617L219.768 77.403L222.108 79.7463L224.538 82.1021L226.614 84.7712L228.707 87.4221L230.701 90.1541L232.492 93.0245L234.013 96.0459L235.649 99.0099L236.871 102.166L237.997 105.351L239.241 108.496L240.059 111.778L240.961 115.037L241.533 118.369L242.253 121.678L242.44 125.062L242.922 128.41L243.231 131.78L243.126 135.166L243.331 138.544L243.296 141.925L243.076 145.3L243.212 148.681L243.55 151.98L246.183 153.643L249.317 154.565L252.53 155.188L255.648 156.18L258.798 157.067L261.832 158.3L264.784 159.718L267.478 161.576L270.147 163.448L272.425 165.777L274.658 168.164L276.411 170.932L277.592 173.984L278.686 177.056L279.406 180.241L279.875 183.48L279.856 186.754L279.666 190.011L279.42 193.266L278.972 196.645L278.251 199.98L277.087 203.185L275.786 206.329L274.213 209.356L272.255 212.162L269.788 214.526L267.263 216.828L264.36 218.642L261.221 219.994L257.954 220.97L254.601 221.545L251.222 221.946L247.816 221.854L244.43 221.503L241.11 220.751L237.822 219.856L234.728 218.429L231.625 217.001L228.896 214.95L226.391 212.657L224.075 210.168L222.146 207.348L221.016 204.126L220.243 200.992L219.772 197.8L219.44 194.592L219.317 191.362L219.492 188.135L219.721 184.909L220.064 181.692L220.528 178.489L221.111 175.308L221.718 172.125L221.701 168.888L220.634 165.963L217.775 165.672L215.024 167.233L212.615 169.298L210.478 171.642L208.155 173.811L206.201 176.314L204.099 178.69L202.171 181.262L200.382 178.527L198.345 175.991L196.55 173.28L194.555 170.713L192.761 168.049L195.433 165.98L197.611 163.269L199.307 160.246L200.673 157.06L201.494 153.686L201.894 150.237L201.882 146.765L201.485 143.317L200.6 140.093L198.816 137.276L196.198 135.215L192.951 134.533L189.671 135.029L186.913 136.87L184.634 139.267L182.946 142.129L181.695 145.222L180.966 148.479L180.408 151.729Z" stroke="#392396" stroke-width="0.699074" stroke-miterlimit="10"/>
</g>
<path d="M253.046 257.627L249.742 257.798L246.356 257.635L242.968 257.786L239.582 257.592L236.194 257.715L232.806 257.695L229.42 257.791L226.032 257.807L222.644 257.729L219.258 257.728L215.87 257.812L212.483 257.732L209.095 257.74L205.707 257.792L202.319 257.589L198.932 257.596L195.545 257.705L192.158 257.606L188.769 257.807L185.382 257.705L181.995 257.662L178.607 257.64L175.219 257.686L171.831 257.64L168.444 257.592L165.055 257.781L161.667 257.793L158.219 257.771L158.264 254.4L158.195 251.089L158.416 247.778L158.286 244.466L158.194 241.155L158.247 237.845L158.369 234.532L158.159 231.222L158.206 227.911L158.146 224.6L158.39 221.288L158.364 217.977L158.415 214.665L158.377 211.352L158.392 208.04L158.346 204.798L161.666 204.662L165.052 204.777L168.44 204.72L171.826 204.675L175.214 204.734L178.6 204.838L181.988 204.847L185.375 204.762L188.763 204.597L192.149 204.859L195.537 204.63L198.925 204.619L202.312 204.703L205.7 204.672L209.086 204.704L212.474 204.598L215.862 204.689L219.25 204.704L222.637 204.838L226.025 204.804L229.413 204.83L232.8 204.619L236.188 204.854L239.576 204.697L242.964 204.812L246.351 204.674L249.74 204.801L253.158 204.7L253.198 208.04L253.209 211.351L253.159 214.662L253.118 217.973L253.17 221.285L253.051 224.596L253.015 227.908L253.19 231.217L253.251 234.53L253.046 237.84L253.102 241.153L253.071 244.463L253.092 247.776L253.064 251.088L253.005 254.397L253.046 257.627Z" stroke="#392396" stroke-width="0.699074" stroke-miterlimit="10"/>
<mask id="mask3_398_2303" style="mask-type:luminance" maskUnits="userSpaceOnUse" x="149" y="40" width="96" height="76">
<path d="M244.229 40.5911H149.377V115.065H244.229V40.5911Z" fill="white"/>
</mask>
<g mask="url(#mask3_398_2303)">
<path d="M173.664 173.351L172.258 176.371L170.819 179.38L169.165 182.272L167.447 185.126L165.535 187.85L163.673 190.605L161.808 193.368L159.442 195.725L157.567 198.516L155.095 200.769L152.674 203.061L149.985 205.034L147.364 207.083L144.539 208.84L141.73 210.617L138.761 212.112L135.727 213.48L132.564 214.533L129.28 215.048L126.011 215.709L122.671 215.587L119.415 214.852L116.399 213.447L113.932 211.39L112.108 208.755L110.661 205.883L109.755 202.79L108.97 199.661L108.366 196.48L108.425 193.237L108.151 190.021L108.182 186.791L107.758 183.582L107.683 180.356L107.009 177.206L103.497 176.302L99.9496 175.676L96.3787 175.268L92.8386 174.574L89.2971 174.167L87.4795 172.165L88.7476 169.183L90.8546 166.588L92.9435 163.997L94.8589 161.281L96.6737 158.494L98.4368 155.67L100.103 152.785L101.377 149.703L102.758 146.671L103.929 143.555L105.012 140.408L105.704 137.144L106.722 133.978L107.405 130.721L107.638 127.399L108.427 124.16L108.674 120.839L109.116 117.542L109.956 114.322L110.692 111.068L112.098 108.045L113.38 104.987L115.033 102.112L117.048 99.4797L119.367 97.128L121.715 94.7903L124.472 92.9447L127.451 91.492L130.387 89.9527L133.491 88.781L136.707 87.9393L139.917 87.0697L143.226 86.7174L146.534 86.2742L149.865 86.1553L153.19 86.1022L156.527 85.9554L159.838 86.3636L163.125 86.8991L166.434 87.3326L169.615 88.3434L172.743 89.4773L175.812 90.7538L178.872 92.0653L181.729 93.7934L184.375 95.8123L186.851 98.0284L189.339 100.236L191.569 102.711L193.47 105.446L195.247 108.266L196.92 111.154L198.097 114.286L198.937 117.514L200.054 120.657L200.816 123.915L200.904 127.264L201.438 130.559L201.478 133.896L201.545 137.23L201.244 140.55L200.833 143.857L200.405 147.161L199.954 150.463L199.077 153.683L198.481 156.969L197.802 160.238L196.685 163.477L195.98 166.828L195.039 170.124L194.035 173.404L193.616 176.813L192.939 180.165L192.401 183.539L191.781 186.904L191.345 190.294L190.713 193.66L190.492 197.076L190.073 200.471L189.582 203.864L189.59 207.294L189.424 210.715L189.635 214.135L189.578 217.569L190.144 220.955L190.689 224.241L187.4 225.003L184.15 226.008L180.816 226.668L177.484 227.345L174.207 228.245L170.871 228.898L167.581 229.76L164.298 230.609L160.942 231.188L157.718 232.315L154.363 232.885L151.023 233.523L147.782 234.577L144.453 235.264L141.153 236.051L137.848 236.849L134.487 237.39L131.202 238.278L127.831 239.204L129.126 236.096L130.115 232.964L131.172 229.857L132.058 226.693L133.013 223.556L133.878 220.386L134.498 217.159L135.04 213.924" fill="white"/>
<path d="M173.664 173.351L172.258 176.371L170.819 179.38L169.165 182.272L167.447 185.126L165.535 187.85L163.673 190.605L161.808 193.368L159.442 195.725L157.567 198.516L155.095 200.768L152.674 203.061L149.985 205.034L147.364 207.083L144.539 208.84L141.73 210.617L138.761 212.112L135.727 213.48L132.564 214.533L129.28 215.048L126.011 215.709L122.671 215.587L119.415 214.852L116.399 213.447L113.932 211.39L112.108 208.755L110.661 205.883L109.755 202.79L108.97 199.661L108.366 196.48L108.425 193.237L108.151 190.021L108.182 186.791L107.758 183.582L107.683 180.356L107.009 177.206L103.497 176.302L99.9496 175.676L96.3787 175.268L92.8386 174.574L89.2971 174.167L87.4795 172.165L88.7476 169.183L90.8546 166.588L92.9435 163.997L94.8589 161.281L96.6737 158.494L98.4368 155.67L100.103 152.785L101.377 149.703L102.758 146.671L103.929 143.555L105.012 140.408L105.704 137.144L106.722 133.978L107.405 130.721L107.638 127.399L108.427 124.16L108.674 120.839L109.116 117.542L109.956 114.322L110.692 111.068L112.098 108.045L113.38 104.987L115.033 102.112L117.048 99.4797L119.367 97.128L121.715 94.7903L124.472 92.9447L127.451 91.492L130.387 89.9527L133.491 88.781L136.707 87.9393L139.917 87.0697L143.226 86.7174L146.534 86.2742L149.865 86.1553L153.19 86.1022L156.527 85.9554L159.838 86.3636L163.125 86.8991L166.434 87.3326L169.615 88.3434L172.743 89.4773L175.812 90.7538L178.872 92.0653L181.729 93.7934L184.375 95.8123L186.851 98.0284L189.339 100.236L191.569 102.711L193.47 105.446L195.247 108.266L196.92 111.154L198.097 114.286L198.937 117.514L200.054 120.657L200.816 123.915L200.904 127.264L201.438 130.559L201.478 133.896L201.545 137.23L201.244 140.55L200.833 143.857L200.405 147.161L199.954 150.463L199.077 153.683L198.481 156.969L197.802 160.238L196.685 163.477L195.98 166.828L195.039 170.124L194.035 173.404L193.616 176.813L192.939 180.165L192.401 183.539L191.781 186.904L191.345 190.294L190.713 193.66L190.492 197.076L190.073 200.471L189.582 203.864L189.59 207.294L189.424 210.715L189.635 214.135L189.578 217.569L190.144 220.955L190.689 224.241L187.4 225.003L184.15 226.008L180.816 226.668L177.484 227.345L174.207 228.245L170.871 228.898L167.581 229.76L164.298 230.609L160.942 231.188L157.718 232.315L154.363 232.885L151.023 233.523L147.782 234.577L144.453 235.264L141.153 236.051L137.848 236.849L134.487 237.39L131.202 238.278L127.831 239.204L129.126 236.096L130.115 232.964L131.172 229.857L132.058 226.693L133.013 223.556L133.878 220.386L134.498 217.159L135.04 213.924" stroke="#392396" stroke-width="0.699074" stroke-miterlimit="10"/>
<path d="M171.475 148.357L168.274 148.127L165.127 147.154L162.048 146.023L159.079 144.605L156.229 142.941L153.599 140.946L151.192 138.692L148.739 136.496L146.379 134.196L144.121 131.795L141.897 129.359L139.938 126.699L137.726 124.251L135.566 121.759L133.544 119.154L131.551 116.523L129.343 114.072L126.924 111.828L124.628 109.462L121.929 107.581L119.037 106.015L115.781 105.59L112.68 106.406L111.493 103.368L110.653 100.131L109.949 96.8623L109.67 93.5291L109.421 90.1833L109.858 86.8585L110.545 83.5925L111.496 80.3963L112.712 77.2714L114.478 74.4122L116.593 71.8033L119.127 69.6096L121.704 67.4886L124.402 65.5592L127.247 63.8464L130.252 62.4315L133.273 61.0557L136.457 60.1008L139.569 58.9571L142.747 57.998L145.977 57.2318L149.255 56.7103L152.54 56.2405L155.83 55.7777L159.152 55.7316L162.467 55.6435L165.782 55.7609L169.085 56.0224L172.399 56.2139L175.689 56.6697L178.909 57.4877L182.133 58.2468L185.333 59.1165L188.476 60.1791L191.5 61.5409L194.597 62.7405L197.487 64.3721L200.453 65.8723L203.16 67.799L205.878 69.7019L208.515 71.7222L210.89 74.0445L213.258 76.3626L215.528 78.8639L217.861 81.3177L219.777 84.1098L221.702 86.8837L223.473 89.7597L225.087 92.7252L226.591 95.748L228.056 98.7959L229.236 101.966L230.352 105.159L231.215 108.428L231.985 111.719L232.821 114.999L233.239 118.359L233.541 121.727L233.862 125.088L234.07 128.458L234.337 131.829L234.28 135.209L234.207 138.587L234.131 141.965L234.192 145.346L234.521 148.7L237.3 150.256L240.415 151.242L243.618 151.9L246.759 152.804L249.823 153.946L252.865 155.12L255.803 156.535L258.599 158.209L261.208 160.159L263.625 162.349L265.727 164.853L267.425 167.644L268.724 170.637L269.892 173.692L270.559 176.898L270.798 180.16L270.991 183.419L270.77 186.677L270.531 189.931L270.096 193.315L269.271 196.624L268.358 199.914L266.831 202.968L265.36 206.052L263.174 208.678L261 211.311L258.268 213.36L255.359 215.12L252.331 216.689L249.045 217.605L245.725 218.378L242.318 218.522L238.913 218.574L235.502 218.343L232.202 217.444L228.879 216.642L225.73 215.299L222.741 213.643L220.027 211.576L217.45 209.363L215.15 206.852L213.338 203.966L212.169 200.774L211.182 197.69L210.745 194.481L210.336 191.267L210.331 188.027L210.592 184.8L210.897 181.583L211.248 178.369L211.814 175.185L212.262 171.982L212.66 168.773L212.859 165.551L211.795 162.571L208.819 162.203L206.121 163.894L203.779 166.031L201.406 168.143L199.39 170.598L197.164 172.863L195.213 175.367L193.354 177.791L191.323 175.307L189.372 172.708L187.642 169.949L185.674 167.363L183.648 164.762L186.427 162.54L188.666 159.902L190.471 156.944L191.586 153.665L192.629 150.358L193.017 146.903L192.989 143.429L192.594 139.981L191.696 136.76L189.976 133.888L187.33 131.816L184.051 131.195L180.754 131.65L177.91 133.413L175.72 135.921L174.052 138.797L172.737 141.869L172.105 145.152L171.475 148.357Z" fill="#D5B5FF"/>
<path d="M171.475 148.357L168.274 148.127L165.127 147.154L162.048 146.023L159.079 144.605L156.229 142.941L153.599 140.946L151.192 138.692L148.739 136.496L146.379 134.196L144.121 131.795L141.897 129.359L139.938 126.699L137.726 124.251L135.566 121.759L133.544 119.154L131.551 116.523L129.343 114.072L126.924 111.828L124.628 109.462L121.929 107.581L119.037 106.015L115.781 105.59L112.68 106.406L111.493 103.368L110.653 100.131L109.949 96.8623L109.67 93.5291L109.421 90.1833L109.858 86.8585L110.545 83.5925L111.496 80.3963L112.712 77.2714L114.478 74.4122L116.593 71.8033L119.127 69.6096L121.704 67.4886L124.402 65.5592L127.247 63.8464L130.252 62.4315L133.273 61.0557L136.457 60.1008L139.569 58.9571L142.747 57.998L145.977 57.2318L149.255 56.7103L152.54 56.2405L155.83 55.7777L159.152 55.7316L162.467 55.6435L165.782 55.7609L169.085 56.0224L172.399 56.2139L175.689 56.6697L178.909 57.4877L182.133 58.2468L185.333 59.1165L188.476 60.1791L191.5 61.5409L194.597 62.7405L197.487 64.3721L200.453 65.8723L203.16 67.799L205.878 69.7019L208.515 71.7222L210.89 74.0445L213.258 76.3626L215.528 78.8639L217.861 81.3177L219.777 84.1098L221.702 86.8837L223.473 89.7597L225.087 92.7252L226.591 95.748L228.056 98.7959L229.236 101.966L230.352 105.159L231.215 108.428L231.985 111.719L232.821 114.999L233.239 118.359L233.541 121.727L233.862 125.088L234.07 128.458L234.337 131.829L234.28 135.209L234.207 138.587L234.131 141.965L234.192 145.346L234.521 148.7L237.3 150.256L240.415 151.242L243.618 151.9L246.759 152.804L249.823 153.946L252.865 155.12L255.803 156.535L258.599 158.209L261.208 160.159L263.625 162.349L265.727 164.853L267.425 167.644L268.724 170.637L269.892 173.692L270.559 176.898L270.798 180.16L270.991 183.419L270.77 186.677L270.531 189.931L270.096 193.315L269.271 196.624L268.358 199.914L266.831 202.968L265.36 206.052L263.174 208.678L261 211.311L258.268 213.36L255.359 215.12L252.331 216.689L249.045 217.605L245.725 218.378L242.318 218.522L238.913 218.574L235.502 218.343L232.202 217.444L228.879 216.642L225.73 215.299L222.741 213.643L220.027 211.576L217.45 209.363L215.15 206.852L213.338 203.966L212.169 200.774L211.182 197.69L210.745 194.481L210.336 191.267L210.331 188.027L210.592 184.8L210.897 181.583L211.248 178.369L211.814 175.185L212.262 171.982L212.66 168.773L212.859 165.551L211.795 162.571L208.819 162.203L206.121 163.894L203.779 166.031L201.406 168.143L199.39 170.598L197.164 172.863L195.213 175.367L193.354 177.791L191.323 175.307L189.372 172.708L187.642 169.949L185.674 167.363L183.648 164.762L186.427 162.54L188.666 159.902L190.471 156.944L191.586 153.665L192.629 150.358L193.017 146.903L192.989 143.429L192.594 139.981L191.696 136.76L189.976 133.888L187.33 131.816L184.051 131.195L180.754 131.65L177.91 133.413L175.72 135.921L174.052 138.797L172.737 141.869L172.105 145.152L171.475 148.357Z" stroke="#392396" stroke-width="0.699074" stroke-miterlimit="10"/>
</g>
<path d="M244.164 115.001L240.841 115.179L237.455 115.142L234.067 115.087L230.679 115.09L227.293 114.925L223.905 115.154L220.517 115.038L217.131 115.198L213.743 115.079L210.357 115.066L206.969 115.049L203.582 115.055L200.194 115.154L196.806 115.086L193.419 114.989L190.031 115.16L186.643 115.157L183.255 114.96L179.868 115.145L176.481 115.058L173.094 114.981L169.706 115.193L166.318 115.055L162.931 114.999L159.543 115.031L156.154 115.082L152.766 115.185L149.475 114.966L149.462 111.679L149.375 108.294L149.448 104.91L149.455 101.525L149.49 98.1402L149.36 94.7553L149.28 91.3704L149.473 87.9855L149.512 84.6006L149.436 81.2143L149.357 77.8293L149.321 74.4444L149.437 71.0595L149.399 67.6746L149.441 64.2897L149.247 60.9048L149.389 57.5198L149.306 54.1335L149.427 50.7486L149.377 47.3623L149.391 43.9774L149.296 40.51L152.765 40.5757L156.151 40.5533L159.539 40.454L162.925 40.5435L166.313 40.4904L169.699 40.7211L173.087 40.5491L176.474 40.6652L179.861 40.7127L183.248 40.461L186.636 40.5994L190.024 40.6889L193.412 40.6568L196.799 40.6442L200.187 40.5771L203.573 40.6819L206.961 40.6624L210.349 40.4834L213.736 40.598L217.124 40.4806L220.512 40.6777L223.898 40.7197L227.287 40.7141L230.675 40.6316L234.063 40.6512L237.45 40.6959L240.84 40.6638L244.224 40.5953L244.194 43.976L244.324 47.3609L244.251 50.7444L244.257 54.1293L244.205 57.5142L244.363 60.8992L244.16 64.2855L244.314 67.6704L244.294 71.0553L244.259 74.4402L244.352 77.8251L244.22 81.2101L244.331 84.595L244.156 87.9799L244.226 91.3648L244.275 94.7497L244.118 98.1346L244.363 101.521L244.332 104.906L244.325 108.292L244.192 111.677L244.164 115.001Z" stroke="#392396" stroke-width="0.699074" stroke-miterlimit="10"/>
<mask id="mask4_398_2303" style="mask-type:luminance" maskUnits="userSpaceOnUse" x="165" y="105" width="96" height="88">
<path d="M260.749 105.871H165.897V192.201H260.749V105.871Z" fill="white"/>
</mask>
<g mask="url(#mask4_398_2303)">
<path d="M190.185 164.158L188.779 167.178L187.34 170.187L185.686 173.08L183.968 175.933L182.056 178.657L180.194 181.413L178.329 184.175L175.963 186.533L174.088 189.323L171.617 191.576L169.196 193.869L166.506 195.841L163.886 197.89L161.06 199.647L158.252 201.424L155.282 202.919L152.248 204.288L149.085 205.341L145.801 205.855L142.534 206.516L139.192 206.395L135.936 205.659L132.921 204.254L130.455 202.197L128.629 199.562L127.182 196.69L126.276 193.597L125.493 190.468L124.888 187.288L124.948 184.044L124.672 180.828L124.703 177.598L124.281 174.39L124.204 171.163L123.53 168.013L120.018 167.11L116.471 166.483L112.901 166.075L109.361 165.381L105.818 164.975L104.002 162.972L105.269 159.99L107.376 157.395L109.466 154.804L111.382 152.088L113.196 149.301L114.959 146.477L116.625 143.593L117.898 140.511L119.281 137.479L120.45 134.362L121.533 131.215L122.227 127.952L123.245 124.785L123.926 121.529L124.159 118.207L124.948 114.967L125.195 111.646L125.637 108.35L126.479 105.13L127.213 101.875L128.619 98.852L129.903 95.7942L131.555 92.9196L133.569 90.2869L135.888 87.9352L138.237 85.5975L140.994 83.752L143.972 82.2993L146.908 80.7599L150.014 79.5883L153.228 78.7466L156.438 77.877L159.749 77.5246L163.056 77.0814L166.386 76.9626L169.712 76.9094L173.048 76.7626L176.36 77.1709L179.646 77.7064L182.957 78.1398L186.138 79.1507L189.264 80.2846L192.334 81.5611L195.393 82.8725L198.25 84.6007L200.897 86.6196L203.373 88.8356L205.86 91.0433L208.09 93.518L209.991 96.2528L211.769 99.0729L213.442 101.961L214.619 105.093L215.458 108.322L216.577 111.465L217.337 114.722L217.425 118.071L217.961 121.366L217.999 124.704L218.066 128.037L217.765 131.358L217.356 134.664L216.926 137.967L216.476 141.27L215.599 144.49L215.002 147.776L214.324 151.045L213.206 154.284L212.501 157.636L211.562 160.931L210.558 164.211L210.137 167.62L209.46 170.973L208.922 174.346L208.304 177.712L207.866 181.101L207.234 184.468L207.015 187.883L206.595 191.278L206.103 194.671L206.112 198.101L205.947 201.522L206.156 204.942L206.099 208.376L206.665 211.762L207.244 215.034L203.922 215.81L200.671 216.815L197.337 217.475L194.006 218.152L190.728 219.052L187.392 219.705L184.103 220.568L180.819 221.416L177.464 221.995L174.239 223.122L170.884 223.693L167.544 224.33L164.303 225.384L160.974 226.071L157.674 226.858L154.369 227.656L151.008 228.197L147.725 229.085L144.353 230.011L145.647 226.903L146.636 223.771L147.693 220.664L148.579 217.5L149.536 214.363L150.4 211.193L151.019 207.966L151.561 204.731" fill="white"/>
<path d="M190.185 164.158L188.779 167.178L187.34 170.187L185.686 173.08L183.968 175.933L182.056 178.657L180.194 181.413L178.329 184.175L175.963 186.533L174.088 189.323L171.617 191.576L169.196 193.869L166.506 195.842L163.886 197.89L161.06 199.647L158.252 201.424L155.282 202.919L152.248 204.288L149.085 205.341L145.801 205.855L142.534 206.516L139.192 206.395L135.936 205.659L132.921 204.254L130.455 202.197L128.629 199.562L127.182 196.69L126.276 193.597L125.493 190.468L124.888 187.288L124.948 184.044L124.672 180.828L124.703 177.598L124.281 174.39L124.204 171.163L123.53 168.013L120.018 167.11L116.471 166.483L112.901 166.075L109.361 165.381L105.818 164.975L104.002 162.972L105.269 159.99L107.376 157.395L109.466 154.804L111.382 152.088L113.196 149.301L114.959 146.477L116.625 143.593L117.898 140.511L119.281 137.479L120.45 134.362L121.533 131.215L122.227 127.952L123.245 124.785L123.926 121.529L124.159 118.207L124.948 114.967L125.195 111.646L125.637 108.35L126.479 105.13L127.213 101.875L128.619 98.852L129.903 95.7942L131.555 92.9196L133.569 90.2869L135.888 87.9352L138.237 85.5975L140.994 83.752L143.972 82.2993L146.908 80.7599L150.014 79.5883L153.228 78.7466L156.438 77.877L159.749 77.5246L163.056 77.0814L166.386 76.9626L169.712 76.9094L173.048 76.7626L176.36 77.1709L179.646 77.7064L182.957 78.1398L186.138 79.1507L189.264 80.2846L192.334 81.5611L195.393 82.8725L198.25 84.6007L200.897 86.6196L203.373 88.8356L205.86 91.0433L208.09 93.518L209.991 96.2528L211.769 99.0729L213.442 101.961L214.619 105.093L215.458 108.322L216.577 111.465L217.337 114.722L217.425 118.071L217.961 121.366L217.999 124.704L218.066 128.037L217.765 131.358L217.356 134.664L216.926 137.967L216.476 141.27L215.599 144.49L215.002 147.776L214.324 151.045L213.206 154.284L212.501 157.636L211.562 160.931L210.558 164.211L210.137 167.62L209.46 170.973L208.922 174.346L208.304 177.712L207.866 181.101L207.234 184.468L207.015 187.883L206.595 191.278L206.103 194.671L206.112 198.101L205.947 201.522L206.156 204.942L206.099 208.376L206.665 211.762L207.244 215.034L203.922 215.81L200.671 216.815L197.337 217.475L194.006 218.152L190.728 219.052L187.392 219.705L184.103 220.568L180.819 221.416L177.464 221.995L174.239 223.122L170.884 223.693L167.544 224.33L164.303 225.384L160.974 226.071L157.674 226.858L154.369 227.656L151.008 228.197L147.725 229.085L144.353 230.011L145.647 226.903L146.636 223.771L147.693 220.664L148.579 217.5L149.536 214.363L150.4 211.193L151.019 207.966L151.561 204.731" stroke="#392396" stroke-width="0.699074" stroke-miterlimit="10"/>
<path d="M193.947 138.924L192.525 135.753L192.581 132.241L193.887 128.947L196.359 126.374L199.687 125.143L203.162 125.833L205.725 128.24L206.858 131.576L207.038 135.148L206.176 138.508L205.135 141.803L203.744 144.973L201.921 147.916L199.804 150.645L198.055 150.207L199.341 147.702L200.608 145.199L200.492 142.564L197.666 140.722L195.772 143.249" fill="white"/>
<path d="M193.947 138.924L192.525 135.753L192.581 132.241L193.887 128.947L196.359 126.374L199.687 125.143L203.162 125.833L205.725 128.24L206.858 131.576L207.038 135.148L206.176 138.508L205.135 141.803L203.744 144.973L201.921 147.916L199.804 150.645L198.055 150.207L199.341 147.702L200.608 145.199L200.492 142.564L197.666 140.722L195.772 143.249" stroke="#392396" stroke-width="0.699074" stroke-miterlimit="10"/>
<path d="M187.99 139.158L184.808 138.861L181.629 138.027L178.547 136.879L175.645 135.334L172.8 133.677L170.234 131.612L167.577 129.653L165.269 127.294L163.01 124.901L160.692 122.558L158.417 120.167L156.416 117.542L154.331 114.989L152.291 112.4L150.163 109.882L147.996 107.396L145.854 104.889L143.54 102.54L141.077 100.355L138.432 98.4171L135.528 96.9155L132.295 96.2961L129.147 97.3531L127.897 94.2129L127.081 90.9608L126.54 87.6584L126.166 84.3378L125.934 80.9906L126.43 77.6728L126.896 74.3578L128.008 71.2008L129.306 68.1165L131.193 65.3565L133.156 62.6483L135.633 60.3987L138.177 58.2302L141 56.4923L143.883 54.869L146.814 53.3268L149.824 51.9357L152.957 50.8479L156.108 49.8273L159.307 48.9632L162.536 48.218L165.785 47.5623L169.066 47.0855L172.362 46.7206L175.674 46.5668L178.989 46.392L182.304 46.5514L185.626 46.5962L188.924 46.996L192.206 47.5022L195.45 48.2068L198.686 48.9353L201.891 49.8077L204.958 51.0898L208.023 52.3453L211.065 53.6582L214.035 55.1319L216.929 56.7537L219.654 58.6454L222.435 60.4616L225.05 62.5127L227.364 64.9035L229.872 67.0804L232.042 69.6782L234.266 72.2186L236.436 74.8164L238.371 77.5945L239.932 80.6033L241.611 83.5324L243.059 86.5804L244.408 89.6731L245.842 92.7434L246.92 95.9508L247.74 99.235L248.513 102.525L249.159 105.84L249.672 109.18L250.242 112.515L250.472 115.888L250.732 119.258L250.974 122.633L250.981 126.017L250.84 129.396L250.897 132.778L250.62 136.155L251.036 139.51L253.762 141.248L256.918 142.123L260.1 142.861L263.286 143.594L266.379 144.655L269.393 145.911L272.387 147.225L275.143 148.984L277.756 150.936L280.195 153.111L282.242 155.663L283.991 158.427L285.211 161.457L286.317 164.526L286.923 167.73L287.375 170.963L287.543 174.226L287.308 177.485L287.232 180.761L286.529 184.105L285.852 187.447L284.769 190.681L283.478 193.837L281.844 196.836L279.822 199.59L277.461 202.053L274.828 204.222L271.949 206.052L268.877 207.557L265.59 208.503L262.252 209.222L258.843 209.434L255.441 209.273L252.031 209.1L248.719 208.271L245.463 207.276L242.332 205.938L239.256 204.46L236.531 202.406L233.833 200.31L231.783 197.577L229.838 194.783L228.598 191.609L227.696 188.498L227.379 185.274L226.932 182.071L227.029 178.836L227.038 175.602L227.311 172.379L227.839 169.187L228.203 165.97L228.753 162.784L229.211 159.583L229.494 156.351L228.335 153.36L225.348 153.025L222.625 154.679L220.191 156.721L218.023 159.041L215.753 161.262L213.68 163.666L211.756 166.191L209.795 168.733L207.956 166.033L205.972 163.459L204.205 160.727L202.149 158.203L200.263 155.558L203.043 153.441L205.109 150.655L207.026 147.766L208.222 144.508L209.163 141.167L209.421 137.705L209.555 134.235L209.185 130.779L208.136 127.601L206.463 124.727L203.738 122.855L200.575 121.884L197.306 122.537L194.475 124.272L192.269 126.749L190.404 129.525L189.327 132.697L188.47 135.929L187.99 139.158Z" fill="#FFD803"/>
<path d="M187.99 139.158L184.808 138.861L181.629 138.027L178.547 136.879L175.645 135.334L172.8 133.677L170.234 131.612L167.577 129.653L165.269 127.294L163.01 124.901L160.692 122.558L158.417 120.167L156.416 117.542L154.331 114.989L152.291 112.4L150.163 109.882L147.996 107.396L145.854 104.889L143.54 102.54L141.077 100.355L138.432 98.4171L135.528 96.9155L132.295 96.2961L129.147 97.3531L127.897 94.2129L127.081 90.9608L126.54 87.6584L126.166 84.3378L125.934 80.9906L126.43 77.6728L126.896 74.3578L128.008 71.2008L129.306 68.1165L131.193 65.3565L133.156 62.6483L135.633 60.3987L138.177 58.2302L141 56.4923L143.883 54.869L146.814 53.3268L149.824 51.9357L152.957 50.8479L156.108 49.8273L159.307 48.9632L162.536 48.218L165.785 47.5623L169.066 47.0855L172.362 46.7206L175.674 46.5668L178.989 46.392L182.304 46.5514L185.626 46.5962L188.924 46.996L192.206 47.5022L195.45 48.2068L198.686 48.9353L201.891 49.8077L204.958 51.0898L208.023 52.3453L211.065 53.6582L214.035 55.1319L216.929 56.7537L219.654 58.6454L222.435 60.4616L225.05 62.5127L227.364 64.9035L229.872 67.0804L232.042 69.6782L234.266 72.2186L236.436 74.8164L238.371 77.5945L239.932 80.6033L241.611 83.5324L243.059 86.5804L244.408 89.6731L245.842 92.7434L246.92 95.9508L247.74 99.235L248.513 102.525L249.159 105.84L249.672 109.18L250.242 112.515L250.472 115.888L250.732 119.258L250.974 122.633L250.981 126.017L250.84 129.396L250.897 132.778L250.62 136.155L251.036 139.51L253.762 141.248L256.918 142.123L260.1 142.861L263.286 143.594L266.379 144.655L269.393 145.911L272.387 147.225L275.143 148.984L277.756 150.936L280.195 153.111L282.242 155.663L283.991 158.427L285.211 161.457L286.317 164.526L286.923 167.73L287.375 170.963L287.543 174.226L287.308 177.485L287.232 180.761L286.529 184.105L285.852 187.447L284.769 190.681L283.478 193.837L281.844 196.836L279.822 199.59L277.461 202.053L274.828 204.222L271.949 206.052L268.877 207.557L265.59 208.503L262.252 209.222L258.843 209.434L255.441 209.273L252.031 209.1L248.719 208.271L245.463 207.276L242.332 205.938L239.256 204.46L236.531 202.406L233.833 200.31L231.783 197.577L229.838 194.783L228.598 191.609L227.696 188.498L227.379 185.274L226.932 182.071L227.029 178.836L227.038 175.602L227.311 172.379L227.839 169.187L228.203 165.97L228.753 162.784L229.211 159.583L229.494 156.351L228.335 153.36L225.348 153.025L222.625 154.679L220.191 156.721L218.023 159.041L215.753 161.262L213.68 163.666L211.756 166.191L209.795 168.733L207.956 166.033L205.972 163.459L204.205 160.727L202.149 158.203L200.263 155.558L203.043 153.441L205.109 150.655L207.026 147.766L208.222 144.508L209.163 141.167L209.421 137.705L209.555 134.235L209.185 130.779L208.136 127.601L206.463 124.727L203.738 122.855L200.575 121.884L197.306 122.537L194.475 124.272L192.269 126.749L190.404 129.525L189.327 132.697L188.47 135.929L187.99 139.158Z" stroke="#392396" stroke-width="0.699074" stroke-miterlimit="10"/>
<path d="M133.241 126.467L136.58 126.696L139.916 126.962L143.255 127.191L146.567 127.705L149.914 127.852L153.256 128.048L156.581 128.431L159.898 128.888L163.236 129.14L166.587 129.225L169.905 129.689L173.248 129.873L176.57 130.295L179.906 130.555L183.231 130.952L186.574 131.149L189.903 131.489" fill="#392396"/>
<path d="M133.241 126.467L136.58 126.696L139.916 126.962L143.255 127.191L146.567 127.705L149.914 127.852L153.256 128.048L156.581 128.431L159.898 128.888L163.236 129.14L166.587 129.225L169.905 129.689L173.248 129.873L176.57 130.295L179.906 130.555L183.231 130.952L186.574 131.149L189.903 131.489" stroke="#392396" stroke-width="0.699074" stroke-miterlimit="10"/>
<path d="M216.444 166.936L216.222 170.331L215.425 173.653L213.931 176.727L212.022 179.567L209.584 181.969L206.79 183.947L203.647 185.285L200.345 186.081L196.97 186.391L193.581 186.148L190.263 185.362L187.198 183.859L184.43 181.88L182.084 179.426L180.087 176.681L178.731 173.573L177.693 170.335L177.347 166.936L177.682 163.534L178.538 160.228L180.024 157.153L181.996 154.372L184.441 152.005L187.209 150.031L190.334 148.704L193.599 147.825L196.97 147.418L200.338 147.836L203.661 148.549L206.657 150.156L209.447 152.065L211.903 154.405L213.947 157.134L215.357 160.243L216.066 163.568L216.444 166.936Z" stroke="#392396" stroke-width="0.699074" stroke-miterlimit="10"/>
</g>
<path d="M260.682 192.132L257.361 192.262L253.975 192.1L250.587 192.324L247.201 192.23L243.813 192.328L240.427 192.282L237.039 192.264L233.652 192.16L230.264 192.236L226.878 192.094L223.49 192.329L220.102 192.208L216.714 192.082L213.327 192.332L209.94 192.129L206.553 192.093L203.165 192.189L199.777 192.339L196.39 192.333L193.002 192.32L189.614 192.103L186.226 192.229L182.839 192.222L179.451 192.229L176.063 192.174L172.676 192.061L169.286 192.254L165.811 192.289L166.019 188.881L165.788 185.561L166.036 182.242L165.934 178.921L165.938 175.6L165.798 172.281L165.941 168.961L165.825 165.64L165.907 162.321L165.762 159L165.846 155.68L165.909 152.359L165.999 149.04L165.837 145.719L165.825 142.399L165.829 139.078L165.823 135.757L165.895 132.438L165.774 129.118L165.882 125.797L165.934 122.476L165.959 119.156L165.772 115.835L165.846 112.515L165.795 109.193L165.952 105.927L169.285 105.946L172.671 105.921L176.059 105.735L179.445 105.734L182.833 105.896L186.221 105.966L189.607 105.893L192.995 105.788L196.383 105.799L199.769 105.774L203.157 105.927L206.544 105.892L209.932 106.005L213.32 105.987L216.707 105.792L220.095 105.802L223.481 105.836L226.869 105.957L230.258 105.794L233.645 105.808L237.032 105.862L240.42 105.928L243.808 105.855L247.195 105.886L250.583 105.808L253.972 105.984L257.36 105.906L260.695 105.927L260.819 109.191L260.7 112.51L260.82 115.831L260.69 119.15L260.651 122.471L260.832 125.791L260.767 129.111L260.648 132.431L260.688 135.752L260.686 139.071L260.784 142.392L260.886 145.712L260.695 149.033L260.876 152.353L260.864 155.673L260.739 158.993L260.868 162.314L260.841 165.634L260.625 168.955L260.883 172.274L260.773 175.595L260.815 178.917L260.697 182.237L260.86 185.558L260.808 188.88L260.682 192.132Z" stroke="#392396" stroke-width="0.699074" stroke-miterlimit="10"/>
</svg>
