<svg width="303" height="303" viewBox="0 0 303 303" fill="none" xmlns="http://www.w3.org/2000/svg">
<path d="M236.099 57.302L238.594 59.604L241.097 61.9045L243.256 64.5375L245.608 66.984L247.762 69.6072L250.04 72.128L252.02 74.8858L254.122 77.5525L256.098 80.316L257.915 83.1861L259.581 86.1445L261.453 88.9837L263.091 91.9604L264.424 95.0914L265.943 98.1256L267.375 101.203L268.728 104.319L269.833 107.531L271.083 110.69L272.047 113.948L272.905 117.233L273.717 120.527L274.496 123.827L275.394 127.108L275.767 130.489L276.498 133.811L276.864 137.187L277.126 140.572L277.397 143.956L277.526 147.348L277.538 150.741L277.589 154.134L277.381 157.523L277.342 160.921L276.88 164.288L276.51 167.66L276.123 171.032L275.591 174.386L274.926 177.715L274.165 181.024L273.396 184.332L272.452 187.595L271.404 190.824L270.374 194.06L269.089 197.204L267.98 200.418L266.499 203.477L265.062 206.551L263.546 209.586L262.043 212.632L260.46 215.638L258.494 218.418L256.666 221.275L254.958 224.217L252.983 226.982L250.801 229.59L248.666 232.227L246.46 234.802L244.328 237.45L242.043 239.963L239.534 242.258L237.084 244.605L234.611 246.93L232.084 249.196L229.401 251.278L226.688 253.318L224.05 255.458L221.186 257.288L218.337 259.127L215.534 261.05L212.517 262.613L209.536 264.23L206.599 265.944L203.448 267.222L200.404 268.729L197.297 270.102L194.126 271.321L190.917 272.439L187.629 273.3L184.376 274.261L181.092 275.109L177.812 275.989L174.469 276.573L171.153 277.304L167.791 277.77L164.421 278.167L161.059 278.658L157.675 278.952L154.274 278.89L150.884 279.151L147.487 279.129L144.099 278.855L140.709 278.714L137.328 278.425L133.95 278.081L130.595 277.569L127.253 276.98L123.903 276.426L120.612 275.592L117.334 274.721L114.045 273.888L110.754 273.037L107.595 271.783L104.431 270.558L101.277 269.315L98.1007 268.11L95.016 266.69L91.9677 265.194L89.0542 263.446L86.0059 261.942L83.0657 260.24L80.3219 258.23L77.463 256.402L74.6098 254.555L72.0357 252.332L69.3802 250.22L66.7149 248.116L64.1338 245.908L61.6579 243.584L59.3503 241.09L56.9979 238.645L54.6272 236.215L52.5146 233.555L50.1902 231.071L48.1043 228.388L46.3045 225.499L44.1456 222.865L42.4862 219.894L40.7158 217.001L38.8235 214.173L37.3183 211.126L35.6925 208.144L34.214 205.086L32.8575 201.972L31.5361 198.842L30.3297 195.666L29.279 192.436L28.3363 189.173L27.4301 185.904L26.5674 182.625L25.6654 179.352L25.117 176.001L24.4254 172.678L23.9863 169.312L23.501 165.954L23.0956 162.583L22.836 159.198L22.8403 155.801L22.5625 152.41L22.7393 149.017L22.6972 145.618L22.8893 142.226L23.428 138.865L23.602 135.469L24.229 132.129L24.7747 128.779L25.3933 125.442L26.2181 122.15L27.0584 118.863L27.8257 115.554L28.9676 112.354L30.0113 109.126L31.1756 105.938L32.4605 102.797L33.8563 99.7052L35.2773 96.6247L36.5819 93.4824L38.2848 90.5422L39.9612 87.5908L41.7132 84.6842L43.4821 81.7847L45.3661 78.9595L47.3173 76.1792L49.4594 73.5406L51.5944 70.9033L53.7406 68.2731L56.0608 65.7944L58.3446 63.2834L60.7433 60.8819L63.2459 58.5912L65.5759 56.1082L68.2215 53.9732L70.7732 51.7302L73.6012 49.8364L76.2875 47.7617L79.1141 45.8834L81.9393 44.0051L84.7855 42.1548L87.7608 40.5192L90.6547 38.7362L93.7857 37.4008L96.7526 35.7385L99.8724 34.396L103.024 33.1321L106.203 31.9426L109.432 30.8961L112.67 29.8847L115.885 28.7919L119.197 28.0429L122.447 27.0371L125.776 26.3581L129.154 25.9597L132.491 25.3369L135.872 25.0325L139.225 24.4405L142.622 24.3465L146.013 24.1964L149.404 23.9874L152.798 24.1403L156.194 24.153L159.573 24.5135L162.957 24.7576L166.321 25.2064L169.719 25.4084L173.047 26.0986L176.395 26.6681L179.717 27.385L183 28.2575L186.23 29.3054L189.466 30.3238L192.759 31.1851L195.862 32.5822L199.067 33.7031L202.185 35.0441L205.311 36.381L208.309 37.9815L211.264 39.6494L214.258 41.25L217.11 43.0933L220.037 44.8117L222.89 46.6549L225.575 48.7352L228.392 50.6402L230.968 52.858L233.619 54.9818L236.099 57.302Z" fill="#BAE8E8"/>
<path d="M56.0708 250.272L54.0438 252.008L51.4585 252.637L48.8942 251.97L46.8391 250.272L48.9559 248.686L51.4585 247.829L54.0269 248.567L56.0708 250.272Z" stroke="#392396" stroke-width="0.701389" stroke-miterlimit="10"/>
<path d="M44.3099 174.087L42.1903 175.81L39.6133 176.312L37.1136 175.667L35.1399 174.087L37.108 172.499L39.6133 171.837L42.1482 172.443L44.3099 174.087Z" stroke="#392396" stroke-width="0.701389" stroke-miterlimit="10"/>
<path d="M33.5223 55.2469L31.4911 56.8419L28.9829 57.5867L26.427 56.9274L24.3088 55.2469L26.4383 53.5846L28.9829 53.0403L31.5191 53.5987L33.5223 55.2469Z" stroke="#392396" stroke-width="0.701389" stroke-miterlimit="10"/>
<path d="M86.1172 221.463L84.072 222.964L81.6157 223.918L79.1174 223.039L76.9641 221.463L79.0276 219.724L81.6157 218.992L84.1898 219.746L86.1172 221.463Z" stroke="#392396" stroke-width="0.701389" stroke-miterlimit="10"/>
<path d="M267.931 215.883L265.869 217.474L263.363 218.268L260.799 217.581L258.865 215.883L260.803 214.193L263.363 213.485L265.951 214.14L267.931 215.883Z" stroke="#392396" stroke-width="0.701389" stroke-miterlimit="10"/>
<path d="M63.0547 31.4137L60.8369 32.8628L58.3708 33.5684L55.843 32.9722L53.6799 31.3422L55.8977 29.8103L58.3708 28.8691L60.8902 29.7276L63.0547 31.4137Z" stroke="#392396" stroke-width="0.701389" stroke-miterlimit="10"/>
<path d="M90.8087 41.1926L88.7747 42.8746L86.2188 43.6587L83.7008 42.8072L81.6458 41.1926L83.6658 39.5149L86.2188 38.9538L88.7396 39.5752L90.8087 41.1926Z" stroke="#392396" stroke-width="0.701389" stroke-miterlimit="10"/>
<path d="M139.792 49.1099L137.731 50.6515L135.252 51.4231L132.722 50.7469L130.605 49.0734L132.667 47.376L135.252 46.8009L137.772 47.4953L139.792 49.1099Z" stroke="#392396" stroke-width="0.701389" stroke-miterlimit="10"/>
<path d="M167.363 36.0876L165.413 37.7583L162.864 38.4681L160.394 37.6152L158.217 36.0876L160.383 34.5404L162.864 33.7253L165.325 34.5782L167.363 36.0876Z" stroke="#392396" stroke-width="0.701389" stroke-miterlimit="10"/>
<path d="M263.272 36.0877L261.294 37.7332L258.759 38.3434L256.258 37.6701L254.106 36.0877L256.284 34.5517L258.759 33.7072L261.335 34.3679L263.272 36.0877Z" stroke="#392396" stroke-width="0.701389" stroke-miterlimit="10"/>
<path d="M29.7435 112.727L27.7179 114.388L25.1732 115.141L22.5879 114.464L20.481 112.727L22.6665 111.135L25.1732 110.33L27.7586 110.992L29.7435 112.727Z" stroke="#392396" stroke-width="0.701389" stroke-miterlimit="10"/>
<path d="M282.536 116.415L280.494 118.125L277.924 118.831L275.459 117.929L273.317 116.415L275.35 114.701L277.924 114.004L280.453 114.779L282.536 116.415Z" stroke="#392396" stroke-width="0.701389" stroke-miterlimit="10"/>
<path d="M277.297 142.32L275.05 143.862L272.571 144.653L269.992 144.044L267.854 142.32L270 140.609L272.571 139.846L275.13 140.633L277.297 142.32Z" stroke="#392396" stroke-width="0.701389" stroke-miterlimit="10"/>
<path d="M38.2467 213.531L36.1103 215.155L33.5867 215.941L31.1234 215.046L28.886 213.531L31.0477 211.881L33.5867 211.129L36.1636 211.811L38.2467 213.531Z" stroke="#392396" stroke-width="0.701389" stroke-miterlimit="10"/>
<path d="M263.336 207.382L259.981 207.373L256.6 207.474L253.218 207.44L249.836 207.462L246.455 207.301L243.073 207.402L239.693 207.328L236.311 207.396L232.928 207.44L229.548 207.304L226.166 207.525L222.784 207.332L219.403 207.417L216.021 207.371L212.639 207.43L209.257 207.472L205.876 207.454L202.494 207.415L199.112 207.417L195.731 207.444L192.349 207.528L188.967 207.427L185.585 207.485L182.203 207.399L178.822 207.286L175.44 207.49L172.059 207.352L168.677 207.356L165.296 207.321L161.914 207.475L158.534 207.319L155.151 207.524L151.771 207.274L148.389 207.436L145.007 207.392L141.626 207.507L138.244 207.294L134.862 207.461L131.48 207.302L128.097 207.427L124.717 207.447L121.335 207.333L117.953 207.471L114.57 207.441L111.188 207.429L107.806 207.276L104.424 207.41L101.042 207.316L97.66 207.325L94.2779 207.309L90.8958 207.441L87.5137 207.284L84.1316 207.288L80.7481 207.402L77.366 207.451L73.9839 207.352L70.6004 207.447L67.2183 207.274L63.8011 207.443L63.8124 204.028L63.9526 200.646L63.7478 197.266L63.9302 193.885L63.8306 190.503L63.9554 187.122L63.8306 183.74L63.9737 180.359L63.9498 176.979L63.7717 173.596L63.8699 170.216L63.6987 166.835L63.8993 163.454L63.8278 160.074L63.7913 156.693L63.731 153.311L63.9442 149.93L63.8194 146.55L63.8951 143.169L63.818 139.787L63.8881 136.406L63.7703 133.025L63.7534 129.643L63.8657 126.263L63.8138 122.88L63.86 119.5L63.912 116.119L63.9484 112.737L63.7576 109.356L63.9554 105.974L63.912 102.592L63.8586 99.2114L63.9176 95.8293L63.8572 92.4472L63.7324 89.0665L63.9751 85.6844L63.717 82.3037L63.7927 78.9216L63.8488 75.5395L63.839 72.1574L63.825 68.7753L63.9344 65.3946L63.717 62.0125L63.86 58.629L63.853 55.2637L67.2155 55.2553L70.5976 55.3844L73.9797 55.1277L77.3604 55.2287L80.7425 55.1585L84.1246 55.1571L87.5053 55.1529L90.8874 55.296L94.2681 55.1698L97.6502 55.1122L101.032 55.369L104.414 55.3816L107.795 55.1866L111.177 55.383L114.558 55.1165L117.94 55.1908L121.322 55.2581L124.704 55.3577L128.086 55.2146L131.467 55.3199L134.849 55.1936L138.231 55.1347L141.612 55.2287L144.994 55.1754L148.376 55.1992L151.757 55.2441L155.139 55.3591L158.52 55.1852L161.902 55.1684L165.282 55.2862L168.664 55.2413L172.046 55.1838L175.427 55.2581L178.809 55.369L182.191 55.2525L185.572 55.3213L188.954 55.1179L192.336 55.1193L195.718 55.1136L199.099 55.3002L202.481 55.2104L205.863 55.2722L209.245 55.1431L212.627 55.2132L216.01 55.3788L219.392 55.1866L222.774 55.202L226.156 55.1754L229.538 55.1978L232.92 55.2441L236.302 55.2806L239.684 55.3451L243.066 55.2118L246.448 55.2287L249.832 55.3142L253.214 55.2273L256.596 55.1571L259.98 55.1207L263.283 55.3269L263.386 58.6276L263.308 62.0083L263.329 65.3904L263.494 68.7711L263.463 72.1518L263.29 75.5339L263.436 78.9146L263.272 82.2967L263.443 85.6774L263.47 89.0581L263.408 92.4402L263.262 95.8209L263.294 99.2016L263.329 102.582L263.478 105.963L263.241 109.344L263.226 112.724L263.421 116.106L263.457 119.487L263.249 122.868L263.373 126.25L263.322 129.631L263.348 133.011L263.464 136.393L263.446 139.774L263.296 143.156L263.269 146.537L263.226 149.918L263.451 153.3L263.383 156.682L263.279 160.062L263.435 163.445L263.352 166.827L263.425 170.207L263.317 173.589L263.488 176.972L263.324 180.352L263.328 183.734L263.271 187.115L263.411 190.497L263.303 193.879L263.432 197.261L263.387 200.643L263.231 204.026L263.336 207.382Z" fill="white"/>
<path d="M263.336 207.382L259.981 207.373L256.6 207.474L253.218 207.44L249.836 207.462L246.455 207.301L243.073 207.402L239.693 207.328L236.311 207.396L232.928 207.44L229.548 207.304L226.166 207.525L222.784 207.332L219.403 207.417L216.021 207.371L212.639 207.43L209.257 207.472L205.876 207.454L202.494 207.415L199.112 207.417L195.731 207.444L192.349 207.528L188.967 207.427L185.585 207.485L182.203 207.399L178.822 207.286L175.44 207.49L172.059 207.352L168.677 207.356L165.296 207.321L161.914 207.475L158.534 207.319L155.151 207.524L151.771 207.274L148.389 207.436L145.007 207.392L141.626 207.507L138.244 207.294L134.862 207.461L131.48 207.302L128.097 207.427L124.717 207.447L121.335 207.333L117.953 207.471L114.57 207.441L111.188 207.429L107.806 207.276L104.424 207.41L101.042 207.316L97.66 207.325L94.2779 207.309L90.8958 207.441L87.5137 207.284L84.1316 207.288L80.7481 207.402L77.366 207.451L73.9839 207.352L70.6004 207.447L67.2183 207.274L63.8011 207.443L63.8124 204.028L63.9526 200.646L63.7478 197.266L63.9302 193.885L63.8306 190.503L63.9554 187.122L63.8306 183.74L63.9737 180.359L63.9498 176.979L63.7717 173.596L63.8699 170.216L63.6987 166.835L63.8993 163.454L63.8278 160.074L63.7913 156.693L63.731 153.311L63.9442 149.93L63.8194 146.55L63.8951 143.169L63.818 139.787L63.8881 136.406L63.7703 133.025L63.7534 129.643L63.8657 126.263L63.8138 122.88L63.86 119.5L63.912 116.119L63.9484 112.737L63.7576 109.356L63.9554 105.974L63.912 102.592L63.8586 99.2114L63.9176 95.8293L63.8572 92.4472L63.7324 89.0665L63.9751 85.6844L63.717 82.3037L63.7927 78.9216L63.8488 75.5395L63.839 72.1574L63.825 68.7753L63.9344 65.3946L63.717 62.0125L63.86 58.629L63.853 55.2637L67.2155 55.2553L70.5976 55.3844L73.9797 55.1277L77.3604 55.2287L80.7425 55.1585L84.1246 55.1571L87.5053 55.1529L90.8874 55.296L94.2681 55.1698L97.6502 55.1122L101.032 55.369L104.414 55.3816L107.795 55.1866L111.177 55.383L114.558 55.1165L117.94 55.1908L121.322 55.2581L124.704 55.3577L128.086 55.2146L131.467 55.3199L134.849 55.1936L138.231 55.1347L141.612 55.2287L144.994 55.1754L148.376 55.1992L151.757 55.2441L155.139 55.3591L158.52 55.1852L161.902 55.1684L165.282 55.2862L168.664 55.2413L172.046 55.1838L175.427 55.2581L178.809 55.369L182.191 55.2525L185.572 55.3213L188.954 55.1179L192.336 55.1193L195.718 55.1136L199.099 55.3002L202.481 55.2104L205.863 55.2722L209.245 55.1431L212.627 55.2132L216.01 55.3788L219.392 55.1866L222.774 55.202L226.156 55.1754L229.538 55.1978L232.92 55.2441L236.302 55.2806L239.684 55.3451L243.066 55.2118L246.448 55.2287L249.832 55.3142L253.214 55.2273L256.596 55.1571L259.98 55.1207L263.283 55.3269L263.386 58.6276L263.308 62.0083L263.329 65.3904L263.494 68.7711L263.463 72.1518L263.29 75.5339L263.436 78.9146L263.272 82.2967L263.443 85.6774L263.47 89.0581L263.408 92.4402L263.262 95.8209L263.294 99.2016L263.329 102.582L263.478 105.963L263.241 109.344L263.226 112.724L263.421 116.106L263.457 119.487L263.25 122.868L263.373 126.25L263.322 129.631L263.348 133.011L263.464 136.393L263.446 139.774L263.296 143.156L263.269 146.537L263.226 149.918L263.451 153.3L263.383 156.682L263.279 160.062L263.435 163.445L263.352 166.827L263.425 170.207L263.317 173.589L263.488 176.972L263.324 180.352L263.328 183.734L263.271 187.115L263.411 190.497L263.303 193.879L263.432 197.261L263.387 200.643L263.231 204.026L263.336 207.382Z" stroke="#392396" stroke-width="0.701389" stroke-miterlimit="10"/>
<path d="M63.8333 194.234L66.6416 192.373L69.4065 190.45L72.1966 188.561L74.9208 186.574L77.7937 184.812L80.6526 183.029L83.5044 181.235L86.31 179.368L89.1913 177.621L92.0417 175.82L95.0086 174.219L97.8506 172.401L100.794 170.76L103.803 169.234L106.743 167.591L109.704 165.985L112.678 164.403L115.66 162.837L118.622 161.228L121.609 159.67L124.642 158.2L127.702 156.786L130.669 155.18L133.724 153.76L136.845 152.479L139.886 151.027L143.016 149.773L146.085 148.38L149.156 146.99L152.292 145.756L155.364 144.364L158.57 143.306L161.629 141.877L164.863 140.898L167.95 139.533L171.175 138.541L174.372 137.478L177.512 136.245L180.753 135.315L183.929 134.181L187.195 133.338L190.396 132.282L193.596 131.209L196.901 130.513L200.103 129.444L203.379 128.645L206.664 127.89L209.986 127.295L213.268 126.535L216.548 125.758L219.856 125.108L223.189 124.606L226.476 123.83L229.817 123.384L233.133 122.763L236.482 122.363L239.843 122.08L243.194 121.725L246.541 121.333L249.905 121.123L253.262 120.816L256.624 120.583L259.995 120.511L263.363 120.378" stroke="#392396" stroke-width="0.701389" stroke-miterlimit="10"/>
<path d="M162.583 55.2189L164.327 58.0904L165.743 61.1386L167.239 64.1377L168.691 67.1607L170.234 70.1472L171.56 73.2319L172.686 76.3966L173.853 79.5416L175.115 82.6502L176.37 85.763L177.478 88.9304L178.589 92.0965L179.498 95.3299L180.554 98.5142L181.438 101.752L182.42 104.959L183.545 108.125L184.446 111.358L185.296 114.604L186.037 117.878L187.031 121.088L187.828 124.348L188.563 127.622L189.263 130.903L190.078 134.157L190.769 137.441L191.548 140.706L192.054 144.026L192.794 147.3L193.393 150.602L194.16 153.872L194.645 157.194L195.351 160.476L195.79 163.807L196.301 167.121L197.012 170.407L197.465 173.733L197.845 177.067L198.366 180.382L198.831 183.705L199.381 187.017L199.918 190.332L200.147 193.686L200.733 196.995L201.112 200.329L201.365 203.679L201.854 207.002" stroke="#392396" stroke-width="0.701389" stroke-miterlimit="10"/>
<path d="M182.425 160.91L182.256 157.501L180.71 154.44L178.026 152.297L174.712 151.386L171.285 151.246L167.846 151.702L166.403 154.787L165.11 157.894L164.31 161.167L163.785 164.49L163.388 167.833L163.119 171.191L162.735 174.43L161.885 177.587L160.587 180.615L158.522 183.183L156.607 185.858L154.802 188.494L156.795 190.262L159.671 190.953L162.617 191.41L162.423 194.78L162.22 198.13L162.301 201.485L162.538 204.843L163.344 208.118L164.742 211.188L167.301 213.313L170.507 214.203L173.744 214.734L175.398 217.527L175.635 220.849L174.893 224.116L174.024 227.352L172.846 230.492L171.449 233.453L174.512 234.602L177.608 235.758L180.735 236.827L183.804 238.057L186.902 239.209L190.071 240.16L193.202 241.22L196.272 242.537L199.66 241.206L203.052 239.962L206.424 238.669L209.815 237.422L213.215 236.203L216.471 234.721L214.067 232.478L212.169 229.647L210.52 226.668L209.35 223.461L208.782 220.093L208.704 216.687L209.036 213.301L209.826 209.994L210.864 206.361" fill="white"/>
<path d="M182.425 160.91L182.256 157.501L180.71 154.44L178.026 152.297L174.712 151.386L171.285 151.246L167.846 151.702L166.403 154.787L165.11 157.894L164.31 161.167L163.785 164.49L163.388 167.833L163.119 171.191L162.735 174.43L161.885 177.587L160.587 180.615L158.522 183.183L156.607 185.858L154.802 188.494L156.795 190.262L159.671 190.953L162.617 191.41L162.423 194.78L162.22 198.13L162.301 201.485L162.538 204.843L163.344 208.118L164.742 211.188L167.301 213.313L170.507 214.203L173.744 214.734L175.398 217.527L175.635 220.849L174.893 224.116L174.024 227.352L172.846 230.492L171.449 233.453L174.512 234.602L177.608 235.758L180.735 236.827L183.804 238.057L186.902 239.209L190.071 240.16L193.202 241.22L196.272 242.537L199.66 241.206L203.052 239.962L206.424 238.669L209.815 237.422L213.215 236.203L216.471 234.721L214.067 232.478L212.169 229.647L210.52 226.668L209.35 223.461L208.782 220.093L208.704 216.687L209.036 213.301L209.826 209.994L210.864 206.361" stroke="#392396" stroke-width="0.701389" stroke-miterlimit="10"/>
<path d="M190.423 140.072L187.098 140.121L183.837 140.776L180.644 141.696L177.567 142.956L174.735 144.685L172.074 146.656L169.901 149.152L167.842 151.811L171.321 152.903L173.735 155.547L175.435 158.702L176.971 161.937L179.212 164.738L182.215 166.765L181.861 169.854L181.356 172.866L181.122 175.912L180.943 178.853L183.339 176.681L186.258 175.102L189.508 174.416L192.398 176.172L193.795 179.41L193.475 182.865L191.964 185.952L190.009 188.775L187.698 191.336L185.314 193.733L186.559 196.883L188.498 199.775L190.982 202.212L193.871 204.139L197.048 205.529L200.401 206.434L203.863 206.624L207.325 206.617L210.784 206.33L211.912 203.265L213.312 200.314L214.778 197.39L216.632 194.692L218.024 191.715L219.656 188.883L221.027 185.912L222.072 182.81L222.915 179.648L223.64 176.461L224.359 173.086L224.744 169.649L224.409 166.208L224.155 162.785L223.492 159.403L222.146 156.233L220.616 153.144L218.592 150.348L216.134 147.919L213.488 145.69L210.471 143.992L207.367 142.484L204.097 141.359L200.715 140.662L197.323 140.004L193.868 139.906L190.423 140.072Z" fill="#392396"/>
<path d="M190.423 140.072L187.098 140.121L183.837 140.776L180.644 141.696L177.567 142.956L174.735 144.685L172.074 146.656L169.901 149.152L167.842 151.811L171.321 152.903L173.735 155.547L175.435 158.702L176.971 161.937L179.212 164.738L182.215 166.765L181.861 169.854L181.356 172.866L181.122 175.912L180.943 178.853L183.339 176.681L186.258 175.102L189.508 174.416L192.398 176.172L193.795 179.41L193.475 182.865L191.964 185.952L190.009 188.775L187.698 191.336L185.314 193.733L186.559 196.883L188.498 199.775L190.982 202.212L193.871 204.139L197.048 205.529L200.401 206.434L203.863 206.624L207.325 206.617L210.784 206.33L211.912 203.265L213.312 200.314L214.778 197.39L216.632 194.692L218.024 191.715L219.656 188.883L221.027 185.912L222.072 182.81L222.915 179.648L223.64 176.461L224.359 173.086L224.744 169.649L224.409 166.208L224.155 162.785L223.492 159.403L222.146 156.233L220.616 153.144L218.592 150.348L216.134 147.919L213.488 145.69L210.471 143.992L207.367 142.484L204.097 141.359L200.715 140.662L197.323 140.004L193.868 139.906L190.423 140.072Z" stroke="#392396" stroke-width="0.701389" stroke-miterlimit="10"/>
<path d="M63.7913 90.4441L66.5996 92.3505L69.1597 94.5781L71.853 96.6416L74.3556 98.9323L76.91 101.161L79.435 103.425L81.758 105.903L84.3041 108.147L86.6607 110.587L88.9403 113.098L91.1917 115.632L93.641 117.986L95.7507 120.646L98.085 123.111L100.202 125.759L102.268 128.447L104.4 131.083L106.461 133.774L108.513 136.475L110.504 139.221L112.353 142.065L114.293 144.847L115.941 147.816L117.78 150.664L119.613 153.52L121.058 156.598L122.744 159.538L124.259 162.571L125.92 165.531L127.288 168.635L128.56 171.779L129.873 174.903L131.251 178.003L132.481 181.165L133.42 184.427L134.563 187.62L135.423 190.901L136.288 194.177L137.304 197.419L137.958 200.747L138.585 204.079L139.248 207.405" stroke="#392396" stroke-width="0.701389" stroke-miterlimit="10"/>
<path d="M71.0422 207.395L72.4871 204.376L73.831 201.317L75.1945 198.264L76.5369 195.196L78.2595 192.322L79.7563 189.33L81.4831 186.465L83.0725 183.522L84.6408 180.564L86.4181 177.729L88.2557 174.935L90.0246 172.095L91.9913 169.387L93.8374 166.599L95.7466 163.854L97.7118 161.151L99.6266 158.408L101.642 155.74L103.613 153.037L105.778 150.486L107.918 147.917L109.857 145.182L112.015 142.624L114.328 140.203L116.625 137.772L118.71 135.148L120.998 132.707L123.428 130.403L125.728 127.977L128.177 125.697L130.52 123.311L132.985 121.051L135.357 118.692L137.764 116.366L140.425 114.328L142.88 112.054L145.399 109.854L148.011 107.763L150.7 105.772L153.187 103.522L155.847 101.492L158.58 99.5605L161.272 97.5742L164.055 95.7169L166.814 93.8288L169.586 91.9575L172.386 90.1296L175.277 88.4435L178.118 86.6816L180.894 84.8103L183.81 83.1704L186.686 81.4591L189.709 80.0156L192.554 78.2425L195.551 76.7555L198.522 75.2181L201.506 73.7045L204.525 72.2596L207.653 71.0575L210.672 69.6154L213.696 68.1804L216.785 66.8954L219.892 65.6554L222.998 64.4055L226.152 63.2861L229.318 62.2059L232.446 61.015L235.623 59.9671L238.868 59.1282L242.023 58.0116L245.2 56.9553L248.425 56.0632L251.667 55.2327" stroke="#392396" stroke-width="0.701389" stroke-miterlimit="10"/>
<path d="M147.094 149.923L143.738 150.052L140.38 149.815L137.022 150.057L133.664 149.925L130.304 150.034L126.947 149.94L123.587 149.967L120.229 149.947L116.871 149.824L113.513 149.989L110.153 150.059L106.795 149.974L103.437 149.852L100.077 149.817L96.7186 150.009L93.3604 150.035L90.0007 149.913L86.6411 150.02L83.2828 150.065L79.9232 149.939L76.5649 149.993L73.2053 149.922L69.847 150.02L66.4888 149.85L63.1291 150.055L59.7709 149.986L56.4112 150.064L53.0516 149.85L49.6919 149.911L46.3323 149.826L42.9726 149.961L39.5512 149.989L39.6382 146.62L39.6144 143.313L39.6817 140.008L39.5877 136.701L39.6901 133.394L39.6873 130.088L39.5583 126.783L39.5821 123.475L39.7266 120.169L39.5386 116.863L39.5148 113.556L39.655 110.25L39.7013 106.944L39.6144 103.636L39.5569 100.329L39.6859 97.0231L39.5526 93.7167L39.5456 90.4104L39.7112 87.104L39.512 83.7963L39.7308 80.4899L39.5316 77.1822L39.7238 73.8758L39.6003 70.5681L39.6242 67.2716L42.9712 67.3613L46.3295 67.2449L49.6877 67.2772L53.046 67.1313L56.4042 67.3375L59.7625 67.1495L63.1221 67.1874L66.4804 67.3852L69.8386 67.2323L73.1969 67.3151L76.5565 67.2996L79.9148 67.1607L83.273 67.1369L86.6313 67.2674L89.9909 67.3165L93.3492 67.3305L96.7088 67.179L100.067 67.2856L103.427 67.2646L106.785 67.2169L110.145 67.266L113.503 67.2141L116.863 67.3445L120.221 67.395L123.58 67.374L126.939 67.1972L130.298 67.266L133.658 67.3852L137.018 67.1607L140.377 67.165L143.737 67.3543L147.045 67.3136L147.226 70.5667L146.994 73.8716L147.147 77.178L147.141 80.4857L146.993 83.7921L147.005 87.097L147.024 90.4034V93.7097L147.198 97.0161L147.205 100.324L147.125 103.63L147.021 106.937L147.165 110.243L146.962 113.551L146.986 116.857L147.156 120.163L147.192 123.47L146.958 126.776L146.965 130.082L147.234 133.39L147.062 136.696L147.073 140.004L146.963 143.311L147.095 146.618L147.094 149.923Z" fill="#392396"/>
<path d="M147.094 149.923L143.738 150.052L140.38 149.815L137.022 150.057L133.664 149.925L130.304 150.034L126.947 149.94L123.587 149.967L120.229 149.947L116.871 149.824L113.513 149.989L110.153 150.059L106.795 149.974L103.437 149.852L100.077 149.817L96.7186 150.009L93.3604 150.035L90.0007 149.913L86.6411 150.02L83.2828 150.065L79.9232 149.939L76.5649 149.993L73.2053 149.922L69.847 150.02L66.4888 149.85L63.1291 150.055L59.7709 149.986L56.4112 150.064L53.0516 149.85L49.6919 149.911L46.3323 149.826L42.9726 149.961L39.5512 149.989L39.6382 146.62L39.6144 143.313L39.6817 140.008L39.5877 136.701L39.6901 133.394L39.6873 130.088L39.5583 126.783L39.5821 123.475L39.7266 120.169L39.5386 116.863L39.5148 113.556L39.655 110.25L39.7013 106.944L39.6144 103.636L39.5569 100.329L39.6859 97.0231L39.5526 93.7167L39.5456 90.4104L39.7112 87.104L39.512 83.7963L39.7308 80.4899L39.5316 77.1822L39.7238 73.8758L39.6003 70.5681L39.6242 67.2716L42.9712 67.3613L46.3295 67.2449L49.6877 67.2772L53.046 67.1313L56.4042 67.3375L59.7625 67.1495L63.1221 67.1874L66.4804 67.3852L69.8386 67.2323L73.1969 67.3151L76.5565 67.2996L79.9148 67.1607L83.273 67.1369L86.6313 67.2674L89.9909 67.3165L93.3492 67.3305L96.7088 67.179L100.067 67.2856L103.427 67.2646L106.785 67.2169L110.145 67.266L113.503 67.2141L116.863 67.3445L120.221 67.395L123.58 67.374L126.939 67.1972L130.298 67.266L133.658 67.3852L137.018 67.1607L140.377 67.165L143.737 67.3543L147.045 67.3136L147.226 70.5667L146.994 73.8716L147.147 77.178L147.141 80.4857L146.993 83.7921L147.005 87.097L147.024 90.4034V93.7097L147.198 97.0161L147.205 100.324L147.125 103.63L147.021 106.937L147.165 110.243L146.962 113.551L146.986 116.857L147.156 120.163L147.192 123.47L146.958 126.776L146.965 130.082L147.234 133.39L147.062 136.696L147.073 140.004L146.963 143.311L147.095 146.618L147.094 149.923Z" stroke="#392396" stroke-width="0.701389" stroke-miterlimit="10"/>
<path d="M128.284 72.5797L130.707 75.1384L133.318 77.5119L135.806 80.006L138.268 82.5282L140.654 85.1262" stroke="white" stroke-width="0.701389" stroke-miterlimit="10"/>
<path d="M128.198 84.9747L130.676 82.4721L133.232 80.0453L135.69 77.5203L138.22 75.0654L140.717 72.5797" stroke="white" stroke-width="0.701389" stroke-miterlimit="10"/>
<path d="M115.746 236.653C116.355 234.518 117.128 231.622 117.737 229.487C118.079 228.289 118.456 227.031 119.361 226.177C120.176 225.405 121.302 225.077 122.294 224.549C124.408 223.427 125.912 221.353 126.733 219.101C127.553 216.85 127.744 214.419 127.73 212.023C127.712 209.331 126.888 205.956 124.844 204.198C125.014 207.632 124.645 211.046 124.516 214.378C125.197 202.003 124.579 195.191 125.014 182.803C125.155 178.805 124.549 177.391 123.571 177.392C122.708 177.392 121.437 178.384 121.046 181.281C120.133 188.024 120.126 189.864 119.799 196.661C118.9 196.501 117.977 196.542 117.096 196.782C116.216 197.021 115.399 197.454 114.705 198.047C114.324 198.378 113.941 198.778 113.443 198.831C113.152 198.862 112.866 198.769 112.58 198.707C111.996 198.585 111.392 198.59 110.81 198.72C110.227 198.85 109.679 199.103 109.202 199.462C108.16 200.26 107.447 201.58 106.178 201.914C105.276 202.153 104.232 202.432 103.44 202.921C102.561 203.463 102.458 204.678 102.458 205.709C102.439 210.851 102.448 215.649 102.568 220.79C94.0521 235.57 85.5359 250.753 77.021 265.539C77.021 265.539 103.653 242.599 115.756 236.658" fill="white"/>
<path d="M115.746 236.653C116.355 234.518 117.128 231.622 117.737 229.487C118.079 228.289 118.456 227.031 119.361 226.177C120.176 225.405 121.302 225.077 122.294 224.549C124.408 223.427 125.912 221.353 126.733 219.101C127.553 216.85 127.744 214.419 127.73 212.023C127.712 209.331 126.888 205.956 124.844 204.198C125.014 207.632 124.645 211.046 124.516 214.378C125.197 202.003 124.579 195.191 125.014 182.803C125.155 178.805 124.548 177.391 123.571 177.392C122.708 177.392 121.437 178.384 121.046 181.281C120.133 188.024 120.126 189.864 119.799 196.661C118.9 196.501 117.977 196.542 117.096 196.782C116.216 197.021 115.399 197.454 114.705 198.047C114.324 198.378 113.941 198.778 113.443 198.831C113.152 198.862 112.866 198.769 112.58 198.707C111.996 198.585 111.392 198.59 110.81 198.72C110.227 198.85 109.679 199.103 109.202 199.462C108.16 200.26 107.447 201.58 106.178 201.914C105.276 202.153 104.232 202.432 103.44 202.921C102.561 203.463 102.458 204.678 102.458 205.709C102.439 210.851 102.448 215.649 102.568 220.79C94.0521 235.57 85.5359 250.753 77.021 265.539C77.021 265.539 103.653 242.599 115.756 236.658" stroke="#392396" stroke-width="0.701389" stroke-miterlimit="10"/>
<path d="M277.639 277.572L277.67 274.216L277.731 270.792L277.388 267.376L277.294 263.955L277.119 260.538L276.847 257.128L276.36 253.741L275.907 250.351L275.148 247.018L274.327 243.688L272.901 240.566L270.995 237.734L268.768 235.166L266.142 232.972L263.048 231.51L259.847 230.321L256.543 229.447L253.15 228.814L249.735 228.327L246.297 227.94L242.838 227.951L239.39 228.229L235.953 228.609L232.557 229.264L229.157 229.918L225.836 230.896L222.515 231.859L219.226 232.933L215.825 233.613L212.504 234.571L209.117 235.254L205.749 236.044L202.306 236.374L198.868 236.748L195.407 236.842L192.087 236.64L188.799 236.156L185.492 235.777L182.258 234.99L179.162 233.762L176.022 232.677L172.895 231.552L169.741 230.514L166.579 229.497L163.299 228.968L160.015 228.491L156.7 228.237L153.373 228.235L150.053 228.463L146.773 229.043L143.451 229.302L140.251 230.172L137.047 230.976L133.884 231.938L130.802 233.137L127.753 234.415L124.737 235.776L121.825 237.346L118.876 238.848L116.094 240.645L113.183 242.222L110.4 244.01L107.694 245.914L104.99 247.816L102.291 249.725L99.6143 251.668L97.0178 253.718L94.3918 255.726L91.7812 257.756L89.2646 259.902L86.6569 261.938L84.2553 264.217L81.6714 266.286L79.2025 268.486L76.7603 270.715L74.4162 273.049L72.1031 275.413L69.6594 277.753L73.0135 277.757L76.3689 277.525L79.723 277.523L83.0784 277.69L86.4324 277.712L89.7879 277.741L93.1419 277.576L96.496 277.528L99.8514 277.702L103.205 277.711L106.561 277.66L109.915 277.598L113.27 277.69L116.624 277.741L119.98 277.577L123.334 277.708L126.689 277.73L130.043 277.566L133.399 277.729L136.753 277.737L140.108 277.548L143.462 277.754L146.818 277.617L150.172 277.537L153.527 277.532L156.881 277.545L160.237 277.736L163.592 277.732L166.946 277.754L170.3 277.655L173.654 277.767L177.008 277.64L180.364 277.691L183.718 277.725L187.073 277.572L190.427 277.527L193.783 277.749L197.137 277.559L200.492 277.562L203.846 277.727L207.202 277.669H210.557L213.911 277.635L217.267 277.678L220.621 277.712L223.976 277.618L227.332 277.718L230.687 277.768L234.043 277.688L237.397 277.535L240.752 277.713L244.107 277.772L247.463 277.76L250.817 277.612L254.172 277.607L257.528 277.597L260.883 277.779L264.239 277.593L267.594 277.539L270.951 277.761L274.306 277.677L277.639 277.572Z" fill="#D5B5FF"/>
<path d="M274.876 274.988L274.859 271.691L274.932 268.267L274.878 264.844L274.546 261.431L274.312 258.018L274.145 254.598L273.641 251.214L273.058 247.847L272.449 244.482L271.404 241.227L270.131 238.055L268.273 235.194L266.125 232.533L263.289 230.624L260.305 228.982L257.08 227.873L253.835 226.773L250.432 226.144L247.012 225.595L243.552 225.494L240.098 225.545L236.643 225.659L233.215 226.119L229.799 226.672L226.448 227.529L223.075 228.305L219.747 229.246L216.46 230.329L213.124 231.244L209.743 231.977L206.415 232.928L203.014 233.579L199.568 233.893L196.12 234.102L192.666 234.233L189.343 234.136L186.052 233.655L182.757 233.214L179.527 232.419L176.412 231.253L173.225 230.292L170.198 228.905L166.996 227.995L163.853 226.899L160.569 226.358L157.275 225.928L153.958 225.684L150.634 225.851L147.318 226.042L144.034 226.554L140.717 226.836L137.514 227.672L134.316 228.49L131.112 229.332L128.074 230.65L125.001 231.872L122.014 233.293L119.131 234.916L116.24 236.515L113.312 238.054L110.462 239.73L107.663 241.495L104.992 243.449L102.209 245.238L99.5285 247.175L96.894 249.172L94.2288 251.132L91.6519 253.205L88.988 255.168L86.397 257.227L83.8763 259.369L81.4817 261.657L78.9525 263.788L76.4107 265.908L74.1241 268.308L71.7114 270.566L69.1962 272.72L66.8928 275.186L70.2707 274.985L73.6262 275.216L76.9802 275.064L80.3342 275.069L83.6897 275.218L87.0437 275.205L90.3992 275.188L93.7532 275.187L97.1073 275.014L100.463 275.007L103.817 275.086L107.172 275.19L110.526 275.045L113.882 275.25L117.236 275.225L120.591 275.057L123.945 275.019L127.301 275.254L130.655 275.247L134.01 274.977L137.364 275.151L140.72 275.139L144.074 275.247L147.429 275.115L150.785 275.037L154.139 275.007L157.494 275.041L160.848 275.218L164.202 275.125L167.558 275.057L170.912 275.149L174.266 275.057L177.621 275.208L180.975 274.985L184.331 274.979L187.685 275.141L191.039 275.151L194.394 275.163L197.748 275.024L201.104 275.016L204.459 275.085L207.813 275.103L211.169 275.187L214.523 275.023L217.878 275.215L221.233 275.078L224.589 275.215L227.943 275.222L231.298 275.012L234.654 275.045L238.009 275.235L241.365 275.1L244.72 275.007L248.074 274.991L251.43 275.082L254.785 275.034L258.141 275.089L261.496 275.097L264.851 275.193L268.207 275.026L271.562 275.028L274.876 274.988Z" stroke="#392396" stroke-width="0.701389" stroke-miterlimit="10"/>
<path d="M135.192 108.545L132.782 110.996L130.275 113.353L127.617 115.538L124.968 117.738L122.203 119.793L119.224 121.528L116.33 123.398L113.297 125.042L110.117 126.376L106.899 127.613L103.573 128.518L100.19 129.147L96.7963 129.718L93.3553 129.971L89.9045 129.83L86.5042 129.245L83.1375 128.52L79.841 127.528L76.6356 126.275L73.4471 124.971L70.4101 123.343L67.3801 121.701L64.524 119.769L61.7746 117.694L58.9887 115.666L56.3907 113.402L53.8797 111.045L51.4543 108.599L53.8503 106.12L56.3641 103.763L59.035 101.588L61.6666 99.3586L64.5591 97.4789L67.4053 95.5389L70.3876 93.812L73.4415 92.2157L76.5949 90.8269L79.7933 89.5308L83.1277 88.64L86.4775 87.8025L89.9227 87.5683L93.3553 87.3817L96.8033 87.4013L100.223 87.8572L103.575 88.6723L106.917 89.528L110.062 90.9518L113.307 92.1343L116.312 93.8303L119.346 95.4729L122.185 97.4284L125.005 99.4119L127.707 101.55L130.25 103.874L132.89 106.091L135.192 108.545Z" fill="white"/>
<path d="M135.192 108.545L132.782 110.996L130.275 113.353L127.617 115.538L124.968 117.738L122.203 119.793L119.224 121.528L116.33 123.398L113.297 125.042L110.117 126.376L106.899 127.613L103.573 128.518L100.19 129.147L96.7963 129.718L93.3553 129.971L89.9045 129.83L86.5042 129.245L83.1375 128.52L79.841 127.528L76.6356 126.275L73.4471 124.971L70.4101 123.343L67.3801 121.701L64.524 119.769L61.7746 117.694L58.9887 115.666L56.3907 113.402L53.8797 111.045L51.4543 108.599L53.8503 106.12L56.3641 103.763L59.035 101.588L61.6666 99.3586L64.5591 97.4789L67.4053 95.5389L70.3876 93.812L73.4415 92.2157L76.5949 90.8269L79.7933 89.5308L83.1277 88.64L86.4775 87.8025L89.9227 87.5683L93.3553 87.3817L96.8033 87.4013L100.223 87.8572L103.575 88.6723L106.917 89.528L110.062 90.9518L113.307 92.1343L116.312 93.8303L119.346 95.4729L122.185 97.4284L125.005 99.4119L127.707 101.55L130.25 103.874L132.89 106.091L135.192 108.545Z" stroke="#392396" stroke-width="0.701389" stroke-miterlimit="10"/>
<path d="M113.865 105.514L113.621 108.833L112.514 111.961L111.332 115.059L109.345 117.718L106.966 120.012L104.34 122.037L101.274 123.298L98.0977 124.209L94.8012 124.363L91.5075 124.193L88.2614 123.482L85.3661 121.856L82.5185 120.152L80.3652 117.626L78.4757 114.939L76.8639 112.043L76.0517 108.82L75.7515 105.514L75.9591 102.333L76.8106 99.2605L78.1895 96.4016L79.964 93.7826L82.1075 91.4568L84.6437 89.5687L87.4422 88.1084L91.0698 87.5178L94.8012 87.7212L98.2324 87.6707L101.643 88.0453L104.734 89.4775L107.398 91.266L109.676 93.547L111.417 96.2613L112.774 99.1819L113.504 102.316L113.865 105.514Z" fill="#FFD803"/>
<path d="M112.417 104.708L112.174 108.025L111.068 111.153L109.885 114.251L107.9 116.912L105.52 119.204L102.894 121.231L99.8271 122.492L96.6512 123.402L93.3547 123.557L90.0609 123.387L86.8149 122.674L83.9196 121.05L81.0719 119.344L78.9187 116.819L77.0291 114.131L75.4173 111.236L74.6051 108.012L74.3049 104.708L74.5364 101.389L75.4566 98.193L76.9464 95.2332L78.8654 92.5482L81.1799 90.1972L83.9013 88.3329L86.8907 86.9483L90.0679 86.0716L93.3547 85.8444L96.6484 86.0267L99.8649 86.8207L102.787 88.3694L105.578 90.1383L107.979 92.436L109.825 95.1981L111.261 98.1902L112.041 101.412L112.417 104.708Z" stroke="#392396" stroke-width="0.701389" stroke-miterlimit="10"/>
<path d="M101.433 104.707L100.855 107.813L98.9263 110.279L96.3732 111.996L93.3545 112.865L90.2978 112.086L87.6999 110.361L86.0656 107.726L85.3362 104.707L85.8706 101.607L87.6073 98.9603L90.2557 97.2278L93.3545 96.7902L96.4209 97.305L99.0666 98.9939L100.733 101.651L101.433 104.707Z" fill="#392396"/>
<path d="M101.433 104.707L100.855 107.813L98.9263 110.279L96.3732 111.996L93.3545 112.865L90.2978 112.086L87.6999 110.361L86.0656 107.726L85.3362 104.707L85.8706 101.607L87.6073 98.9603L90.2557 97.2278L93.3545 96.7902L96.4209 97.305L99.0666 98.9939L100.733 101.651L101.433 104.707Z" stroke="#392396" stroke-width="0.701389" stroke-miterlimit="10"/>
<path d="M241.433 108.554L238.11 108.536L234.743 108.634L231.377 108.736L228.01 108.544L224.643 108.727L221.277 108.714L217.91 108.589L214.543 108.717L211.177 108.69L207.809 108.474L204.442 108.734L201.075 108.623L197.707 108.665L194.339 108.547L190.893 108.677L190.912 105.206L191.009 101.812L190.937 98.4175L190.848 95.0242L190.902 91.6294L190.832 88.2361L190.859 84.8428L190.843 81.4481L190.961 78.0548L191.047 74.66L191.029 71.2667L190.978 67.8734L190.88 64.4787L190.946 61.0854L190.977 57.6906L191.053 54.2959L190.994 50.9012L191.081 47.5079L190.914 44.1132L190.893 40.6385L194.339 40.6469L197.706 40.6202L201.073 40.6651L204.439 40.6834L207.806 40.7395L211.173 40.7128L214.539 40.8335L217.906 40.8264L221.273 40.7114L224.639 40.8391L228.007 40.6679L231.374 40.8559L234.742 40.818L238.109 40.7353L241.541 40.6539L241.529 44.1118L241.353 47.5051L241.421 50.8984L241.487 54.2917L241.517 57.6864L241.583 61.0798L241.362 64.4745L241.513 67.8678L241.611 71.2625L241.524 74.6558L241.362 78.0492L241.405 81.4439L241.617 84.8372L241.446 88.2305L241.56 91.6252L241.432 95.02L241.467 98.4147L241.366 101.808L241.464 105.204L241.433 108.554Z" fill="#FFD803"/>
<path d="M241.433 108.554L238.11 108.536L234.743 108.634L231.377 108.736L228.01 108.544L224.643 108.727L221.277 108.714L217.91 108.589L214.543 108.717L211.177 108.69L207.809 108.474L204.442 108.734L201.075 108.623L197.707 108.665L194.339 108.547L190.893 108.677L190.912 105.206L191.009 101.812L190.937 98.4175L190.848 95.0242L190.902 91.6294L190.832 88.2361L190.859 84.8428L190.843 81.4481L190.961 78.0548L191.047 74.66L191.029 71.2667L190.978 67.8734L190.88 64.4787L190.946 61.0854L190.977 57.6906L191.053 54.2959L190.994 50.9012L191.081 47.5079L190.914 44.1132L190.893 40.6385L194.339 40.6469L197.706 40.6202L201.073 40.6651L204.439 40.6834L207.806 40.7395L211.173 40.7128L214.539 40.8335L217.906 40.8264L221.273 40.7114L224.639 40.8391L228.007 40.6679L231.374 40.8559L234.742 40.818L238.109 40.7353L241.541 40.6539L241.529 44.1118L241.353 47.5051L241.421 50.8984L241.487 54.2917L241.517 57.6864L241.583 61.0798L241.362 64.4745L241.513 67.8678L241.611 71.2625L241.524 74.6558L241.362 78.0492L241.405 81.4439L241.617 84.8372L241.446 88.2305L241.56 91.6252L241.432 95.02L241.467 98.4147L241.366 101.808L241.464 105.204L241.433 108.554Z" stroke="#392396" stroke-width="0.701389" stroke-miterlimit="10"/>
<path d="M198.273 63.1305L201.499 63.1487L204.727 63.3704L207.955 63.3171L211.182 63.2076L214.41 63.1417L217.638 63.2189L220.866 63.1585L224.094 63.3886L227.323 63.2595L230.551 63.1782L233.78 63.1543" stroke="#392396" stroke-width="0.701389" stroke-miterlimit="10"/>
<path d="M198.273 56.0591L201.499 56.0787L204.727 56.299L207.955 56.2471L211.182 56.1376L214.41 56.0717L217.638 56.1475L220.866 56.0885L224.094 56.3172L227.323 56.1881L230.551 56.1082L233.78 56.0843" stroke="#392396" stroke-width="0.701389" stroke-miterlimit="10"/>
<path d="M198.273 48.9892L201.499 49.0088L204.727 49.2291L207.955 49.1758L211.182 49.0663L214.41 49.0004L217.638 49.0776L220.866 49.0187L224.094 49.2473L227.323 49.1182L230.551 49.0383L233.78 49.013" stroke="#392396" stroke-width="0.701389" stroke-miterlimit="10"/>
<path d="M198.273 70.2006L201.499 70.2202L204.727 70.4404L207.955 70.3871L211.182 70.2791L214.41 70.2132L217.638 70.2889L220.866 70.23L224.094 70.4587L227.323 70.3296L230.551 70.2497L233.78 70.2258" stroke="#392396" stroke-width="0.701389" stroke-miterlimit="10"/>
<path d="M198.273 77.2706L201.499 77.2903L204.727 77.5105L207.955 77.4586L211.182 77.3492L214.41 77.2833L217.638 77.359L220.866 77.3001L224.094 77.5287L227.323 77.3997L230.551 77.3197L233.78 77.2959" stroke="#392396" stroke-width="0.701389" stroke-miterlimit="10"/>
<path d="M198.273 84.3419L201.499 84.3615L204.727 84.5817L207.955 84.5284L211.182 84.419L214.41 84.3531L217.638 84.4302L220.866 84.3699L224.094 84.6L227.323 84.4709L230.551 84.3896L233.78 84.3657" stroke="#392396" stroke-width="0.701389" stroke-miterlimit="10"/>
<path d="M198.273 91.412L201.499 91.4316L204.727 91.6519L207.955 91.5986L211.182 91.4905L214.41 91.4246L217.638 91.5004L220.866 91.4414L224.094 91.6701L227.323 91.541L230.551 91.4611L233.78 91.4372" stroke="#392396" stroke-width="0.701389" stroke-miterlimit="10"/>
<path d="M198.273 98.4833L201.666 98.5016L205.061 98.7218L208.455 98.6699L211.85 98.5605L215.245 98.4946L218.64 98.5717L222.036 98.5114" stroke="#392396" stroke-width="0.701389" stroke-miterlimit="10"/>
<path d="M167.008 213.274C167.008 213.274 176.14 216.022 182.138 203.549L167.008 213.274Z" fill="white"/>
<path d="M167.008 213.274C167.008 213.274 176.14 216.022 182.138 203.549" stroke="#392396" stroke-width="0.701389" stroke-miterlimit="10"/>
<path d="M183.159 182.803C183.159 182.803 184.422 176.911 188.953 177.665C192.065 178.184 189.681 188.554 182.668 191.921C179.151 193.604 179.338 189.107 183.089 187.432C185.55 186.334 185.033 183.949 182.149 184.872" fill="white"/>
<path d="M183.159 182.803C183.159 182.803 184.422 176.911 188.953 177.665C192.065 178.184 189.681 188.554 182.668 191.921C179.151 193.604 179.338 189.107 183.089 187.432C185.55 186.334 185.033 183.949 182.149 184.872" stroke="#392396" stroke-width="0.701389" stroke-miterlimit="10"/>
<path d="M165.285 176.391C165.803 172.421 165.137 169.062 163.797 168.887C162.458 168.712 160.951 171.788 160.433 175.757C159.915 179.727 160.58 183.086 161.92 183.261C163.26 183.436 164.766 180.36 165.285 176.391Z" fill="#392396" stroke="#392396" stroke-width="0.701389" stroke-miterlimit="10"/>
<path d="M164.759 173.365L182.563 177.393" stroke="#392396" stroke-width="0.701389" stroke-miterlimit="10"/>
</svg>
