<svg width="38" height="38" viewBox="0 0 38 38" fill="none" xmlns="http://www.w3.org/2000/svg">
<path d="M18.5787 37.1587C8.35706 37.1587 0.0787354 28.8804 0.0787354 18.6602C0.0787354 8.43851 8.35706 0.158691 18.5787 0.158691C28.7989 0.158691 37.0787 8.43851 37.0787 18.6594C37.0787 28.8804 28.7989 37.1587 18.5787 37.1587Z" fill="#C1C1C0"/>
<path d="M24.7925 18.392C24.7735 18.0834 24.7366 17.7762 24.6819 17.4719C24.7225 17.4431 24.7596 17.4098 24.7925 17.3725C24.7557 17.3958 24.7145 17.4113 24.6715 17.4181C24.6043 17.1178 24.5154 16.8288 24.416 16.5413C24.4377 16.5062 24.4833 16.474 24.5034 16.4307C24.4734 16.4624 24.4351 16.4852 24.3929 16.4964C24.2934 16.2066 24.1638 15.9279 24.006 15.6652C24.0262 15.6301 24.0598 15.5868 24.0822 15.5412C24.0486 15.5748 24.018 15.5868 23.9829 15.6196C23.8303 15.3536 23.6596 15.0983 23.472 14.8556C23.4839 14.8205 23.5071 14.7757 23.5273 14.7211C23.4937 14.7652 23.4615 14.7869 23.4279 14.8205C23.2405 14.5806 23.032 14.3579 22.805 14.155C22.805 14.0982 22.8282 14.0542 22.8401 14.0094C22.8194 14.0477 22.7924 14.0822 22.7602 14.1117C22.5353 13.9081 22.2948 13.7223 22.041 13.556C22.041 13.512 22.0515 13.4567 22.0515 13.4119C22.0397 13.4487 22.021 13.483 21.9962 13.5127C21.7375 13.3546 21.4707 13.21 21.197 13.0795C21.1851 13.034 21.1851 12.9802 21.1851 12.9354C21.1773 12.9781 21.1629 13.0195 21.1425 13.0579C20.8639 12.9354 20.5749 12.8345 20.2873 12.7352C20.2754 12.7016 20.2642 12.6478 20.2522 12.6023C20.2418 12.6478 20.2418 12.6896 20.2321 12.7247C19.9365 12.6472 19.6357 12.591 19.3321 12.5567C19.3104 12.5111 19.3 12.479 19.2768 12.4238V12.5567C19.0684 12.5231 18.8451 12.5231 18.6218 12.5231H18.3664C18.3447 12.4925 18.3111 12.4469 18.2902 12.4021C18.3007 12.4477 18.3007 12.4925 18.3104 12.5231C17.9997 12.5462 17.7009 12.5687 17.4014 12.6471C17.3678 12.6015 17.3342 12.5687 17.3126 12.5231C17.3245 12.5687 17.3342 12.612 17.3447 12.6471C17.0459 12.7113 16.7449 12.8017 16.4678 12.901C16.4239 12.8773 16.3865 12.8432 16.3588 12.8017C16.3805 12.8555 16.4029 12.8891 16.4126 12.9242C16.1253 13.0299 15.8472 13.1593 15.5813 13.311C15.5477 13.2909 15.5036 13.267 15.4588 13.2349C15.4924 13.2789 15.5156 13.3006 15.5365 13.3439C15.2704 13.4915 15.0179 13.6624 14.7822 13.8548C14.7381 13.8331 14.6933 13.8107 14.6477 13.7995C14.6839 13.8229 14.7147 13.8537 14.7381 13.8899C14.4998 14.0819 14.2772 14.2927 14.0726 14.5202C14.026 14.5001 13.9771 14.4858 13.927 14.4777C13.9725 14.4993 14.0054 14.5329 14.0375 14.5434C13.8336 14.7748 13.645 15.0193 13.4729 15.2753C13.4273 15.2753 13.3825 15.2649 13.3287 15.2649C13.3713 15.2865 13.4064 15.3089 13.4393 15.3201C13.2712 15.5741 13.1286 15.8422 12.9956 16.1178C12.9501 16.1178 12.9053 16.1297 12.85 16.1297C12.9053 16.1529 12.9389 16.1529 12.9725 16.1738C12.85 16.4555 12.7462 16.7449 12.6618 17.0402C12.6162 17.0506 12.5744 17.0618 12.5288 17.0738C12.5744 17.0738 12.6065 17.0738 12.6513 17.0857C12.5737 17.3733 12.5169 17.684 12.4833 17.9827C12.4377 18.0163 12.3959 18.0283 12.3391 18.0514C12.3831 18.0393 12.4296 18.0393 12.4736 18.0514C12.4504 18.2685 12.4387 18.4866 12.4385 18.7049V18.9604C12.4078 18.9835 12.3623 19.0044 12.319 19.0261C12.363 19.0261 12.4078 19.0171 12.4519 19.0171C12.4624 19.3144 12.5072 19.6266 12.5624 19.9141C12.5288 19.9477 12.484 19.9813 12.4519 20.0135C12.4941 20.0036 12.5352 19.9894 12.5744 19.9709C12.6282 20.2816 12.7171 20.5818 12.8298 20.8582C12.7947 20.8918 12.7611 20.9254 12.7305 20.9687C12.7731 20.9336 12.8067 20.9246 12.8395 20.9149C12.9501 21.1905 13.083 21.4676 13.2391 21.7335C13.216 21.7671 13.1838 21.8239 13.1614 21.8575C13.195 21.8358 13.2272 21.8022 13.2608 21.7791C13.4154 22.036 13.5834 22.3011 13.7716 22.5334C13.7585 22.5833 13.74 22.6317 13.7164 22.6776C13.75 22.6335 13.7821 22.6103 13.8172 22.5782C14.0054 22.8232 14.2153 23.0331 14.4371 23.2549C14.4232 23.2984 14.4125 23.3428 14.405 23.3878C14.4214 23.3514 14.4436 23.3178 14.4707 23.2885C14.7045 23.4984 14.9495 23.6769 15.2026 23.8531C15.1922 23.8987 15.1922 23.9435 15.1922 23.9876C15.2026 23.9435 15.2258 23.9114 15.2475 23.877C15.5029 24.0436 15.7665 24.1758 16.0466 24.3207C16.0466 24.3774 16.0466 24.423 16.0586 24.4648C16.069 24.4222 16.0787 24.3774 16.1011 24.3438C16.3678 24.4648 16.6568 24.5776 16.957 24.6545C16.9675 24.7001 16.9772 24.7539 16.9907 24.7972C16.9907 24.7531 17.0011 24.6993 17.0123 24.6762C17.2999 24.7539 17.6001 24.7972 17.9108 24.8427C17.9213 24.8883 17.9444 24.9204 17.9661 24.9637C17.9556 24.9241 17.9556 24.8824 17.9661 24.8427C18.1759 24.8659 18.3978 24.8883 18.6196 24.8883C18.698 24.8883 18.7876 24.8763 18.875 24.8763C18.8982 24.9085 18.9318 24.954 18.9527 24.9988C18.9411 24.9554 18.9343 24.9108 18.9325 24.8659C19.2375 24.8543 19.5413 24.8206 19.8415 24.7651C19.8766 24.7972 19.9087 24.8203 19.9303 24.8659C19.921 24.828 19.9098 24.7906 19.8967 24.7539C20.197 24.6762 20.4845 24.5978 20.775 24.4872C20.8072 24.5223 20.8393 24.5544 20.8841 24.5776C20.859 24.5483 20.8406 24.5139 20.8303 24.4768C21.1179 24.3774 21.3845 24.2333 21.6504 24.0884C21.6944 24.1003 21.7288 24.131 21.7729 24.1661C21.7547 24.1242 21.728 24.0865 21.6944 24.0555C21.9624 23.9052 22.2184 23.7344 22.46 23.5447C22.5064 23.5582 22.551 23.5773 22.5929 23.6014C22.5608 23.5663 22.5272 23.5447 22.5055 23.4991C22.7393 23.3124 22.9604 23.1107 23.1725 22.8897C23.2166 22.8897 23.2599 22.9113 23.3054 22.9233C23.2718 22.8897 23.2382 22.8665 23.2061 22.8344C23.416 22.6245 23.593 22.3781 23.7707 22.1241C23.8163 22.1241 23.8701 22.1361 23.9149 22.1361C23.8693 22.1144 23.8387 22.0905 23.7939 22.0689C23.9717 21.8254 24.1151 21.5483 24.2375 21.2697H24.3817C24.3361 21.2578 24.304 21.2376 24.2592 21.2159C24.3921 20.9478 24.4937 20.6603 24.5699 20.3712C24.6155 20.3481 24.6707 20.3376 24.714 20.3272C24.67 20.3152 24.6267 20.3152 24.5931 20.304C24.6707 20.015 24.726 19.7162 24.7596 19.4055C24.8052 19.3951 24.8485 19.3719 24.8925 19.36C24.8485 19.36 24.8052 19.36 24.7716 19.3495C24.7917 19.1396 24.8052 18.9163 24.8052 18.7064C24.8052 18.6176 24.8052 18.5302 24.7917 18.4398C24.8358 18.4181 24.8694 18.3942 24.9142 18.3636C24.8701 18.3711 24.8365 18.383 24.7925 18.392ZM22.6706 15.2716C21.849 15.3418 21.0678 15.5427 20.3486 15.8519C20.2507 15.7862 20.1574 15.7145 20.058 15.642C20.8368 15.3159 21.6645 15.1215 22.507 15.0669C22.5623 15.1342 22.6176 15.2059 22.6706 15.2716ZM22.2195 14.751C21.3105 14.7908 20.4157 14.9908 19.5763 15.3418C19.4605 15.2721 19.3427 15.2059 19.223 15.1431C20.102 14.7741 21.0405 14.5676 21.9932 14.5337C22.0724 14.6076 22.1478 14.6778 22.2195 14.751ZM19.7645 16.1409C19.642 16.1992 19.521 16.2754 19.4045 16.3508C19.3067 16.2746 19.2133 16.1992 19.1073 16.132C19.2246 16.0589 19.3452 15.9914 19.4688 15.9296C19.5689 15.9968 19.6652 16.0648 19.7645 16.1409ZM18.6226 13.2222C19.7294 13.2222 20.7526 13.5754 21.5764 14.1923C20.5597 14.2343 19.559 14.4597 18.6226 14.8578C17.6837 14.4607 16.6812 14.2353 15.6627 14.1923C16.5187 13.5578 17.5571 13.2174 18.6226 13.2222ZM18.6226 15.8168C18.5016 15.7481 18.3806 15.6868 18.2641 15.6181C18.3776 15.5494 18.5016 15.4912 18.6226 15.4224C18.7436 15.4912 18.8631 15.5494 18.9826 15.6181C18.8616 15.6876 18.7421 15.7488 18.6226 15.8168ZM18.9183 16.6735C18.8175 16.7519 18.7182 16.8251 18.6226 16.9013C18.5227 16.8257 18.4231 16.7498 18.3238 16.6735C18.4217 16.595 18.521 16.5174 18.6226 16.4486C18.7226 16.5174 18.822 16.5943 18.9183 16.6735ZM15.2452 14.5337C16.2281 14.5718 17.1617 14.7816 18.0243 15.1431C17.9026 15.2052 17.783 15.2715 17.6658 15.3418C16.8261 14.9901 15.9307 14.79 15.0211 14.751C15.0921 14.6778 15.1683 14.6076 15.2452 14.5337ZM18.1304 16.132C18.031 16.1992 17.9347 16.2746 17.8331 16.3508C17.7203 16.272 17.6017 16.2019 17.4784 16.1409C17.5747 16.0648 17.6755 15.9968 17.7719 15.9296C17.8959 15.9893 18.0124 16.0565 18.1304 16.132ZM14.7373 15.0669C15.5977 15.1222 16.4238 15.3239 17.1818 15.642C17.084 15.7152 16.9862 15.7862 16.8913 15.8519C16.1547 15.5346 15.3715 15.3386 14.5723 15.2716C14.6268 15.2059 14.6791 15.1342 14.7373 15.0669ZM13.5752 18.3263C13.5752 17.315 13.8672 16.3657 14.3699 15.5748C15.1059 15.6593 15.8244 15.857 16.5 16.1611C15.2807 17.1932 14.3721 18.5437 13.8754 20.062C13.676 19.5051 13.5744 18.9178 13.5752 18.3263ZM14.7523 21.5998C14.6086 21.4282 14.4771 21.2468 14.3587 21.0568C14.7333 19.2652 15.6906 17.648 17.081 16.4576C17.1975 16.5248 17.3148 16.6003 17.4313 16.6824C15.9749 17.9452 15.0236 19.6914 14.7523 21.5998ZM15.8509 22.5902C15.6946 22.4883 15.5445 22.3773 15.4013 22.2578C15.5208 20.2506 16.4245 18.3707 17.9175 17.0237C18.0169 17.0999 18.1132 17.1813 18.2133 17.2642C17.4838 17.9492 16.8989 18.7734 16.4932 19.6882C16.0875 20.6029 15.8691 21.5897 15.8509 22.5902ZM20.7056 22.9733C20.0515 23.2712 19.3412 23.4252 18.6226 23.4252C17.8757 23.4252 17.1714 23.2601 16.5336 22.9733C16.5336 22.8986 16.5291 22.8232 16.5291 22.747C16.5266 20.8353 17.279 18.9999 18.6226 17.6399C19.962 19.0021 20.7118 20.8366 20.7101 22.747C20.7101 22.8232 20.7101 22.8994 20.7056 22.9733ZM21.3882 22.5902C21.37 21.5904 21.1523 20.6044 20.7481 19.6899C20.3438 18.7753 19.7611 17.9507 19.0341 17.2642C19.126 17.1813 19.2268 17.0992 19.3261 17.0237C20.8185 18.3708 21.7212 20.2508 21.8393 22.2578C21.6974 22.3758 21.5458 22.4923 21.3882 22.5902ZM22.4876 21.5998C22.2169 19.6921 21.267 17.946 19.8123 16.6824C19.9244 16.601 20.0431 16.5248 20.1596 16.4576C21.5516 17.6468 22.5094 19.2645 22.8827 21.0568C22.7661 21.2483 22.634 21.4299 22.4876 21.5998ZM23.3674 20.062C22.8703 18.5428 21.96 17.1921 20.7384 16.1611C21.4152 15.8568 22.135 15.659 22.8723 15.5748C23.3929 16.398 23.6685 17.3523 23.6669 18.3263C23.6669 18.9177 23.5656 19.5048 23.3674 20.062Z" fill="#D51F3A"/>
<path d="M18.5787 0.158691C8.35706 0.158691 0.0787354 8.43851 0.0787354 18.6594C0.0787354 28.8796 8.35706 37.1579 18.5787 37.1579C28.7989 37.1579 37.0787 28.8796 37.0787 18.6594C37.0787 8.43851 28.7989 0.158691 18.5787 0.158691ZM29.8214 20.4796C28.6764 21.4117 26.8137 20.0479 25.3708 20.2697C25.3603 20.2816 25.3603 20.2914 25.3603 20.3018C26.7346 20.4796 27.8885 22.0988 29.4099 22.1996C28.135 22.9554 26.4806 21.3011 25.0145 21.3011C25.0145 21.3131 25.0145 21.3347 25.0041 21.3347C26.3581 21.7126 27.2327 23.4977 28.7212 23.8524C27.3358 24.3976 25.9683 22.4901 24.5156 22.2773C24.5037 22.2773 24.5037 22.2892 24.5037 22.3004C25.7801 22.8651 26.3813 24.7965 27.7899 25.3641C26.3357 25.6867 25.2707 23.5768 23.8703 23.1437C23.8703 23.1541 23.8599 23.1541 23.8502 23.1653C25.0481 23.9211 25.3252 25.928 26.6449 26.7174C25.1363 26.8063 24.426 24.5306 23.0943 23.898C23.0943 23.9114 23.0824 23.9211 23.0727 23.9211C24.1489 24.8413 24.1056 26.8937 25.2916 27.8833C23.7829 27.7272 23.4394 25.3641 22.2197 24.5313L22.2063 24.5433C23.1167 25.6419 22.7508 27.6391 23.7717 28.8042C22.3071 28.4151 22.3392 26.0296 21.2645 25.0205C21.2525 25.0205 21.2428 25.0325 21.2428 25.0325C21.974 26.2305 21.31 28.1716 22.1301 29.4831C20.7447 28.8819 21.1442 26.5188 20.2338 25.3551L20.2219 25.3656C20.7648 26.6741 19.7887 28.4726 20.3981 29.9036C19.1232 29.082 19.8992 26.8168 19.1673 25.5329H19.1553C19.4892 26.9071 18.2464 28.539 18.6228 30.0358C17.492 29.0365 18.6138 26.9071 18.1022 25.5329H18.0806C18.2031 26.9407 16.7153 28.3493 16.8497 29.9036C15.8945 28.7377 17.327 26.8078 17.0379 25.3656C17.0379 25.3551 17.026 25.3551 17.0163 25.3551C16.9155 26.7742 15.229 27.9266 15.1185 29.4831C14.3529 28.1835 16.0722 26.5188 16.017 25.0325C16.017 25.0325 16.005 25.0325 16.005 25.0205C15.6727 26.4075 13.8197 27.2948 13.4754 28.8042C12.9197 27.4053 14.8728 26.0184 15.0625 24.5537C15.0505 24.5433 15.0393 24.5433 15.0393 24.5321C14.4948 25.854 12.5321 26.4418 11.954 27.884C11.6313 26.4075 13.7749 25.3417 14.1841 23.9219C14.1737 23.9219 14.1737 23.9219 14.1625 23.9114C13.4306 25.1206 11.3998 25.385 10.5999 26.7182C10.5125 25.22 12.7867 24.5097 13.4081 23.178C13.4081 23.1661 13.4081 23.1661 13.3962 23.1661C12.4641 24.2206 10.4334 24.1758 9.4445 25.3641C9.59014 23.8763 11.9316 23.5216 12.7628 22.3228C12.7628 22.3124 12.7509 22.3012 12.7509 22.2892C11.6642 23.1877 9.67902 22.8337 8.51315 23.8532C8.88958 22.4005 11.2422 22.4117 12.2624 21.3691C12.2624 21.3571 12.2535 21.3571 12.2438 21.3474C11.0436 22.036 9.1353 21.393 7.83723 22.2011C8.42502 20.8358 10.7329 21.2152 11.9114 20.3474C11.9114 20.3474 11.8995 20.3272 11.8995 20.3153C10.5999 20.8157 8.8246 19.8716 7.41525 20.4818C8.21291 19.2173 10.4229 19.9388 11.7217 19.2958C11.7217 19.2823 11.7217 19.2607 11.7098 19.2502C10.3549 19.5154 8.75887 18.3398 7.28231 18.7057C8.25847 17.5959 10.3109 18.64 11.6978 18.2068V18.1613C10.3109 18.2068 8.92318 16.7855 7.41525 16.9185C8.55722 15.9864 10.4102 17.3285 11.8427 17.1403C11.8427 17.1186 11.8427 17.0962 11.8547 17.0865C10.4894 16.9088 9.34591 15.2978 7.83723 15.1887C9.10169 14.4553 10.7112 16.0536 12.1534 16.0992C12.1639 16.076 12.1639 16.0536 12.1766 16.0409C10.8546 15.6309 9.97851 13.8907 8.5139 13.5449C9.87769 13.0228 11.2108 14.8332 12.6307 15.1103C12.6307 15.0984 12.6426 15.0767 12.6538 15.0647C11.4327 14.4553 10.8322 12.5919 9.4445 12.0347C10.865 11.724 11.8995 13.7002 13.252 14.223C13.264 14.1879 13.2737 14.1775 13.2857 14.1678C12.1773 13.3686 11.8883 11.4372 10.5999 10.6709C12.0541 10.5932 12.7628 12.7016 14.0079 13.4239C14.0168 13.4022 14.04 13.3903 14.0519 13.3783C13.0967 12.4141 13.0967 10.4827 11.954 9.52744C13.3969 9.66039 13.7749 11.8368 14.8728 12.7569C14.8944 12.7353 14.9183 12.7248 14.94 12.7114C14.152 11.6142 14.4515 9.7052 13.4754 8.5946C14.8728 8.96206 14.9064 11.1594 15.8504 12.2356C15.8721 12.2236 15.8945 12.2236 15.9161 12.2005C15.3164 10.9913 15.9057 9.16222 15.1185 7.90599C16.4389 8.48332 16.1268 10.659 16.8938 11.8696C16.9155 11.8696 16.9379 11.8577 16.961 11.848C16.5599 10.5596 17.4263 8.85153 16.8505 7.4967C18.0582 8.27419 17.4151 10.3722 17.9827 11.6807H18.047C17.8707 10.3371 18.9806 8.78505 18.6243 7.35255C19.702 8.31826 18.7348 10.2833 19.0806 11.6702C19.1008 11.6702 19.1344 11.6702 19.1568 11.6807C19.1904 10.3266 20.5236 8.97327 20.3996 7.4967C21.3115 8.60655 20.0568 10.4043 20.1793 11.8263C20.2009 11.8263 20.2233 11.8368 20.2555 11.8368C20.4892 10.5148 22.0323 9.39599 22.1316 7.90673C22.8538 9.16297 21.3339 10.7381 21.2331 12.1587C21.2548 12.1691 21.2787 12.1691 21.3003 12.1803C21.744 10.9039 23.4416 10.0256 23.7747 8.5946C24.2968 9.93822 22.5319 11.2579 22.2227 12.6568C22.2424 12.6642 22.2606 12.6751 22.2765 12.6889C22.9195 11.491 24.7404 10.9032 25.2946 9.5267C25.5963 10.9256 23.6418 11.969 23.1197 13.3006C23.1317 13.3223 23.1548 13.3342 23.1765 13.3447C23.9756 12.258 25.8734 11.9593 26.6479 10.6709C26.7256 12.137 24.6187 12.8338 23.8965 14.0901C23.9181 14.099 23.9301 14.1222 23.942 14.1327C24.9182 13.1789 26.8496 13.1789 27.7929 12.0347C27.6584 13.4776 25.4514 13.8451 24.5515 14.9766C24.5619 14.9983 24.5731 15.0222 24.5851 15.0334C25.6949 14.2223 27.6032 14.533 28.7235 13.5441C28.3687 14.9535 26.105 14.9766 25.0504 15.964C25.0623 15.964 25.072 15.9856 25.072 16.0192C26.2947 15.3747 28.1372 15.9856 29.4121 15.188C28.8243 16.5301 26.5822 16.1978 25.3827 16.9954C25.3947 17.0305 25.3947 17.041 25.4059 17.0626C26.7054 16.6093 28.4457 17.5175 29.8229 16.9185C29.0334 18.1613 26.86 17.4727 25.55 18.0941C25.5605 18.106 25.5605 18.1277 25.5605 18.1396C26.9146 17.8946 28.5017 19.0613 29.9655 18.7057C28.9879 19.8059 26.937 18.761 25.55 19.1815V19.2368C26.9228 19.1927 28.3097 20.602 29.8214 20.4796Z" fill="#D51F3A"/>
<path d="M29.9634 18.7043C28.4988 19.0605 26.9117 17.8932 25.5583 18.1381C25.5583 18.1262 25.5583 18.1045 25.5479 18.0926C26.8579 17.4712 29.0313 18.1598 29.8207 16.917C28.4435 17.5167 26.7033 16.6078 25.4037 17.0611C25.3918 17.0395 25.3918 17.029 25.3806 16.9939C26.5793 16.1963 28.8214 16.5286 29.4099 15.1865C28.135 15.9842 26.2925 15.3732 25.0699 16.0178C25.0699 15.9842 25.0594 15.9625 25.0482 15.9625C26.1028 14.9751 28.3666 14.9512 28.7213 13.5426C27.601 14.5315 25.6928 14.2208 24.5829 15.0319C24.5691 15.0147 24.5577 14.9956 24.5493 14.9751C25.4493 13.8429 27.6563 13.4754 27.7907 12.0332C26.8467 13.1767 24.9153 13.1767 23.9399 14.1312C23.9279 14.1207 23.9167 14.0976 23.8943 14.0886C24.6165 12.8324 26.7227 12.1355 26.6458 10.6694C25.8713 11.9578 23.9735 12.2565 23.1743 13.3432C23.1527 13.3328 23.1288 13.3216 23.1176 13.2992C23.6396 11.9675 25.5942 10.9241 25.2924 9.52522C24.7383 10.9024 22.9174 11.4902 22.2743 12.6875C22.2584 12.6738 22.2402 12.6629 22.2206 12.6554C22.5298 11.2565 24.2946 9.936 23.7726 8.59312C23.4402 10.0241 21.7418 10.9024 21.2982 12.1789C21.2765 12.1669 21.2526 12.1669 21.231 12.1572C21.3318 10.7366 22.8517 9.16074 22.1294 7.90525C22.0301 9.39451 20.4871 10.5133 20.2533 11.8353C20.2212 11.8353 20.1995 11.8248 20.1771 11.8248C20.0546 10.4028 21.3094 8.60507 20.3975 7.49522C20.5214 8.97179 19.1883 10.3251 19.1547 11.6792C19.133 11.6687 19.0994 11.6687 19.0785 11.6687C18.7327 10.2818 19.6999 8.31678 18.6221 7.35107C18.9784 8.78357 17.8678 10.3356 18.0448 11.6792H17.9806C17.413 10.3707 18.0568 8.27271 16.8483 7.49522C17.4242 8.85005 16.5578 10.5589 16.9589 11.8465C16.9357 11.8569 16.9133 11.8682 16.8916 11.8682C16.1246 10.6575 16.4368 8.48258 15.1163 7.90451C15.9043 9.16074 15.315 10.9898 15.914 12.199C15.8923 12.2222 15.8699 12.2222 15.8483 12.2341C14.9042 11.1579 14.8706 8.96058 13.4732 8.59312C14.4494 9.70297 14.1499 11.6127 14.9378 12.7099C14.9162 12.7233 14.8923 12.733 14.8706 12.7554C13.772 11.8353 13.394 9.65891 11.9518 9.52596C13.0938 10.4812 13.0938 12.4126 14.0498 13.3768C14.0378 13.3888 14.0147 13.4 14.0057 13.4224C12.7614 12.7002 12.0527 10.5925 10.5978 10.6694C11.8861 11.435 12.1744 13.3664 13.2835 14.1663C13.2716 14.1767 13.2618 14.1864 13.2499 14.2215C11.8973 13.6995 10.8636 11.7225 9.44234 12.0332C10.8293 12.5904 11.4305 14.4531 12.6517 15.0633C12.6397 15.0752 12.6285 15.0969 12.6285 15.1088C11.2094 14.8317 9.87553 13.0213 8.51174 13.5434C9.97636 13.8892 10.8532 15.6294 12.1744 16.0394C12.161 16.0529 12.161 16.0745 12.1512 16.0977C10.7083 16.0521 9.09953 14.4538 7.83508 15.1872C9.34376 15.2963 10.4872 16.9073 11.8525 17.085C11.8405 17.0955 11.8405 17.1172 11.8405 17.1388C10.408 17.327 8.55581 15.9849 7.4131 16.917C8.92178 16.7841 10.3087 18.2054 11.6957 18.1598V18.2054C10.3087 18.6385 8.25631 17.5944 7.28015 18.7043C8.75672 18.3383 10.352 19.5139 11.7076 19.2487C11.7196 19.2592 11.7196 19.2808 11.7196 19.2943C10.4215 19.9373 8.2115 19.2159 7.4131 20.4803C8.82244 19.8709 10.5978 20.8142 11.8973 20.3138C11.8992 20.3251 11.9032 20.3361 11.9093 20.3459C10.7307 21.2138 8.42286 20.8343 7.83508 22.1996C9.13314 21.3915 11.0414 22.0346 12.2416 21.3459C12.2521 21.3564 12.2603 21.3564 12.2603 21.3676C11.2408 22.4102 8.88742 22.399 8.511 23.8517C9.67686 22.8322 11.662 23.1862 12.7487 22.2878C12.7487 22.2997 12.7607 22.3109 12.7607 22.3214C11.9294 23.5201 9.58798 23.8749 9.44234 25.3626C10.4312 24.1736 12.4619 24.2192 13.394 23.1646C13.406 23.1646 13.406 23.1646 13.406 23.1765C12.7846 24.5082 10.5104 25.2185 10.5978 26.7167C11.3969 25.3835 13.4276 25.1191 14.1603 23.91C14.1723 23.9204 14.1723 23.9204 14.182 23.9204C13.772 25.3395 11.6292 26.406 11.9518 27.8826C12.5292 26.4396 14.4927 25.8518 15.0372 24.5306C15.0372 24.5426 15.0491 24.5426 15.0603 24.5523C14.8706 26.0169 12.9175 27.4038 13.4732 28.8027C13.8175 27.2933 15.6698 26.406 16.0029 25.0191C16.0029 25.031 16.0148 25.031 16.0148 25.031C16.0701 26.5173 14.35 28.1821 15.1163 29.4816C15.2269 27.9251 16.9133 26.7727 17.0141 25.3537C17.0246 25.3537 17.0358 25.3537 17.0358 25.3641C17.3248 26.8071 15.8923 28.737 16.8476 29.9021C16.7131 28.3486 18.2016 26.9393 18.0784 25.5314H18.1001C18.6124 26.9057 17.4906 29.035 18.6206 30.0343C18.2442 28.5376 19.487 26.9057 19.1532 25.5314H19.1651C19.897 26.8153 19.121 29.0805 20.396 29.9021C19.7865 28.4711 20.7619 26.6726 20.2197 25.3641L20.2316 25.3537C21.1421 26.518 20.7425 28.8811 22.128 29.4816C21.3079 28.1701 21.9719 26.229 21.2407 25.031C21.2407 25.031 21.2511 25.0191 21.2623 25.0191C22.3371 26.0288 22.305 28.4136 23.7696 28.8027C22.7486 27.6368 23.1146 25.6405 22.2041 24.5418L22.2176 24.5299C23.4372 25.3626 23.7815 27.7257 25.2895 27.8818C24.1034 26.893 24.1475 24.8406 23.0705 23.9197C23.081 23.9197 23.0922 23.9092 23.0922 23.8965C24.4238 24.5299 25.1341 26.8056 26.6428 26.716C25.3223 25.9265 25.0452 23.9197 23.848 23.1638C23.8585 23.1519 23.8682 23.1519 23.8682 23.1422C25.2685 23.5754 26.3336 25.6845 27.7877 25.3626C26.3784 24.795 25.7779 22.8636 24.5015 22.299C24.5015 22.287 24.5015 22.2758 24.5135 22.2758C25.9661 22.4887 27.3329 24.3969 28.7191 23.851C27.2313 23.4962 26.356 21.7112 25.0019 21.3333C25.0124 21.3333 25.0124 21.3116 25.0124 21.2996C26.4785 21.2996 28.1328 22.954 29.4077 22.1981C27.8863 22.0973 26.7324 20.4781 25.3582 20.3003C25.3582 20.2899 25.3582 20.2802 25.3686 20.2682C26.8116 20.0464 28.6743 21.4102 29.8192 20.4781C28.3083 20.6006 26.9206 19.1912 25.5464 19.2338V19.1785C26.9348 18.7595 28.9865 19.8037 29.9634 18.7043ZM24.8055 18.7043C24.8055 18.9141 24.792 19.1375 24.7719 19.3473C24.8115 19.3564 24.8522 19.3599 24.8929 19.3578C24.8488 19.3697 24.8055 19.3929 24.7599 19.4033C24.7277 19.7067 24.6721 20.0071 24.5934 20.3018C24.627 20.3138 24.671 20.3138 24.7144 20.325C24.6703 20.3354 24.615 20.3451 24.5702 20.369C24.4952 20.6603 24.3911 20.9433 24.2595 21.2138C24.3051 21.2354 24.3372 21.2563 24.382 21.2675H24.2379C24.1193 21.5491 23.9705 21.8171 23.7942 22.0667C23.8398 22.0883 23.8704 22.1122 23.9152 22.1339C23.8697 22.1339 23.8159 22.1219 23.7711 22.1219C23.5933 22.3759 23.4163 22.6224 23.2064 22.8322C23.2385 22.8643 23.2722 22.8875 23.3058 22.9211C23.2602 22.9092 23.2169 22.8875 23.1728 22.8875C22.9646 23.1055 22.7418 23.3092 22.5059 23.4969C22.5275 23.5425 22.5611 23.5642 22.5933 23.5993C22.5515 23.5748 22.5068 23.5557 22.4603 23.5425C22.2187 23.7323 21.9627 23.9031 21.6948 24.0534C21.7282 24.0844 21.7549 24.122 21.7732 24.1639C21.7291 24.1288 21.6948 24.0982 21.6507 24.0862C21.3856 24.2304 21.1182 24.3753 20.8306 24.4746C20.8412 24.5116 20.8596 24.546 20.8844 24.5754C20.8426 24.5526 20.8056 24.5219 20.7754 24.485C20.4848 24.5956 20.198 24.6748 19.897 24.7517C19.909 24.7838 19.9187 24.8189 19.9307 24.8637C19.909 24.8182 19.8769 24.795 19.8418 24.7629C19.543 24.8182 19.2435 24.8518 18.9328 24.8637C18.9328 24.9063 18.9433 24.9511 18.953 24.9967C18.9328 24.9511 18.8992 24.9063 18.8753 24.8742C18.7879 24.8742 18.6991 24.8861 18.6199 24.8861C18.3981 24.8861 18.1763 24.8645 17.9664 24.8406C17.9559 24.8802 17.9559 24.9219 17.9664 24.9616C17.9447 24.9175 17.9208 24.8854 17.9111 24.8406C17.6004 24.795 17.3002 24.7517 17.0126 24.674C16.9978 24.7126 16.9905 24.7537 16.991 24.795C16.9775 24.7509 16.9678 24.6972 16.9574 24.6523C16.6637 24.5735 16.3773 24.4696 16.1014 24.3417C16.0798 24.3753 16.0693 24.4201 16.0589 24.4626C16.0469 24.4201 16.0469 24.3753 16.0469 24.3185C15.7668 24.1743 15.5025 24.0414 15.2478 23.8749C15.2261 23.91 15.2022 23.9421 15.1925 23.9854C15.1925 23.9413 15.1925 23.8965 15.203 23.851C14.9472 23.6785 14.7027 23.4899 14.471 23.2863C14.4439 23.3156 14.4217 23.3492 14.4053 23.3857C14.4158 23.3304 14.4255 23.2863 14.4374 23.2527C14.2156 23.0309 14.0057 22.821 13.8175 22.576C13.7824 22.6082 13.7503 22.6313 13.7167 22.6754C13.7404 22.6295 13.7589 22.5812 13.772 22.5312C13.5846 22.2918 13.4139 22.0397 13.2611 21.7769C13.2275 21.8 13.1954 21.8337 13.1618 21.8553C13.1834 21.8217 13.2155 21.7649 13.2394 21.7313C13.086 21.4688 12.9524 21.1952 12.8399 20.9128C12.8063 20.9232 12.7726 20.9314 12.7308 20.9665C12.7598 20.9262 12.7931 20.8891 12.8302 20.856C12.7136 20.5702 12.628 20.2727 12.5747 19.9687C12.5353 19.9867 12.4943 20.001 12.4522 20.0113C12.4844 19.9792 12.5299 19.9456 12.5628 19.912C12.503 19.6162 12.466 19.3164 12.4522 19.015C12.4082 19.015 12.3634 19.0239 12.3193 19.0239C12.3634 19.0023 12.4082 18.9814 12.4388 18.9582V18.7043C12.4388 18.4824 12.4522 18.2479 12.4739 18.0508C12.4299 18.0386 12.3835 18.0386 12.3395 18.0508C12.3962 18.0276 12.4388 18.0156 12.4836 17.982C12.5172 17.6833 12.574 17.3726 12.6517 17.085C12.6061 17.0731 12.574 17.0731 12.5292 17.0731C12.5747 17.0611 12.6165 17.0499 12.6621 17.0395C12.7495 16.7392 12.8503 16.4517 12.9728 16.1731C12.9392 16.153 12.9056 16.153 12.8503 16.1291C12.9056 16.1291 12.9511 16.1171 12.996 16.1171C13.1289 15.8415 13.2716 15.5726 13.4396 15.3194C13.406 15.3075 13.3709 15.2858 13.3291 15.2642C13.3828 15.2642 13.4284 15.2746 13.4732 15.2746C13.6398 15.0207 13.828 14.7862 14.0378 14.5427C14.0057 14.5322 13.9721 14.4986 13.9273 14.477C13.9775 14.4847 14.0265 14.499 14.0729 14.5195C14.2828 14.2858 14.5046 14.0774 14.7384 13.8892C14.715 13.853 14.6842 13.8222 14.648 13.7988C14.6946 13.8128 14.7396 13.8313 14.7825 13.8541C15.0183 13.6618 15.2708 13.4909 15.5368 13.3432C15.5166 13.2992 15.4927 13.2775 15.4591 13.2342C15.5047 13.2663 15.548 13.2894 15.5816 13.3104C15.8478 13.1591 16.1258 13.0297 16.4129 12.9235C16.4024 12.8884 16.3808 12.8548 16.3591 12.801C16.3872 12.8422 16.4246 12.8762 16.4682 12.9003C16.7546 12.7966 17.0475 12.7118 17.345 12.6464C17.3345 12.6113 17.3248 12.568 17.3129 12.5224C17.3345 12.568 17.3681 12.6008 17.4018 12.6464C17.7005 12.568 18 12.5456 18.3107 12.5224C18.3002 12.4918 18.3002 12.4462 18.2905 12.4014C18.3107 12.447 18.3443 12.4918 18.3667 12.5224H18.6221C18.8455 12.5224 19.0688 12.5224 19.2771 12.556V12.4231C19.3003 12.4783 19.3108 12.5105 19.3324 12.556C19.6446 12.5911 19.9322 12.6464 20.2324 12.7241C20.2428 12.689 20.2428 12.6464 20.2526 12.6016C20.2645 12.6471 20.2757 12.7009 20.2877 12.7345C20.5752 12.8339 20.8635 12.9347 21.1428 13.0572C21.1628 13.0186 21.1771 12.9773 21.1854 12.9347C21.1854 12.9802 21.1854 13.034 21.1974 13.0788C21.4759 13.2118 21.7418 13.3559 21.9965 13.512C22.0215 13.4825 22.0403 13.4482 22.0518 13.4112C22.0518 13.4567 22.0413 13.512 22.0413 13.5553C22.2953 13.7219 22.5402 13.9116 22.7606 14.111C22.7928 14.0817 22.8199 14.0471 22.8405 14.0087C22.8285 14.0542 22.8054 14.0976 22.8054 14.1543C23.0287 14.3545 23.2385 14.5756 23.4283 14.8198C23.4619 14.7862 23.494 14.7645 23.5276 14.7205C23.5074 14.7742 23.4835 14.8198 23.4723 14.8549C23.662 15.0969 23.8286 15.3538 23.9832 15.6189C24.0183 15.5853 24.0489 15.5734 24.0825 15.5405C24.0609 15.5861 24.0272 15.6294 24.0063 15.6645C24.1609 15.9296 24.2939 16.197 24.3932 16.4958C24.4355 16.4847 24.4738 16.4619 24.5037 16.43C24.4836 16.4741 24.438 16.5062 24.4164 16.5406C24.5157 16.8281 24.6046 17.1164 24.6718 17.4174C24.7149 17.4111 24.7562 17.3956 24.7928 17.3718C24.7595 17.4088 24.7225 17.442 24.6823 17.4712C24.7375 17.7714 24.7726 18.0821 24.7928 18.3913C24.8369 18.3824 24.8705 18.3712 24.9153 18.3607C24.8697 18.3913 24.8369 18.4145 24.7928 18.4369C24.8055 18.5273 24.8055 18.6146 24.8055 18.7043Z" fill="#F6EC32"/>
<path d="M18.0237 15.1432C17.1416 14.7744 16.2001 14.5679 15.2446 14.5338C15.1669 14.6085 15.0915 14.6779 15.0198 14.7511C15.9293 14.7902 16.8247 14.9902 17.6644 15.3419C17.7832 15.2717 17.8997 15.206 18.0237 15.1432ZM21.5758 14.1925C20.7513 13.5756 19.7288 13.2223 18.6219 13.2223C17.5151 13.2223 16.4948 13.5756 15.6621 14.1925C16.7077 14.2403 17.7025 14.4651 18.6219 14.8579C19.5583 14.4597 20.5591 14.2342 21.5758 14.1925ZM17.182 15.6422C16.4046 15.3162 15.5785 15.1219 14.7374 15.0671C14.6792 15.1343 14.6269 15.206 14.5724 15.271C15.3716 15.3382 16.1547 15.5342 16.8914 15.8513C16.9863 15.7863 17.0841 15.7153 17.182 15.6422ZM19.3247 17.0239C19.2243 17.1002 19.1269 17.1804 19.0327 17.2644C19.76 17.9506 20.3429 18.7752 20.7472 19.6898C21.1514 20.6044 21.3689 21.5905 21.3868 22.5903C21.5444 22.4925 21.696 22.3759 21.838 22.2579C21.72 20.2509 20.8173 18.3709 19.3247 17.0239ZM19.5757 15.3419C20.4151 14.991 21.3099 14.791 22.2189 14.7511C22.1472 14.6779 22.0717 14.6085 21.9926 14.5338C21.04 14.5681 20.1014 14.7746 19.2224 15.1432C19.3419 15.206 19.4592 15.2717 19.5757 15.3419Z" fill="#F6EC32"/>
<path d="M20.1585 16.4577C20.042 16.5249 19.924 16.6003 19.8112 16.6825C21.2662 17.9459 22.2162 19.692 22.4865 21.5999C22.6307 21.4333 22.7591 21.2541 22.8816 21.0569C22.5085 19.2645 21.5507 17.6467 20.1585 16.4577ZM16.4989 16.1612C15.8234 15.8568 15.1049 15.659 14.3688 15.5749C13.8475 16.3977 13.5718 17.3523 13.5741 18.3263C13.5741 18.9388 13.6809 19.5198 13.8744 20.0621C14.3709 18.5438 15.2796 17.1933 16.4989 16.1612ZM20.3467 15.852C21.066 15.5428 21.848 15.3411 22.6688 15.2716C22.6165 15.2059 22.5605 15.1342 22.5052 15.0677C21.6388 15.123 20.8188 15.3247 20.0562 15.6428C20.1555 15.7153 20.2489 15.7862 20.3467 15.852ZM16.528 22.7478C16.528 22.824 16.5325 22.8994 16.5325 22.9741C17.1875 23.2722 17.8988 23.4264 18.6185 23.4264C19.3381 23.4264 20.0494 23.2722 20.7045 22.9741C20.709 22.8994 20.709 22.824 20.709 22.7478C20.7107 20.8374 19.9609 19.0029 18.6215 17.6407C17.2779 19.0007 16.5255 20.8361 16.528 22.7478ZM18.6215 15.4233C18.5005 15.492 18.3765 15.5502 18.263 15.6189C18.3795 15.6877 18.5005 15.7489 18.6215 15.8176C18.741 15.7489 18.8605 15.6877 18.9815 15.6189C18.862 15.5502 18.7425 15.492 18.6215 15.4233ZM20.7381 16.1612C21.9595 17.1922 22.8698 18.5429 23.3671 20.0621C23.5651 19.5048 23.6666 18.9178 23.6673 18.3263C23.6685 17.3524 23.3929 16.3982 22.8727 15.5749C22.1352 15.6591 21.4152 15.8569 20.7381 16.1612Z" fill="#F6EC32"/>
<path d="M17.9175 17.0238C16.4242 18.3706 15.5204 20.2506 15.4012 22.2579C15.5439 22.3759 15.697 22.4924 15.8509 22.5903C15.8695 21.5897 16.0881 20.6031 16.494 19.6884C16.8998 18.7737 17.4846 17.9495 18.214 17.2643C18.1131 17.1814 18.0168 17.0993 17.9175 17.0238ZM18.323 16.6735L18.6218 16.9013C18.7181 16.8252 18.8174 16.7527 18.9175 16.6735C18.822 16.5947 18.7233 16.5197 18.6218 16.4487C18.519 16.5194 18.4194 16.5944 18.323 16.6735Z" fill="#F6EC32"/>
<path d="M17.4298 16.6825C17.3163 16.6026 17.1995 16.5276 17.0795 16.4577C15.6895 17.6484 14.7323 19.2655 14.3572 21.057C14.4812 21.2541 14.6111 21.4334 14.7508 21.5999C15.0226 19.6917 15.9739 17.9457 17.4298 16.6825ZM19.1058 16.1321C19.2126 16.1993 19.3059 16.2747 19.403 16.3509C19.5196 16.2747 19.6405 16.1993 19.763 16.1411C19.6667 16.0675 19.5681 15.997 19.4673 15.9297C19.3478 15.9894 19.2283 16.0567 19.1058 16.1321ZM17.4776 16.1411C17.6001 16.1993 17.7196 16.2755 17.8324 16.3509C17.9347 16.2747 18.031 16.1993 18.1296 16.1321C18.0145 16.0572 17.8947 15.9896 17.7711 15.9297C17.6748 15.9969 17.574 16.0649 17.4776 16.1411Z" fill="#F6EC32"/>
</svg>
