<svg width="149" height="23" viewBox="0 0 149 23" fill="none" xmlns="http://www.w3.org/2000/svg">
<path d="M22.9 1.06V22H18.7V8.38L13.09 22H9.91L4.27 8.38V22H0.0700002V1.06H4.84L11.5 16.63L18.16 1.06H22.9ZM42.5024 13.33C42.5024 13.93 42.4624 14.47 42.3824 14.95H30.2324C30.3324 16.15 30.7524 17.09 31.4924 17.77C32.2324 18.45 33.1424 18.79 34.2224 18.79C35.7824 18.79 36.8924 18.12 37.5524 16.78H42.0824C41.6024 18.38 40.6824 19.7 39.3224 20.74C37.9624 21.76 36.2924 22.27 34.3124 22.27C32.7124 22.27 31.2724 21.92 29.9924 21.22C28.7324 20.5 27.7424 19.49 27.0224 18.19C26.3224 16.89 25.9724 15.39 25.9724 13.69C25.9724 11.97 26.3224 10.46 27.0224 9.16C27.7224 7.86 28.7024 6.86 29.9624 6.16C31.2224 5.46 32.6724 5.11 34.3124 5.11C35.8924 5.11 37.3024 5.45 38.5424 6.13C39.8024 6.81 40.7724 7.78 41.4524 9.04C42.1524 10.28 42.5024 11.71 42.5024 13.33ZM38.1524 12.13C38.1324 11.05 37.7424 10.19 36.9824 9.55C36.2224 8.89 35.2924 8.56 34.1924 8.56C33.1524 8.56 32.2724 8.88 31.5524 9.52C30.8524 10.14 30.4224 11.01 30.2624 12.13H38.1524ZM54.778 5.14C56.758 5.14 58.358 5.77 59.578 7.03C60.798 8.27 61.408 10.01 61.408 12.25V22H57.208V12.82C57.208 11.5 56.878 10.49 56.218 9.79C55.558 9.07 54.658 8.71 53.518 8.71C52.358 8.71 51.438 9.07 50.758 9.79C50.098 10.49 49.768 11.5 49.768 12.82V22H45.568V5.38H49.768V7.45C50.328 6.73 51.038 6.17 51.898 5.77C52.778 5.35 53.738 5.14 54.778 5.14ZM70.292 8.83V16.87C70.292 17.43 70.422 17.84 70.682 18.1C70.962 18.34 71.422 18.46 72.062 18.46H74.012V22H71.372C67.832 22 66.062 20.28 66.062 16.84V8.83H64.082V5.38H66.062V1.27H70.292V5.38H74.012V8.83H70.292ZM84.4129 22.27C82.8129 22.27 81.3729 21.92 80.0929 21.22C78.8129 20.5 77.8029 19.49 77.0629 18.19C76.3429 16.89 75.9829 15.39 75.9829 13.69C75.9829 11.99 76.3529 10.49 77.0929 9.19C77.8529 7.89 78.8829 6.89 80.1829 6.19C81.4829 5.47 82.9329 5.11 84.5329 5.11C86.1329 5.11 87.5829 5.47 88.8829 6.19C90.1829 6.89 91.2029 7.89 91.9429 9.19C92.7029 10.49 93.0829 11.99 93.0829 13.69C93.0829 15.39 92.6929 16.89 91.9129 18.19C91.1529 19.49 90.1129 20.5 88.7929 21.22C87.4929 21.92 86.0329 22.27 84.4129 22.27ZM84.4129 18.61C85.1729 18.61 85.8829 18.43 86.5429 18.07C87.2229 17.69 87.7629 17.13 88.1629 16.39C88.5629 15.65 88.7629 14.75 88.7629 13.69C88.7629 12.11 88.3429 10.9 87.5029 10.06C86.6829 9.2 85.6729 8.77 84.4729 8.77C83.2729 8.77 82.2629 9.2 81.4429 10.06C80.6429 10.9 80.2429 12.11 80.2429 13.69C80.2429 15.27 80.6329 16.49 81.4129 17.35C82.2129 18.19 83.2129 18.61 84.4129 18.61ZM100.364 7.96C100.904 7.08 101.604 6.39 102.464 5.89C103.344 5.39 104.344 5.14 105.464 5.14V9.55H104.354C103.034 9.55 102.034 9.86 101.354 10.48C100.694 11.1 100.364 12.18 100.364 13.72V22H96.1638V5.38H100.364V7.96Z" fill="#272343"/>
<path d="M120.113 22L112.493 12.67V22H108.293V1.06H112.493V10.45L120.113 1.06H125.183L116.543 11.44L125.423 22H120.113ZM142.765 7.36C142.285 6.48 141.625 5.81 140.785 5.35C139.945 4.89 138.965 4.66 137.845 4.66C136.605 4.66 135.505 4.94 134.545 5.5C133.585 6.06 132.835 6.86 132.295 7.9C131.755 8.94 131.485 10.14 131.485 11.5C131.485 12.9 131.755 14.12 132.295 15.16C132.855 16.2 133.625 17 134.605 17.56C135.585 18.12 136.725 18.4 138.025 18.4C139.625 18.4 140.935 17.98 141.955 17.14C142.975 16.28 143.645 15.09 143.965 13.57H136.765V10.36H148.105V14.02C147.825 15.48 147.225 16.83 146.305 18.07C145.385 19.31 144.195 20.31 142.735 21.07C141.295 21.81 139.675 22.18 137.875 22.18C135.855 22.18 134.025 21.73 132.385 20.83C130.765 19.91 129.485 18.64 128.545 17.02C127.625 15.4 127.165 13.56 127.165 11.5C127.165 9.44 127.625 7.6 128.545 5.98C129.485 4.34 130.765 3.07 132.385 2.17C134.025 1.25 135.845 0.789999 137.845 0.789999C140.205 0.789999 142.255 1.37 143.995 2.53C145.735 3.67 146.935 5.28 147.595 7.36H142.765Z" fill="#FFD803"/>
</svg>
