<svg width="38" height="38" viewBox="0 0 38 38" fill="none" xmlns="http://www.w3.org/2000/svg">
<path d="M18.5787 37.1587C28.7949 37.1587 37.0787 28.8749 37.0787 18.6587C37.0787 8.4425 28.7949 0.158691 18.5787 0.158691C8.36254 0.158691 0.0787354 8.4425 0.0787354 18.6587C0.0787354 28.8749 8.36254 37.1587 18.5787 37.1587Z" fill="#F0F0F0"/>
<path d="M35.9275 25.0904C37.4625 20.9385 37.4625 16.3747 35.9275 12.2228H1.22993C-0.304998 16.3747 -0.304998 20.9385 1.22993 25.0904L18.5787 26.707L35.9275 25.0904Z" fill="#0052B4"/>
<path d="M18.5788 37.1587C26.5338 37.1587 33.3166 32.1435 35.9276 25.0903H1.22998C3.84383 32.1435 10.6238 37.1587 18.5788 37.1587Z" fill="#D80027"/>
</svg>
