<svg width="26" height="26" viewBox="0 0 26 26" fill="none" xmlns="http://www.w3.org/2000/svg">
<path fill-rule="evenodd" clip-rule="evenodd" d="M17.5139 16.5014H18.633L24.6397 22.5364C25.2205 23.1172 25.2205 24.0664 24.6397 24.6472C24.0589 25.2281 23.1097 25.2281 22.5289 24.6472L16.508 18.6264V17.5072L16.1255 17.1106C14.1422 18.8106 11.4364 19.6889 8.56055 19.2072C4.62221 18.5414 1.47721 15.2547 0.995548 11.2881C0.258881 5.29556 5.30221 0.252228 11.2947 0.988895C15.2614 1.47056 18.548 4.61556 19.2139 8.55389C19.6955 11.4297 18.8172 14.1356 17.1172 16.1189L17.5139 16.5014ZM3.75805 10.1264C3.75805 13.6539 6.60555 16.5014 10.133 16.5014C13.6605 16.5014 16.508 13.6539 16.508 10.1264C16.508 6.5989 13.6605 3.75139 10.133 3.75139C6.60555 3.75139 3.75805 6.5989 3.75805 10.1264Z" fill="#2D334A"/>
</svg>
