<svg width="24" height="25" viewBox="0 0 24 25" fill="none" xmlns="http://www.w3.org/2000/svg">
<path fill-rule="evenodd" clip-rule="evenodd" d="M19.5028 12.5C19.5028 12.84 19.4728 13.16 19.4328 13.48L21.5428 15.13C21.7328 15.28 21.7828 15.55 21.6628 15.77L19.6628 19.23C19.5428 19.45 19.2828 19.54 19.0528 19.45L16.5628 18.45C16.0428 18.84 15.4828 19.18 14.8728 19.43L14.4928 22.08C14.4628 22.32 14.2528 22.5 14.0028 22.5H10.0028C9.75277 22.5 9.54277 22.32 9.51277 22.08L9.13277 19.43C8.52277 19.18 7.96277 18.85 7.44277 18.45L4.95277 19.45C4.73277 19.53 4.46277 19.45 4.34277 19.23L2.34277 15.77C2.22277 15.55 2.27277 15.28 2.46277 15.13L4.57277 13.48C4.53277 13.16 4.50277 12.83 4.50277 12.5C4.50277 12.17 4.53277 11.84 4.57277 11.52L2.46277 9.87C2.27277 9.72 2.21277 9.45 2.34277 9.23L4.34277 5.77C4.46277 5.55 4.72277 5.46 4.95277 5.55L7.44277 6.55C7.96277 6.16 8.52277 5.82 9.13277 5.57L9.51277 2.92C9.54277 2.68 9.75277 2.5 10.0028 2.5H14.0028C14.2528 2.5 14.4628 2.68 14.4928 2.92L14.8728 5.57C15.4828 5.82 16.0428 6.15 16.5628 6.55L19.0528 5.55C19.2728 5.47 19.5428 5.55 19.6628 5.77L21.6628 9.23C21.7828 9.45 21.7328 9.72 21.5428 9.87L19.4328 11.52C19.4728 11.84 19.5028 12.16 19.5028 12.5ZM8.50277 12.5C8.50277 14.43 10.0728 16 12.0028 16C13.9328 16 15.5028 14.43 15.5028 12.5C15.5028 10.57 13.9328 9 12.0028 9C10.0728 9 8.50277 10.57 8.50277 12.5Z" fill="#737373"/>
</svg>
