<svg width="24" height="25" viewBox="0 0 24 25" fill="none" xmlns="http://www.w3.org/2000/svg">
<path fill-rule="evenodd" clip-rule="evenodd" d="M2 12.5C2 6.98 6.47 2.5 11.99 2.5C17.52 2.5 22 6.98 22 12.5C22 18.02 17.52 22.5 11.99 22.5C6.47 22.5 2 18.02 2 12.5ZM12 15.95L15.22 17.89C15.6 18.12 16.06 17.78 15.96 17.35L15.11 13.68L17.94 11.23C18.28 10.94 18.1 10.39 17.66 10.35L13.92 10.03L12.46 6.59C12.29 6.18 11.71 6.18 11.54 6.59L10.08 10.04L6.34 10.36C5.9 10.4 5.72 10.95 6.05 11.24L8.88 13.69L8.03 17.35C7.93 17.78 8.4 18.12 8.78 17.89L12 15.95Z" fill="#737373"/>
</svg>
