<svg width="20" height="23" viewBox="0 0 20 23" fill="none" xmlns="http://www.w3.org/2000/svg">
<path d="M19.2857 1.49999H13.9285L13.5089 0.665156C13.42 0.486682 13.2831 0.336553 13.1135 0.231661C12.9439 0.126768 12.7485 0.071273 12.5491 0.071419H7.44645C7.24751 0.0706511 7.05238 0.125939 6.88342 0.230949C6.71446 0.335958 6.5785 0.486441 6.49111 0.665156L6.07145 1.49999H0.714286C0.319817 1.49999 0 1.81981 0 2.21428V3.64285C0 4.03732 0.319817 4.35713 0.714286 4.35713H19.2857C19.6802 4.35713 20 4.03732 20 3.64285V2.21428C20 1.81981 19.6802 1.49999 19.2857 1.49999ZM2.37499 20.9196C2.44571 22.0488 3.38203 22.9284 4.51337 22.9286H15.4866C16.618 22.9284 17.5543 22.0488 17.625 20.9196L18.5714 5.7857H1.42857L2.37499 20.9196Z" fill="#737373"/>
</svg>
