<svg width="24" height="25" viewBox="0 0 24 25" fill="none" xmlns="http://www.w3.org/2000/svg">
<path d="M16.6454 7.55374L18.0854 8.99374L13.2054 13.8737L9.91539 10.5837C9.72856 10.3965 9.47491 10.2912 9.21039 10.2912C8.94587 10.2912 8.69222 10.3965 8.50539 10.5837L2.50539 16.5937C2.11539 16.9837 2.11539 17.6137 2.50539 18.0037C2.89539 18.3937 3.52539 18.3937 3.91539 18.0037L9.20539 12.7037L12.4954 15.9937C12.8854 16.3837 13.5154 16.3837 13.9054 15.9937L19.4954 10.4137L20.9354 11.8537C21.2454 12.1637 21.7854 11.9437 21.7854 11.5037V7.20374C21.7954 6.92374 21.5754 6.70374 21.2954 6.70374H17.0054C16.5554 6.70374 16.3354 7.24374 16.6454 7.55374Z" fill="#2D334A"/>
</svg>
